<svg width="1280" height="720" viewBox="0 0 1280 720" fill="none" xmlns="http://www.w3.org/2000/svg">
<path opacity="0.3" d="M993.809 -160.715L792.357 -428.207L1034.79 -236.263M993.809 -160.715L730.319 17.8326M993.809 -160.715L1034.79 -236.263M993.809 -160.715L1293.24 -455L1034.79 -236.263M993.809 -160.715L1101.99 -33.3378M993.809 -160.715L367.705 253.48M993.809 -160.715L916.891 -236.263M993.809 -160.715L756.618 231.958M993.809 -160.715L1384.5 73.4333M730.319 17.8326L591.592 505.16M730.319 17.8326L309.5 -87.5143M1034.79 -236.263L1244.48 134.449M1034.79 -236.263H916.891M1244.48 134.449L1067.52 477.708M1244.48 134.449L1101.99 -33.3378M1244.48 134.449L1384.5 73.4333M1244.48 134.449L1324.86 451.28L1384.5 73.4333M1244.48 134.449L1191.36 505.16M1244.48 134.449L591.592 505.16M591.592 505.16L1067.52 477.708M591.592 505.16L756.618 231.958M591.592 505.16L730.319 943.103M591.592 505.16L367.705 253.48M591.592 505.16L-752 624M591.592 505.16L213.5 691M591.592 505.16L345.878 831.5M1067.52 477.708L1101.99 -33.3378M1067.52 477.708L756.618 231.958M1067.52 477.708L1145.93 822.22L1191.36 505.16M1067.52 477.708L1191.36 505.16M1067.52 477.708L1293.24 728.967L1191.36 505.16M1067.52 477.708L730.319 943.103M916.891 -236.263L367.705 253.48M916.891 -236.263L309.5 -87.5143M367.705 253.48C416.09 510.985 512.859 1022.54 512.859 1008.73M367.705 253.48L730.319 943.103M367.705 253.48L309.5 -87.5143M367.705 253.48L-752 624M367.705 253.48L213.5 691M756.618 231.958L309.5 -87.5143M1384.5 73.4333L1191.36 505.16M730.319 943.103C657.832 959.221 512.859 994.911 512.859 1008.73M512.859 1008.73L345.878 831.5M-752 624L128 896M-752 624L345.878 831.5M213.5 691L345.878 831.5M213.5 691L128 896M345.878 831.5L128 896" stroke="#737F92"/>
</svg>
