<svg width="118" height="21" viewBox="0 0 118 21" fill="none" xmlns="http://www.w3.org/2000/svg">
    <path d="M0.680786 17.8502C0.680786 19.4808 1.49383 20.282 3.16127 20.282H8.5081C12.4907 20.282 15.0538 18.1594 15.0538 14.8701C15.0538 12.2555 13.4002 10.4281 10.8646 10.1891V10.0204C12.8765 9.54249 14.0892 7.98216 14.0892 5.81738C14.0892 2.92164 11.9394 1.09423 8.52188 1.09423H3.16127C1.49383 1.09423 0.680786 1.90953 0.680786 3.52609V17.8502ZM4.37396 9.07861V3.9478H7.66749C9.40384 3.9478 10.4236 4.90368 10.4236 6.464C10.4236 8.13679 9.32115 9.07861 6.82688 9.07861H4.37396ZM4.37396 17.4285V11.7213H7.90176C10.0791 11.7213 11.2642 12.8318 11.2642 14.6452C11.2642 16.4726 10.0653 17.4285 7.13005 17.4285H4.37396Z" fill="#28334E"/>
    <path d="M18.3887 20.4507C19.3809 20.4507 19.9321 19.9306 20.318 18.6093L21.3653 15.348H27.9662L29.0273 18.6093C29.3993 19.9166 29.9781 20.4507 30.9841 20.4507C32.0452 20.4507 32.748 19.8041 32.748 18.792C32.748 18.3984 32.6515 17.9345 32.4586 17.3301L27.7181 3.46986C27.1255 1.67056 26.2987 0.9396 24.7415 0.9396C23.1705 0.9396 22.3299 1.68462 21.7374 3.46986L16.9969 17.3301C16.7626 18.047 16.6662 18.4827 16.6662 18.8623C16.6662 19.8182 17.369 20.4507 18.3887 20.4507ZM22.1921 12.5226L24.5899 4.76311H24.7691L27.1531 12.5226H22.1921Z" fill="#28334E"/>
    <path d="M34.4981 16.332C34.4981 17.1333 34.9666 17.9908 35.8348 18.8061C37.0751 20.0009 39.2386 20.6897 41.6777 20.6897C46.1702 20.6897 49.0227 18.3703 49.0227 14.7155C49.0227 11.89 47.3966 10.1891 43.9515 9.38786L41.1265 8.69907C39.3764 8.29142 38.522 7.44799 38.522 6.25315C38.522 4.76311 39.776 3.80723 41.7329 3.80723C43.359 3.80723 44.6268 4.52414 45.4674 5.80332C45.9083 6.36561 46.4044 6.61863 46.9832 6.61863C47.879 6.61863 48.4853 6.01418 48.4853 5.12859C48.4853 4.243 48.0305 3.34335 47.1762 2.55616C45.9359 1.38942 43.924 0.728745 41.6777 0.728745C37.4885 0.728745 34.7599 3.02004 34.7599 6.54835C34.7599 9.33163 36.3722 11.0888 39.6107 11.8478L42.4219 12.5507C44.4614 13.0427 45.3433 13.8439 45.3433 15.1372C45.3433 16.6975 44.0893 17.5972 41.8844 17.5972C40.2446 17.5972 38.839 16.9505 37.7779 15.6995C37.1164 14.9685 36.6065 14.7014 35.9864 14.7014C35.1458 14.7014 34.4981 15.3761 34.4981 16.332Z" fill="#28334E"/>
    <path d="M52.0544 17.8502C52.0544 19.4808 52.8675 20.282 54.5349 20.282H62.817C63.7954 20.282 64.4293 19.6776 64.4293 18.7358C64.4293 17.794 63.7954 17.1754 62.817 17.1754H55.7476V12.0306H62.4725C63.3544 12.0306 63.947 11.4683 63.947 10.5827C63.947 9.69712 63.3544 9.12078 62.4725 9.12078H55.7476V4.20083H62.8583C63.7954 4.20083 64.4293 3.58232 64.4293 2.65455C64.4293 1.72679 63.7954 1.09423 62.8583 1.09423H54.5349C52.8675 1.09423 52.0544 1.90953 52.0544 3.52609V17.8502Z" fill="#28334E"/>
    <path fill-rule="evenodd" clip-rule="evenodd" d="M75.3144 0.689697C73.799 0.689697 72.5706 1.94281 72.5706 3.4886V17.883C72.5706 19.4288 73.799 20.6819 75.3144 20.6819H114.61C116.126 20.6819 117.354 19.4288 117.354 17.883V3.4886C117.354 1.94281 116.126 0.689697 114.61 0.689697H75.3144ZM85.168 15.0263H85.096C84.4479 16.0967 83.3471 16.6738 81.9788 16.6738C79.8699 16.6738 78.4502 15.3096 78.4502 13.2843C78.4502 11.2799 79.8802 10.0312 82.2566 10.0312H85.1165V8.96078C85.1165 7.5441 84.2833 6.82002 82.7298 6.82002C81.8142 6.82002 81.197 7.14533 80.5489 7.90089C80.302 8.19472 80.0654 8.29966 79.7465 8.29966C79.335 8.29966 79.0572 8.01633 79.0572 7.58608C79.0572 6.96693 79.479 6.35828 80.3431 5.85457C80.9707 5.48729 81.7834 5.2879 82.843 5.2879C85.4457 5.2879 86.886 6.58915 86.886 8.95029V15.6035C86.886 16.2331 86.5671 16.6004 86.0218 16.6004C85.4972 16.6004 85.1886 16.2436 85.168 15.6454V15.0263ZM80.2608 13.2423C80.2608 12.1195 81.0221 11.4898 82.3492 11.4898H85.1165V12.7386C85.1165 14.1133 83.9541 15.1627 82.4624 15.1627C81.1456 15.1627 80.2608 14.3862 80.2608 13.2423ZM91.7108 19.5177V14.8689H91.8034C92.2972 16.0232 93.4186 16.6738 94.9103 16.6738C97.4924 16.6738 99.1178 14.8584 99.1178 11.9516V9.99968C99.1178 7.11385 97.513 5.2879 94.972 5.2879C93.4186 5.2879 92.1635 6.02248 91.7211 7.21879H91.6285V6.34779C91.6285 5.71815 91.3199 5.36136 90.785 5.36136C90.25 5.36136 89.9414 5.72865 89.9414 6.36878V19.5177C89.9414 20.1473 90.2706 20.5251 90.8261 20.5251C91.3816 20.5251 91.7108 20.1473 91.7108 19.5177ZM91.7108 10.0941V12.067C91.7108 13.8615 92.8836 15.0997 94.5811 15.0997C96.3299 15.0997 97.3381 13.809 97.3381 11.5738V10.3775C97.3381 8.13176 96.3299 6.86199 94.5296 6.86199C92.791 6.86199 91.7108 8.07929 91.7108 10.0941ZM103.644 14.8689V19.5177C103.644 20.1473 103.315 20.5251 102.76 20.5251C102.204 20.5251 101.875 20.1473 101.875 19.5177V6.36878C101.875 5.72865 102.184 5.36136 102.718 5.36136C103.253 5.36136 103.562 5.71815 103.562 6.34779V7.21879H103.655C104.097 6.02248 105.352 5.2879 106.905 5.2879C109.447 5.2879 111.051 7.11385 111.051 9.99968V11.9516C111.051 14.8584 109.426 16.6738 106.844 16.6738C105.352 16.6738 104.231 16.0232 103.737 14.8689H103.644ZM103.644 12.067V10.0941C103.644 8.07929 104.725 6.86199 106.463 6.86199C108.263 6.86199 109.272 8.13176 109.272 10.3775V11.5738C109.272 13.809 108.263 15.0997 106.515 15.0997C104.817 15.0997 103.644 13.8615 103.644 12.067Z" fill="#2E4C80"/>
</svg>
