<?xml version="1.0" standalone="no"?>
<!DOCTYPE svg PUBLIC "-//W3C//DTD SVG 20010904//EN"
 "http://www.w3.org/TR/2001/REC-SVG-20010904/DTD/svg10.dtd">
<svg version="1.0" xmlns="http://www.w3.org/2000/svg"
 width="1640.000000pt" height="624.000000pt" viewBox="0 0 1640.000000 624.000000"
 preserveAspectRatio="xMidYMid meet">

<g transform="translate(0.000000,624.000000) scale(0.100000,-0.100000)"
fill="#000000" stroke="none">
<path d="M1721 6201 c-90 -175 -245 -564 -334 -836 -185 -563 -284 -1053 -339
-1675 -17 -195 -17 -958 0 -1140 70 -736 200 -1320 433 -1946 57 -154 182
-452 229 -544 l30 -60 170 0 170 0 -59 118 c-311 622 -547 1415 -635 2137 -42
343 -55 581 -51 950 5 452 46 852 131 1275 111 556 322 1177 563 1658 l51 102
-170 0 -170 0 -19 -39z"/>
<path d="M2187 6217 c-18 -28 -124 -247 -179 -372 -287 -647 -476 -1376 -544
-2100 -21 -229 -30 -791 -15 -1025 57 -916 285 -1782 674 -2570 l72 -145 172
-3 171 -2 -108 217 c-341 685 -553 1380 -639 2103 -38 312 -46 451 -45 810 0
491 33 826 124 1280 117 582 352 1238 613 1719 32 57 57 106 57 107 0 2 -76 4
-169 4 -165 0 -169 0 -184 -23z"/>
<path d="M3393 6142 l-61 -97 231 -232 232 -233 185 0 185 0 -330 330 c-261
261 -335 330 -355 330 -21 -1 -36 -18 -87 -98z"/>
<path d="M4175 5910 l330 -330 185 0 185 0 -330 330 -330 330 -185 0 -185 0
330 -330z"/>
<path d="M4885 5910 l330 -330 185 0 185 0 -330 330 -330 330 -185 0 -185 0
330 -330z"/>
<path d="M5605 5910 l330 -330 180 0 180 0 -330 330 -330 330 -180 0 -180 0
330 -330z"/>
<path d="M6315 5910 l330 -330 184 0 185 0 -329 330 -330 330 -185 0 -185 0
330 -330z"/>
<path d="M7025 5910 l330 -330 185 0 185 0 -330 330 -330 330 -185 0 -185 0
330 -330z"/>
<path d="M7735 5910 l330 -330 2627 0 c1446 0 2628 2 2628 4 0 2 -34 68 -76
147 -84 159 -181 325 -256 437 l-49 72 -584 0 c-578 0 -585 0 -585 -20 0 -25
-8 -25 -40 0 -22 17 -41 20 -145 20 -103 0 -124 -3 -150 -20 -38 -25 -48 -25
-40 0 6 20 2 20 -325 20 -327 0 -331 0 -325 -20 8 -25 -2 -25 -40 0 -26 17
-47 20 -150 20 -104 0 -123 -3 -145 -20 -32 -25 -40 -25 -40 0 0 20 -7 20
-325 20 -318 0 -325 0 -325 -20 0 -25 -8 -25 -40 0 -22 17 -41 20 -145 20
-103 0 -124 -3 -150 -20 -38 -25 -48 -25 -40 0 6 20 2 20 -325 20 -327 0 -331
0 -325 -20 8 -25 -2 -25 -40 0 -26 17 -47 20 -150 20 -104 0 -123 -3 -145 -20
-32 -25 -40 -25 -40 0 0 20 -7 20 -457 20 l-458 0 330 -330z"/>
<path d="M13860 6237 c0 -2 23 -46 51 -98 179 -328 382 -830 498 -1234 192
-668 279 -1433 241 -2115 -53 -929 -275 -1768 -684 -2575 -55 -110 -102 -203
-104 -207 -2 -5 73 -8 167 -8 l171 0 76 151 c350 701 578 1515 661 2364 25
259 25 958 0 1205 -93 911 -320 1704 -700 2448 l-37 72 -170 0 c-94 0 -170 -2
-170 -3z"/>
<path d="M14369 6141 c395 -786 641 -1741 691 -2676 61 -1149 -191 -2372 -695
-3375 l-45 -90 170 0 171 0 46 98 c308 662 515 1381 608 2107 65 518 73 1136
19 1655 -81 793 -294 1563 -632 2293 l-41 87 -171 0 -170 0 49 -99z"/>
<path d="M3141 5704 c-34 -64 -61 -118 -61 -120 0 -2 84 -4 187 -4 l188 0
-120 120 c-66 66 -123 120 -127 120 -3 0 -34 -52 -67 -116z"/>
<path d="M5145 4709 c-139 -7 -177 -11 -297 -36 -95 -19 -105 -38 -57 -106 42
-60 47 -109 19 -193 -39 -119 -142 -356 -312 -724 -91 -195 -191 -418 -223
-494 -66 -159 -68 -149 34 -187 70 -26 162 -23 191 7 10 10 39 84 64 164 50
161 111 329 124 342 18 18 126 28 263 26 l144 -3 6 -175 c6 -185 15 -228 64
-301 50 -76 167 -103 320 -74 105 19 216 60 302 111 l62 37 -25 65 c-13 36
-26 67 -28 69 -2 2 -34 -4 -70 -13 -66 -17 -67 -16 -90 5 -29 27 -53 111 -60
206 -3 39 -8 255 -11 480 -7 516 -22 671 -71 766 -14 27 -16 28 -116 31 -57 2
-161 0 -233 -3z m-40 -281 c11 -32 18 -514 10 -625 l-7 -93 -168 0 -168 0 117
293 c65 160 130 327 146 370 29 81 55 101 70 55z"/>
<path d="M6415 4709 c-145 -6 -276 -22 -322 -40 -33 -12 -28 -45 16 -112 62
-94 67 -125 42 -272 -12 -69 -61 -309 -111 -533 -89 -408 -132 -627 -144 -734
l-6 -58 109 0 c126 0 244 14 316 38 l50 17 12 110 c19 171 77 458 172 855 21
91 47 200 56 243 l17 77 93 46 c146 73 231 63 256 -28 16 -60 1 -145 -92 -518
-97 -395 -112 -472 -112 -591 -1 -84 2 -102 26 -150 33 -67 76 -97 160 -112
113 -19 267 22 425 113 39 23 72 43 72 45 0 9 -43 121 -49 127 -3 4 -34 0 -69
-9 -84 -21 -95 -12 -94 84 1 79 25 195 117 562 132 526 136 651 26 761 -59 59
-122 82 -223 81 -129 -1 -277 -56 -430 -159 l-76 -51 -7 52 c-8 64 -33 157
-43 158 -4 0 -14 1 -22 3 -8 1 -82 -1 -165 -5z"/>
<path d="M8220 4709 c-188 -16 -376 -129 -439 -263 -72 -155 -18 -336 202
-671 114 -173 189 -311 212 -389 22 -72 19 -154 -5 -194 -32 -52 -120 -80
-120 -38 0 28 -53 172 -87 239 -39 74 -82 117 -117 117 -70 0 -218 -120 -296
-242 -53 -81 -52 -106 5 -167 212 -226 705 -205 954 40 100 98 139 230 111
371 -25 128 -121 336 -203 441 -25 32 -28 40 -16 51 8 7 51 43 96 80 206 171
259 356 141 491 -48 55 -96 87 -163 109 -64 22 -182 33 -275 25z m256 -208
c43 -26 61 -79 44 -134 -13 -45 -103 -146 -172 -193 l-40 -28 -25 29 c-13 17
-40 62 -59 101 -57 115 -46 181 39 223 57 28 169 29 213 2z"/>
<path d="M9679 4709 c-381 -31 -706 -367 -795 -823 -22 -113 -29 -305 -15
-396 56 -358 309 -568 657 -546 413 27 694 294 826 785 30 110 32 126 32 301
1 178 0 188 -27 265 -35 99 -93 198 -147 252 -123 124 -308 180 -531 162z
m129 -206 c38 -28 78 -106 94 -183 18 -89 15 -372 -6 -530 -45 -342 -130 -556
-250 -634 -32 -21 -52 -26 -102 -26 -101 0 -146 42 -181 170 -28 100 -25 501
5 660 56 305 144 488 264 549 53 27 135 25 176 -6z"/>
<path d="M11030 4703 c-198 -19 -402 -55 -427 -75 -25 -20 -12 -44 60 -118 96
-99 155 -219 279 -568 l50 -142 -23 -29 c-13 -16 -84 -96 -158 -177 -157 -175
-308 -362 -380 -467 l-51 -76 43 -29 c113 -78 195 -97 239 -55 13 12 61 84
106 160 79 131 254 390 286 421 12 13 22 -10 76 -179 65 -204 94 -270 142
-331 35 -44 114 -85 184 -94 112 -14 304 43 438 130 l64 41 -25 60 c-14 33
-27 62 -28 64 -2 1 -32 -4 -67 -13 -36 -9 -71 -16 -80 -16 -41 0 -95 88 -167
267 -54 138 -153 423 -149 433 2 5 53 64 114 132 132 147 305 350 402 472 l71
89 -42 33 c-66 53 -124 77 -174 71 -24 -2 -50 -11 -59 -18 -10 -8 -62 -81
-117 -164 -98 -147 -208 -302 -253 -358 l-23 -27 -61 192 c-85 268 -89 277
-140 330 -47 49 -48 49 -130 41z"/>
<path d="M4750 2167 l-55 -12 -2 -55 c-3 -59 -21 -204 -29 -232 -5 -15 -9 -15
-46 -2 -109 38 -198 -12 -244 -137 -22 -63 -22 -194 1 -243 34 -72 111 -84
191 -30 26 18 40 22 42 14 3 -7 13 -21 24 -32 28 -28 97 -20 152 19 42 30 55
60 24 56 -10 -2 -26 -4 -35 -5 -16 -3 -18 5 -15 57 1 33 19 150 39 260 40 220
48 348 23 351 -8 1 -40 -3 -70 -9z m-111 -356 c11 -7 9 -32 -10 -146 -22 -128
-26 -138 -51 -151 -34 -18 -43 -18 -62 2 -35 34 -9 235 36 283 19 22 62 27 87
12z"/>
<path d="M11320 2167 l-55 -12 -7 -85 c-3 -47 -31 -198 -62 -336 -31 -138 -56
-264 -56 -279 l0 -27 65 4 c35 2 67 6 70 10 3 3 12 43 19 90 8 47 22 120 31
161 16 72 19 77 51 87 61 20 66 1 34 -135 -47 -201 -8 -264 125 -201 57 26 77
46 66 64 -6 10 -15 10 -35 2 -41 -15 -42 6 -12 152 17 78 25 141 21 158 -14
62 -79 77 -160 35 -27 -13 -51 -23 -52 -21 -2 2 8 61 22 131 28 138 30 209 5
212 -8 1 -40 -4 -70 -10z"/>
<path d="M3058 2143 c-33 -5 -34 -8 -8 -58 17 -32 20 -51 14 -90 -11 -89 -43
-248 -66 -323 -20 -70 -24 -75 -65 -94 -63 -30 -68 -46 -33 -102 18 -28 37
-46 48 -46 11 0 40 18 65 41 l46 40 100 -52 c97 -50 102 -52 140 -41 47 15 68
44 83 118 8 42 8 58 -1 67 -10 9 -16 7 -31 -11 -10 -12 -20 -28 -23 -35 -7
-21 -217 -1 -232 23 -2 4 27 97 65 208 68 200 88 289 76 337 -6 24 -9 25 -79
24 -39 -1 -84 -4 -99 -6z"/>
<path d="M6658 2137 c-38 -5 -68 -14 -68 -19 0 -6 12 -24 26 -41 24 -28 26
-37 20 -88 -3 -31 -28 -163 -56 -293 -27 -129 -50 -243 -50 -251 0 -13 17 -15
103 -16 56 -1 138 -2 182 -3 66 -1 88 3 128 23 153 75 155 293 4 344 l-42 14
50 25 c59 30 79 50 100 101 34 83 10 153 -68 192 -46 22 -62 25 -156 24 -59
-1 -136 -6 -173 -12z m236 -63 c9 -8 16 -27 17 -42 5 -121 -28 -175 -116 -189
-33 -5 -37 -4 -32 13 3 10 13 57 22 104 26 140 21 130 59 130 19 0 42 -7 50
-16z m-23 -323 c26 -27 29 -36 29 -96 0 -111 -44 -165 -134 -165 -83 0 -82 -1
-51 146 15 71 29 132 32 137 2 4 25 7 49 7 37 0 51 -6 75 -29z"/>
<path d="M10001 2124 c-125 -63 -143 -215 -34 -284 l44 -28 -29 -7 c-52 -11
-120 -61 -142 -106 -26 -50 -29 -132 -7 -175 20 -40 44 -59 102 -85 92 -41
213 -12 310 73 46 40 46 41 27 60 -18 19 -19 18 -71 -16 -59 -40 -108 -53
-153 -40 -64 19 -90 102 -55 171 20 37 77 74 126 82 30 5 37 11 39 33 3 22 -2
28 -32 38 -60 19 -79 53 -74 132 3 54 8 72 28 93 23 24 52 31 85 19 13 -5 15
-16 9 -64 l-6 -59 53 -15 c69 -21 74 -20 87 9 20 44 15 100 -13 133 -54 65
-200 82 -294 36z"/>
<path d="M4966 2099 c-19 -15 -26 -30 -26 -55 0 -70 71 -97 129 -48 36 30 42
81 13 107 -26 23 -84 21 -116 -4z"/>
<path d="M8256 2099 c-19 -15 -26 -30 -26 -55 0 -70 71 -97 129 -48 36 30 42
81 13 107 -26 23 -84 21 -116 -4z"/>
<path d="M7644 2019 c-30 -9 -32 -11 -38 -79 l-7 -70 -35 0 c-31 0 -34 -2 -34
-30 0 -27 3 -30 30 -30 17 0 30 -2 30 -4 0 -3 -11 -55 -24 -118 -35 -164 -37
-217 -6 -248 28 -28 85 -26 147 5 60 30 75 45 63 64 -7 12 -13 12 -40 1 -51
-21 -56 -6 -37 107 9 54 21 122 28 152 l11 53 44 -6 c41 -5 45 -4 54 20 6 14
10 27 10 30 0 2 -23 4 -50 4 l-50 0 7 43 c4 23 8 58 8 77 0 34 -1 35 -40 37
-22 1 -54 -3 -71 -8z"/>
<path d="M7964 2019 c-30 -9 -32 -11 -38 -79 l-7 -70 -35 0 c-31 0 -34 -2 -34
-30 0 -27 3 -30 30 -30 17 0 30 -2 30 -4 0 -3 -11 -55 -24 -118 -35 -164 -37
-217 -6 -248 28 -28 85 -26 147 5 60 30 75 45 63 64 -7 12 -13 12 -40 1 -51
-21 -56 -6 -37 107 9 54 21 122 28 152 l11 53 44 -6 c41 -5 45 -4 54 20 6 14
10 27 10 30 0 2 -23 4 -50 4 l-50 0 7 43 c4 23 8 58 8 77 0 34 -1 35 -40 37
-22 1 -54 -3 -71 -8z"/>
<path d="M3583 1863 c-59 -21 -126 -88 -146 -148 -35 -102 -12 -231 47 -270
59 -39 154 -29 239 25 48 30 52 36 39 57 -6 9 -20 6 -57 -12 -26 -14 -56 -25
-66 -25 -25 0 -67 40 -74 71 -6 24 -3 26 57 43 81 22 144 59 163 96 23 45 20
112 -7 138 -47 44 -118 53 -195 25z m88 -54 c23 -44 -10 -128 -62 -155 -54
-27 -59 -16 -36 73 25 93 71 132 98 82z"/>
<path d="M3948 1870 c-42 -3 -79 -8 -83 -11 -3 -4 4 -23 16 -43 l21 -37 -31
-159 c-17 -88 -31 -167 -31 -175 0 -12 13 -15 56 -15 73 0 94 12 94 54 0 30
26 172 46 251 7 28 65 62 84 50 15 -10 12 -67 -10 -157 -36 -149 -21 -208 51
-208 37 0 149 57 149 76 0 20 -18 26 -41 14 -42 -23 -44 1 -15 141 30 144 29
189 -7 214 -32 22 -67 18 -133 -15 -69 -35 -64 -33 -64 -17 0 34 -23 42 -102
37z"/>
<path d="M5258 1870 c-42 -3 -79 -8 -83 -11 -3 -4 4 -23 16 -43 l21 -37 -31
-159 c-17 -88 -31 -167 -31 -175 0 -12 13 -15 56 -15 73 0 94 12 94 54 0 30
26 172 46 251 7 28 65 62 84 50 15 -10 12 -67 -10 -157 -36 -149 -21 -208 51
-208 37 0 149 57 149 76 0 20 -18 26 -41 14 -42 -23 -44 1 -15 141 30 144 29
189 -7 214 -32 22 -67 18 -133 -15 -69 -35 -64 -33 -64 -17 0 34 -23 42 -102
37z"/>
<path d="M5795 1867 c-44 -20 -90 -78 -110 -136 -20 -62 -23 -172 -6 -223 25
-76 100 -99 182 -57 l41 20 -7 -33 c-10 -43 -13 -48 -33 -48 -31 0 -118 -47
-140 -75 -28 -35 -28 -56 1 -82 31 -28 70 -36 120 -22 140 37 218 219 243 567
l7 94 -79 -3 c-43 -1 -104 1 -134 5 -38 4 -64 2 -85 -7z m151 -61 c9 -25 -33
-278 -48 -287 -24 -16 -67 -10 -78 10 -26 50 1 225 42 268 24 26 76 31 84 9z
m-76 -467 c0 -19 -67 -79 -88 -79 -52 0 -32 42 33 71 47 22 55 23 55 8z"/>
<path d="M7273 1863 c-59 -21 -126 -88 -146 -148 -35 -102 -12 -231 47 -270
59 -39 154 -29 239 25 48 30 52 36 39 57 -6 9 -20 6 -57 -12 -26 -14 -56 -25
-66 -25 -25 0 -67 40 -74 71 -6 24 -3 26 57 43 81 22 144 59 163 96 23 45 20
112 -7 138 -47 44 -118 53 -195 25z m88 -54 c23 -44 -10 -128 -62 -155 -54
-27 -59 -16 -36 73 25 93 71 132 98 82z"/>
<path d="M8548 1870 c-42 -3 -79 -8 -83 -11 -3 -4 4 -23 16 -43 l21 -37 -31
-159 c-17 -88 -31 -167 -31 -175 0 -12 13 -15 56 -15 73 0 94 12 94 54 0 30
26 172 46 251 7 28 65 62 84 50 15 -10 12 -67 -10 -157 -36 -149 -21 -208 51
-208 37 0 149 57 149 76 0 20 -18 26 -41 14 -42 -23 -44 1 -15 141 30 144 29
189 -7 214 -32 22 -67 18 -133 -15 -69 -35 -64 -33 -64 -17 0 34 -23 42 -102
37z"/>
<path d="M9085 1867 c-44 -20 -90 -78 -110 -136 -20 -62 -23 -172 -6 -223 25
-76 100 -99 182 -57 l41 20 -7 -33 c-10 -43 -13 -48 -33 -48 -31 0 -118 -47
-140 -75 -28 -35 -28 -56 1 -82 31 -28 70 -36 120 -22 140 37 218 219 243 567
l7 94 -79 -3 c-43 -1 -104 1 -134 5 -38 4 -64 2 -85 -7z m151 -61 c9 -25 -33
-278 -48 -287 -24 -16 -67 -10 -78 10 -26 50 1 225 42 268 24 26 76 31 84 9z
m-76 -467 c0 -19 -67 -79 -88 -79 -52 0 -32 42 33 71 47 22 55 23 55 8z"/>
<path d="M10861 1854 c-90 -45 -137 -142 -129 -266 6 -79 30 -126 78 -151 49
-26 133 -18 199 19 60 32 73 46 65 67 -5 13 -13 12 -59 -9 -99 -46 -141 -10
-138 115 2 118 39 201 90 201 24 0 25 -2 18 -50 l-7 -50 36 -15 c69 -29 96
-13 96 60 0 93 -135 136 -249 79z"/>
<path d="M11784 1866 c-44 -19 -92 -82 -110 -145 -23 -75 -22 -186 1 -234 32
-69 116 -86 184 -38 l30 21 25 -25 c31 -31 66 -32 131 -1 59 27 77 46 65 66
-7 11 -14 12 -35 2 -14 -7 -28 -12 -30 -12 -18 0 10 224 41 326 5 18 0 24 -28
32 -70 21 -88 23 -94 8 -5 -13 -11 -13 -46 0 -50 17 -93 17 -134 0z m150 -55
c4 -5 -1 -39 -9 -76 -9 -36 -19 -98 -23 -138 -6 -66 -9 -73 -36 -86 -28 -13
-31 -12 -49 10 -17 21 -19 35 -14 105 5 80 33 169 60 186 17 11 65 10 71 -1z"/>
<path d="M12258 1870 c-42 -3 -79 -8 -83 -11 -3 -4 4 -23 16 -43 l21 -37 -31
-159 c-17 -88 -31 -167 -31 -175 0 -12 13 -15 56 -15 73 0 94 12 94 54 0 30
26 172 46 251 7 28 65 62 84 50 15 -10 12 -67 -10 -157 -36 -149 -21 -208 51
-208 37 0 149 57 149 76 0 20 -18 26 -41 14 -42 -23 -44 1 -15 141 30 144 29
189 -7 214 -32 22 -67 18 -133 -15 -69 -35 -64 -33 -64 -17 0 34 -23 42 -102
37z"/>
<path d="M12795 1867 c-44 -20 -90 -78 -110 -136 -20 -62 -23 -172 -6 -223 25
-76 100 -99 182 -57 l41 20 -7 -33 c-10 -43 -13 -48 -33 -48 -31 0 -118 -47
-140 -75 -28 -35 -28 -56 1 -82 31 -28 70 -36 120 -22 140 37 218 219 243 567
l7 94 -79 -3 c-43 -1 -104 1 -134 5 -38 4 -64 2 -85 -7z m151 -61 c9 -25 -33
-278 -48 -287 -24 -16 -67 -10 -78 10 -26 50 1 225 42 268 24 26 76 31 84 9z
m-76 -467 c0 -19 -67 -79 -88 -79 -52 0 -32 42 33 71 47 22 55 23 55 8z"/>
<path d="M13293 1863 c-59 -21 -126 -88 -146 -148 -35 -102 -12 -231 47 -270
59 -39 154 -29 239 25 48 30 52 36 39 57 -6 9 -20 6 -57 -12 -26 -14 -56 -25
-66 -25 -25 0 -67 40 -74 71 -6 24 -3 26 57 43 81 22 144 59 163 96 23 45 20
112 -7 138 -47 44 -118 53 -195 25z m88 -54 c23 -44 -10 -128 -62 -155 -54
-27 -59 -16 -36 73 25 93 71 132 98 82z"/>
<path d="M4898 1863 c-16 -4 -16 -7 2 -41 26 -47 25 -66 -5 -187 -31 -123 -32
-168 -5 -195 27 -27 73 -25 135 4 59 27 77 46 65 66 -7 11 -13 12 -36 2 -14
-7 -29 -10 -32 -7 -10 10 -2 72 23 178 14 59 25 124 23 145 l-3 37 -75 2 c-41
0 -83 -1 -92 -4z"/>
<path d="M8188 1863 c-16 -4 -16 -7 2 -41 26 -47 25 -66 -5 -187 -31 -123 -32
-168 -5 -195 27 -27 73 -25 135 4 59 27 77 46 65 66 -7 11 -13 12 -36 2 -14
-7 -29 -10 -32 -7 -10 10 -2 72 23 178 14 59 25 124 23 145 l-3 37 -75 2 c-41
0 -83 -1 -92 -4z"/>
<path d="M10382 1860 c-46 -11 -47 -14 -18 -53 14 -19 37 -65 51 -103 l25 -69
-80 -84 c-44 -46 -80 -90 -80 -97 0 -6 14 -17 32 -23 27 -9 33 -9 41 5 15 27
92 117 103 121 5 2 18 -21 28 -52 27 -86 77 -106 162 -64 50 24 68 43 60 64
-4 12 -10 13 -32 3 -23 -11 -28 -10 -44 10 -10 12 -28 52 -40 88 l-22 65 49
56 c26 31 58 70 71 87 21 29 22 32 5 43 -26 19 -49 16 -60 -9 -6 -13 -27 -43
-47 -66 l-36 -44 -10 27 c-5 14 -10 31 -10 36 0 6 -7 23 -15 39 -14 26 -21 30
-58 29 -23 -1 -57 -5 -75 -9z"/>
<path d="M6160 1715 l0 -46 138 3 137 3 3 43 3 42 -140 0 -141 0 0 -45z"/>
<path d="M9450 1715 l0 -46 138 3 137 3 3 43 3 42 -140 0 -141 0 0 -45z"/>
<path d="M3080 655 c0 -23 242 -447 332 -583 l49 -72 668 0 668 0 10 22 10 23
12 -23 12 -22 489 0 489 0 12 22 12 23 10 -23 10 -22 492 0 492 0 10 22 10 23
12 -23 12 -22 489 0 489 0 12 22 12 23 10 -23 10 -22 561 0 561 0 -330 330
-330 330 -2647 0 c-1457 0 -2648 -2 -2648 -5z"/>
<path d="M9045 330 l330 -330 185 0 185 0 -330 330 -330 330 -185 0 -185 0
330 -330z"/>
<path d="M9755 330 l330 -330 185 0 185 0 -330 330 -330 330 -185 0 -185 0
330 -330z"/>
<path d="M10465 330 l330 -330 185 0 185 0 -330 330 -330 330 -185 0 -185 0
330 -330z"/>
<path d="M11185 330 l330 -330 180 0 180 0 -330 330 -330 330 -180 0 -180 0
330 -330z"/>
<path d="M11895 330 l330 -330 185 0 185 0 -330 330 -330 330 -185 0 -185 0
330 -330z"/>
<path d="M12604 331 c182 -182 333 -328 337 -325 4 2 38 52 75 110 l67 106
-219 219 -219 219 -185 0 -185 0 329 -329z"/>
<path d="M13095 550 c60 -60 111 -110 112 -110 3 0 113 207 113 214 0 3 -75 6
-167 6 l-168 0 110 -110z"/>
</g>
</svg>
