<svg width="121" height="29" viewBox="0 0 121 29" fill="none" xmlns="http://www.w3.org/2000/svg">
<path d="M0.886909 22V0.671875H7.18574C9.47089 0.671875 11.2043 1.14551 12.3859 2.09277C13.5676 3.03027 14.1584 4.41699 14.1584 6.25293C14.1584 7.35645 13.8557 8.31836 13.2502 9.13867C12.6545 9.94922 11.8342 10.5303 10.7893 10.8818C12.0295 11.1553 13.0256 11.7656 13.7775 12.7129C14.5393 13.6602 14.9201 14.7539 14.9201 15.9941C14.9201 17.8789 14.3098 19.3535 13.0891 20.418C11.8781 21.4727 10.1887 22 8.0207 22H0.886909ZM2.68867 11.7461V20.4766H8.09394C9.63691 20.4766 10.8576 20.0859 11.7561 19.3047C12.6643 18.5137 13.1184 17.4199 13.1184 16.0234C13.1184 14.7051 12.6838 13.665 11.8146 12.9033C10.9553 12.1318 9.76386 11.7461 8.24043 11.7461H2.68867ZM2.68867 10.2373H7.61054C9.11445 10.208 10.2766 9.85645 11.0969 9.18262C11.9269 8.49902 12.342 7.50781 12.342 6.20898C12.342 4.8418 11.9123 3.83594 11.0529 3.19141C10.2033 2.53711 8.91425 2.20996 7.18574 2.20996H2.68867V10.2373ZM30.0801 22C29.9043 21.502 29.792 20.7646 29.7432 19.7881C29.1279 20.5889 28.3418 21.209 27.3848 21.6484C26.4375 22.0781 25.4316 22.293 24.3672 22.293C22.8437 22.293 21.6084 21.8682 20.6611 21.0186C19.7236 20.1689 19.2549 19.0947 19.2549 17.7959C19.2549 16.2529 19.8945 15.0322 21.1738 14.1338C22.4629 13.2354 24.2549 12.7861 26.5498 12.7861H29.7285V10.9844C29.7285 9.85156 29.3769 8.96289 28.6738 8.31836C27.9805 7.66406 26.9648 7.33691 25.6269 7.33691C24.4062 7.33691 23.3955 7.64941 22.5947 8.27441C21.7939 8.89941 21.3936 9.65137 21.3936 10.5303L19.6357 10.5156C19.6357 9.25586 20.2217 8.16699 21.3936 7.24902C22.5654 6.32129 24.0059 5.85742 25.7148 5.85742C27.4824 5.85742 28.874 6.30176 29.8896 7.19043C30.915 8.06934 31.4424 9.2998 31.4717 10.8818V18.3818C31.4717 19.915 31.6328 21.0625 31.9551 21.8242V22H30.0801ZM24.5723 20.7402C25.7441 20.7402 26.7891 20.457 27.707 19.8906C28.6348 19.3242 29.3086 18.5674 29.7285 17.6201V14.1338H26.5937C24.8457 14.1533 23.4785 14.4756 22.4922 15.1006C21.5059 15.7158 21.0127 16.5654 21.0127 17.6494C21.0127 18.5381 21.3398 19.2754 21.9941 19.8613C22.6582 20.4473 23.5176 20.7402 24.5723 20.7402ZM46.8514 17.9717C46.8514 17.1025 46.4998 16.4043 45.7967 15.877C45.1033 15.3496 44.0535 14.9395 42.6473 14.6465C41.241 14.3438 40.1473 14.002 39.366 13.6211C38.5945 13.2305 38.0184 12.7568 37.6375 12.2002C37.2664 11.6436 37.0809 10.9697 37.0809 10.1787C37.0809 8.92871 37.6033 7.89844 38.6482 7.08789C39.6932 6.26758 41.0311 5.85742 42.6619 5.85742C44.4295 5.85742 45.8455 6.29688 46.91 7.17578C47.9842 8.04492 48.5213 9.18262 48.5213 10.5889H46.7635C46.7635 9.66113 46.3728 8.88965 45.5916 8.27441C44.8201 7.65918 43.8436 7.35156 42.6619 7.35156C41.5096 7.35156 40.5818 7.61035 39.8787 8.12793C39.1853 8.63574 38.8387 9.2998 38.8387 10.1201C38.8387 10.9111 39.1268 11.5264 39.7029 11.9658C40.2889 12.3955 41.3484 12.791 42.8816 13.1523C44.4246 13.5137 45.577 13.8994 46.3387 14.3096C47.1102 14.7197 47.6814 15.2129 48.0525 15.7891C48.4236 16.3652 48.6092 17.0635 48.6092 17.8838C48.6092 19.2217 48.0672 20.291 46.9832 21.0918C45.909 21.8926 44.5027 22.293 42.7645 22.293C40.9187 22.293 39.4197 21.8486 38.2674 20.96C37.1248 20.0615 36.5535 18.9287 36.5535 17.5615H38.3113C38.3797 18.5869 38.8094 19.3877 39.6004 19.9639C40.4012 20.5303 41.4559 20.8135 42.7645 20.8135C43.9852 20.8135 44.9715 20.5449 45.7234 20.0078C46.4754 19.4707 46.8514 18.792 46.8514 17.9717ZM59.902 22.293C58.5543 22.293 57.3336 21.9609 56.2398 21.2969C55.1559 20.6328 54.3111 19.71 53.7057 18.5283C53.1002 17.3369 52.7975 16.0039 52.7975 14.5293V13.8994C52.7975 12.376 53.0904 11.0039 53.6764 9.7832C54.2721 8.5625 55.0973 7.60547 56.152 6.91211C57.2066 6.20898 58.3492 5.85742 59.5797 5.85742C61.5035 5.85742 63.027 6.5166 64.15 7.83496C65.2828 9.14355 65.8492 10.9355 65.8492 13.2109V14.1924H54.5406V14.5293C54.5406 16.3262 55.0533 17.8252 56.0787 19.0264C57.1139 20.2178 58.4127 20.8135 59.9752 20.8135C60.9127 20.8135 61.7379 20.6426 62.4508 20.3008C63.1734 19.959 63.8277 19.4121 64.4137 18.6602L65.5123 19.4951C64.2232 21.3604 62.3531 22.293 59.902 22.293ZM59.5797 7.35156C58.2613 7.35156 57.148 7.83496 56.2398 8.80176C55.3414 9.76855 54.7945 11.0674 54.5992 12.6982H64.1061V12.5078C64.0572 10.9844 63.6227 9.74414 62.8023 8.78711C61.982 7.83008 60.9078 7.35156 59.5797 7.35156ZM82.3861 16.0234H72.7035L70.5062 22H68.6166L76.6879 0.671875H78.4018L86.473 22H84.598L82.3861 16.0234ZM73.2602 14.4854H81.8148L77.5375 2.86914L73.2602 14.4854ZM103.156 14.2363C103.156 16.707 102.61 18.6699 101.516 20.125C100.422 21.5703 98.9572 22.293 97.1213 22.293C94.9533 22.293 93.2932 21.5312 92.1408 20.0078V28.0938H90.3977V6.15039H92.0236L92.1115 8.3916C93.2541 6.70215 94.9094 5.85742 97.0773 5.85742C98.9719 5.85742 100.456 6.5752 101.53 8.01074C102.614 9.44629 103.156 11.4385 103.156 13.9873V14.2363ZM101.399 13.9287C101.399 11.9072 100.984 10.3105 100.154 9.13867C99.3234 7.9668 98.1662 7.38086 96.6818 7.38086C95.6076 7.38086 94.6848 7.63965 93.9133 8.15723C93.1418 8.6748 92.551 9.42676 92.1408 10.4131V18.0156C92.5607 18.9238 93.1613 19.6172 93.9426 20.0957C94.7238 20.5742 95.6467 20.8135 96.7111 20.8135C98.1857 20.8135 99.3332 20.2275 100.154 19.0557C100.984 17.874 101.399 16.165 101.399 13.9287ZM120.997 14.2363C120.997 16.707 120.45 18.6699 119.356 20.125C118.263 21.5703 116.798 22.293 114.962 22.293C112.794 22.293 111.134 21.5312 109.981 20.0078V28.0938H108.238V6.15039H109.864L109.952 8.3916C111.095 6.70215 112.75 5.85742 114.918 5.85742C116.812 5.85742 118.297 6.5752 119.371 8.01074C120.455 9.44629 120.997 11.4385 120.997 13.9873V14.2363ZM119.239 13.9287C119.239 11.9072 118.824 10.3105 117.994 9.13867C117.164 7.9668 116.007 7.38086 114.522 7.38086C113.448 7.38086 112.525 7.63965 111.754 8.15723C110.982 8.6748 110.392 9.42676 109.981 10.4131V18.0156C110.401 18.9238 111.002 19.6172 111.783 20.0957C112.564 20.5742 113.487 20.8135 114.552 20.8135C116.026 20.8135 117.174 20.2275 117.994 19.0557C118.824 17.874 119.239 16.165 119.239 13.9287Z" fill="#E5E6EF"/>
</svg>
