<svg width="200" height="29" viewBox="0 0 200 29" fill="none" xmlns="http://www.w3.org/2000/svg">
    <path d="M126.039 1.47642C126.366 1.10299 126.483 1.05908 126.787 1.05908L131.58 1.08107C132.047 1.08107 132.398 1.4984 132.234 1.93773L118.908 19.6863C118.534 20.1696 118.417 20.1036 118.113 20.1036H112.502C112.221 20.1036 112.034 19.8401 112.291 19.269L126.039 1.47642Z"
          fill="#1BE6E6"/>
    <path d="M5.6103 19.7152C3.84974 18.8232 2.4648 17.5556 1.47888 15.9594C0.492969 14.3631 0 12.5557 0 10.5134C0 8.51813 0.492969 6.71062 1.47888 5.11438C2.4648 3.51814 3.8263 2.27403 5.58686 1.38202C7.34742 0.49 9.34271 0.0439453 11.5493 0.0439453C13.7558 0.0439453 15.7511 0.49 17.5117 1.38202C19.2723 2.27403 20.6572 3.51812 21.6197 5.09089C22.6056 6.68713 23.0751 8.49466 23.0751 10.5134C23.0751 12.5322 22.5821 14.3631 21.6197 15.9594C20.6338 17.5556 19.2723 18.8232 17.5117 19.7152C15.7511 20.6072 13.7558 21.0768 11.5493 21.0768C9.34271 21.0768 7.37086 20.6307 5.6103 19.7152ZM14.9061 14.1049C15.7746 13.2364 16.2206 12.0393 16.2206 10.5134C16.2206 9.01109 15.7746 7.83738 14.9061 6.99231C14.0375 6.14724 12.9108 5.72473 11.5493 5.72473C10.1878 5.72473 9.061 6.14724 8.19246 6.99231C7.32392 7.83738 6.87794 9.01109 6.87794 10.5134C6.87794 12.0393 7.32392 13.2364 8.19246 14.1049C9.061 14.9735 10.1878 15.396 11.5493 15.396C12.9108 15.396 14.0141 14.9735 14.9061 14.1049Z"
          fill="white"/>
    <path d="M44.6948 1.33795C46.2207 2.2065 47.4178 3.4272 48.3333 5.02344C49.2254 6.61968 49.6714 8.45058 49.6714 10.5633C49.6714 12.6759 49.2254 14.5069 48.3333 16.1032C47.4413 17.6994 46.2441 18.9201 44.6948 19.7887C43.169 20.6572 41.4789 21.0797 39.6245 21.0797C37.9343 21.0797 36.4789 20.7276 35.2817 19.9999C34.7418 19.6713 33.9202 20.0233 33.9202 20.6571V27.3239C33.9202 27.723 33.6151 28.0281 33.216 28.0281H27.4648C27.0658 28.0281 26.7606 27.723 26.7606 27.3239V1.07972C26.7606 0.680654 27.0658 0.37549 27.4648 0.37549H33.0517C33.3569 0.37549 33.5916 0.610301 33.5916 0.915465C33.5916 1.40842 34.2723 1.69011 34.6714 1.38495C35.9155 0.49293 37.5587 0.046875 39.6245 0.046875C41.4789 0.046875 43.169 0.46941 44.6948 1.33795ZM41.6901 14.1079C42.5352 13.2393 42.9812 12.0656 42.9812 10.5633C42.9812 9.06091 42.5587 7.88729 41.6901 7.01875C40.8451 6.1502 39.7418 5.72767 38.4038 5.72767C37.0657 5.72767 35.9625 6.1502 35.1174 7.01875C34.2723 7.88729 33.8263 9.06091 33.8263 10.5633C33.8263 12.0656 34.2488 13.2393 35.1174 14.1079C35.9625 14.9764 37.0657 15.399 38.4038 15.399C39.7418 15.399 40.8451 14.9764 41.6901 14.1079Z"
          fill="white"/>
    <path d="M74.1549 11.7137C74.1314 12.0893 73.8262 12.3709 73.4506 12.3709H60.2113C59.7418 12.3709 59.3897 12.817 59.6244 13.2395C59.953 13.8733 60.4225 14.3896 61.0328 14.7887C61.8779 15.3521 62.9812 15.6338 64.2957 15.6338C65.2816 15.6338 66.1267 15.493 66.831 15.2113C67.3709 15 67.9108 14.6949 68.4741 14.2723C68.7793 14.0376 69.2018 14.061 69.46 14.3427L72.3004 17.277C72.5587 17.5352 72.5587 17.9577 72.3004 18.2159C70.3521 20.1174 67.5821 21.0563 64.0375 21.0563C61.6667 21.0563 59.554 20.6104 57.7465 19.6949C55.939 18.8029 54.5305 17.5353 53.5446 15.939C52.5586 14.3428 52.0657 12.5118 52.0657 10.493C52.0657 8.49768 52.5587 6.69017 53.5211 5.09393C54.4836 3.49769 55.8216 2.25359 57.5352 1.36157C59.2488 0.469551 61.1737 0 63.3098 0C65.3286 0 67.2066 0.422626 68.8498 1.26769C70.4929 2.11276 71.8074 3.30994 72.7934 4.90618C73.7558 6.54937 74.2253 8.42726 74.2253 10.6104C74.2253 10.6573 74.2018 11.0329 74.1549 11.7137ZM60.6103 6.05639C60.0469 6.52588 59.6244 7.08923 59.3662 7.79346C59.2018 8.21599 59.554 8.61505 60.0234 8.61505H67.0188C67.4882 8.61505 67.8404 8.21599 67.676 7.79346C67.3944 7.08923 66.9953 6.52588 66.4319 6.05639C65.6573 5.42259 64.6713 5.11743 63.4976 5.11743C62.3709 5.11743 61.4084 5.42259 60.6103 6.05639Z"
          fill="white"/>
    <path d="M97.3471 2.29901C98.8964 3.80136 99.6476 6.07835 99.6476 9.10652V20.0455C99.6476 20.4446 99.3424 20.7497 98.9434 20.7497H93.1922C92.7931 20.7497 92.488 20.4446 92.488 20.0455V10.2567C92.488 7.48678 91.3847 6.07837 89.1312 6.07837C87.9105 6.07837 86.9246 6.47734 86.1734 7.27546C85.4457 8.07359 85.0701 9.27086 85.0701 10.8906V20.022C85.0701 20.4211 84.765 20.7262 84.3659 20.7262H78.6147C78.2157 20.7262 77.9105 20.4211 77.9105 20.022V1.07831C77.9105 0.679249 78.2157 0.374085 78.6147 0.374085H84.1077C84.4598 0.374085 84.7415 0.655821 84.7415 1.00793C84.7415 1.57131 85.4692 1.89993 85.9387 1.57129C86.4551 1.21918 87.0185 0.914059 87.6054 0.679318C88.7086 0.233309 89.9058 0.0219727 91.2438 0.0219727C93.779 0.0454468 95.7978 0.796666 97.3471 2.29901Z"
          fill="white"/>
    <path d="M118.92 19.8132C119.178 20.4235 119.014 20.7521 118.732 20.7521H112.793C112.488 20.7521 112.23 20.5643 112.136 20.2826L103.005 1.31543C102.84 0.845948 103.192 0.376465 103.662 0.376465H108.943C109.249 0.376465 109.507 0.564258 109.624 0.845948L118.92 19.8132Z"
          fill="white"/>
    <path d="M130.516 19.8132C130.774 20.4235 130.61 20.7521 130.328 20.7521H124.53C124.248 20.7521 123.967 20.5643 123.873 20.2826L114.413 1.31543C114.248 0.845948 114.577 0.376465 115.07 0.376465H120.234C120.539 0.376465 120.797 0.564258 120.891 0.845948L130.516 19.8132Z"
          fill="white"/>
    <path d="M135.352 5.18713C135.704 5.9383 135.258 6.12609 134.976 6.12609H130.235C129.953 6.12609 129.483 5.96177 129.342 5.65661L126.878 1.3374C126.573 0.750549 126.807 0.398438 127.3 0.398438H131.995C132.3 0.398438 132.723 0.562756 132.887 0.867919L135.352 5.18713Z"
          fill="white"/>
    <path d="M155.633 2.3458C157.417 3.89509 158.309 6.24255 158.309 9.43503V20.0454C158.309 20.4444 158.004 20.7496 157.605 20.7496H152.159C151.877 20.7496 151.642 20.5148 151.642 20.2331C151.642 19.6932 150.727 19.4115 150.305 19.7401C149.178 20.6322 147.605 21.0782 145.61 21.0782C144.037 21.0782 142.675 20.7965 141.502 20.2566C140.351 19.7167 139.483 18.9655 138.896 18.0266C138.309 17.0876 138.004 16.0078 138.004 14.8106C138.004 12.8857 138.732 11.3833 140.211 10.327C141.69 9.27066 143.99 8.7308 147.065 8.7308H150.398C150.797 8.7308 151.126 8.37867 151.032 8.00308C150.633 6.33642 149.225 5.49142 146.807 5.49142C145.821 5.49142 144.835 5.65574 143.849 5.9609C143.145 6.17217 142.535 6.45386 141.995 6.7825C141.619 7.01724 141.103 6.89982 140.891 6.50076L139.154 2.97965C138.99 2.65101 139.107 2.27547 139.413 2.08767C140.445 1.50082 141.619 1.00787 143.004 0.679227C144.624 0.256693 146.267 0.0688774 147.887 0.0688774C151.267 0.0454033 153.826 0.81998 155.633 2.3458ZM149.788 15.9608C150.398 15.5852 150.821 15.0453 151.103 14.3176C151.126 14.2472 151.15 14.1533 151.15 14.0829V13.1439C151.15 12.7448 150.844 12.4397 150.445 12.4397H148.074C145.985 12.4397 144.929 13.1205 144.929 14.5055C144.929 15.1393 145.164 15.6322 145.633 16.0078C146.103 16.3834 146.76 16.5711 147.582 16.5711C148.45 16.5711 149.154 16.3598 149.788 15.9608Z"
          fill="white"/>
    <path d="M171.948 0.749785C172.934 0.350724 174.037 0.116005 175.258 0.0690564C175.657 0.0455823 175.962 0.374198 175.962 0.749785V5.70286C175.962 6.12539 175.587 6.45403 175.188 6.40708C174.859 6.38361 174.577 6.36009 174.343 6.36009C172.817 6.36009 171.62 6.78269 170.728 7.60429C169.836 8.42589 169.437 9.69342 169.437 11.407V20.0456C169.437 20.4447 169.131 20.7498 168.732 20.7498H162.958C162.559 20.7498 162.253 20.4447 162.253 20.0456V1.0784C162.253 0.679339 162.559 0.374175 162.958 0.374175H168.451C168.803 0.374175 169.084 0.655911 169.084 1.00802C169.084 1.59488 169.906 1.92349 170.399 1.57138C170.868 1.24274 171.385 0.984526 171.948 0.749785Z"
          fill="white"/>
    <path d="M199.906 11.7136C199.883 12.0892 199.577 12.3708 199.202 12.3708H185.962C185.493 12.3708 185.141 12.8169 185.376 13.2394C185.704 13.8732 186.174 14.3895 186.784 14.7886C187.629 15.352 188.732 15.6337 190.047 15.6337C191.033 15.6337 191.878 15.4929 192.582 15.2112C193.122 14.9999 193.662 14.6948 194.225 14.2722C194.531 14.0375 194.953 14.0609 195.211 14.3426L198.052 17.2769C198.31 17.5351 198.31 17.9576 198.052 18.2158C196.103 20.1172 193.333 21.0562 189.789 21.0562C187.418 21.0562 185.305 20.6103 183.498 19.6948C181.69 18.8028 180.282 17.5352 179.296 15.9389C178.31 14.3427 177.817 12.5116 177.817 10.4929C177.817 8.49757 178.31 6.69006 179.272 5.09382C180.235 3.49757 181.573 2.25347 183.286 1.36145C184.977 0.492907 186.925 0.046875 189.061 0.046875C191.08 0.046875 192.958 0.469387 194.601 1.31446C196.244 2.15953 197.559 3.35671 198.545 4.95295C199.507 6.54919 200 8.42715 200 10.6102C199.977 10.6572 199.953 11.0328 199.906 11.7136ZM186.385 6.05628C185.822 6.52576 185.399 7.08912 185.141 7.79334C184.977 8.21588 185.329 8.61494 185.798 8.61494H192.793C193.263 8.61494 193.615 8.21588 193.451 7.79334C193.169 7.08912 192.77 6.52576 192.207 6.05628C191.432 5.42248 190.446 5.11731 189.272 5.11731C188.122 5.11731 187.136 5.42248 186.385 6.05628Z"
          fill="white"/>
</svg>
