<svg width="350" height="64" viewBox="0 0 350 64" fill="none" xmlns="http://www.w3.org/2000/svg">
<path d="M26.3969 0C11.4646 0 0 10.7569 0 25.0523C0 39.2769 11.4646 50.2462 26.3969 50.2462C41.3293 50.2462 52.7939 39.2769 52.7939 25.0523C52.7939 10.8277 41.3293 0 26.3969 0ZM26.5385 8.49231C35.5969 8.49231 43.0985 15.7108 43.0985 25.0523C43.0985 34.3939 35.5969 41.7539 26.5385 41.7539C17.4092 41.7539 9.69539 34.3939 9.69539 25.0523C9.69539 15.7108 17.3385 8.49231 26.5385 8.49231Z" fill="white"/>
<path d="M83.0544 11.6769C78.8084 11.6769 75.2789 12.9905 72.645 15.4085C71.859 16.1301 70.3159 15.6188 70.3159 14.5518V13.0296C70.3159 12.4389 69.837 11.96 69.2463 11.96H62.1855C61.5948 11.96 61.1159 12.4389 61.1159 13.0296V62.4812C61.1159 63.0719 61.5948 63.5508 62.1855 63.5508H69.2463C69.837 63.5508 70.3159 63.0719 70.3159 62.4812V47.2223C70.3159 46.1619 71.8294 45.6548 72.6096 46.373C75.2854 48.8363 78.8551 50.1754 83.1959 50.1754C93.9528 50.1754 100.959 42.4616 100.959 31.0677C100.959 19.4616 93.7405 11.6769 83.0544 11.6769ZM81.0021 42.2493C74.7036 42.2493 70.3159 37.5785 70.3159 30.7846C70.3159 24.1323 74.7036 19.3908 81.0021 19.3908C87.2298 19.3908 91.6175 24.1323 91.6175 30.7846C91.6175 37.5077 87.2298 42.2493 81.0021 42.2493Z" fill="white"/>
<path d="M124.714 11.6769C113.391 11.6769 105.464 19.4615 105.464 30.9969C105.464 42.3908 113.178 50.1754 124.926 50.1754C131.179 50.1754 136.431 48.0495 140.154 44.3855C140.556 43.9904 140.546 43.3486 140.156 42.942L136.661 39.2971C136.242 38.8605 135.548 38.8612 135.093 39.2604C132.508 41.531 129.222 42.7446 125.704 42.7446C120.64 42.7446 116.767 40.0042 115.233 35.398C115.017 34.7482 115.527 34.1108 116.212 34.1108H141.83C142.393 34.1108 142.862 33.6718 142.886 33.1094C143.465 19.9596 137.692 11.6769 124.714 11.6769ZM115.909 27.9539C115.254 27.9539 114.75 27.3684 114.905 26.7323C116.096 21.8527 119.744 18.8246 124.784 18.8246C130.128 18.8246 133.75 21.8999 134.388 26.8463C134.466 27.4479 133.976 27.9539 133.369 27.9539H115.909Z" fill="white"/>
<path d="M173.601 11.6062C169.062 11.6583 165.292 12.9415 162.546 15.6257C161.751 16.4035 160.013 15.8845 160.013 14.7719V13.0296C160.013 12.4389 159.534 11.96 158.944 11.96H151.883C151.292 11.96 150.813 12.4389 150.813 13.0296V48.752C150.813 49.3427 151.292 49.8216 151.883 49.8216H158.944C159.534 49.8216 160.013 49.3427 160.013 48.752V31.2092C160.013 24.9816 163.693 20.3816 169.921 20.3108C175.158 20.3108 178.342 23.5662 178.342 28.8739V48.752C178.342 49.3427 178.821 49.8216 179.412 49.8216H186.544C187.134 49.8216 187.613 49.3427 187.613 48.752V26.1846C187.613 17.1969 182.306 11.6062 173.601 11.6062Z" fill="white"/>
<path d="M218.894 0.283078H199.37C198.779 0.283078 198.3 0.761936 198.3 1.35264V48.752C198.3 49.3427 198.779 49.8216 199.37 49.8216H218.54C233.827 49.8216 244.725 39.4893 244.725 25.0523C244.725 10.5446 233.897 0.283078 218.894 0.283078ZM219.107 41.4708H208.853C208.262 41.4708 207.784 40.9919 207.784 40.4012V9.70341C207.784 9.11271 208.262 8.63385 208.853 8.63385H218.753C228.024 8.63385 235.03 15.4277 235.03 25.1231C235.03 34.7477 228.236 41.4708 219.107 41.4708Z" fill="white"/>
<path d="M288.176 49.1653C288.342 49.5628 288.731 49.8216 289.162 49.8216H297.013C297.782 49.8216 298.3 49.0333 297.994 48.3271L277.477 0.92777C277.308 0.53641 276.922 0.283078 276.496 0.283078H268.06C267.636 0.283078 267.251 0.534224 267.081 0.923058L246.293 48.3224C245.983 49.0292 246.5 49.8216 247.272 49.8216H254.761C255.192 49.8216 255.58 49.5628 255.747 49.1653L259.585 40.004C259.751 39.6065 260.14 39.3477 260.571 39.3477H283.351C283.782 39.3477 284.171 39.6065 284.338 40.004L288.176 49.1653ZM264.869 31.2092C264.103 31.2092 263.586 30.4291 263.883 29.724L271.039 12.7587C271.407 11.8841 272.648 11.8876 273.012 12.7644L280.052 29.7297C280.344 30.4341 279.827 31.2092 279.064 31.2092H264.869Z" fill="white"/>
<path d="M335.48 49.3712C335.681 49.6537 336.006 49.8216 336.353 49.8216H345.113C345.984 49.8216 346.49 48.8373 345.983 48.1295L312.059 0.730144C311.858 0.449547 311.534 0.283078 311.189 0.283078H302.699C301.83 0.283078 301.324 1.26362 301.827 1.97183L335.48 49.3712Z" fill="white"/>
<path d="M300.703 48.1313C300.197 48.8392 300.703 49.8224 301.573 49.8224H310.05C310.399 49.8224 310.725 49.6528 310.925 49.3677L344.17 2.04769C344.668 1.33898 344.161 0.363281 343.295 0.363281H335.365C335.019 0.363281 334.695 0.530139 334.494 0.811275L300.703 48.1313Z" fill="#1BE6E6"/>
<path d="M349.108 7.87687C349.87 9.26979 349.269 9.62695 348.638 9.62695H341.263C340.654 9.62695 339.735 9.4459 339.326 8.75191L334.896 2.1075C334.221 1.01816 334.405 0.357422 335.472 0.357422H343.076C343.751 0.357422 344.309 0.661006 344.657 1.23246L349.108 7.87687Z" fill="white"/>
<path d="M335.48 49.4455C335.681 49.7281 336.006 49.8959 336.353 49.8959H345.113C345.984 49.8959 346.49 48.9117 345.983 48.2039L312.059 0.804488C311.858 0.523892 311.534 0.357422 311.189 0.357422H302.699C301.83 0.357422 301.324 1.33797 301.827 2.04617L335.48 49.4455Z" fill="white"/>
</svg>
