<svg width="177" height="112" viewBox="0 0 177 112" fill="none" xmlns="http://www.w3.org/2000/svg">
    <rect width="177" height="112" rx="10" fill="#A6B1C8"/>
    <rect y="55.4615" width="177" height="56.5385" rx="10" fill="#939DB3"/>
    <rect x="47.3438" y="17.7693" width="116.207" height="4.84615" rx="2.42308" fill="#68718A"/>
    <rect x="13" y="68" width="151" height="7" rx="3" fill="#68718A"/>
    <rect x="13.4502" y="83.4615" width="150.1" height="4.84616" rx="2.42308" fill="#68718A"/>
    <rect x="13.4502" y="94.7693" width="150.1" height="4.84615" rx="2.42308" fill="#68718A"/>
    <path d="M11.8359 11.9134V28.4711C11.8359 29.9929 13.0727 31.2307 14.5932 31.2307H31.1365C32.6569 31.2307 33.8937 29.9929 33.8937 28.4711V11.9134C33.8937 10.3917 32.6569 9.15381 31.1365 9.15381H14.5932C13.0727 9.15381 11.8359 10.3917 11.8359 11.9134ZM18.2695 29.391H14.5932C14.0861 29.391 13.6741 28.9787 13.6741 28.4711V24.7916H18.2694V29.391H18.2695ZM25.622 29.391H20.1076V24.7917H25.622V29.391ZM32.0556 28.4711C32.0556 28.9786 31.6436 29.391 31.1365 29.391H27.4601V23.8718C27.4601 23.3633 27.0491 22.9519 26.541 22.9519H13.6741V17.4327H32.0555V28.4711H32.0556ZM27.4601 10.9935H31.1365C31.6435 10.9935 32.0556 11.4058 32.0556 11.9134V15.5929H27.4602V10.9935H27.4601ZM20.1076 10.9935H25.622V15.5929H20.1076V10.9935ZM18.2695 15.5929H13.6741V11.9134C13.6741 11.4059 14.0861 10.9935 14.5932 10.9935H18.2696V15.5929H18.2695Z" fill="#68718A"/>
</svg>
