<svg width="177" height="112" viewBox="0 0 177 112" fill="none" xmlns="http://www.w3.org/2000/svg">
    <rect width="177" height="112" rx="10" fill="#A6B1C8"/>
    <rect x="14.4502" y="49.462" width="48.5714" height="52.3846" rx="4" stroke="#68718A" stroke-width="2"/>
    <rect x="77.4707" y="48.462" width="86.079" height="9.69232" rx="3" fill="#68718A"/>
    <rect x="77.4707" y="63.538" width="86.079" height="4.84616" rx="2.42308" fill="#68718A"/>
    <rect x="47.3438" y="12.3853" width="116.207" height="4.84615" rx="2.42308" fill="#68718A"/>
    <rect x="77.4707" y="74.8458" width="86.079" height="4.84616" rx="2.42308" fill="#68718A"/>
    <rect x="77.4707" y="86.1542" width="86.079" height="4.84616" rx="2.42308" fill="#68718A"/>
    <rect x="77.4707" y="97.462" width="86.079" height="4.84616" rx="2.42308" fill="#68718A"/>
    <path d="M46.4362 86.6787C42.3378 90.7806 35.6693 90.7806 31.5708 86.6787C31.2903 86.398 30.8356 86.398 30.5551 86.6787C30.2746 86.9594 30.2746 87.4146 30.5551 87.6953C32.8844 90.0266 35.9439 91.1922 39.0035 91.1922C42.0632 91.1922 45.1227 90.0266 47.452 87.6953C47.7325 87.4146 47.7325 86.9595 47.452 86.6787C47.1715 86.398 46.7167 86.398 46.4362 86.6787Z" fill="#68718A"/>
    <path d="M55.9512 80.9938C55.9512 79.0411 54.5408 77.4129 52.6863 77.0733V65.0475C52.6863 63.4875 51.9109 62.0411 50.6121 61.1786C49.3921 60.3685 47.8777 60.1847 46.5082 60.6677L41.999 59.1358C38.5341 57.9586 34.8868 57.8378 31.4516 58.7864C26.9544 60.0283 24.3762 62.6545 23.9782 66.3875C23.626 66.8524 23.3461 67.3746 23.156 67.938L22.8062 68.9741C22.6185 69.5304 22.8254 70.115 23.3213 70.4288C23.8172 70.7426 24.4337 70.6791 24.8553 70.2707C24.9993 70.1312 25.1568 70.0137 25.3225 69.9154V77.0733C23.468 77.4129 22.0576 79.041 22.0576 80.9938C22.0576 83.0246 23.583 84.7045 25.5471 84.9487C26.0404 87.6746 27.3365 90.1891 29.3184 92.2013C31.9059 94.8283 35.3457 96.275 39.0044 96.275C39.0049 96.275 39.0053 96.275 39.0058 96.275C42.6599 96.2746 46.0951 94.8502 48.679 92.2642C50.6973 90.2442 52.0073 87.7041 52.4843 84.9459C54.4375 84.6915 55.9512 83.0167 55.9512 80.9938ZM49.8179 62.3766C50.728 62.9809 51.2499 63.9544 51.2499 65.0475V74.4546C49.0206 74.1078 47.3089 72.1737 47.3089 69.8468L47.2494 61.943C48.1265 61.7116 49.0411 61.8608 49.8179 62.3766ZM24.3773 68.8116L24.5169 68.3981C24.8826 67.3149 25.6946 66.4355 26.7448 65.9855C27.7948 65.5355 28.9911 65.5542 30.0267 66.037C32.2017 67.0508 34.8311 66.5027 36.4207 64.7041L36.5986 64.5027C36.8615 64.2054 36.8337 63.7511 36.5366 63.4881C36.2394 63.2251 35.7855 63.2528 35.5227 63.5502L35.3448 63.7515C34.1733 65.0769 32.2358 65.4807 30.6332 64.7337C29.2279 64.0785 27.6044 64.0531 26.1794 64.6639C26.0496 64.7195 25.9235 64.7816 25.7993 64.8465C26.6342 62.6189 28.6547 61.0502 31.8338 60.1723C34.9905 59.3005 38.3459 59.4129 41.5374 60.4971L45.813 61.9497L45.869 65.6641C43.9652 68.2547 41.1887 70.0084 38.0248 70.6115C34.7849 71.2289 31.4798 70.5755 28.718 68.7718C27.3686 67.8905 25.6672 67.9282 24.3773 68.8116ZM23.4941 80.9938C23.4941 79.838 24.267 78.86 25.3225 78.5488V82.4452C25.3225 82.7818 25.3346 83.1165 25.3582 83.449C24.2846 83.1495 23.4941 82.1626 23.4941 80.9938ZM47.6633 91.2475C45.3508 93.562 42.2761 94.8368 39.0057 94.8372C39.0051 94.8372 39.0051 94.8372 39.0044 94.8372C35.7335 94.8372 32.6566 93.5425 30.3413 91.1919C28.0312 88.8465 26.759 85.7401 26.759 82.4451V69.5764C27.1658 69.6068 27.5694 69.7385 27.9328 69.9758C31.0074 71.9839 34.6867 72.7112 38.2933 72.0238C41.2209 71.4658 43.8509 70.0234 45.8723 67.896V69.8467C45.8723 72.9675 48.226 75.5469 51.2498 75.9039V82.581C51.2499 85.8549 49.9762 88.9327 47.6633 91.2475ZM52.6586 83.4467C52.6764 83.1597 52.6863 82.8712 52.6863 82.5811V78.5488C53.7419 78.86 54.5148 79.838 54.5148 80.9938C54.5148 82.1597 53.7283 83.1446 52.6586 83.4467Z" fill="#68718A"/>
    <path d="M31.4982 7.53796H15.8459C14.5249 7.53796 13.4502 8.61363 13.4502 9.9358V20.1666C13.4502 21.4887 14.5249 22.5644 15.8459 22.5644H31.4982C32.8192 22.5644 33.894 21.4887 33.894 20.1666V9.9358C33.894 8.61363 32.8192 7.53796 31.4982 7.53796ZM32.2968 20.1666C32.2968 20.6073 31.9385 20.9658 31.4982 20.9658H15.8459C15.4056 20.9658 15.0474 20.6073 15.0474 20.1666V15.8154H19.878C20.2391 17.5696 21.7941 18.8926 23.6521 18.8926C25.5101 18.8926 27.0651 17.5696 27.4262 15.8154H32.2968V20.1666ZM21.3961 15.0361C21.3961 13.791 22.4082 12.7781 23.6521 12.7781C24.8961 12.7781 25.9081 13.791 25.9081 15.0361C25.9081 16.2811 24.8961 17.294 23.6521 17.294C22.4082 17.294 21.3961 16.2811 21.3961 15.0361ZM32.2968 14.2168H27.4178C27.0415 12.4825 25.496 11.1796 23.6521 11.1796C21.8082 11.1796 20.2628 12.4825 19.8864 14.2168H15.0474V9.9358C15.0474 9.49508 15.4056 9.13652 15.8459 9.13652H31.4982C31.9385 9.13652 32.2968 9.49508 32.2968 9.9358V14.2168Z" fill="#68718A"/>
    <circle cx="45" cy="79" r="1" fill="#68718A"/>
    <circle cx="32" cy="79" r="1" fill="#68718A"/>
</svg>
