<svg width="37" height="37" viewBox="0 0 37 37" fill="none" xmlns="http://www.w3.org/2000/svg">
<path fillRule="evenodd" clipRule="evenodd" d="M13.8518 15.4175C14.0045 15.6883 13.9259 16.0421 13.6763 16.2078L9.27861 19.1259L13.6763 22.0441C13.9259 22.2097 14.0045 22.5635 13.8518 22.8343C13.6991 23.1051 13.373 23.1904 13.1234 23.0248L7.98676 19.6163C7.82938 19.5118 7.7334 19.3261 7.7334 19.1259C7.7334 18.9258 7.82938 18.74 7.98677 18.6356L13.1234 15.2271C13.373 15.0615 13.6991 15.1467 13.8518 15.4175Z" fill="#3C78E0" stroke="#3C78E0" stroke-miterlimit="10" stroke-linecap="round" stroke-linejoin="round"/>
<path fillRule="evenodd" clipRule="evenodd" d="M22.8594 15.4175C23.0122 15.1467 23.3384 15.0615 23.588 15.2271L28.7245 18.6356C28.8818 18.7401 28.9778 18.9258 28.9778 19.1259C28.9778 19.3261 28.8819 19.5118 28.7245 19.6162L23.588 23.0247C23.3384 23.1904 23.0122 23.1052 22.8594 22.8344C22.7067 22.5636 22.7853 22.2098 23.0349 22.0441L27.4325 19.1259L23.0349 16.2078C22.7853 16.0421 22.7067 15.6883 22.8594 15.4175Z" fill="#3C78E0" stroke="#3C78E0" stroke-miterlimit="10" stroke-linecap="round" stroke-linejoin="round"/>
<path fillRule="evenodd" clipRule="evenodd" d="M19.7379 13.3878C20.012 13.4583 20.1789 13.7451 20.1107 14.0283L17.5932 24.4786C17.525 24.7618 17.2474 24.9343 16.9733 24.8638C16.6992 24.7933 16.5322 24.5065 16.6005 24.2233L19.118 13.773C19.1862 13.4898 19.4637 13.3174 19.7379 13.3878Z" fill="#3C78E0" stroke="#3C78E0" stroke-miterlimit="10" stroke-linecap="round" stroke-linejoin="round"/>
<rect x="2.14907" y="1.51064" width="33.1379" height="33.1379" stroke="#3C78E0" stroke-width="2.8" stroke-linecap="round" stroke-linejoin="round"/>
</svg>
