<svg width="35" height="36" viewBox="0 0 35 36" fill="none" xmlns="http://www.w3.org/2000/svg">
<path d="M5.02545 26.6751L6.32811 27.3119C6.56495 26.8275 6.51339 26.2516 6.19425 25.8169L5.02545 26.6751ZM1.65283 33.5736L0.350175 32.9367C0.0982087 33.4521 0.173791 34.0676 0.542971 34.5067C0.912151 34.9458 1.50551 35.126 2.05651 34.9663L1.65283 33.5736ZM10.1067 31.1232L10.8021 29.8508C10.466 29.6671 10.0709 29.6239 9.70301 29.7305L10.1067 31.1232ZM31.5873 17.5082C31.5873 25.2707 25.2945 31.5635 17.532 31.5635V34.4635C26.8961 34.4635 34.4873 26.8723 34.4873 17.5082H31.5873ZM17.532 3.45293C25.2945 3.45293 31.5873 9.74569 31.5873 17.5082H34.4873C34.4873 8.14406 26.8961 0.55293 17.532 0.55293V3.45293ZM3.47675 17.5082C3.47675 9.74568 9.7695 3.45293 17.532 3.45293V0.55293C8.16788 0.55293 0.576746 8.14406 0.576746 17.5082H3.47675ZM6.19425 25.8169C4.48555 23.4896 3.47675 20.6188 3.47675 17.5082H0.576746C0.576746 21.2568 1.79494 24.7251 3.85665 27.5332L6.19425 25.8169ZM2.95549 34.2104L6.32811 27.3119L3.72279 26.0382L0.350175 32.9367L2.95549 34.2104ZM9.70301 29.7305L1.24916 32.1809L2.05651 34.9663L10.5104 32.5159L9.70301 29.7305ZM17.532 31.5635C15.091 31.5635 12.7993 30.9424 10.8021 29.8508L9.41129 32.3956C11.8243 33.7144 14.5928 34.4635 17.532 34.4635V31.5635Z" fill="#00BDD0"/>
<circle cx="12.9281" cy="15.9847" r="3.15708" stroke="#00BDD0" stroke-width="2.5"/>
<circle cx="22.8504" cy="15.9847" r="3.15708" stroke="#00BDD0" stroke-width="2.5"/>
</svg>
