<svg width="38" height="39" viewBox="0 0 38 39" fill="none" xmlns="http://www.w3.org/2000/svg">
<g clip-path="url(#clip0)">
<path d="M34.1298 6.84605L19.7128 0.860261C19.3516 0.710353 18.9456 0.71028 18.5846 0.860261L4.16752 6.84605C3.61842 7.07408 3.2605 7.61015 3.2605 8.20471V15.4813C3.2605 25.5006 9.31631 34.5132 18.5927 38.2995C18.949 38.445 19.3482 38.445 19.7046 38.2995C28.9809 34.5133 35.0368 25.5007 35.0368 15.4813V8.20471C35.0368 7.61015 34.679 7.07408 34.1298 6.84605ZM32.0946 15.4813C32.0946 23.9987 27.0927 31.8396 19.1487 35.3396C11.4169 31.9331 6.20275 24.2295 6.20275 15.4813V9.18683L19.1487 3.81178L32.0946 9.18683V15.4813ZM17.5226 20.44L23.8458 14.1169C24.4203 13.5424 25.3517 13.5423 25.9263 14.1169C26.5008 14.6914 26.5008 15.6229 25.9262 16.1973L18.5629 23.5607C17.9882 24.1353 17.0568 24.1351 16.4824 23.5607L12.371 19.4493C11.7965 18.8748 11.7965 17.9433 12.371 17.3689C12.9456 16.7944 13.877 16.7943 14.4515 17.3689L17.5226 20.44Z" fill="#3C78E0"/>
</g>
<defs>
<clipPath id="clip0">
<rect x="0.318359" y="0.747559" width="37.6608" height="37.6608" fill="white"/>
</clipPath>
</defs>
</svg>
