<svg width="35" height="35" viewBox="0 0 35 35" fill="none" xmlns="http://www.w3.org/2000/svg">
<mask id="path-1-outside-1" maskUnits="userSpaceOnUse" x="-0.589355" y="0.215332" width="35" height="35" fill="black">
<rect fill="white" x="-0.589355" y="0.215332" width="35" height="35"/>
<path d="M18.1992 34.6916H16.0983C14.399 34.6916 13.0165 33.3092 13.0165 31.6099V30.8991C12.2941 30.6683 11.5922 30.377 10.9179 30.028L10.4142 30.5317C9.19418 31.7532 7.23994 31.7174 6.05539 30.5313L4.57047 29.0464C3.38382 27.8611 3.34969 25.9075 4.57086 24.6876L5.07418 24.1843C4.72523 23.51 4.43394 22.8083 4.20308 22.0857H3.49236C1.79318 22.0857 0.410645 20.7032 0.410645 19.004V16.903C0.410645 15.2037 1.79318 13.8212 3.49242 13.8212H4.20314C4.43401 13.0988 4.72529 12.3969 5.07424 11.7226L4.57053 11.219C3.35008 9.99985 3.38376 8.04606 4.57092 6.86021L6.05598 5.37522C7.24327 4.18629 9.19706 4.1566 10.4147 5.37561L10.9179 5.87887C11.5922 5.52998 12.2941 5.23863 13.0166 5.00776V4.29705C13.0166 2.5978 14.399 1.21533 16.0983 1.21533H18.1993C19.8985 1.21533 21.281 2.5978 21.281 4.29705V5.00783C22.0034 5.23863 22.7053 5.52998 23.3796 5.87893L23.8833 5.37522C25.1033 4.15373 27.0576 4.18956 28.2421 5.37568L29.727 6.86053C30.9137 8.04587 30.9478 9.99946 29.7267 11.2193L29.2233 11.7226C29.5723 12.3969 29.8636 13.0987 30.0944 13.8212H30.8051C32.5044 13.8212 33.8869 15.2037 33.8869 16.903V19.004C33.8869 20.7032 32.5044 22.0857 30.8051 22.0857H30.0944C29.8636 22.8082 29.5723 23.51 29.2233 24.1843L29.727 24.688C30.9475 25.9072 30.9138 27.8609 29.7267 29.0468L28.2416 30.5318C27.0543 31.7207 25.1005 31.7504 23.8829 30.5314L23.3796 30.0281C22.7053 30.377 22.0034 30.6684 21.281 30.8992V31.61C21.281 33.3092 19.8986 34.6916 18.1992 34.6916ZM11.2458 27.9682C12.1825 28.5222 13.1907 28.9408 14.2424 29.2122C14.6755 29.3239 14.9781 29.7145 14.9781 30.1618V31.6099C14.9781 32.2276 15.4807 32.7301 16.0983 32.7301H18.1993C18.817 32.7301 19.3196 32.2276 19.3196 31.6099V30.1618C19.3196 29.7145 19.6222 29.3239 20.0553 29.2122C21.1069 28.9408 22.1151 28.5222 23.0519 27.9682C23.4373 27.7403 23.928 27.8023 24.2446 28.119L25.2704 29.1448C25.7126 29.5875 26.4228 29.5773 26.8542 29.1452L28.3402 27.6593C28.7705 27.2295 28.7849 26.5192 28.3406 26.0754L27.3144 25.0492C26.9978 24.7326 26.9358 24.2418 27.1637 23.8565C27.7177 22.9198 28.1361 21.9116 28.4075 20.8599C28.5193 20.4268 28.9099 20.1243 29.3572 20.1243H30.8052C31.4229 20.1243 31.9255 19.6217 31.9255 19.0041V16.903C31.9255 16.2853 31.4229 15.7828 30.8052 15.7828H29.3572C28.9099 15.7828 28.5193 15.4802 28.4075 15.0472C28.1361 13.9955 27.7176 12.9873 27.1637 12.0506C26.9358 11.6652 26.9978 11.1745 27.3144 10.8579L28.3402 9.83208C28.7836 9.38917 28.7721 8.67911 28.3406 8.24816L26.8548 6.76233C26.4241 6.33106 25.7137 6.31844 25.2708 6.76193L24.2447 7.78813C23.9281 8.10478 23.4372 8.16676 23.0519 7.93883C22.1152 7.38484 21.107 6.96632 20.0553 6.69492C19.6222 6.58318 19.3196 6.19258 19.3196 5.74529V4.29705C19.3196 3.67937 18.817 3.17683 18.1994 3.17683H16.0984C15.4807 3.17683 14.9781 3.67937 14.9781 4.29705V5.74516C14.9781 6.19244 14.6755 6.58305 14.2424 6.69479C13.1908 6.96619 12.1826 7.38471 11.2458 7.9387C10.8603 8.16656 10.3696 8.10458 10.0531 7.788L9.02732 6.7622C8.58507 6.31942 7.87481 6.32968 7.44348 6.76174L5.95751 8.24764C5.52715 8.67747 5.51277 9.38773 5.95712 9.83155L6.98331 10.8577C7.29989 11.1743 7.36188 11.6651 7.13402 12.0505C6.58002 12.9871 6.16157 13.9954 5.89016 15.0471C5.77836 15.4802 5.38776 15.7827 4.94053 15.7827H3.49242C2.87475 15.7827 2.37215 16.2853 2.37215 16.903V19.004C2.37215 19.6217 2.87475 20.1242 3.49242 20.1242H4.94047C5.38776 20.1242 5.77829 20.4268 5.8901 20.8598C6.1615 21.9115 6.58002 22.9197 7.13395 23.8564C7.36181 24.2418 7.29983 24.7326 6.98324 25.0491L5.95744 26.0749C5.51401 26.5178 5.52559 27.2279 5.95705 27.6588L7.44289 29.1447C7.87357 29.576 8.58389 29.5886 9.0268 29.1451L10.0529 28.1189C10.2862 27.8857 10.7716 27.6877 11.2458 27.9682Z"/>
</mask>
<path d="M18.1992 34.6916H16.0983C14.399 34.6916 13.0165 33.3092 13.0165 31.6099V30.8991C12.2941 30.6683 11.5922 30.377 10.9179 30.028L10.4142 30.5317C9.19418 31.7532 7.23994 31.7174 6.05539 30.5313L4.57047 29.0464C3.38382 27.8611 3.34969 25.9075 4.57086 24.6876L5.07418 24.1843C4.72523 23.51 4.43394 22.8083 4.20308 22.0857H3.49236C1.79318 22.0857 0.410645 20.7032 0.410645 19.004V16.903C0.410645 15.2037 1.79318 13.8212 3.49242 13.8212H4.20314C4.43401 13.0988 4.72529 12.3969 5.07424 11.7226L4.57053 11.219C3.35008 9.99985 3.38376 8.04606 4.57092 6.86021L6.05598 5.37522C7.24327 4.18629 9.19706 4.1566 10.4147 5.37561L10.9179 5.87887C11.5922 5.52998 12.2941 5.23863 13.0166 5.00776V4.29705C13.0166 2.5978 14.399 1.21533 16.0983 1.21533H18.1993C19.8985 1.21533 21.281 2.5978 21.281 4.29705V5.00783C22.0034 5.23863 22.7053 5.52998 23.3796 5.87893L23.8833 5.37522C25.1033 4.15373 27.0576 4.18956 28.2421 5.37568L29.727 6.86053C30.9137 8.04587 30.9478 9.99946 29.7267 11.2193L29.2233 11.7226C29.5723 12.3969 29.8636 13.0987 30.0944 13.8212H30.8051C32.5044 13.8212 33.8869 15.2037 33.8869 16.903V19.004C33.8869 20.7032 32.5044 22.0857 30.8051 22.0857H30.0944C29.8636 22.8082 29.5723 23.51 29.2233 24.1843L29.727 24.688C30.9475 25.9072 30.9138 27.8609 29.7267 29.0468L28.2416 30.5318C27.0543 31.7207 25.1005 31.7504 23.8829 30.5314L23.3796 30.0281C22.7053 30.377 22.0034 30.6684 21.281 30.8992V31.61C21.281 33.3092 19.8986 34.6916 18.1992 34.6916ZM11.2458 27.9682C12.1825 28.5222 13.1907 28.9408 14.2424 29.2122C14.6755 29.3239 14.9781 29.7145 14.9781 30.1618V31.6099C14.9781 32.2276 15.4807 32.7301 16.0983 32.7301H18.1993C18.817 32.7301 19.3196 32.2276 19.3196 31.6099V30.1618C19.3196 29.7145 19.6222 29.3239 20.0553 29.2122C21.1069 28.9408 22.1151 28.5222 23.0519 27.9682C23.4373 27.7403 23.928 27.8023 24.2446 28.119L25.2704 29.1448C25.7126 29.5875 26.4228 29.5773 26.8542 29.1452L28.3402 27.6593C28.7705 27.2295 28.7849 26.5192 28.3406 26.0754L27.3144 25.0492C26.9978 24.7326 26.9358 24.2418 27.1637 23.8565C27.7177 22.9198 28.1361 21.9116 28.4075 20.8599C28.5193 20.4268 28.9099 20.1243 29.3572 20.1243H30.8052C31.4229 20.1243 31.9255 19.6217 31.9255 19.0041V16.903C31.9255 16.2853 31.4229 15.7828 30.8052 15.7828H29.3572C28.9099 15.7828 28.5193 15.4802 28.4075 15.0472C28.1361 13.9955 27.7176 12.9873 27.1637 12.0506C26.9358 11.6652 26.9978 11.1745 27.3144 10.8579L28.3402 9.83208C28.7836 9.38917 28.7721 8.67911 28.3406 8.24816L26.8548 6.76233C26.4241 6.33106 25.7137 6.31844 25.2708 6.76193L24.2447 7.78813C23.9281 8.10478 23.4372 8.16676 23.0519 7.93883C22.1152 7.38484 21.107 6.96632 20.0553 6.69492C19.6222 6.58318 19.3196 6.19258 19.3196 5.74529V4.29705C19.3196 3.67937 18.817 3.17683 18.1994 3.17683H16.0984C15.4807 3.17683 14.9781 3.67937 14.9781 4.29705V5.74516C14.9781 6.19244 14.6755 6.58305 14.2424 6.69479C13.1908 6.96619 12.1826 7.38471 11.2458 7.9387C10.8603 8.16656 10.3696 8.10458 10.0531 7.788L9.02732 6.7622C8.58507 6.31942 7.87481 6.32968 7.44348 6.76174L5.95751 8.24764C5.52715 8.67747 5.51277 9.38773 5.95712 9.83155L6.98331 10.8577C7.29989 11.1743 7.36188 11.6651 7.13402 12.0505C6.58002 12.9871 6.16157 13.9954 5.89016 15.0471C5.77836 15.4802 5.38776 15.7827 4.94053 15.7827H3.49242C2.87475 15.7827 2.37215 16.2853 2.37215 16.903V19.004C2.37215 19.6217 2.87475 20.1242 3.49242 20.1242H4.94047C5.38776 20.1242 5.77829 20.4268 5.8901 20.8598C6.1615 21.9115 6.58002 22.9197 7.13395 23.8564C7.36181 24.2418 7.29983 24.7326 6.98324 25.0491L5.95744 26.0749C5.51401 26.5178 5.52559 27.2279 5.95705 27.6588L7.44289 29.1447C7.87357 29.576 8.58389 29.5886 9.0268 29.1451L10.0529 28.1189C10.2862 27.8857 10.7716 27.6877 11.2458 27.9682Z" fill="#3C78E0"/>
<path d="M18.1992 34.6916H16.0983C14.399 34.6916 13.0165 33.3092 13.0165 31.6099V30.8991C12.2941 30.6683 11.5922 30.377 10.9179 30.028L10.4142 30.5317C9.19418 31.7532 7.23994 31.7174 6.05539 30.5313L4.57047 29.0464C3.38382 27.8611 3.34969 25.9075 4.57086 24.6876L5.07418 24.1843C4.72523 23.51 4.43394 22.8083 4.20308 22.0857H3.49236C1.79318 22.0857 0.410645 20.7032 0.410645 19.004V16.903C0.410645 15.2037 1.79318 13.8212 3.49242 13.8212H4.20314C4.43401 13.0988 4.72529 12.3969 5.07424 11.7226L4.57053 11.219C3.35008 9.99985 3.38376 8.04606 4.57092 6.86021L6.05598 5.37522C7.24327 4.18629 9.19706 4.1566 10.4147 5.37561L10.9179 5.87887C11.5922 5.52998 12.2941 5.23863 13.0166 5.00776V4.29705C13.0166 2.5978 14.399 1.21533 16.0983 1.21533H18.1993C19.8985 1.21533 21.281 2.5978 21.281 4.29705V5.00783C22.0034 5.23863 22.7053 5.52998 23.3796 5.87893L23.8833 5.37522C25.1033 4.15373 27.0576 4.18956 28.2421 5.37568L29.727 6.86053C30.9137 8.04587 30.9478 9.99946 29.7267 11.2193L29.2233 11.7226C29.5723 12.3969 29.8636 13.0987 30.0944 13.8212H30.8051C32.5044 13.8212 33.8869 15.2037 33.8869 16.903V19.004C33.8869 20.7032 32.5044 22.0857 30.8051 22.0857H30.0944C29.8636 22.8082 29.5723 23.51 29.2233 24.1843L29.727 24.688C30.9475 25.9072 30.9138 27.8609 29.7267 29.0468L28.2416 30.5318C27.0543 31.7207 25.1005 31.7504 23.8829 30.5314L23.3796 30.0281C22.7053 30.377 22.0034 30.6684 21.281 30.8992V31.61C21.281 33.3092 19.8986 34.6916 18.1992 34.6916ZM11.2458 27.9682C12.1825 28.5222 13.1907 28.9408 14.2424 29.2122C14.6755 29.3239 14.9781 29.7145 14.9781 30.1618V31.6099C14.9781 32.2276 15.4807 32.7301 16.0983 32.7301H18.1993C18.817 32.7301 19.3196 32.2276 19.3196 31.6099V30.1618C19.3196 29.7145 19.6222 29.3239 20.0553 29.2122C21.1069 28.9408 22.1151 28.5222 23.0519 27.9682C23.4373 27.7403 23.928 27.8023 24.2446 28.119L25.2704 29.1448C25.7126 29.5875 26.4228 29.5773 26.8542 29.1452L28.3402 27.6593C28.7705 27.2295 28.7849 26.5192 28.3406 26.0754L27.3144 25.0492C26.9978 24.7326 26.9358 24.2418 27.1637 23.8565C27.7177 22.9198 28.1361 21.9116 28.4075 20.8599C28.5193 20.4268 28.9099 20.1243 29.3572 20.1243H30.8052C31.4229 20.1243 31.9255 19.6217 31.9255 19.0041V16.903C31.9255 16.2853 31.4229 15.7828 30.8052 15.7828H29.3572C28.9099 15.7828 28.5193 15.4802 28.4075 15.0472C28.1361 13.9955 27.7176 12.9873 27.1637 12.0506C26.9358 11.6652 26.9978 11.1745 27.3144 10.8579L28.3402 9.83208C28.7836 9.38917 28.7721 8.67911 28.3406 8.24816L26.8548 6.76233C26.4241 6.33106 25.7137 6.31844 25.2708 6.76193L24.2447 7.78813C23.9281 8.10478 23.4372 8.16676 23.0519 7.93883C22.1152 7.38484 21.107 6.96632 20.0553 6.69492C19.6222 6.58318 19.3196 6.19258 19.3196 5.74529V4.29705C19.3196 3.67937 18.817 3.17683 18.1994 3.17683H16.0984C15.4807 3.17683 14.9781 3.67937 14.9781 4.29705V5.74516C14.9781 6.19244 14.6755 6.58305 14.2424 6.69479C13.1908 6.96619 12.1826 7.38471 11.2458 7.9387C10.8603 8.16656 10.3696 8.10458 10.0531 7.788L9.02732 6.7622C8.58507 6.31942 7.87481 6.32968 7.44348 6.76174L5.95751 8.24764C5.52715 8.67747 5.51277 9.38773 5.95712 9.83155L6.98331 10.8577C7.29989 11.1743 7.36188 11.6651 7.13402 12.0505C6.58002 12.9871 6.16157 13.9954 5.89016 15.0471C5.77836 15.4802 5.38776 15.7827 4.94053 15.7827H3.49242C2.87475 15.7827 2.37215 16.2853 2.37215 16.903V19.004C2.37215 19.6217 2.87475 20.1242 3.49242 20.1242H4.94047C5.38776 20.1242 5.77829 20.4268 5.8901 20.8598C6.1615 21.9115 6.58002 22.9197 7.13395 23.8564C7.36181 24.2418 7.29983 24.7326 6.98324 25.0491L5.95744 26.0749C5.51401 26.5178 5.52559 27.2279 5.95705 27.6588L7.44289 29.1447C7.87357 29.576 8.58389 29.5886 9.0268 29.1451L10.0529 28.1189C10.2862 27.8857 10.7716 27.6877 11.2458 27.9682Z" stroke="#3C78E0" stroke-width="0.6" mask="url(#path-1-outside-1)"/>
<path d="M9.71523 17.9534C9.71523 22.0525 13.0498 25.3871 17.1489 25.3871C21.2481 25.3871 24.5826 22.0525 24.5826 17.9534C24.5826 13.8543 21.2481 10.5197 17.1489 10.5197C13.0498 10.5197 9.71523 13.8543 9.71523 17.9534ZM11.9767 17.9534C11.9767 15.1016 14.2971 12.7812 17.1489 12.7812C20.0008 12.7812 22.3211 15.1016 22.3211 17.9534C22.3211 20.8052 20.0008 23.1256 17.1489 23.1256C14.2971 23.1256 11.9767 20.8052 11.9767 17.9534Z" fill="#3C78E0" stroke="#3C78E0" stroke-width="0.3"/>
</svg>
