<?xml version="1.0" standalone="no"?>
<!DOCTYPE svg PUBLIC "-//W3C//DTD SVG 1.1//EN" "http://www.w3.org/Graphics/SVG/1.1/DTD/svg11.dtd">
<svg xmlns="http://www.w3.org/2000/svg"><metadata>This SVG WebFont was generated by YouWorkForThem.
Copyright Â© 2017 by Samuel Oakes. All rights reserved.</metadata><defs><font horiz-adv-x="1155" id="ywftsvg"><font-face ascent="1638" bbox="-743 -911 2222 1921" cap-height="1434" descent="-410" font-family="" font-stretch="normal" font-weight="300" panose-1="0 0 4 0 0 0 0 0 0 0" underline-position="0" underline-thickness="0" unicode-range="U+0020-2265" units-per-em="2048" x-height="1024"/><missing-glyph horiz-adv-x="1228"/><glyph glyph-name=".notdef" horiz-adv-x="1228"/><glyph glyph-name="glyph1" horiz-adv-x="1228"/><glyph glyph-name="glyph2" horiz-adv-x="681"/><glyph glyph-name="space" horiz-adv-x="573" unicode=" "/><glyph d="M119 422l-13 1114h121l-12 -1114h-96zM88 0v174h166v-174h-166z" glyph-name="exclam" horiz-adv-x="460" unicode="!"/><glyph d="M63 1284l-53 150v174h166v-174l-53 -150h-60zM367 1284l-54 150v174h166v-174l-53 -150h-59z" glyph-name="quotedbl" horiz-adv-x="544" unicode="&quot;"/><glyph d="M365 0l51 365h-289l14 104h289l74 500h-291l16 102h285l53 367h103l-52 -367h400l51 367h102l-51 -367h289l-16 -102h-287l-70 -500h287l-14 -104h-287l-55 -365h-101l52 365h-402l-49 -365h-102zM532 469h400l72 500h-400z" glyph-name="numbersign" horiz-adv-x="1536" unicode="#"/><glyph d="M694 -123v109q-215 12 -364.5 129.5t-163.5 326.5h131q18 -164 139 -256t318 -92q174 0 271 79t97 218q0 119 -86 182.5t-297 102.5q-287 51 -410.5 143t-123.5 254q0 156 135 264.5t326 108.5v96h108v-102q207 -27 322.5 -143.5t115.5 -305.5h-118q-25 346 -418 346 q-150 0 -250 -75.5t-100 -188.5q0 -119 106.5 -182.5t298.5 -95.5q287 -51 399.5 -140.5t112.5 -267.5q0 -168 -118.5 -275.5t-321.5 -123.5v-111h-109z" glyph-name="dollar" horiz-adv-x="1316" unicode="$"/><glyph d="M391.5 938q-110.5 0 -188.5 91t-78 218t78 218t188.5 91t188 -91t77.5 -218t-77.5 -218t-188 -91zM141 0l1057 1536h121l-1057 -1536h-121zM391.5 1044q65.5 0 112.5 59.5t47 143.5t-47 143.5t-112.5 59.5t-112 -59.5t-46.5 -143.5t46.5 -143.5t112 -59.5zM1091.5 -20 q-110.5 0 -188.5 91t-78 220q0 127 78 218t188.5 91t188.5 -91t78 -218q0 -129 -78 -220t-188.5 -91zM1091.5 88q65.5 0 111.5 58.5t46 144.5q0 84 -46 142.5t-111.5 58.5t-112.5 -58.5t-47 -142.5q0 -86 47 -144.5t112.5 -58.5z" glyph-name="percent" horiz-adv-x="1480" unicode="%"/><glyph d="M612 -33q-190 0 -323 111.5t-133 277.5q0 272 272 439q-162 184 -162 338q0 137 98.5 232t241.5 95q137 0 232.5 -92t95.5 -223q0 -119 -95.5 -226.5t-224.5 -154.5l400 -402l108 189h131l-155 -272l282 -279h-159l-179 182q-174 -215 -430 -215zM530 848q121 41 205 124 t84 175q0 86 -61.5 145.5t-151.5 59.5q-92 0 -156.5 -59.5t-64.5 -143.5q0 -162 145 -301zM616 86q199 0 340 182l-448 443q-238 -139 -238 -332q0 -129 98 -211t248 -82z" glyph-name="ampersand" horiz-adv-x="1521" unicode="&amp;"/><glyph d="M63 1284l-53 150v174h166v-174l-53 -150h-60z" glyph-name="quotesingle" horiz-adv-x="204" unicode="'"/><glyph d="M535 -459q-154 197 -248 473.5t-94 583.5t92 584.5t250 435.5h110q-168 -188 -258 -457.5t-90 -562.5q0 -291 96 -564.5t246 -492.5h-104z" glyph-name="parenleft" horiz-adv-x="634" unicode="("/><glyph d="M55 -459q150 219 246 492.5t96 564.5q0 293 -90 562.5t-258 457.5h111q158 -158 250 -435.5t92 -584.5t-94.5 -583.5t-247.5 -473.5h-105z" glyph-name="parenright" horiz-adv-x="675" unicode=")"/><glyph d="M180 1067l-71 43l106 152l-186 -13v84l186 -14l-106 151l71 43l82 -165l80 165l74 -43l-107 -151l187 14v-84l-187 13l107 -152l-74 -43l-80 166z" glyph-name="asterisk" horiz-adv-x="522" unicode="*"/><glyph d="M784 59v482h-440v90h440v479h86v-479h441v-90h-441v-482h-86z" glyph-name="plus" horiz-adv-x="1652" unicode="+"/><glyph d="M27 -184v78q41 2 63.5 31.5t18.5 74.5h-89v174h166v-174q2 -84 -43.5 -134t-115.5 -50z" glyph-name="comma" horiz-adv-x="268" unicode=","/><glyph d="M193 621v86h716v-86h-716z" glyph-name="hyphen" horiz-adv-x="1099" unicode="-"/><glyph d="M61 0v174h166v-174h-166z" glyph-name="period" horiz-adv-x="329" unicode="."/><glyph d="M147 -410l902 1946h110l-899 -1946h-113z" glyph-name="slash" horiz-adv-x="1179" unicode="/"/><glyph d="M641 -23q-238 0 -377 196t-139 531.5t140.5 532.5t379.5 197q238 0 377 -197t139 -532.5t-140 -531.5t-380 -196zM641 88q188 0 298 166t110 450.5t-111 451.5t-299 167q-184 0 -292.5 -167t-108.5 -449q0 -285 108.5 -452t294.5 -167z" glyph-name="zero" horiz-adv-x="1286" unicode="0"/><glyph d="M958 0h-751v104h346v1168l-326 -258v125l338 270h94v-1305h299v-104z" glyph-name="one" horiz-adv-x="1126" unicode="1"/><glyph d="M113 0v113l512 465q156 141 216 236t60 204q0 145 -91 233t-243 88q-154 0 -250 -89t-106 -242h-115q14 190 147.5 312t321.5 122q195 0 319 -121t124 -301q0 -129 -62.5 -237.5t-208.5 -241.5l-471 -432l774 4v-113h-927z" glyph-name="two" horiz-adv-x="1134" unicode="2"/><glyph d="M745 758q119 -33 209 -121t90 -242q0 -168 -125.5 -286.5t-336.5 -118.5t-346.5 126t-143.5 324h111q4 -152 110.5 -249t264.5 -97q168 0 265 92.5t97 212.5q0 135 -121 219t-305 84h-35v97h29q168 0 275.5 79.5t107.5 204.5q0 113 -91 184.5t-235 71.5 q-145 0 -238.5 -87t-105.5 -236h-106q12 199 137 314.5t326 115.5q184 0 301.5 -100.5t117.5 -255.5q0 -115 -73 -203t-179 -129z" glyph-name="three" horiz-adv-x="1138" unicode="3"/><glyph d="M874 0h-104v315h-713v103l674 1016h143v-1016h250v-105h-250v-313zM770 1325l-592 -907h592v907z" glyph-name="four" horiz-adv-x="1181" unicode="4"/><glyph d="M582 958q201 0 333 -135t132 -342q0 -203 -131.5 -341t-348.5 -138q-193 0 -333 132t-125 319h104q0 -152 102.5 -248t257.5 -96q170 0 269.5 110.5t99.5 263.5q0 164 -106.5 268.5t-268.5 104.5q-182 0 -305 -141h-112l116 719h672v-105h-588l-86 -491q138 120 318 120z " glyph-name="five" horiz-adv-x="1150" unicode="5"/><glyph d="M606 -23q-225 0 -374.5 183.5t-149.5 539.5q0 381 144.5 567.5t379.5 186.5q193 0 309.5 -101.5t139.5 -256.5h-111q-29 119 -115 183t-215 64q-207 0 -314 -167.5t-107 -489.5v-70q55 143 172.5 216t263.5 73q197 0 321.5 -126t124.5 -324q0 -209 -132 -343.5 t-337 -134.5zM614 86q160 0 252 105.5t92 265.5q0 150 -96 243t-247.5 93t-254 -102.5t-102.5 -254.5q0 -139 100 -244.5t256 -105.5z" glyph-name="six" horiz-adv-x="1157" unicode="6"/><glyph d="M389 0h-121l631 1327h-829v107h946v-105z" glyph-name="seven" horiz-adv-x="1085" unicode="7"/><glyph d="M571.5 -12q-202.5 0 -334 116.5t-131.5 280.5q0 285 287 377q-113 41 -181.5 133t-68.5 197q0 143 121 247.5t307.5 104.5t308 -104.5t121.5 -247.5q0 -104 -69.5 -196.5t-181.5 -133.5q289 -92 288 -377q0 -164 -132 -280.5t-334.5 -116.5zM571.5 838 q137.5 0 225.5 70.5t88 178.5q0 102 -89 176t-224.5 74t-224.5 -73.5t-89 -176.5q0 -109 88 -179t225.5 -70zM571.5 96q153.5 0 253 87t99.5 214q0 133 -98.5 218t-254 85t-254 -85t-98.5 -218q0 -127 99.5 -214t253 -87z" glyph-name="eight" horiz-adv-x="1144" unicode="8"/><glyph d="M551 1454q225 0 374.5 -183.5t149.5 -539.5q0 -381 -144.5 -567.5t-379.5 -186.5q-193 0 -309.5 101.5t-139.5 257.5h111q29 -119 115 -183.5t215 -64.5q207 0 314.5 168t107.5 489v70q-55 -143 -173 -216t-264 -73q-197 0 -321.5 126t-124.5 325q0 209 132 343t337 134z M543 1346q-160 0 -252 -105.5t-92 -265.5q0 -150 96 -243t247.5 -93t254 102.5t102.5 253.5q0 139 -100 245t-256 106z" glyph-name="nine" horiz-adv-x="1157" unicode="9"/><glyph d="M100 852v174h166v-174h-166zM100 0v174h166v-174h-166z" glyph-name="colon" horiz-adv-x="481" unicode=":"/><glyph d="M205 850v174h166v-174h-166zM211 -184v78q41 2 63.5 31.5t18.5 74.5h-88v174h166v-174q2 -84 -44 -134t-116 -50z" glyph-name="semicolon" horiz-adv-x="604" unicode=";"/><glyph d="M1323 53l-1130 572v125l1130 567v-107l-1040 -524l1040 -518v-115z" glyph-name="less" horiz-adv-x="1513" unicode="&lt;"/><glyph d="M131 688v94h1229v-94h-1229zM131 305v94h1229v-94h-1229z" glyph-name="equal" horiz-adv-x="1488" unicode="="/><glyph d="M193 53v115l1040 518l-1040 524v107l1130 -567v-125z" glyph-name="greater" horiz-adv-x="1513" unicode=">"/><glyph d="M403 367v106q0 111 38 195t92.5 135t108.5 95t92 102.5t38 132.5q0 125 -92 212t-223 87q-121 0 -212 -81t-104 -196h-104q10 158 131 268.5t289 110.5q176 0 298 -117t122 -284q0 -82 -38 -150t-92.5 -116t-107.5 -98t-91 -120.5t-38 -156.5v-125h-107zM375 0v174h166 v-174h-166z" glyph-name="question" horiz-adv-x="1015" unicode="?"/><glyph d="M688 -10q-262 0 -430 166t-168 424q0 256 180.5 435t434.5 179q250 0 408.5 -148.5t158.5 -381.5q0 -164 -74 -267.5t-190 -103.5q-133 0 -168 108q-80 -117 -207 -116q-109 0 -175.5 71.5t-66.5 190.5q0 141 85 241.5t206 100.5q115 0 172 -80l6 68h113l-41 -357 q-2 -14 -2 -39q0 -94 78 -94q74 0 117.5 74t43.5 201q0 199 -125.5 317.5t-338.5 118.5q-217 0 -361.5 -147.5t-144.5 -369t135 -358.5t354 -137h477v-96h-477zM647 379q76 0 131.5 70.5t55.5 168.5q0 82 -39 128.5t-107 46.5q-78 0 -130 -71t-52 -175q0 -78 37.5 -123 t103.5 -45z" glyph-name="at" horiz-adv-x="1239" unicode="@"/><glyph d="M211 0l-129 2l547 1432h129l551 -1434h-129l-154 412h-664zM406 530h579l-291 779z" glyph-name="A" horiz-adv-x="1390" unicode="A"/><glyph d="M195 -4v1438h618q141 -6 239.5 -114t98.5 -257q0 -92 -50 -176t-138 -117q111 -43 176 -141.5t65 -239.5q0 -164 -110.5 -278.5t-270.5 -114.5h-628zM311 807h484q106 0 177.5 73.5t71.5 180.5q0 113 -73.5 191.5t-175.5 78.5h-484v-524zM311 109h480q125 0 213 81.5 t88 198.5q0 133 -88.5 225.5t-212.5 92.5h-480v-598z" glyph-name="B" horiz-adv-x="1316" unicode="B"/><glyph d="M760 -12q-281 0 -459 199.5t-178 521.5q0 330 181 532.5t464 202.5q225 0 383 -129t190 -328h-114q-37 150 -162 248t-293 98q-229 0 -376.5 -174t-147.5 -454q0 -268 144.5 -433.5t371.5 -165.5q172 0 301 97.5t162 247.5h114q-35 -205 -194.5 -334t-386.5 -129z" glyph-name="C" horiz-adv-x="1454" unicode="C"/><glyph d="M195 -4v1438l526 4q295 0 468 -194.5t173 -516.5q0 -330 -167 -528.5t-454 -198.5zM311 109l398 4q250 0 395 164.5t145 441t-142 441.5t-388 163l-408 -4v-1210z" glyph-name="D" horiz-adv-x="1484" unicode="D"/><glyph d="M195 0v1434h878v-109h-762v-545h719v-108h-719v-563h762v-109h-878z" glyph-name="E" horiz-adv-x="1175" unicode="E"/><glyph d="M195 0v1434h878v-109h-762v-545h719v-108h-719v-672h-116z" glyph-name="F" horiz-adv-x="1114" unicode="F"/><glyph d="M776 -12q-279 0 -466 201.5t-187 519.5q0 328 189.5 533.5t473.5 205.5q219 0 387 -131t197 -330h-115q-25 150 -159.5 252t-304.5 102q-231 0 -390 -179t-159 -457q0 -264 156.5 -434.5t383.5 -170.5q76 0 156 29t154.5 86t126 156.5t57.5 224.5h-449v117l555 -4v-709 l-110 -2l2 276q-80 -141 -216.5 -213.5t-281.5 -72.5z" glyph-name="G" horiz-adv-x="1566" unicode="G"/><glyph d="M195 0v1434h116v-654h797v654h117v-1434h-117v672h-797v-672h-116z" glyph-name="H" horiz-adv-x="1419" unicode="H"/><glyph d="M205 0v1434h112v-1434h-112z" glyph-name="I" horiz-adv-x="522" unicode="I"/><glyph d="M459 -16q-178 0 -285.5 108.5t-112.5 290.5v111h113v-111q4 -133 81 -213t202 -80q133 0 209.5 84t76.5 234v1026h115v-1026q0 -197 -107.5 -310.5t-291.5 -113.5z" glyph-name="J" horiz-adv-x="1032" unicode="J"/><glyph d="M195 0v1434h112v-746l707 746l153 2l-575 -611l584 -825h-148l-516 739l-205 -217v-522h-112z" glyph-name="K" horiz-adv-x="1226" unicode="K"/><glyph d="M195 0v1434h116v-1325h660v-109h-776z" glyph-name="L" horiz-adv-x="1042" unicode="L"/><glyph d="M195 0v1434h163l490 -1330l477 1330h164v-1434h-113v1241l-446 -1241h-170l-453 1257v-1257h-112z" glyph-name="M" horiz-adv-x="1683" unicode="M"/><glyph d="M1137 -2l-830 1264v-1262h-112v1434h133l829 -1264v1262h113v-1434h-133z" glyph-name="N" horiz-adv-x="1464" unicode="N"/><glyph d="M782 -20q-283 0 -471 215t-188 522q0 315 184.5 524t475 209t475 -211t184.5 -526q0 -307 -187.5 -520t-472.5 -213zM778 94q242 0 396.5 176t154.5 435q0 270 -152.5 451t-394 181t-392 -180t-150.5 -448q0 -258 151 -436.5t387 -178.5z" glyph-name="O" horiz-adv-x="1564" unicode="O"/><glyph d="M195 -2v1436l546 2q188 -2 304 -117t116 -301q0 -184 -118.5 -297t-313.5 -113h-422v-610h-112zM307 715h434q141 0 227.5 83t86.5 220q0 141 -86 227t-228 86h-432z" glyph-name="P" horiz-adv-x="1243" unicode="P"/><glyph d="M1358 -53l-223 172q-160 -119 -371 -119q-272 0 -456.5 206t-184.5 511q0 307 182 510t459 203q279 0 460 -203t181 -514q0 -317 -188 -518l213 -168zM760 111q154 0 278 84l-198 153l80 80l204 -160q164 174 164 437q0 260 -152.5 437t-371.5 177q-221 0 -369.5 -175 t-148.5 -435q0 -256 147.5 -427t366.5 -171z" glyph-name="Q" horiz-adv-x="1552" unicode="Q"/><glyph d="M195 -2v1436l546 2q205 2 312.5 -97.5t107.5 -281.5q0 -102 -64.5 -194.5t-164.5 -123.5q49 -14 83 -40.5t53 -54.5t31.5 -76t16.5 -85t8 -106q14 -195 23.5 -255.5t42.5 -121.5h-129q-8 20 -14.5 39.5t-10.5 52.5t-6 52.5t-6 82t-6 99.5q0 10 -3 56t-5 59.5t-7.5 52 t-12.5 52t-20.5 42t-32.5 40t-45 27t-61.5 20.5t-78.5 5h-445v-682h-112zM307 784h434q135 0 224.5 78t89.5 195q0 131 -81 202.5t-233 71.5h-432z" glyph-name="R" horiz-adv-x="1341" unicode="R"/><glyph d="M680 -14q-227 0 -389 118.5t-178 337.5h131q18 -164 139 -256t317 -92q174 0 271.5 79t97.5 218q0 119 -86 182.5t-297 102.5q-287 51 -410.5 143t-123.5 254q0 156 133 264.5t327 108.5q252 0 399.5 -122t147.5 -333h-119q-25 346 -417 346q-150 0 -250.5 -75.5 t-100.5 -188.5q0 -119 106.5 -182.5t299.5 -95.5q287 -51 399.5 -140.5t112.5 -267.5q0 -182 -140.5 -291.5t-369.5 -109.5z" glyph-name="S" horiz-adv-x="1302" unicode="S"/><glyph d="M567 0v1325h-526v109h1167v-109h-524v-1325h-117z" glyph-name="T" horiz-adv-x="1249" unicode="T"/><glyph d="M706.5 -16q-241.5 0 -387 143t-145.5 391v916h115v-916q0 -197 113.5 -310.5t304 -113.5t304 114t113.5 310v916h115v-916q0 -248 -145.5 -391t-387 -143z" glyph-name="U" horiz-adv-x="1413" unicode="U"/><glyph d="M578 0l-517 1434h115l490 -1330l477 1330h121l-516 -1434h-170z" glyph-name="V" horiz-adv-x="1325" unicode="V"/><glyph d="M459 0l-387 1434h110l357 -1280l348 1280h114l351 -1282l346 1282h114l-387 -1434h-153l-328 1227l-332 -1227h-153z" glyph-name="W" horiz-adv-x="1884" unicode="W"/><glyph d="M82 0l526 717l-526 717h137l459 -623l457 623h137l-527 -717l527 -717h-137l-457 623l-459 -623h-137z" glyph-name="X" horiz-adv-x="1353" unicode="X"/><glyph d="M580 0v598l-519 836h125l453 -736l453 736h125l-519 -836v-598h-118z" glyph-name="Y" horiz-adv-x="1277" unicode="Y"/><glyph d="M123 0v109l981 1216h-969v109h1112v-109l-987 -1216h975v-109h-1112z" glyph-name="Z" horiz-adv-x="1349" unicode="Z"/><glyph d="M170 -649v2322h383v-86h-285v-2150h285v-86h-383z" glyph-name="bracketleft" horiz-adv-x="552" unicode="["/><glyph d="M1069 -512l-1079 2048h112l1078 -2048h-111z" glyph-name="backslash" horiz-adv-x="1179" unicode="\"/><glyph d="M170 -649v86h285v2150h-285v86h383v-2322h-383z" glyph-name="bracketright" horiz-adv-x="552" unicode="]"/><glyph d="M193 -78v78h1024v-78h-1024z" glyph-name="underscore" horiz-adv-x="1406" unicode="_"/><glyph d="M-190 1229l-236 239h141l215 -239h-120z" glyph-name="grave" horiz-adv-x="0" unicode="`"/><glyph d="M449 -20q-143 0 -245 83.5t-102 225.5q0 139 101 221q94 74 272 90q68 6 112 13.5t103.5 23.5t91 47t31.5 74q0 92 -75.5 142t-186.5 50q-123 0 -201 -58t-92 -163l-117 -2q16 147 126 234.5t282 87.5q176 0 276.5 -92.5t100.5 -243.5v-713h-113v160q-137 -180 -364 -180 zM459 90q133 0 243.5 86t110.5 250v166q-63 -70 -303 -90q-291 -27 -291 -211q0 -96 73 -148.5t167 -52.5z" glyph-name="a" horiz-adv-x="1079" unicode="a"/><glyph d="M643 -23q-111 0 -209 55.5t-147 145.5v-178h-113v1434h113v-605q47 92 147.5 148.5t214.5 56.5q199 0 326 -148.5t127 -379.5q0 -229 -129 -379t-330 -150zM641 88q156 0 248 117t92 301q0 186 -92 303t-248 117q-164 0 -263 -121t-99 -309q0 -180 99 -294t263 -114z" glyph-name="b" horiz-adv-x="1204" unicode="b"/><glyph d="M553 -14q-195 0 -323 146.5t-128 379.5q0 240 128 386t331 146q160 0 274.5 -97t135.5 -249h-107q-20 106 -106 174t-193 68q-156 0 -250 -120t-94 -314q0 -184 93.5 -298t244.5 -114q113 0 200 69.5t105 174.5h107q-20 -154 -137 -253t-281 -99z" glyph-name="c" horiz-adv-x="1073" unicode="c"/><glyph d="M561 -23q-201 0 -330 149.5t-129 379.5q0 231 127 379.5t326 148.5q115 0 215 -56t148 -149v605h112v-1434h-112v178q-49 -90 -147.5 -145.5t-209.5 -55.5zM563 88q164 0 263.5 113.5t99.5 294.5q0 188 -99.5 309t-263.5 121q-156 0 -248 -117t-92 -303q0 -184 92 -301 t248 -117z" glyph-name="d" horiz-adv-x="1204" unicode="d"/><glyph d="M565 -23q-205 0 -334 144.5t-129 382t125 385t340 147.5q205 0 324 -150.5t121 -393.5h-789v-3q0 -184 93.5 -293.5t254.5 -109.5q115 0 204 69.5t112 174.5h108q-20 -154 -140 -253.5t-290 -99.5zM229 596h658q-20 160 -95 247t-229 87q-150 0 -232 -90t-102 -244z" glyph-name="e" horiz-adv-x="1114" unicode="e"/><glyph d="M178 0v920h-137v104h137v152q0 123 64.5 190.5t177.5 67.5h112v-107h-112q-57 0 -93 -39t-36 -112v-152h233v-104h-233v-920h-113z" glyph-name="f" horiz-adv-x="573" unicode="f"/><glyph d="M563 -422q-178 0 -295.5 94.5t-126.5 249.5h115q10 -117 99 -178t208 -61q164 0 259.5 95t95.5 281v136q-47 -92 -147.5 -148.5t-215.5 -56.5q-199 0 -326 148.5t-127 379.5q0 229 129 379t330 150q111 0 209 -55.5t148 -145.5v178h112v-965q0 -238 -128 -359.5 t-339 -121.5zM563 98q164 0 263.5 121t99.5 309q0 180 -99.5 294t-263.5 114q-156 0 -248 -117t-92 -301q0 -186 92 -303t248 -117z" glyph-name="g" horiz-adv-x="1193" unicode="g"/><glyph d="M174 0v1434h113v-557q43 74 131 124t196 50q174 0 275.5 -117t101.5 -305v-629h-112v629q-2 133 -78 227t-195 94q-150 0 -233.5 -100t-85.5 -275v-575h-113z" glyph-name="h" unicode="h"/><glyph d="M164 1284v150h133v-150h-133zM174 0v1024h113v-1024h-113z" glyph-name="i" horiz-adv-x="460" unicode="i"/><glyph d="M160 1284v150h133v-150h-133zM0 -362v110h39q57 0 93 38t36 110v1128h113v-1128q0 -123 -64.5 -190.5t-177.5 -67.5h-39z" glyph-name="j" horiz-adv-x="446" unicode="j"/><glyph d="M174 0v1434h113v-940l508 530h139l-377 -395l416 -629l-135 2l-361 537l-190 -199v-340h-113z" glyph-name="k" horiz-adv-x="1034" unicode="k"/><glyph d="M174 0v1434h113v-1434h-113z" glyph-name="l" horiz-adv-x="460" unicode="l"/><glyph d="M174 0v1024h113v-147q43 74 131 124t196 50q119 0 205 -57.5t131 -157.5q49 92 146.5 153.5t228.5 61.5q170 0 270.5 -117t100.5 -305v-629h-113v629q0 143 -74.5 232t-197.5 89q-137 0 -227.5 -102.5t-92.5 -272.5v-575h-112v629q0 143 -75 232t-198 89 q-137 0 -227 -102.5t-92 -272.5v-575h-113z" glyph-name="m" horiz-adv-x="1859" unicode="m"/><glyph d="M174 0v1024h113v-147q43 74 131 124t196 50q174 0 275.5 -117t101.5 -305v-629h-112v629q0 143 -76 232t-197 89q-137 0 -227 -102.5t-92 -272.5v-575h-113z" glyph-name="n" unicode="n"/><glyph d="M578 -10q-209 0 -342.5 146.5t-133.5 375.5q0 231 133.5 378.5t342.5 147.5q219 0 346 -145t127 -381q0 -229 -133 -375.5t-340 -146.5zM573 96q162 0 264.5 116t102.5 296q0 190 -95 307t-267 117q-158 0 -259.5 -118t-101.5 -302q0 -182 100 -299t256 -117z" glyph-name="o" horiz-adv-x="1153" unicode="o"/><glyph d="M174 -410v1434h113v-178q49 90 147 145.5t209 55.5q201 0 330 -149.5t129 -379.5q0 -231 -127 -379.5t-326 -148.5q-115 0 -215 56t-147 149v-605h-113zM641 98q156 0 248 117t92 303q0 184 -92 301t-248 117q-164 0 -263 -113.5t-99 -294.5q0 -188 99 -309t263 -121z " glyph-name="p" horiz-adv-x="1204" unicode="p"/><glyph d="M918 -410v605q-47 -92 -147.5 -148.5t-215.5 -56.5q-199 0 -326 148.5t-127 379.5q0 229 129 379t330 150q111 0 209 -55.5t148 -145.5v178h112v-1434h-112zM563 98q164 0 263.5 121t99.5 309q0 180 -99.5 294t-263.5 114q-156 0 -248 -117t-92 -301q0 -186 92 -303 t248 -117z" glyph-name="q" horiz-adv-x="1204" unicode="q"/><glyph d="M174 0v1024h113v-147q27 66 109.5 120t234.5 43v-110q-344 14 -344 -322v-608h-113z" glyph-name="r" horiz-adv-x="692" unicode="r"/><glyph d="M512 -23q-168 0 -290 92.5t-130 258.5h119q8 -121 95 -184.5t220 -63.5t191.5 58.5t58.5 142.5q0 82 -60.5 122.5t-199.5 65.5q-203 35 -298 103.5t-95 193.5q0 117 99.5 196.5t242.5 79.5q178 0 290.5 -89t110.5 -259h-110q-6 248 -285 248q-102 0 -170 -50t-68 -126 q0 -80 72 -123t207 -65q205 -35 291 -100.5t86 -201.5q0 -127 -98.5 -213t-278.5 -86z" glyph-name="s" horiz-adv-x="980" unicode="s"/><glyph d="M416 0q-113 0 -177.5 67.5t-64.5 190.5v662h-154v104h154v283h113v-283h237v-104h-237v-662q0 -72 35.5 -109.5t93.5 -37.5h112v-111h-112z" glyph-name="t" horiz-adv-x="589" unicode="t"/><glyph d="M541 -27q-174 0 -275.5 117t-101.5 305v629h112v-629q2 -133 78 -227t195 -94q150 0 233.5 100t85.5 275v575h113v-1024h-113v147q-43 -74 -130.5 -124t-196.5 -50z" glyph-name="u" unicode="u"/><glyph d="M428 0l-387 1024h121l344 -913l344 913h125l-391 -1024h-156z" glyph-name="v" horiz-adv-x="1015" unicode="v"/><glyph d="M362 0l-311 1024h135l254 -915l252 915h135l254 -915l252 915h135l-309 -1024h-158l-239 874l-240 -874h-160z" glyph-name="w" horiz-adv-x="1519" unicode="w"/><glyph d="M61 0l361 512l-361 512h132l294 -418l293 418h131l-360 -512l360 -512h-129l-295 420l-297 -420h-129z" glyph-name="x" horiz-adv-x="972" unicode="x"/><glyph d="M92 -410v109h58q154 0 212 147l82 213l-403 965h133l328 -815l327 815h132l-480 -1192q-45 -119 -117.5 -179.5t-213.5 -62.5h-58z" glyph-name="y" horiz-adv-x="1001" unicode="y"/><glyph d="M102 0v104l670 816h-670v106l805 -2v-104l-663 -816h659v-104h-801z" glyph-name="z" horiz-adv-x="1030" unicode="z"/><glyph d="M496 -635q-88 0 -159 78t-71 184v486q0 154 -27.5 226.5t-125.5 121.5v100q98 49 125.5 124t27.5 222v486q0 115 68.5 187.5t159.5 72.5h51v-84q-188 0 -189 -197v-495q0 -131 -28.5 -217.5t-120.5 -149.5q92 -61 120.5 -148.5t28.5 -218.5v-501q0 -190 189 -191v-86h-49 z" glyph-name="braceleft" horiz-adv-x="653" unicode="{"/><glyph d="M248 -307v1843h92v-1843h-92z" glyph-name="bar" horiz-adv-x="587" unicode="|"/><glyph d="M113 -635v86q188 0 188 191v501q0 131 28.5 218.5t121.5 148.5q-92 63 -121 149t-29 218v495q0 197 -188 197v84h51q90 0 158.5 -73t68.5 -187v-486q0 -147 27.5 -222t126.5 -124v-100q-98 -49 -126 -122t-28 -226v-486q0 -106 -70.5 -184t-158.5 -78h-49z" glyph-name="braceright" horiz-adv-x="653" unicode="}"/><glyph d="M211 952v174h166v-174h-166zM229 -410l13 1115h96l12 -1115h-121z" glyph-name="exclamdown" horiz-adv-x="583" unicode="¡"/><glyph d="M522 0v154q-178 16 -293.5 159.5t-115.5 364.5q0 225 112.5 368.5t296.5 161.5v158h99v-158q143 -16 242.5 -109t117.5 -235h-107q-20 106 -106 174t-193 68q-156 0 -250 -120t-94 -314q0 -184 93.5 -298t244.5 -114q113 0 200 69.5t105 174.5h107 q-18 -139 -117.5 -235.5t-242.5 -112.5v-156h-99z" glyph-name="cent" horiz-adv-x="1097" unicode="¢"/><glyph d="M1137 301q-8 -147 -90 -235.5t-216 -88.5q-102 0 -263.5 75t-223.5 75q-66 0 -106.5 -36t-47.5 -97h-110q8 86 59 149.5t129 81.5q45 82 45 166q0 104 -45 273h-174v96h144q-47 164 -48 303q2 176 129 300t319.5 124t308.5 -102.5t132 -284.5h-104q-39 285 -336 284 q-141 0 -242.5 -98t-101.5 -237q0 -39 6 -81t12 -66.5t21.5 -74t19.5 -67.5h482v-96h-449q41 -168 41 -275q0 -74 -35 -160q59 -14 210 -77.5t218 -63.5q195 0 205 213h111z" glyph-name="sterling" horiz-adv-x="1228" unicode="£"/><glyph d="M618 0v340h-428v90h428v213h-428v94h428l-528 799h131l457 -700l459 700h131l-529 -799h435v-94h-435v-213h435v-90h-435v-340h-121z" glyph-name="yen" horiz-adv-x="1357" unicode="¥"/><glyph d="M248 799v737h92v-737h-92zM248 -307v737h92v-737h-92z" glyph-name="brokenbar" horiz-adv-x="587" unicode="¦"/><glyph d="M201 1231v174h166v-174h-166zM512 1231v174h166v-174h-166z" glyph-name="dieresis" horiz-adv-x="108" unicode="¨"/><glyph d="M897 -20q-326 0 -557 231t-231 557t231 557t557 231t557.5 -231t231.5 -557t-231.5 -557t-557.5 -231zM897 63q295 0 501 206t206 499t-206 499t-501 206q-293 0 -498.5 -206t-205.5 -499t205.5 -499t498.5 -206zM891 344q-166 0 -270.5 118t-104.5 306t105.5 309 t273.5 121q131 0 226.5 -78t113.5 -200h-96q-18 82 -86 133t-154 51q-125 0 -203 -94.5t-78 -245.5q0 -143 77 -231.5t198 -88.5q90 0 159.5 50.5t86.5 130.5h96q-20 -123 -115.5 -202t-228.5 -79z" glyph-name="copyright" horiz-adv-x="1794" unicode="©"/><glyph d="M547 195l-311 376l311 377h119l-312 -377l312 -376h-119zM899 195l-311 376l311 377h121l-311 -377l311 -376h-121z" glyph-name="guillemotleft" horiz-adv-x="1253" unicode="«"/><glyph d="M193 483v78h716v-78h-716z" glyph-name="uni00AD" horiz-adv-x="1208" unicode="­"/><glyph d="M897 -20q-326 0 -557 231t-231 557t231 557t557 231t557.5 -231t231.5 -557t-231.5 -557t-557.5 -231zM897 63q295 0 501 206t206 499t-206 499t-501 206q-293 0 -498.5 -206t-205.5 -499t205.5 -499t498.5 -206zM1114 362q-14 31 -27 189q0 8 -2 29.5t-3 28.5t-3 25.5 t-5 26t-8 20.5t-11 19.5t-16.5 15.5t-22.5 12t-27.5 6t-36.5 3h-233v-368h-96v827h325q119 0 185.5 -60.5t66.5 -168.5q0 -119 -104 -181q47 -27 62.5 -72.5t21.5 -129.5q12 -162 43 -222h-109zM719 829h229q70 0 115 39t45 99q0 137 -160 137h-229v-275z" glyph-name="registered" horiz-adv-x="1794" unicode="®"/><glyph d="M70 1243v94h635v-94h-635z" glyph-name="macron" horiz-adv-x="137" unicode="¯"/><glyph d="M508 1008q-113 0 -194 80.5t-81 193.5q0 115 80 194.5t195 79.5q113 0 193.5 -80.5t80.5 -193.5t-80.5 -193.5t-193.5 -80.5zM508 1085q82 0 139.5 57.5t57.5 139.5t-57.5 139.5t-139.5 57.5t-139.5 -57.5t-57.5 -139.5t57.5 -139.5t139.5 -57.5z" glyph-name="degree" horiz-adv-x="1013" unicode="°"/><glyph d="M-305 1229h-121l215 239h141z" glyph-name="acute" horiz-adv-x="0" unicode="´"/><glyph d="M207 537v174h166v-174h-166z" glyph-name="periodcentered" horiz-adv-x="552" unicode="·"/><glyph d="M303 -532q-66 0 -133.5 34.5t-99.5 85.5l65 33q27 -33 75 -56.5t93 -23.5q55 0 92 38t37 93q0 57 -37 90t-96 33q-37 0 -86 -16l-63 45l86 176h75l-65 -143q31 6 57 6q88 0 146.5 -53.5t58.5 -137.5q0 -86 -59.5 -145t-145.5 -59z" glyph-name="cedilla" horiz-adv-x="108" unicode="¸"/><glyph d="M233 195l312 376l-312 377h119l312 -377l-312 -376h-119zM586 195l311 376l-311 377h121l311 -377l-311 -376h-121z" glyph-name="guillemotright" horiz-adv-x="1253" unicode="»"/><glyph d="M475 950v174h166v-174h-166zM559 -410q-176 0 -298 117t-122 285q0 82 38 149.5t92.5 115.5t107.5 98.5t91 121t38 156.5v125h106v-107q0 -111 -37.5 -194.5t-92 -135t-109 -95.5t-92 -102t-37.5 -132q0 -125 92 -212t223 -87q121 0 212 81t103 195h105 q-10 -158 -131 -268.5t-289 -110.5z" glyph-name="questiondown" horiz-adv-x="1032" unicode="¿"/><glyph d="M688 1559l-235 239h141l215 -239h-121zM211 0l-129 2l547 1432h129l551 -1434h-129l-154 412h-664zM406 530h579l-291 779z" glyph-name="Agrave" horiz-adv-x="1390" unicode="À"/><glyph d="M750 1554h-121l215 240h141zM211 0l-129 2l547 1432h129l551 -1434h-129l-154 412h-664zM406 530h579l-291 779z" glyph-name="Aacute" horiz-adv-x="1390" unicode="Á"/><glyph d="M623 1745h145l205 -205h-137l-140 137l-137 -137h-141zM211 0l-129 2l547 1432h129l551 -1434h-129l-154 412h-664zM406 530h579l-291 779z" glyph-name="Acircumflex" horiz-adv-x="1390" unicode="Â"/><glyph d="M844 1532q-117 0 -185 108q-41 68 -106 68q-45 0 -73.5 -35t-28.5 -92q0 -20 2 -31h-91q-2 10 -2 33q0 94 53.5 153.5t135.5 59.5q115 0 184 -108q41 -68 109 -68q47 0 74.5 36t27.5 93q0 4 -1 13.5t-1 13.5h88q2 -12 2 -37q0 -90 -52 -148.5t-136 -58.5zM211 0l-129 2 l547 1432h129l551 -1434h-129l-154 412h-664zM406 530h579l-291 779z" glyph-name="Atilde" horiz-adv-x="1390" unicode="Ã"/><glyph d="M453 1544v174h165v-174h-165zM764 1544v174h166v-174h-166zM211 0l-129 2l547 1432h129l551 -1434h-129l-154 412h-664zM406 530h579l-291 779z" glyph-name="Adieresis" horiz-adv-x="1390" unicode="Ä"/><glyph d="M696 1526q-82 0 -141 58t-59 138q0 82 59 140.5t141 58.5q80 0 137.5 -58.5t57.5 -140.5q0 -80 -57.5 -138t-137.5 -58zM696 1608q47 0 81 33.5t34 80.5q0 49 -34 84t-81 35q-49 0 -82.5 -34.5t-33.5 -84.5q0 -47 33.5 -80.5t82.5 -33.5zM211 0l-129 2l547 1432h129 l551 -1434h-129l-154 412h-664zM406 530h579l-291 779z" glyph-name="Aring" horiz-adv-x="1390" unicode="Å"/><glyph d="M1673 1325h-762v-545h719v-108h-719v-563h762v-109h-878v422h-424l-160 -422l-129 2l547 1432h1044v-109zM406 530h389v795h-97z" glyph-name="AE" horiz-adv-x="1775" unicode="Æ"/><glyph d="M764 106q172 0 301 97.5t162 247.5h114q-35 -205 -194.5 -334t-386.5 -129h-21l-39 -86q31 6 58 6q88 0 146.5 -53.5t58.5 -137.5q0 -86 -59.5 -145t-145.5 -59q-66 0 -133.5 34.5t-100.5 85.5l66 33q27 -33 75 -56.5t93 -23.5q55 0 92 38t37 93q0 57 -37 90t-96 33 q-37 0 -86 -16l-64 45l62 125q-244 35 -393.5 228.5t-149.5 486.5q0 330 181 532.5t464 202.5q225 0 383 -129t190 -328h-114q-37 150 -162 248t-293 98q-229 0 -376.5 -174t-147.5 -454q0 -268 144.5 -433.5t371.5 -165.5z" glyph-name="Ccedilla" horiz-adv-x="1454" unicode="Ç"/><glyph d="M623 1559l-236 239h141l215 -239h-120zM195 0v1434h878v-109h-762v-545h719v-108h-719v-563h762v-109h-878z" glyph-name="Egrave" horiz-adv-x="1175" unicode="È"/><glyph d="M684 1554h-121l215 240h142zM195 0v1434h878v-109h-762v-545h719v-108h-719v-563h762v-109h-878z" glyph-name="Eacute" horiz-adv-x="1175" unicode="É"/><glyph d="M557 1745h145l205 -205h-137l-139 137l-137 -137h-142zM195 0v1434h878v-109h-762v-545h719v-108h-719v-563h762v-109h-878z" glyph-name="Ecircumflex" horiz-adv-x="1175" unicode="Ê"/><glyph d="M387 1544v174h166v-174h-166zM698 1544v174h166v-174h-166zM195 0v1434h878v-109h-762v-545h719v-108h-719v-563h762v-109h-878z" glyph-name="Edieresis" horiz-adv-x="1175" unicode="Ë"/><glyph d="M254 1559l-236 239h142l215 -239h-121zM205 0v1434h112v-1434h-112z" glyph-name="Igrave" horiz-adv-x="522" unicode="Ì"/><glyph d="M315 1554h-120l215 240h141zM205 0v1434h112v-1434h-112z" glyph-name="Iacute" horiz-adv-x="522" unicode="Í"/><glyph d="M188 1745h146l205 -205h-138l-139 137l-137 -137h-141zM205 0v1434h112v-1434h-112z" glyph-name="Icircumflex" horiz-adv-x="518" unicode="Î"/><glyph d="M18 1544v174h166v-174h-166zM330 1544v174h166v-174h-166zM205 0v1434h112v-1434h-112z" glyph-name="Idieresis" horiz-adv-x="503" unicode="Ï"/><glyph d="M774 1438q295 0 468 -194.5t173 -516.5q0 -330 -167 -528.5t-453 -198.5l-547 -4v674h-53v104h53v660zM762 113q250 0 395.5 164.5t145.5 441t-142.5 441.5t-388.5 163l-407 -4v-545h190v-104h-190v-561z" glyph-name="Eth" horiz-adv-x="1538" unicode="Ð"/><glyph d="M881 1532q-117 0 -185 108q-41 68 -106 68q-45 0 -74 -35t-29 -92q0 -20 2 -31h-90q-2 10 -2 33q0 94 53.5 153.5t135.5 59.5q115 0 184 -108q41 -68 109 -68q47 0 74.5 36t27.5 93q0 4 -1 13.5t-1 13.5h88q2 -12 2 -37q0 -90 -52 -148.5t-136 -58.5zM1137 -2l-830 1264 v-1262h-112v1434h133l829 -1264v1262h113v-1434h-133z" glyph-name="Ntilde" horiz-adv-x="1464" unicode="Ñ"/><glyph d="M774 1559l-235 239h141l215 -239h-121zM782 -20q-283 0 -471 215t-188 522q0 315 184.5 524t475 209t475 -211t184.5 -526q0 -307 -187.5 -520t-472.5 -213zM778 94q242 0 396.5 176t154.5 435q0 270 -152.5 451t-394 181t-392 -180t-150.5 -448q0 -258 151 -436.5 t387 -178.5z" glyph-name="Ograve" horiz-adv-x="1564" unicode="Ò"/><glyph d="M836 1554h-121l215 240h141zM782 -20q-283 0 -471 215t-188 522q0 315 184.5 524t475 209t475 -211t184.5 -526q0 -307 -187.5 -520t-472.5 -213zM778 94q242 0 396.5 176t154.5 435q0 270 -152.5 451t-394 181t-392 -180t-150.5 -448q0 -258 151 -436.5t387 -178.5z" glyph-name="Oacute" horiz-adv-x="1564" unicode="Ó"/><glyph d="M709 1745h145l205 -205h-137l-140 137l-137 -137h-141zM782 -20q-283 0 -471 215t-188 522q0 315 184.5 524t475 209t475 -211t184.5 -526q0 -307 -187.5 -520t-472.5 -213zM778 94q242 0 396.5 176t154.5 435q0 270 -152.5 451t-394 181t-392 -180t-150.5 -448 q0 -258 151 -436.5t387 -178.5z" glyph-name="Ocircumflex" horiz-adv-x="1564" unicode="Ô"/><glyph d="M930 1532q-117 0 -185 108q-41 68 -106 68q-45 0 -73.5 -35t-28.5 -92q0 -20 2 -31h-90q-2 10 -3 33q0 94 53.5 153.5t135.5 59.5q115 0 184 -108q41 -68 109 -68q47 0 74.5 36t27.5 93q0 4 -1 13.5t-1 13.5h88q2 -12 2 -37q0 -90 -52 -148.5t-136 -58.5zM782 -20 q-283 0 -471 215t-188 522q0 315 184.5 524t475 209t475 -211t184.5 -526q0 -307 -187.5 -520t-472.5 -213zM778 94q242 0 396.5 176t154.5 435q0 270 -152.5 451t-394 181t-392 -180t-150.5 -448q0 -258 151 -436.5t387 -178.5z" glyph-name="Otilde" horiz-adv-x="1564" unicode="Õ"/><glyph d="M539 1544v174h166v-174h-166zM850 1544v174h166v-174h-166zM782 -20q-283 0 -471 215t-188 522q0 315 184.5 524t475 209t475 -211t184.5 -526q0 -307 -187.5 -520t-472.5 -213zM778 94q242 0 396.5 176t154.5 435q0 270 -152.5 451t-394 181t-392 -180t-150.5 -448 q0 -258 151 -436.5t387 -178.5z" glyph-name="Odieresis" horiz-adv-x="1564" unicode="Ö"/><glyph d="M367 150l-76 75l409 410l-409 412l76 75l409 -411l412 411l76 -75l-412 -412l412 -410l-76 -75l-412 409z" glyph-name="multiply" horiz-adv-x="1497" unicode="×"/><glyph d="M1260 1237q182 -207 182 -524q0 -307 -187.5 -520t-472.5 -213q-252 0 -434 176l-133 -156h-115l189 221q-166 211 -166 496q0 315 184.5 524t474.5 209q246 0 416 -152l115 136h114zM240 709q0 -231 122 -400l762 901q-143 127 -342 127q-242 0 -392 -180t-150 -448z M778 94q242 0 396.5 176t154.5 435q0 262 -143 442l-766 -905q147 -148 358 -148z" glyph-name="Oslash" horiz-adv-x="1581" unicode="Ø"/><glyph d="M698 1559l-235 239h141l215 -239h-121zM706.5 -16q-241.5 0 -387 143t-145.5 391v916h115v-916q0 -197 113.5 -310.5t304 -113.5t304 114t113.5 310v916h115v-916q0 -248 -145.5 -391t-387 -143z" glyph-name="Ugrave" horiz-adv-x="1413" unicode="Ù"/><glyph d="M760 1554h-121l215 240h141zM706.5 -16q-241.5 0 -387 143t-145.5 391v916h115v-916q0 -197 113.5 -310.5t304 -113.5t304 114t113.5 310v916h115v-916q0 -248 -145.5 -391t-387 -143z" glyph-name="Uacute" horiz-adv-x="1413" unicode="Ú"/><glyph d="M633 1745h145l205 -205h-137l-139 137l-138 -137h-141zM706.5 -16q-241.5 0 -387 143t-145.5 391v916h115v-916q0 -197 113.5 -310.5t304 -113.5t304 114t113.5 310v916h115v-916q0 -248 -145.5 -391t-387 -143z" glyph-name="Ucircumflex" horiz-adv-x="1413" unicode="Û"/><glyph d="M463 1544v174h166v-174h-166zM774 1544v174h166v-174h-166zM706.5 -16q-241.5 0 -387 143t-145.5 391v916h115v-916q0 -197 113.5 -310.5t304 -113.5t304 114t113.5 310v916h115v-916q0 -248 -145.5 -391t-387 -143z" glyph-name="Udieresis" horiz-adv-x="1413" unicode="Ü"/><glyph d="M692 1554h-121l215 240h142zM580 0v598l-519 836h125l453 -736l453 736h125l-519 -836v-598h-118z" glyph-name="Yacute" horiz-adv-x="1277" unicode="Ý"/><glyph d="M195 -2v1436h112v-285l434 2q188 -2 304 -116.5t116 -301.5q0 -184 -118.5 -296.5t-313.5 -112.5h-422v-326h-112zM307 430h434q141 0 227.5 83t86.5 220q0 141 -86 227.5t-228 86.5h-432z" glyph-name="Thorn" horiz-adv-x="1243" unicode="Þ"/><glyph d="M467 -20l-2 104h213q150 0 245 81t95 208q0 131 -106.5 220t-297.5 89h-34v96h28q176 0 279.5 89t103.5 216q0 123 -96 189.5t-229 66.5q-164 0 -260.5 -93t-96.5 -251v-1011h-114v1011q0 207 130 329t353 122q190 0 313 -96.5t123 -259.5q0 -125 -74.5 -218.5 t-197.5 -130.5q143 -31 223 -129t80 -229q0 -176 -131 -289.5t-336 -113.5h-211z" glyph-name="germandbls" horiz-adv-x="1257" unicode="ß"/><glyph d="M532 1149l-235 240h141l215 -240h-121zM449 -20q-143 0 -245 83.5t-102 225.5q0 139 101 221q94 74 272 90q68 6 112 13.5t103.5 23.5t91 47t31.5 74q0 92 -75.5 142t-186.5 50q-123 0 -201 -58t-92 -163l-117 -2q16 147 126 234.5t282 87.5q176 0 276.5 -92.5 t100.5 -243.5v-713h-113v160q-137 -180 -364 -180zM459 90q133 0 243.5 86t110.5 250v166q-63 -70 -303 -90q-291 -27 -291 -211q0 -96 73 -148.5t167 -52.5z" glyph-name="agrave" horiz-adv-x="1079" unicode="à"/><glyph d="M594 1145h-121l215 239h141zM449 -20q-143 0 -245 83.5t-102 225.5q0 139 101 221q94 74 272 90q68 6 112 13.5t103.5 23.5t91 47t31.5 74q0 92 -75.5 142t-186.5 50q-123 0 -201 -58t-92 -163l-117 -2q16 147 126 234.5t282 87.5q176 0 276.5 -92.5t100.5 -243.5v-713 h-113v160q-137 -180 -364 -180zM459 90q133 0 243.5 86t110.5 250v166q-63 -70 -303 -90q-291 -27 -291 -211q0 -96 73 -148.5t167 -52.5z" glyph-name="aacute" horiz-adv-x="1079" unicode="á"/><glyph d="M467 1335h145l205 -205h-137l-139 138l-138 -138h-141zM449 -20q-143 0 -245 83.5t-102 225.5q0 139 101 221q94 74 272 90q68 6 112 13.5t103.5 23.5t91 47t31.5 74q0 92 -75.5 142t-186.5 50q-123 0 -201 -58t-92 -163l-117 -2q16 147 126 234.5t282 87.5 q176 0 276.5 -92.5t100.5 -243.5v-713h-113v160q-137 -180 -364 -180zM459 90q133 0 243.5 86t110.5 250v166q-63 -70 -303 -90q-291 -27 -291 -211q0 -96 73 -148.5t167 -52.5z" glyph-name="acircumflex" horiz-adv-x="1079" unicode="â"/><glyph d="M688 1122q-117 0 -184 109q-41 68 -107 67q-45 0 -73.5 -34.5t-28.5 -92.5q0 -20 2 -30h-90q-2 10 -2 33q0 94 53 153t135 59q115 0 185 -108q41 -68 108 -68q47 0 74.5 36t27.5 93q0 4 -1 13.5t-1 13.5h88q2 -12 3 -37q0 -90 -52.5 -148.5t-136.5 -58.5zM449 -20 q-143 0 -245 83.5t-102 225.5q0 139 101 221q94 74 272 90q68 6 112 13.5t103.5 23.5t91 47t31.5 74q0 92 -75.5 142t-186.5 50q-123 0 -201 -58t-92 -163l-117 -2q16 147 126 234.5t282 87.5q176 0 276.5 -92.5t100.5 -243.5v-713h-113v160q-137 -180 -364 -180zM459 90 q133 0 243.5 86t110.5 250v166q-63 -70 -303 -90q-291 -27 -291 -211q0 -96 73 -148.5t167 -52.5z" glyph-name="atilde" horiz-adv-x="1079" unicode="ã"/><glyph d="M297 1135v174h166v-174h-166zM608 1135v174h166v-174h-166zM449 -20q-143 0 -245 83.5t-102 225.5q0 139 101 221q94 74 272 90q68 6 112 13.5t103.5 23.5t91 47t31.5 74q0 92 -75.5 142t-186.5 50q-123 0 -201 -58t-92 -163l-117 -2q16 147 126 234.5t282 87.5 q176 0 276.5 -92.5t100.5 -243.5v-713h-113v160q-137 -180 -364 -180zM459 90q133 0 243.5 86t110.5 250v166q-63 -70 -303 -90q-291 -27 -291 -211q0 -96 73 -148.5t167 -52.5z" glyph-name="adieresis" horiz-adv-x="1079" unicode="ä"/><glyph d="M541 1116q-82 0 -141.5 58.5t-59.5 138.5q0 82 59.5 140t141.5 58q80 0 137 -58t57 -140q0 -80 -57 -138.5t-137 -58.5zM541 1198q47 0 80.5 34t33.5 81q0 49 -33.5 84t-80.5 35q-49 0 -83 -35t-34 -84q0 -47 34 -81t83 -34zM449 -20q-143 0 -245 83.5t-102 225.5 q0 139 101 221q94 74 272 90q68 6 112 13.5t103.5 23.5t91 47t31.5 74q0 92 -75.5 142t-186.5 50q-123 0 -201 -58t-92 -163l-117 -2q16 147 126 234.5t282 87.5q176 0 276.5 -92.5t100.5 -243.5v-713h-113v160q-137 -180 -364 -180zM459 90q133 0 243.5 86t110.5 250v166 q-63 -70 -303 -90q-291 -27 -291 -211q0 -96 73 -148.5t167 -52.5z" glyph-name="aring" horiz-adv-x="1079" unicode="å"/><glyph d="M1300 86q115 0 204 69.5t112 174.5h108q-20 -154 -140 -253.5t-290 -99.5q-137 0 -243.5 68t-163.5 191q-33 -90 -158 -173t-287 -83q-141 0 -240.5 83.5t-99.5 225.5q0 139 101 221q94 74 272 90q68 6 112 13.5t103.5 23.5t91 47t31.5 74q0 92 -75.5 142t-186.5 50 q-123 0 -201 -58t-92 -163l-117 -2q16 147 126 234.5t282 87.5q141 0 234.5 -60.5t125.5 -165.5q125 213 387 213q205 0 324 -150.5t121 -393.5h-789v-3q0 -184 93 -293.5t255 -109.5zM1292 930q-150 0 -231.5 -90t-102.5 -244h658q-20 160 -95 247t-229 87zM813 426v166 q-63 -70 -303 -90q-291 -23 -291 -211q0 -96 73 -148.5t167 -52.5q133 0 243.5 86t110.5 250z" glyph-name="ae" horiz-adv-x="1843" unicode="æ"/><glyph d="M559 94q113 0 200 69.5t105 174.5h107q-20 -154 -137 -253t-281 -99h-6l-37 -82q31 6 57 6q88 0 146.5 -53.5t58.5 -137.5q0 -86 -59.5 -145t-145.5 -59q-66 0 -133 34.5t-100 85.5l65 33q27 -33 75 -56.5t93 -23.5q55 0 92 38t37 93q0 57 -36.5 90t-96.5 33 q-37 0 -86 -16l-63 45l59 121q-164 31 -267.5 171t-103.5 349q0 240 128 386t331 146q160 0 274.5 -97t135.5 -249h-107q-20 106 -106 174t-193 68q-156 0 -250 -120t-94 -314q0 -184 93 -298t245 -114z" glyph-name="ccedilla" horiz-adv-x="1073" unicode="ç"/><glyph d="M549 1149l-236 240h142l215 -240h-121zM565 -23q-205 0 -334 144.5t-129 382t125 385t340 147.5q205 0 324 -150.5t121 -393.5h-789v-3q0 -184 93.5 -293.5t254.5 -109.5q115 0 204 69.5t112 174.5h108q-20 -154 -140 -253.5t-290 -99.5zM229 596h658q-20 160 -95 247 t-229 87q-150 0 -232 -90t-102 -244z" glyph-name="egrave" horiz-adv-x="1114" unicode="è"/><glyph d="M610 1145h-121l216 239h141zM565 -23q-205 0 -334 144.5t-129 382t125 385t340 147.5q205 0 324 -150.5t121 -393.5h-789v-3q0 -184 93.5 -293.5t254.5 -109.5q115 0 204 69.5t112 174.5h108q-20 -154 -140 -253.5t-290 -99.5zM229 596h658q-20 160 -95 247t-229 87 q-150 0 -232 -90t-102 -244z" glyph-name="eacute" horiz-adv-x="1114" unicode="é"/><glyph d="M483 1335h146l205 -205h-138l-139 138l-137 -138h-141zM565 -23q-205 0 -334 144.5t-129 382t125 385t340 147.5q205 0 324 -150.5t121 -393.5h-789v-3q0 -184 93.5 -293.5t254.5 -109.5q115 0 204 69.5t112 174.5h108q-20 -154 -140 -253.5t-290 -99.5zM229 596h658 q-20 160 -95 247t-229 87q-150 0 -232 -90t-102 -244z" glyph-name="ecircumflex" horiz-adv-x="1114" unicode="ê"/><glyph d="M313 1135v174h166v-174h-166zM625 1135v174h166v-174h-166zM565 -23q-205 0 -334 144.5t-129 382t125 385t340 147.5q205 0 324 -150.5t121 -393.5h-789v-3q0 -184 93.5 -293.5t254.5 -109.5q115 0 204 69.5t112 174.5h108q-20 -154 -140 -253.5t-290 -99.5zM229 596h658 q-20 160 -95 247t-229 87q-150 0 -232 -90t-102 -244z" glyph-name="edieresis" horiz-adv-x="1114" unicode="ë"/><glyph d="M240 1149l-236 240h141l215 -240h-120zM190 0v1024h113v-1024h-113z" glyph-name="igrave" horiz-adv-x="446" unicode="ì"/><glyph d="M254 1145h-121l215 239h141zM143 0v1024h113v-1024h-113z" glyph-name="iacute" horiz-adv-x="471" unicode="í"/><glyph d="M147 1335h146l205 -205h-138l-139 138l-137 -138h-141zM164 0v1024h112v-1024h-112z" glyph-name="icircumflex" horiz-adv-x="454" unicode="î"/><glyph d="M-31 1135v174h166v-174h-166zM281 1135v174h165v-174h-165zM156 0v1024h112v-1024h-112z" glyph-name="idieresis" horiz-adv-x="425" unicode="ï"/><glyph d="M1167 1241v-92h-137v-1149h-112v178q-49 -90 -147.5 -145.5t-209.5 -55.5q-201 0 -330 149.5t-129 379.5q0 231 127 379.5t326 148.5q115 0 215 -56t148 -149v320h-216v92h216v193h112v-193h137zM563 88q164 0 263.5 113.5t99.5 294.5q0 188 -99.5 309t-263.5 121 q-156 0 -248 -117t-92 -303q0 -184 92 -301t248 -117z" glyph-name="eth" horiz-adv-x="1341" unicode="ð"/><glyph d="M725 1122q-117 0 -184 109q-41 68 -107 67q-45 0 -73.5 -34.5t-28.5 -92.5q0 -20 2 -30h-90q-2 10 -2 33q0 94 53 153t135 59q115 0 184 -108q41 -68 109 -68q47 0 74.5 36t27.5 93q0 4 -1 13.5t-1 13.5h88q2 -12 2 -37q0 -90 -52 -148.5t-136 -58.5zM174 0v1024h113 v-147q43 74 131 124t196 50q174 0 275.5 -117t101.5 -305v-629h-112v629q0 143 -76 232t-197 89q-137 0 -227 -102.5t-92 -272.5v-575h-113z" glyph-name="ntilde" unicode="ñ"/><glyph d="M569 1149l-235 240h141l215 -240h-121zM578 -10q-209 0 -342.5 146.5t-133.5 375.5q0 231 133.5 378.5t342.5 147.5q219 0 346 -145t127 -381q0 -229 -133 -375.5t-340 -146.5zM573 96q162 0 264.5 116t102.5 296q0 190 -95 307t-267 117q-158 0 -259.5 -118t-101.5 -302 q0 -182 100 -299t256 -117z" glyph-name="ograve" horiz-adv-x="1153" unicode="ò"/><glyph d="M631 1145h-121l215 239h141zM578 -10q-209 0 -342.5 146.5t-133.5 375.5q0 231 133.5 378.5t342.5 147.5q219 0 346 -145t127 -381q0 -229 -133 -375.5t-340 -146.5zM573 96q162 0 264.5 116t102.5 296q0 190 -95 307t-267 117q-158 0 -259.5 -118t-101.5 -302 q0 -182 100 -299t256 -117z" glyph-name="oacute" horiz-adv-x="1153" unicode="ó"/><glyph d="M504 1335h145l205 -205h-137l-139 138l-138 -138h-141zM578 -10q-209 0 -342.5 146.5t-133.5 375.5q0 231 133.5 378.5t342.5 147.5q219 0 346 -145t127 -381q0 -229 -133 -375.5t-340 -146.5zM573 96q162 0 264.5 116t102.5 296q0 190 -95 307t-267 117 q-158 0 -259.5 -118t-101.5 -302q0 -182 100 -299t256 -117z" glyph-name="ocircumflex" horiz-adv-x="1153" unicode="ô"/><glyph d="M725 1122q-117 0 -184 109q-41 68 -107 67q-45 0 -73.5 -34.5t-28.5 -92.5q0 -20 2 -30h-90q-2 10 -2 33q0 94 53 153t135 59q115 0 184 -108q41 -68 109 -68q47 0 74.5 36t27.5 93q0 4 -1 13.5t-1 13.5h88q2 -12 2 -37q0 -90 -52 -148.5t-136 -58.5zM578 -10 q-209 0 -342.5 146.5t-133.5 375.5q0 231 133.5 378.5t342.5 147.5q219 0 346 -145t127 -381q0 -229 -133 -375.5t-340 -146.5zM573 96q162 0 264.5 116t102.5 296q0 190 -95 307t-267 117q-158 0 -259.5 -118t-101.5 -302q0 -182 100 -299t256 -117z" glyph-name="otilde" horiz-adv-x="1153" unicode="õ"/><glyph d="M334 1135v174h166v-174h-166zM645 1135v174h166v-174h-166zM578 -10q-209 0 -342.5 146.5t-133.5 375.5q0 231 133.5 378.5t342.5 147.5q219 0 346 -145t127 -381q0 -229 -133 -375.5t-340 -146.5zM573 96q162 0 264.5 116t102.5 296q0 190 -95 307t-267 117 q-158 0 -259.5 -118t-101.5 -302q0 -182 100 -299t256 -117z" glyph-name="odieresis" horiz-adv-x="1153" unicode="ö"/><glyph d="M662 850v174h165v-174h-165zM246 541v96h1005v-96h-1005zM662 147v175h165v-175h-165z" glyph-name="divide" horiz-adv-x="1488" unicode="÷"/><glyph d="M1079 1024l-137 -154q109 -141 109 -358q0 -229 -133.5 -375.5t-339.5 -146.5q-190 0 -320 123l-100 -113h-103l154 170q-106 141 -107 342q0 231 133.5 378.5t342.5 147.5q188 0 311 -110l88 96h102zM217 512q0 -150 68 -256l530 590q-92 86 -237 86q-158 0 -259.5 -118 t-101.5 -302zM940 508q0 172 -74 278l-532 -591q98 -98 239 -99q162 0 264.5 116t102.5 296z" glyph-name="oslash" horiz-adv-x="1177" unicode="ø"/><glyph d="M569 1149l-235 240h141l215 -240h-121zM541 -27q-174 0 -275.5 117t-101.5 305v629h112v-629q2 -133 78 -227t195 -94q150 0 233.5 100t85.5 275v575h113v-1024h-113v147q-43 -74 -130.5 -124t-196.5 -50z" glyph-name="ugrave" unicode="ù"/><glyph d="M631 1145h-121l215 239h141zM541 -27q-174 0 -275.5 117t-101.5 305v629h112v-629q2 -133 78 -227t195 -94q150 0 233.5 100t85.5 275v575h113v-1024h-113v147q-43 -74 -130.5 -124t-196.5 -50z" glyph-name="uacute" unicode="ú"/><glyph d="M504 1335h145l205 -205h-137l-139 138l-138 -138h-141zM541 -27q-174 0 -275.5 117t-101.5 305v629h112v-629q2 -133 78 -227t195 -94q150 0 233.5 100t85.5 275v575h113v-1024h-113v147q-43 -74 -130.5 -124t-196.5 -50z" glyph-name="ucircumflex" unicode="û"/><glyph d="M334 1135v174h166v-174h-166zM645 1135v174h166v-174h-166zM541 -27q-174 0 -275.5 117t-101.5 305v629h112v-629q2 -133 78 -227t195 -94q150 0 233.5 100t85.5 275v575h113v-1024h-113v147q-43 -74 -130.5 -124t-196.5 -50z" glyph-name="udieresis" unicode="ü"/><glyph d="M555 1145h-121l215 239h142zM92 -410v109h58q154 0 212 147l82 213l-403 965h133l328 -815l327 815h132l-480 -1192q-45 -119 -117.5 -179.5t-213.5 -62.5h-58z" glyph-name="yacute" horiz-adv-x="1001" unicode="ý"/><glyph d="M121 -326v1704h112v-532q49 90 147.5 145.5t209.5 55.5q201 0 330 -149.5t129 -379.5q0 -231 -127 -379.5t-326 -148.5q-115 0 -215 56t-148 149v-521h-112zM588 98q156 0 248 117t92 303q0 184 -92.5 301t-247.5 117q-164 0 -263.5 -113.5t-99.5 -294.5 q0 -188 99.5 -309t263.5 -121z" glyph-name="thorn" horiz-adv-x="1126" unicode="þ"/><glyph d="M258 1135v174h166v-174h-166zM569 1135v174h166v-174h-166zM92 -410v109h58q154 0 212 147l82 213l-403 965h133l328 -815l327 815h132l-480 -1192q-45 -119 -117.5 -179.5t-213.5 -62.5h-58z" glyph-name="ydieresis" horiz-adv-x="1001" unicode="ÿ"/><glyph d="M385 1589v94h635v-94h-635zM211 0l-129 2l547 1432h129l551 -1434h-129l-154 412h-664zM406 530h579l-291 779z" glyph-name="Amacron" horiz-adv-x="1390" unicode="Ā"/><glyph d="M229 1180v94h635v-94h-635zM449 -20q-143 0 -245 83.5t-102 225.5q0 139 101 221q94 74 272 90q68 6 112 13.5t103.5 23.5t91 47t31.5 74q0 92 -75.5 142t-186.5 50q-123 0 -201 -58t-92 -163l-117 -2q16 147 126 234.5t282 87.5q176 0 276.5 -92.5t100.5 -243.5v-713 h-113v160q-137 -180 -364 -180zM459 90q133 0 243.5 86t110.5 250v166q-63 -70 -303 -90q-291 -27 -291 -211q0 -96 73 -148.5t167 -52.5z" glyph-name="amacron" horiz-adv-x="1079" unicode="ā"/><glyph d="M696 1546q-143 0 -236 84t-93 221h88q0 -94 63.5 -158.5t177.5 -64.5q117 0 181.5 64.5t64.5 158.5h86q0 -137 -93.5 -221t-238.5 -84zM211 0l-129 2l547 1432h129l551 -1434h-129l-154 412h-664zM406 530h579l-291 779z" glyph-name="Abreve" horiz-adv-x="1390" unicode="Ă"/><glyph d="M541 1137q-143 0 -236.5 84t-93.5 221h88q0 -94 63.5 -158.5t178.5 -64.5q117 0 181 64.5t64 158.5h86q0 -137 -93 -221t-238 -84zM449 -20q-143 0 -245 83.5t-102 225.5q0 139 101 221q94 74 272 90q68 6 112 13.5t103.5 23.5t91 47t31.5 74q0 92 -75.5 142t-186.5 50 q-123 0 -201 -58t-92 -163l-117 -2q16 147 126 234.5t282 87.5q176 0 276.5 -92.5t100.5 -243.5v-713h-113v160q-137 -180 -364 -180zM459 90q133 0 243.5 86t110.5 250v166q-63 -70 -303 -90q-291 -27 -291 -211q0 -96 73 -148.5t167 -52.5z" glyph-name="abreve" horiz-adv-x="1079" unicode="ă"/><glyph d="M1397 -365l47 -67q-102 -100 -256 -100q-102 0 -163.5 56t-61.5 152q0 178 225 324h-8l-154 412h-664l-151 -412l-129 2l547 1432h129l551 -1432l8 -2q-98 -43 -178 -129t-80 -182q0 -63 37 -102.5t104 -39.5q119 0 197 88zM406 530h579l-291 779z" glyph-name="Aogonek" horiz-adv-x="1228" unicode="Ą"/><glyph d="M1008 -365l47 -67q-102 -100 -256 -100q-102 0 -164 56t-62 152q0 174 240 326v158q-137 -180 -364 -180q-143 0 -245 83.5t-102 225.5q0 139 101 221q94 74 272 90q68 6 112 13.5t103.5 23.5t91 47t31.5 74q0 92 -75.5 142t-186.5 50q-123 0 -201 -58t-92 -163l-117 -2 q16 147 126 234.5t282 87.5q176 0 276.5 -92.5t100.5 -243.5v-713q-98 -43 -177 -128t-79 -183q0 -63 36.5 -102.5t104.5 -39.5q119 0 197 88zM459 90q133 0 243.5 86t110.5 250v166q-63 -70 -303 -90q-291 -27 -291 -211q0 -96 73 -148.5t167 -52.5z" glyph-name="aogonek" horiz-adv-x="1079" unicode="ą"/><glyph d="M780 1554h-121l215 240h142zM760 -12q-281 0 -459 199.5t-178 521.5q0 330 181 532.5t464 202.5q225 0 383 -129t190 -328h-114q-37 150 -162 248t-293 98q-229 0 -376.5 -174t-147.5 -454q0 -268 144.5 -433.5t371.5 -165.5q172 0 301 97.5t162 247.5h114 q-35 -205 -194.5 -334t-386.5 -129z" glyph-name="Cacute" horiz-adv-x="1454" unicode="Ć"/><glyph d="M590 1145h-121l215 239h141zM553 -14q-195 0 -323 146.5t-128 379.5q0 240 128 386t331 146q160 0 274.5 -97t135.5 -249h-107q-20 106 -106 174t-193 68q-156 0 -250 -120t-94 -314q0 -184 93.5 -298t244.5 -114q113 0 200 69.5t105 174.5h107q-20 -154 -137 -253 t-281 -99z" glyph-name="cacute" horiz-adv-x="1073" unicode="ć"/><glyph d="M653 1745h146l205 -205h-138l-139 137l-137 -137h-141zM760 -12q-281 0 -459 199.5t-178 521.5q0 330 181 532.5t464 202.5q225 0 383 -129t190 -328h-114q-37 150 -162 248t-293 98q-229 0 -376.5 -174t-147.5 -454q0 -268 144.5 -433.5t371.5 -165.5q172 0 301 97.5 t162 247.5h114q-35 -205 -194.5 -334t-386.5 -129z" glyph-name="Ccircumflex" horiz-adv-x="1454" unicode="Ĉ"/><glyph d="M463 1335h145l205 -205h-137l-139 138l-138 -138h-141zM553 -14q-195 0 -323 146.5t-128 379.5q0 240 128 386t331 146q160 0 274.5 -97t135.5 -249h-107q-20 106 -106 174t-193 68q-156 0 -250 -120t-94 -314q0 -184 93.5 -298t244.5 -114q113 0 200 69.5t105 174.5h107 q-20 -154 -137 -253t-281 -99z" glyph-name="ccircumflex" horiz-adv-x="1073" unicode="ĉ"/><glyph d="M639 1571v174h166v-174h-166zM760 -12q-281 0 -459 199.5t-178 521.5q0 330 181 532.5t464 202.5q225 0 383 -129t190 -328h-114q-37 150 -162 248t-293 98q-229 0 -376.5 -174t-147.5 -454q0 -268 144.5 -433.5t371.5 -165.5q172 0 301 97.5t162 247.5h114 q-35 -205 -194.5 -334t-386.5 -129z" glyph-name="Cdotaccent" horiz-adv-x="1454" unicode="Ċ"/><glyph d="M449 1161v174h165v-174h-165zM553 -14q-195 0 -323 146.5t-128 379.5q0 240 128 386t331 146q160 0 274.5 -97t135.5 -249h-107q-20 106 -106 174t-193 68q-156 0 -250 -120t-94 -314q0 -184 93.5 -298t244.5 -114q113 0 200 69.5t105 174.5h107q-20 -154 -137 -253 t-281 -99z" glyph-name="cdotaccent" horiz-adv-x="1073" unicode="ċ"/><glyph d="M442 1733h142l137 -138l139 138h137l-204 -205h-146zM760 -12q-281 0 -459 199.5t-178 521.5q0 330 181 532.5t464 202.5q225 0 383 -129t190 -328h-114q-37 150 -162 248t-293 98q-229 0 -376.5 -174t-147.5 -454q0 -268 144.5 -433.5t371.5 -165.5q172 0 301 97.5 t162 247.5h114q-35 -205 -194.5 -334t-386.5 -129z" glyph-name="Ccaron" horiz-adv-x="1454" unicode="Č"/><glyph d="M252 1323h141l137 -137l140 137h137l-205 -205h-145zM553 -14q-195 0 -323 146.5t-128 379.5q0 240 128 386t331 146q160 0 274.5 -97t135.5 -249h-107q-20 106 -106 174t-193 68q-156 0 -250 -120t-94 -314q0 -184 93.5 -298t244.5 -114q113 0 200 69.5t105 174.5h107 q-20 -154 -137 -253t-281 -99z" glyph-name="ccaron" horiz-adv-x="1073" unicode="č"/><glyph d="M459 1733h141l137 -138l140 138h137l-205 -205h-145zM195 -4v1438l526 4q295 0 468 -194.5t173 -516.5q0 -330 -167 -528.5t-454 -198.5zM311 109l398 4q250 0 395 164.5t145 441t-142 441.5t-388 163l-408 -4v-1210z" glyph-name="Dcaron" horiz-adv-x="1484" unicode="Ď"/><glyph d="M561 -23q-201 0 -330 149.5t-129 379.5q0 231 127 379.5t326 148.5q115 0 215 -56t148 -149v605h112v-1434h-112v178q-49 -90 -147.5 -145.5t-209.5 -55.5zM254 1434h141l137 -138l140 138h137l-205 -205h-145zM563 88q164 0 263.5 113.5t99.5 294.5q0 188 -99.5 309 t-263.5 121q-156 0 -248 -117t-92 -303q0 -184 92 -301t248 -117z" glyph-name="dcaron" horiz-adv-x="1204" unicode="ď"/><glyph d="M805 1438q295 0 468 -194.5t173 -516.5q0 -330 -167 -528.5t-454 -198.5l-546 -4v674h-115v104h115v660zM793 113q250 0 395 164.5t145 441t-142 441.5t-388 163l-408 -4v-545h353v-104h-353v-561z" glyph-name="Dcroat" horiz-adv-x="1624" unicode="Đ"/><glyph d="M319 1589v94h635v-94h-635zM195 0v1434h878v-109h-762v-545h719v-108h-719v-563h762v-109h-878z" glyph-name="Emacron" horiz-adv-x="1175" unicode="Ē"/><glyph d="M246 1180v94h635v-94h-635zM565 -23q-205 0 -334 144.5t-129 382t125 385t340 147.5q205 0 324 -150.5t121 -393.5h-789v-3q0 -184 93.5 -293.5t254.5 -109.5q115 0 204 69.5t112 174.5h108q-20 -154 -140 -253.5t-290 -99.5zM229 596h658q-20 160 -95 247t-229 87 q-150 0 -232 -90t-102 -244z" glyph-name="emacron" horiz-adv-x="1114" unicode="ē"/><glyph d="M631 1546q-143 0 -236.5 84t-93.5 221h88q0 -94 63.5 -158.5t178.5 -64.5q117 0 181.5 64.5t64.5 158.5h86q0 -137 -93.5 -221t-238.5 -84zM195 0v1434h878v-109h-762v-545h719v-108h-719v-563h762v-109h-878z" glyph-name="Ebreve" horiz-adv-x="1175" unicode="Ĕ"/><glyph d="M557 1137q-143 0 -236.5 84t-93.5 221h88q0 -94 63.5 -158.5t178.5 -64.5q117 0 181.5 64.5t64.5 158.5h86q0 -137 -93.5 -221t-238.5 -84zM565 -23q-205 0 -334 144.5t-129 382t125 385t340 147.5q205 0 324 -150.5t121 -393.5h-789v-3q0 -184 93.5 -293.5t254.5 -109.5 q115 0 204 69.5t112 174.5h108q-20 -154 -140 -253.5t-290 -99.5zM229 596h658q-20 160 -95 247t-229 87q-150 0 -232 -90t-102 -244z" glyph-name="ebreve" horiz-adv-x="1114" unicode="ĕ"/><glyph d="M543 1571v174h166v-174h-166zM195 0v1434h878v-109h-762v-545h719v-108h-719v-563h762v-109h-878z" glyph-name="Edotaccent" horiz-adv-x="1175" unicode="Ė"/><glyph d="M469 1161v174h166v-174h-166zM565 -23q-205 0 -334 144.5t-129 382t125 385t340 147.5q205 0 324 -150.5t121 -393.5h-789v-3q0 -184 93.5 -293.5t254.5 -109.5q115 0 204 69.5t112 174.5h108q-20 -154 -140 -253.5t-290 -99.5zM229 596h658q-20 160 -95 247t-229 87 q-150 0 -232 -90t-102 -244z" glyph-name="edotaccent" horiz-adv-x="1114" unicode="ė"/><glyph d="M1153 -362l47 -68q-102 -100 -256 -100q-102 0 -163.5 56t-61.5 152q0 170 233 322h-757v1434h878v-109h-762v-545h719v-108h-719v-563h762v-109h-6q-98 -45 -175 -129t-77 -180q0 -63 37 -102.5t104 -39.5q119 1 197 89z" glyph-name="Eogonek" horiz-adv-x="1175" unicode="Ę"/><glyph d="M571 86q115 0 204 69.5t112 174.5h108q-18 -139 -122.5 -236.5t-254.5 -113.5h3q-98 -43 -177 -128t-79 -184q0 -63 36.5 -102t104.5 -39q119 0 196 88l48 -68q-102 -100 -256 -100q-102 0 -164 56.5t-62 152.5q0 172 238 326q-182 20 -293 161.5t-111 360.5 q0 238 125 385t340 147q205 0 324 -150.5t121 -393.5h-789v-3q0 -184 93 -293.5t255 -109.5zM563 930q-150 0 -231.5 -90t-102.5 -244h658q-20 160 -95 247t-229 87z" glyph-name="eogonek" horiz-adv-x="1114" unicode="ę"/><glyph d="M346 1733h141l138 -138l139 138h137l-205 -205h-145zM195 0v1434h878v-109h-762v-545h719v-108h-719v-563h762v-109h-878z" glyph-name="Ecaron" horiz-adv-x="1175" unicode="Ě"/><glyph d="M272 1323h142l137 -137l139 137h137l-204 -205h-146zM565 -23q-205 0 -334 144.5t-129 382t125 385t340 147.5q205 0 324 -150.5t121 -393.5h-789v-3q0 -184 93.5 -293.5t254.5 -109.5q115 0 204 69.5t112 174.5h108q-20 -154 -140 -253.5t-290 -99.5zM229 596h658 q-20 160 -95 247t-229 87q-150 0 -232 -90t-102 -244z" glyph-name="ecaron" horiz-adv-x="1114" unicode="ě"/><glyph d="M711 1745h145l205 -205h-137l-140 137l-137 -137h-141zM776 -12q-279 0 -466 201.5t-187 519.5q0 328 189.5 533.5t473.5 205.5q219 0 387 -131t197 -330h-115q-25 150 -159.5 252t-304.5 102q-231 0 -390 -179t-159 -457q0 -264 156.5 -434.5t383.5 -170.5q76 0 156 29 t154.5 86t126 156.5t57.5 224.5h-449v117l555 -4v-709l-110 -2l2 276q-80 -141 -216.5 -213.5t-281.5 -72.5z" glyph-name="Gcircumflex" horiz-adv-x="1566" unicode="Ĝ"/><glyph d="M512 1354h145l205 -205h-137l-139 137l-137 -137h-142zM563 -422q-178 0 -295.5 94.5t-126.5 249.5h115q10 -117 99 -178t208 -61q164 0 259.5 95t95.5 281v136q-47 -92 -147.5 -148.5t-215.5 -56.5q-199 0 -326 148.5t-127 379.5q0 229 129 379t330 150q111 0 209 -55.5 t148 -145.5v178h112v-965q0 -238 -128 -359.5t-339 -121.5zM563 98q164 0 263.5 121t99.5 309q0 180 -99.5 294t-263.5 114q-156 0 -248 -117t-92 -301q0 -186 92 -303t248 -117z" glyph-name="gcircumflex" horiz-adv-x="1193" unicode="ĝ"/><glyph d="M784 1546q-143 0 -236 84t-93 221h88q0 -94 63.5 -158.5t177.5 -64.5q117 0 181.5 64.5t64.5 158.5h86q0 -137 -93.5 -221t-238.5 -84zM776 -12q-279 0 -466 201.5t-187 519.5q0 328 189.5 533.5t473.5 205.5q219 0 387 -131t197 -330h-115q-25 150 -159.5 252 t-304.5 102q-231 0 -390 -179t-159 -457q0 -264 156.5 -434.5t383.5 -170.5q76 0 156 29t154.5 86t126 156.5t57.5 224.5h-449v117l555 -4v-709l-110 -2l2 276q-80 -141 -216.5 -213.5t-281.5 -72.5z" glyph-name="Gbreve" horiz-adv-x="1566" unicode="Ğ"/><glyph d="M586 1155q-143 0 -236.5 84t-93.5 221h88q0 -94 63.5 -158.5t178.5 -64.5q117 0 181 64.5t64 158.5h87q0 -137 -93.5 -221t-238.5 -84zM563 -422q-178 0 -295.5 94.5t-126.5 249.5h115q10 -117 99 -178t208 -61q164 0 259.5 95t95.5 281v136q-47 -92 -147.5 -148.5 t-215.5 -56.5q-199 0 -326 148.5t-127 379.5q0 229 129 379t330 150q111 0 209 -55.5t148 -145.5v178h112v-965q0 -238 -128 -359.5t-339 -121.5zM563 98q164 0 263.5 121t99.5 309q0 180 -99.5 294t-263.5 114q-156 0 -248 -117t-92 -301q0 -186 92 -303t248 -117z" glyph-name="gbreve" horiz-adv-x="1193" unicode="ğ"/><glyph d="M696 1571v174h166v-174h-166zM776 -12q-279 0 -466 201.5t-187 519.5q0 328 189.5 533.5t473.5 205.5q219 0 387 -131t197 -330h-115q-25 150 -159.5 252t-304.5 102q-231 0 -390 -179t-159 -457q0 -264 156.5 -434.5t383.5 -170.5q76 0 156 29t154.5 86t126 156.5 t57.5 224.5h-449v117l555 -4v-709l-110 -2l2 276q-80 -141 -216.5 -213.5t-281.5 -72.5z" glyph-name="Gdotaccent" horiz-adv-x="1566" unicode="Ġ"/><glyph d="M498 1180v174h166v-174h-166zM563 -422q-178 0 -295.5 94.5t-126.5 249.5h115q10 -117 99 -178t208 -61q164 0 259.5 95t95.5 281v136q-47 -92 -147.5 -148.5t-215.5 -56.5q-199 0 -326 148.5t-127 379.5q0 229 129 379t330 150q111 0 209 -55.5t148 -145.5v178h112v-965 q0 -238 -128 -359.5t-339 -121.5zM563 98q164 0 263.5 121t99.5 309q0 180 -99.5 294t-263.5 114q-156 0 -248 -117t-92 -301q0 -186 92 -303t248 -117z" glyph-name="gdotaccent" horiz-adv-x="1193" unicode="ġ"/><glyph d="M776 -12q-279 0 -466 201.5t-187 519.5q0 328 189.5 533.5t473.5 205.5q219 0 387 -131t197 -330h-115q-25 150 -159.5 252t-304.5 102q-231 0 -390 -179t-159 -457q0 -264 156.5 -434.5t383.5 -170.5q76 0 156 29t154.5 86t126 156.5t57.5 224.5h-449v117l555 -4v-709 l-110 -2l2 276q-80 -141 -216.5 -213.5t-281.5 -72.5zM707 -502v78q41 2 63.5 32t17.5 75h-88v174h166v-174q2 -84 -43.5 -134.5t-115.5 -50.5z" glyph-name="Gcommaaccent" horiz-adv-x="1566" unicode="Ģ"/><glyph d="M563 -422q-178 0 -295.5 94.5t-126.5 249.5h115q10 -117 99 -178t208 -61q164 0 259.5 95t95.5 281v136q-47 -92 -147.5 -148.5t-215.5 -56.5q-199 0 -326 148.5t-127 379.5q0 229 129 379t330 150q111 0 209 -55.5t148 -145.5v178h112v-965q0 -238 -128 -359.5 t-339 -121.5zM563 98q164 0 263.5 121t99.5 309q0 180 -99.5 294t-263.5 114q-156 0 -248 -117t-92 -301q0 -186 92 -303t248 -117zM520 -911v77q41 2 63.5 32t18.5 75h-88v174h166v-174q2 -84 -44 -134t-116 -50z" glyph-name="gcommaaccent" horiz-adv-x="1193" unicode="ģ"/><glyph d="M637 1745h145l205 -205h-137l-139 137l-138 -137h-141zM195 0v1434h116v-654h797v654h117v-1434h-117v672h-797v-672h-116z" glyph-name="Hcircumflex" horiz-adv-x="1419" unicode="Ĥ"/><glyph d="M174 0v1434h113v-557q43 74 131 124t196 50q174 0 275.5 -117t101.5 -305v-629h-112v629q-2 133 -78 227t-195 94q-150 0 -233.5 -100t-85.5 -275v-575h-113zM596 1434h145l205 -205h-137l-139 137l-138 -137h-141z" glyph-name="hcircumflex" unicode="ĥ"/><glyph d="M1317 1214v-110h-92v-1104h-117v672h-797v-672h-116v1104h-91v110h91v220h116v-220h797v220h117v-220h92zM1108 780v324h-797v-324h797z" glyph-name="Hbar" horiz-adv-x="1533" unicode="Ħ"/><glyph d="M760 1051q174 0 275.5 -117t101.5 -305v-629h-113v629q-2 133 -78 227t-194 94q-150 0 -234 -100t-86 -275v-575h-113v1208h-145v88h145v138h113v-138h270v-88h-270v-331q43 74 131 124t197 50z" glyph-name="hbar" horiz-adv-x="1300" unicode="ħ"/><glyph d="M410 1532q-117 0 -185 108q-41 68 -106 68q-45 0 -74 -35t-29 -92q0 -20 2 -31h-90q-2 10 -2 33q0 94 53.5 153.5t135.5 59.5q115 0 184 -108q41 -68 109 -68q47 0 74.5 36t27.5 93q0 4 -1 13.5t-1 13.5h88q2 -12 2 -37q0 -90 -52 -148.5t-136 -58.5zM205 0v1434h112 v-1434h-112z" glyph-name="Itilde" horiz-adv-x="522" unicode="Ĩ"/><glyph d="M410 1122q-117 0 -185 109q-41 68 -106 67q-45 0 -74 -34.5t-29 -92.5q0 -20 2 -30h-90q-2 10 -2 33q0 94 53.5 153t135.5 59q115 0 184 -108q41 -68 109 -68q47 0 74.5 36t27.5 93q0 4 -1 13.5t-1 13.5h88q2 -12 2 -37q0 -90 -52 -148.5t-136 -58.5zM205 0v1024h112 v-1024h-112z" glyph-name="itilde" horiz-adv-x="550" unicode="ĩ"/><glyph d="M-49 1589v94h635v-94h-635zM205 0v1434h112v-1434h-112z" glyph-name="Imacron" horiz-adv-x="497" unicode="Ī"/><glyph d="M-70 1180v94h635v-94h-635zM184 0v1024h113v-1024h-113z" glyph-name="imacron" horiz-adv-x="516" unicode="ī"/><glyph d="M221 1546q-143 0 -236.5 84t-93.5 221h89q0 -94 63 -158.5t178 -64.5q117 0 181.5 64.5t64.5 158.5h86q0 -137 -93.5 -221t-238.5 -84zM164 0v1434h112v-1434h-112z" glyph-name="Ibreve" horiz-adv-x="438" unicode="Ĭ"/><glyph d="M283 1137q-143 0 -236.5 84t-93.5 221h88q0 -94 63.5 -158.5t178.5 -64.5q117 0 181 64.5t64 158.5h86q0 -137 -93 -221t-238 -84zM225 0v1024h113v-1024h-113z" glyph-name="ibreve" horiz-adv-x="563" unicode="ĭ"/><glyph d="M350 -365l47 -67q-102 -100 -256 -100q-102 0 -163.5 56t-61.5 152q0 174 242 328v1430h112v-1434h-2q-98 -43 -177 -128t-79 -183q0 -63 37 -102.5t105 -39.5q118 0 196 88z" glyph-name="Iogonek" horiz-adv-x="425" unicode="Į"/><glyph d="M297 1434v-150h-133v150h133zM369 -365l47 -67q-102 -100 -256 -100q-102 0 -164 56t-62 152q0 174 240 326v1022h113v-1024q-98 -43 -177 -128t-79 -183q0 -63 36.5 -102.5t104.5 -39.5q119 0 197 88z" glyph-name="iogonek" horiz-adv-x="460" unicode="į"/><glyph d="M174 1571v174h166v-174h-166zM205 0v1434h112v-1434h-112z" glyph-name="Idotaccent" horiz-adv-x="522" unicode="İ"/><glyph d="M164 0v1024h112v-1024h-112z" glyph-name="dotlessi" horiz-adv-x="440" unicode="ı"/><glyph d="M723 1688h145l205 -205h-137l-139 137l-138 -137h-141zM459 -16q-178 0 -285.5 108.5t-112.5 290.5v111h113v-111q4 -133 81 -213t202 -80q133 0 209.5 84t76.5 234v1026h115v-1026q0 -197 -107.5 -310.5t-291.5 -113.5z" glyph-name="Jcircumflex" horiz-adv-x="1032" unicode="Ĵ"/><glyph d="M250 1329h145l205 -205h-137l-139 138l-138 -138h-141zM104 -362v110h39q57 0 93 38t36 110v1128h113v-1128q0 -123 -64.5 -190.5t-177.5 -67.5h-39z" glyph-name="jcircumflex" horiz-adv-x="632" unicode="ĵ"/><glyph d="M195 0v1434h112v-746l707 746l153 2l-575 -611l584 -825h-148l-516 739l-205 -217v-522h-112zM537 -502v78q41 2 63.5 32t17.5 75h-88v174h166v-174q2 -84 -43.5 -134.5t-115.5 -50.5z" glyph-name="Kcommaaccent" horiz-adv-x="1226" unicode="Ķ"/><glyph d="M174 0v1434h113v-940l508 530h139l-377 -395l416 -629l-135 2l-361 537l-190 -199v-340h-113zM440 -502v78q41 2 63.5 32t18.5 75h-88v174h166v-174q2 -84 -44 -134.5t-116 -50.5z" glyph-name="kcommaaccent" horiz-adv-x="1034" unicode="ķ"/><glyph d="M317 1554h-120l215 240h141zM195 0v1434h116v-1325h660v-109h-776z" glyph-name="Lacute" horiz-adv-x="1042" unicode="Ĺ"/><glyph d="M285 1554h-121l215 240h141zM174 0v1434h113v-1434h-113z" glyph-name="lacute" horiz-adv-x="460" unicode="ĺ"/><glyph d="M195 0v1434h116v-1325h660v-109h-776zM444 -502v78q41 2 63.5 32t18.5 75h-88v174h166v-174q2 -84 -44 -134.5t-116 -50.5z" glyph-name="Lcommaaccent" horiz-adv-x="1042" unicode="Ļ"/><glyph d="M174 0v1434h113v-1434h-113zM154 -502v78q41 2 63.5 32t18.5 75h-89v174h166v-174q2 -84 -43.5 -134.5t-115.5 -50.5z" glyph-name="lcommaaccent" horiz-adv-x="460" unicode="ļ"/><glyph d="M-20 1733h141l137 -138l139 138h138l-205 -205h-146zM195 0v1434h116v-1325h660v-109h-776z" glyph-name="Lcaron" horiz-adv-x="1042" unicode="Ľ"/><glyph d="M-53 1733h141l137 -138l140 138h137l-205 -205h-145zM174 0v1434h113v-1434h-113z" glyph-name="lcaron" horiz-adv-x="460" unicode="ľ"/><glyph d="M164 1587v174h166v-174h-166zM195 0v1434h116v-1325h660v-109h-776z" glyph-name="Ldot" horiz-adv-x="1042" unicode="Ŀ"/><glyph d="M150 1534v174h165v-174h-165zM174 0v1434h113v-1434h-113z" glyph-name="ldot" horiz-adv-x="489" unicode="ŀ"/><glyph d="M311 109h660v-109h-776v653l-193 -96v111l193 96v670h116v-611l353 178v-110l-353 -178v-604z" glyph-name="Lslash" horiz-adv-x="1099" unicode="Ł"/><glyph d="M455 967v-103l-168 -76v-788h-113v737l-147 -67v102l147 68v594h113v-543z" glyph-name="lslash" horiz-adv-x="559" unicode="ł"/><glyph d="M786 1554h-120l215 240h141zM1137 -2l-830 1264v-1262h-112v1434h133l829 -1264v1262h113v-1434h-133z" glyph-name="Nacute" horiz-adv-x="1464" unicode="Ń"/><glyph d="M631 1145h-121l215 239h141zM174 0v1024h113v-147q43 74 131 124t196 50q174 0 275.5 -117t101.5 -305v-629h-112v629q0 143 -76 232t-197 89q-137 0 -227 -102.5t-92 -272.5v-575h-113z" glyph-name="nacute" unicode="ń"/><glyph d="M1137 -2l-830 1264v-1262h-112v1434h133l829 -1264v1262h113v-1434h-133zM655 -502v78q41 2 63.5 32t18.5 75h-88v174h166v-174q2 -84 -44 -134.5t-116 -50.5z" glyph-name="Ncommaaccent" horiz-adv-x="1464" unicode="Ņ"/><glyph d="M174 0v1024h113v-147q43 74 131 124t196 50q174 0 275.5 -117t101.5 -305v-629h-112v629q0 143 -76 232t-197 89q-137 0 -227 -102.5t-92 -272.5v-575h-113zM500 -502v78q41 2 63.5 32t18.5 75h-88v174h165v-174q2 -84 -43.5 -134.5t-115.5 -50.5z" glyph-name="ncommaaccent" unicode="ņ"/><glyph d="M449 1733h141l137 -138l139 138h138l-205 -205h-146zM1137 -2l-830 1264v-1262h-112v1434h133l829 -1264v1262h113v-1434h-133z" glyph-name="Ncaron" horiz-adv-x="1464" unicode="Ň"/><glyph d="M293 1323h141l137 -137l140 137h137l-205 -205h-145zM174 0v1024h113v-147q43 74 131 124t196 50q174 0 275.5 -117t101.5 -305v-629h-112v629q0 143 -76 232t-197 89q-137 0 -227 -102.5t-92 -272.5v-575h-113z" glyph-name="ncaron" unicode="ň"/><glyph d="M1157 1432h113v-1434q-2 -166 -77 -252t-206 -86v113q57 0 106.5 49t49.5 125q0 25 -6 51l-830 1264v-1262h-112v1434h133l829 -1264v1262z" glyph-name="Eng" horiz-adv-x="1464" unicode="Ŋ"/><glyph d="M614 1051q174 0 275.5 -117t101.5 -305v-629q-2 -182 -70.5 -261t-211.5 -79v111q92 0 133 53t37 176v629q0 143 -76 232t-197 89q-137 0 -227 -102.5t-92 -272.5v-575h-113v1024h113v-147q43 74 130.5 124t196.5 50z" glyph-name="eng" unicode="ŋ"/><glyph d="M471 1589v94h635v-94h-635zM782 -20q-283 0 -471 215t-188 522q0 315 184.5 524t475 209t475 -211t184.5 -526q0 -307 -187.5 -520t-472.5 -213zM778 94q242 0 396.5 176t154.5 435q0 270 -152.5 451t-394 181t-392 -180t-150.5 -448q0 -258 151 -436.5t387 -178.5z" glyph-name="Omacron" horiz-adv-x="1564" unicode="Ō"/><glyph d="M266 1180v94h635v-94h-635zM578 -10q-209 0 -342.5 146.5t-133.5 375.5q0 231 133.5 378.5t342.5 147.5q219 0 346 -145t127 -381q0 -229 -133 -375.5t-340 -146.5zM573 96q162 0 264.5 116t102.5 296q0 190 -95 307t-267 117q-158 0 -259.5 -118t-101.5 -302 q0 -182 100 -299t256 -117z" glyph-name="omacron" horiz-adv-x="1153" unicode="ō"/><glyph d="M782 1546q-143 0 -236 84t-93 221h88q0 -94 63.5 -158.5t177.5 -64.5q117 0 181.5 64.5t64.5 158.5h86q0 -137 -93.5 -221t-238.5 -84zM782 -20q-283 0 -471 215t-188 522q0 315 184.5 524t475 209t475 -211t184.5 -526q0 -307 -187.5 -520t-472.5 -213zM778 94 q242 0 396.5 176t154.5 435q0 270 -152.5 451t-394 181t-392 -180t-150.5 -448q0 -258 151 -436.5t387 -178.5z" glyph-name="Obreve" horiz-adv-x="1564" unicode="Ŏ"/><glyph d="M578 1137q-143 0 -236.5 84t-93.5 221h88q0 -94 63.5 -158.5t178.5 -64.5q117 0 181 64.5t64 158.5h86q0 -137 -93 -221t-238 -84zM578 -10q-209 0 -342.5 146.5t-133.5 375.5q0 231 133.5 378.5t342.5 147.5q219 0 346 -145t127 -381q0 -229 -133 -375.5t-340 -146.5z M573 96q162 0 264.5 116t102.5 296q0 190 -95 307t-267 117q-158 0 -259.5 -118t-101.5 -302q0 -182 100 -299t256 -117z" glyph-name="obreve" horiz-adv-x="1153" unicode="ŏ"/><glyph d="M537 1561v174h165v-174h-165zM848 1561v174h166v-174h-166zM782 -20q-283 0 -471 215t-188 522q0 315 184.5 524t475 209t475 -211t184.5 -526q0 -307 -187.5 -520t-472.5 -213zM778 94q242 0 396.5 176t154.5 435q0 270 -152.5 451t-394 181t-392 -180t-150.5 -448 q0 -258 151 -436.5t387 -178.5z" glyph-name="Ohungarumlaut" horiz-adv-x="1564" unicode="Ő"/><glyph d="M332 1151v174h166v-174h-166zM643 1151v174h166v-174h-166zM578 -10q-209 0 -342.5 146.5t-133.5 375.5q0 231 133.5 378.5t342.5 147.5q219 0 346 -145t127 -381q0 -229 -133 -375.5t-340 -146.5zM573 96q162 0 264.5 116t102.5 296q0 190 -95 307t-267 117 q-158 0 -259.5 -118t-101.5 -302q0 -182 100 -299t256 -117z" glyph-name="ohungarumlaut" horiz-adv-x="1153" unicode="ő"/><glyph d="M2222 1325h-762v-545h719v-108h-719v-563h762v-109h-879v319q-86 -158 -233 -248.5t-328 -90.5q-283 0 -471 215t-188 522q0 315 184.5 524t474.5 209q184 0 331 -89t230 -245v318h879v-109zM778 94q242 0 396.5 176t154.5 435q0 270 -152.5 451t-394 181t-392 -180 t-150.5 -448q0 -258 151 -436.5t387 -178.5z" glyph-name="OE" horiz-adv-x="2324" unicode="Œ"/><glyph d="M1432 86q115 0 203.5 69.5t111.5 174.5h108q-20 -154 -140 -253.5t-290 -99.5q-147 0 -257.5 78t-163.5 215q-57 -131 -170 -205.5t-256 -74.5q-209 0 -342.5 146.5t-133.5 375.5q0 231 133.5 378.5t342.5 147.5q154 0 264 -73.5t164 -204.5q106 276 421 276 q217 0 330 -147.5t115 -396.5h-789v-3q0 -184 93.5 -293.5t255.5 -109.5zM573 96q162 0 264.5 116t102.5 296q0 190 -95 307t-267 117q-158 0 -259.5 -118t-101.5 -302q0 -182 100 -299t256 -117zM1423 930q-150 0 -231.5 -90t-101.5 -244h657q-20 160 -95 247t-229 87z" glyph-name="oe" horiz-adv-x="1974" unicode="œ"/><glyph d="M725 1554h-121l215 240h142zM195 -2v1436l546 2q205 2 312.5 -97.5t107.5 -281.5q0 -102 -64.5 -194.5t-164.5 -123.5q49 -14 83 -40.5t53 -54.5t31.5 -76t16.5 -85t8 -106q14 -195 23.5 -255.5t42.5 -121.5h-129q-8 20 -14.5 39.5t-10.5 52.5t-6 52.5t-6 82t-6 99.5 q0 10 -3 56t-5 59.5t-7.5 52t-12.5 52t-20.5 42t-32.5 40t-45 27t-61.5 20.5t-78.5 5h-445v-682h-112zM307 784h434q135 0 224.5 78t89.5 195q0 131 -81 202.5t-233 71.5h-432z" glyph-name="Racute" horiz-adv-x="1341" unicode="Ŕ"/><glyph d="M399 1145h-120l215 239h141zM174 0v1024h113v-147q27 66 109.5 120t234.5 43v-110q-344 14 -344 -322v-608h-113z" glyph-name="racute" horiz-adv-x="692" unicode="ŕ"/><glyph d="M195 -2v1436l546 2q205 2 312.5 -97.5t107.5 -281.5q0 -102 -64.5 -194.5t-164.5 -123.5q49 -14 83 -40.5t53 -54.5t31.5 -76t16.5 -85t8 -106q14 -195 23.5 -255.5t42.5 -121.5h-129q-8 20 -14.5 39.5t-10.5 52.5t-6 52.5t-6 82t-6 99.5q0 10 -3 56t-5 59.5t-7.5 52 t-12.5 52t-20.5 42t-32.5 40t-45 27t-61.5 20.5t-78.5 5h-445v-682h-112zM307 784h434q135 0 224.5 78t89.5 195q0 131 -81 202.5t-233 71.5h-432zM594 -502v78q41 2 63.5 32t18.5 75h-88v174h166v-174q2 -84 -44 -134.5t-116 -50.5z" glyph-name="Rcommaaccent" horiz-adv-x="1341" unicode="Ŗ"/><glyph d="M174 0v1024h113v-147q27 66 109.5 120t234.5 43v-110q-344 14 -344 -322v-608h-113zM154 -502v78q41 2 63.5 32t18.5 75h-89v174h166v-174q2 -84 -43.5 -134.5t-115.5 -50.5z" glyph-name="rcommaaccent" horiz-adv-x="692" unicode="ŗ"/><glyph d="M387 1733h141l138 -138l139 138h137l-205 -205h-145zM195 -2v1436l546 2q205 2 312.5 -97.5t107.5 -281.5q0 -102 -64.5 -194.5t-164.5 -123.5q49 -14 83 -40.5t53 -54.5t31.5 -76t16.5 -85t8 -106q14 -195 23.5 -255.5t42.5 -121.5h-129q-8 20 -14.5 39.5t-10.5 52.5 t-6 52.5t-6 82t-6 99.5q0 10 -3 56t-5 59.5t-7.5 52t-12.5 52t-20.5 42t-32.5 40t-45 27t-61.5 20.5t-78.5 5h-445v-682h-112zM307 784h434q135 0 224.5 78t89.5 195q0 131 -81 202.5t-233 71.5h-432z" glyph-name="Rcaron" horiz-adv-x="1341" unicode="Ř"/><glyph d="M61 1323h142l137 -137l139 137h137l-204 -205h-146zM174 0v1024h113v-147q27 66 109.5 120t234.5 43v-110q-344 14 -344 -322v-608h-113z" glyph-name="rcaron" horiz-adv-x="692" unicode="ř"/><glyph d="M705 1554h-121l215 240h141zM680 -14q-227 0 -389 118.5t-178 337.5h131q18 -164 139 -256t317 -92q174 0 271.5 79t97.5 218q0 119 -86 182.5t-297 102.5q-287 51 -410.5 143t-123.5 254q0 156 133 264.5t327 108.5q252 0 399.5 -122t147.5 -333h-119q-25 346 -417 346 q-150 0 -250.5 -75.5t-100.5 -188.5q0 -119 106.5 -182.5t299.5 -95.5q287 -51 399.5 -140.5t112.5 -267.5q0 -182 -140.5 -291.5t-369.5 -109.5z" glyph-name="Sacute" horiz-adv-x="1302" unicode="Ś"/><glyph d="M545 1145h-121l215 239h141zM512 -23q-168 0 -290 92.5t-130 258.5h119q8 -121 95 -184.5t220 -63.5t191.5 58.5t58.5 142.5q0 82 -60.5 122.5t-199.5 65.5q-203 35 -298 103.5t-95 193.5q0 117 99.5 196.5t242.5 79.5q178 0 290.5 -89t110.5 -259h-110q-6 248 -285 248 q-102 0 -170 -50t-68 -126q0 -80 72 -123t207 -65q205 -35 291 -100.5t86 -201.5q0 -127 -98.5 -213t-278.5 -86z" glyph-name="sacute" horiz-adv-x="980" unicode="ś"/><glyph d="M578 1745h145l205 -205h-137l-140 137l-137 -137h-141zM680 -14q-227 0 -389 118.5t-178 337.5h131q18 -164 139 -256t317 -92q174 0 271.5 79t97.5 218q0 119 -86 182.5t-297 102.5q-287 51 -410.5 143t-123.5 254q0 156 133 264.5t327 108.5q252 0 399.5 -122 t147.5 -333h-119q-25 346 -417 346q-150 0 -250.5 -75.5t-100.5 -188.5q0 -119 106.5 -182.5t299.5 -95.5q287 -51 399.5 -140.5t112.5 -267.5q0 -182 -140.5 -291.5t-369.5 -109.5z" glyph-name="Scircumflex" horiz-adv-x="1302" unicode="Ŝ"/><glyph d="M418 1335h145l205 -205h-137l-139 138l-138 -138h-141zM512 -23q-168 0 -290 92.5t-130 258.5h119q8 -121 95 -184.5t220 -63.5t191.5 58.5t58.5 142.5q0 82 -60.5 122.5t-199.5 65.5q-203 35 -298 103.5t-95 193.5q0 117 99.5 196.5t242.5 79.5q178 0 290.5 -89 t110.5 -259h-110q-6 248 -285 248q-102 0 -170 -50t-68 -126q0 -80 72 -123t207 -65q205 -35 291 -100.5t86 -201.5q0 -127 -98.5 -213t-278.5 -86z" glyph-name="scircumflex" horiz-adv-x="980" unicode="ŝ"/><glyph d="M680 -14h-23l-32 -72q31 6 57 6q88 0 146.5 -53t58.5 -137q0 -86 -59.5 -145.5t-145.5 -59.5q-66 0 -133.5 34.5t-99.5 86.5l65 32q27 -33 75 -56t93 -23q55 0 92 37.5t37 93.5q0 57 -37 90t-96 33q-37 0 -86 -17l-64 45l54 111q-195 25 -325 140.5t-144 309.5h131 q18 -164 139 -256t317 -92q174 0 271.5 79t97.5 218q0 119 -86 182.5t-297 102.5q-287 51 -410.5 143t-123.5 254q0 156 133 264.5t327 108.5q252 0 399.5 -122t147.5 -333h-119q-25 346 -417 346q-150 0 -250.5 -75.5t-100.5 -188.5q0 -119 106.5 -182.5t299.5 -95.5 q287 -51 399.5 -140.5t112.5 -267.5q0 -182 -140.5 -291.5t-369.5 -109.5z" glyph-name="Scedilla" horiz-adv-x="1302" unicode="Ş"/><glyph d="M512 -23h-14l-33 -73q31 6 57 6q88 0 146.5 -53.5t58.5 -137.5q0 -86 -59.5 -145t-145.5 -59q-66 0 -133 34.5t-100 85.5l65 33q27 -33 75 -56.5t93 -23.5q55 0 92 38t37 93q0 57 -36.5 90t-96.5 33q-37 0 -86 -16l-63 45l55 113q-139 23 -231.5 111.5t-100.5 232.5h119 q8 -121 95 -184.5t220 -63.5t191.5 58.5t58.5 142.5q0 82 -60.5 122.5t-199.5 65.5q-203 35 -298 103.5t-95 193.5q0 117 99.5 196.5t242.5 79.5q178 0 290.5 -89t110.5 -259h-110q-6 248 -285 248q-102 0 -170 -50t-68 -126q0 -80 72 -123t207 -65q205 -35 291 -100.5 t86 -201.5q0 -127 -98.5 -213t-278.5 -86z" glyph-name="scedilla" horiz-adv-x="980" unicode="ş"/><glyph d="M367 1733h141l137 -138l139 138h138l-205 -205h-146zM680 -14q-227 0 -389 118.5t-178 337.5h131q18 -164 139 -256t317 -92q174 0 271.5 79t97.5 218q0 119 -86 182.5t-297 102.5q-287 51 -410.5 143t-123.5 254q0 156 133 264.5t327 108.5q252 0 399.5 -122t147.5 -333 h-119q-25 346 -417 346q-150 0 -250.5 -75.5t-100.5 -188.5q0 -119 106.5 -182.5t299.5 -95.5q287 -51 399.5 -140.5t112.5 -267.5q0 -182 -140.5 -291.5t-369.5 -109.5z" glyph-name="Scaron" horiz-adv-x="1302" unicode="Š"/><glyph d="M207 1323h141l137 -137l140 137h137l-205 -205h-145zM512 -23q-168 0 -290 92.5t-130 258.5h119q8 -121 95 -184.5t220 -63.5t191.5 58.5t58.5 142.5q0 82 -60.5 122.5t-199.5 65.5q-203 35 -298 103.5t-95 193.5q0 117 99.5 196.5t242.5 79.5q178 0 290.5 -89 t110.5 -259h-110q-6 248 -285 248q-102 0 -170 -50t-68 -126q0 -80 72 -123t207 -65q205 -35 291 -100.5t86 -201.5q0 -127 -98.5 -213t-278.5 -86z" glyph-name="scaron" horiz-adv-x="980" unicode="š"/><glyph d="M684 1325v-1288q12 2 37 2q88 0 146.5 -53.5t58.5 -137.5q0 -86 -59.5 -145t-145.5 -59q-66 0 -133.5 34.5t-100.5 85.5l66 33q27 -33 75 -56.5t93 -23.5q55 0 92 38t37 93q0 57 -37 90t-96 33q-37 0 -86 -16l-64 45v1325h-526v109h1167v-109h-524z" glyph-name="Tcommaaccent" horiz-adv-x="1249" unicode="Ţ"/><glyph d="M356 -53q88 0 146.5 -53.5t58.5 -137.5q0 -86 -59.5 -145.5t-145.5 -59.5q-66 0 -133 35t-100 86l65 33q27 -33 75 -56.5t93 -23.5q55 0 92 38t37 93q0 57 -36.5 90t-96.5 33q-37 0 -86 -16l-63 45l65 135q-94 66 -94 215v662h-154v104h154v283h113v-283h237v-104h-237 v-662q0 -72 35.5 -109.5t93.5 -37.5h112v-111h-112q-47 0 -84 12l-33 -71q30 6 57 6z" glyph-name="tcommaaccent" horiz-adv-x="622" unicode="ţ"/><glyph d="M340 1733h141l137 -138l140 138h137l-205 -205h-145zM567 0v1325h-526v109h1167v-109h-524v-1325h-117z" glyph-name="Tcaron" horiz-adv-x="1249" unicode="Ť"/><glyph d="M-49 1606h141l137 -138l140 138h137l-205 -205h-145zM416 0q-113 0 -177.5 67.5t-64.5 190.5v662h-154v104h154v283h113v-283h237v-104h-237v-662q0 -72 35.5 -109.5t93.5 -37.5h112v-111h-112z" glyph-name="tcaron" horiz-adv-x="589" unicode="ť"/><glyph d="M313 1589v94h635v-94h-635zM567 0v1325h-526v109h1167v-109h-524v-1325h-117z" glyph-name="Tbar" horiz-adv-x="1249" unicode="Ŧ"/><glyph d="M528 717h-241v-459q0 -72 35.5 -109.5t93.5 -37.5h112v-111h-112q-113 0 -177.5 67.5t-64.5 190.5v459h-151v94h151v109h-154v104h154v283h113v-283h237v-104h-237v-109h241v-94z" glyph-name="tbar" horiz-adv-x="589" unicode="ŧ"/><glyph d="M854 1532q-117 0 -184 108q-41 68 -107 68q-45 0 -73.5 -35t-28.5 -92q0 -20 2 -31h-90q-2 10 -2 33q0 94 53 153.5t135 59.5q115 0 184 -108q41 -68 109 -68q47 0 74.5 36t27.5 93q0 4 -1 13.5t-1 13.5h88q2 -12 2 -37q0 -90 -52 -148.5t-136 -58.5zM706.5 -16 q-241.5 0 -387 143t-145.5 391v916h115v-916q0 -197 113.5 -310.5t304 -113.5t304 114t113.5 310v916h115v-916q0 -248 -145.5 -391t-387 -143z" glyph-name="Utilde" horiz-adv-x="1413" unicode="Ũ"/><glyph d="M725 1122q-117 0 -184 109q-41 68 -107 67q-45 0 -73.5 -34.5t-28.5 -92.5q0 -20 2 -30h-90q-2 10 -2 33q0 94 53 153t135 59q115 0 184 -108q41 -68 109 -68q47 0 74.5 36t27.5 93q0 4 -1 13.5t-1 13.5h88q2 -12 2 -37q0 -90 -52 -148.5t-136 -58.5zM541 -27 q-174 0 -275.5 117t-101.5 305v629h112v-629q2 -133 78 -227t195 -94q150 0 233.5 100t85.5 275v575h113v-1024h-113v147q-43 -74 -130.5 -124t-196.5 -50z" glyph-name="utilde" unicode="ũ"/><glyph d="M395 1589v94h635v-94h-635zM706.5 -16q-241.5 0 -387 143t-145.5 391v916h115v-916q0 -197 113.5 -310.5t304 -113.5t304 114t113.5 310v916h115v-916q0 -248 -145.5 -391t-387 -143z" glyph-name="Umacron" horiz-adv-x="1413" unicode="Ū"/><glyph d="M266 1180v94h635v-94h-635zM541 -27q-174 0 -275.5 117t-101.5 305v629h112v-629q2 -133 78 -227t195 -94q150 0 233.5 100t85.5 275v575h113v-1024h-113v147q-43 -74 -130.5 -124t-196.5 -50z" glyph-name="umacron" unicode="ū"/><glyph d="M707 1546q-143 0 -236.5 84t-93.5 221h88q0 -94 63.5 -158.5t178.5 -64.5q117 0 181 64.5t64 158.5h86q0 -137 -93 -221t-238 -84zM706.5 -16q-241.5 0 -387 143t-145.5 391v916h115v-916q0 -197 113.5 -310.5t304 -113.5t304 114t113.5 310v916h115v-916 q0 -248 -145.5 -391t-387 -143z" glyph-name="Ubreve" horiz-adv-x="1413" unicode="Ŭ"/><glyph d="M578 1137q-143 0 -236.5 84t-93.5 221h88q0 -94 63.5 -158.5t178.5 -64.5q117 0 181 64.5t64 158.5h86q0 -137 -93 -221t-238 -84zM541 -27q-174 0 -275.5 117t-101.5 305v629h112v-629q2 -133 78 -227t195 -94q150 0 233.5 100t85.5 275v575h113v-1024h-113v147 q-43 -74 -130.5 -124t-196.5 -50z" glyph-name="ubreve" unicode="ŭ"/><glyph d="M707 1526q-82 0 -141.5 58t-59.5 138q0 82 59.5 140.5t141.5 58.5q80 0 137 -58.5t57 -140.5q0 -80 -57 -138t-137 -58zM707 1608q47 0 80.5 33.5t33.5 80.5q0 49 -33.5 84t-80.5 35q-49 0 -83 -34.5t-34 -84.5q0 -47 34 -80.5t83 -33.5zM706.5 -16q-241.5 0 -387 143 t-145.5 391v916h115v-916q0 -197 113.5 -310.5t304 -113.5t304 114t113.5 310v916h115v-916q0 -248 -145.5 -391t-387 -143z" glyph-name="Uring" horiz-adv-x="1413" unicode="Ů"/><glyph d="M578 1116q-82 0 -141.5 58.5t-59.5 138.5q0 82 59.5 140t141.5 58q80 0 137 -58t57 -140q0 -80 -57 -138.5t-137 -58.5zM578 1198q47 0 80.5 34t33.5 81q0 49 -33.5 84t-80.5 35q-49 0 -83 -35t-34 -84q0 -47 34 -81t83 -34zM541 -27q-174 0 -275.5 117t-101.5 305v629 h112v-629q2 -133 78 -227t195 -94q150 0 233.5 100t85.5 275v575h113v-1024h-113v147q-43 -74 -130.5 -124t-196.5 -50z" glyph-name="uring" unicode="ů"/><glyph d="M461 1561v174h166v-174h-166zM772 1561v174h166v-174h-166zM706.5 -16q-241.5 0 -387 143t-145.5 391v916h115v-916q0 -197 113.5 -310.5t304 -113.5t304 114t113.5 310v916h115v-916q0 -248 -145.5 -391t-387 -143z" glyph-name="Uhungarumlaut" horiz-adv-x="1413" unicode="Ű"/><glyph d="M332 1151v174h166v-174h-166zM643 1151v174h166v-174h-166zM541 -27q-174 0 -275.5 117t-101.5 305v629h112v-629q2 -133 78 -227t195 -94q150 0 233.5 100t85.5 275v575h113v-1024h-113v147q-43 -74 -130.5 -124t-196.5 -50z" glyph-name="uhungarumlaut" unicode="ű"/><glyph d="M1124 1434h115v-916q0 -229 -125 -369.5t-338 -160.5q-88 -51 -150.5 -128t-62.5 -163q0 -63 37 -102t105 -39q119 0 196 88l47 -68q-102 -100 -256 -100q-102 0 -163.5 56t-61.5 153q0 158 201 299q-225 12 -359.5 154.5t-134.5 379.5v916h115v-916q0 -197 113.5 -310.5 t304 -113.5t304 114t113.5 310v916z" glyph-name="Uogonek" horiz-adv-x="1413" unicode="Ų"/><glyph d="M1061 -365l47 -67q-102 -100 -256 -100q-102 0 -163.5 56t-61.5 152q0 174 241 328v143q-43 -74 -131 -124t-196 -50q-174 0 -275.5 117t-101.5 305v629h112v-629q2 -133 78 -227t195 -94q150 0 233.5 100t85.5 275v575h113v-1024h-2q-98 -43 -177 -128t-79 -183 q0 -63 37 -102.5t104 -39.5q119 0 197 88z" glyph-name="uogonek" unicode="ų"/><glyph d="M868 1745h146l205 -205h-138l-139 137l-137 -137h-141zM459 0l-387 1434h110l357 -1280l348 1280h114l351 -1282l346 1282h114l-387 -1434h-153l-328 1227l-332 -1227h-153z" glyph-name="Wcircumflex" horiz-adv-x="1884" unicode="Ŵ"/><glyph d="M686 1335h145l205 -205h-137l-139 138l-137 -138h-142zM362 0l-311 1024h135l254 -915l252 915h135l254 -915l252 915h135l-309 -1024h-158l-239 874l-240 -874h-160z" glyph-name="wcircumflex" horiz-adv-x="1519" unicode="ŵ"/><glyph d="M565 1745h146l204 -205h-137l-139 137l-137 -137h-142zM580 0v598l-519 836h125l453 -736l453 736h125l-519 -836v-598h-118z" glyph-name="Ycircumflex" horiz-adv-x="1277" unicode="Ŷ"/><glyph d="M428 1335h145l205 -205h-137l-139 138l-137 -138h-142zM92 -410v109h58q154 0 212 147l82 213l-403 965h133l328 -815l327 815h132l-480 -1192q-45 -119 -117.5 -179.5t-213.5 -62.5h-58z" glyph-name="ycircumflex" horiz-adv-x="1001" unicode="ŷ"/><glyph d="M395 1544v174h166v-174h-166zM707 1544v174h165v-174h-165zM580 0v598l-519 836h125l453 -736l453 736h125l-519 -836v-598h-118z" glyph-name="Ydieresis" horiz-adv-x="1277" unicode="Ÿ"/><glyph d="M729 1554h-121l215 240h142zM123 0v109l981 1216h-969v109h1112v-109l-987 -1216h975v-109h-1112z" glyph-name="Zacute" horiz-adv-x="1349" unicode="Ź"/><glyph d="M569 1145h-120l215 239h141zM102 0v104l670 816h-670v106l805 -2v-104l-663 -816h659v-104h-801z" glyph-name="zacute" horiz-adv-x="1030" unicode="ź"/><glyph d="M588 1571v174h166v-174h-166zM123 0v109l981 1216h-969v109h1112v-109l-987 -1216h975v-109h-1112z" glyph-name="Zdotaccent" horiz-adv-x="1349" unicode="Ż"/><glyph d="M428 1161v174h166v-174h-166zM102 0v104l670 816h-670v106l805 -2v-104l-663 -816h659v-104h-801z" glyph-name="zdotaccent" horiz-adv-x="1030" unicode="ż"/><glyph d="M391 1733h141l138 -138l139 138h137l-205 -205h-145zM123 0v109l981 1216h-969v109h1112v-109l-987 -1216h975v-109h-1112z" glyph-name="Zcaron" horiz-adv-x="1349" unicode="Ž"/><glyph d="M231 1323h142l137 -137l139 137h137l-204 -205h-146zM102 0v104l670 816h-670v106l805 -2v-104l-663 -816h659v-104h-801z" glyph-name="zcaron" horiz-adv-x="1030" unicode="ž"/><glyph d="M549 1456q205 0 334 -144.5t129 -382t-125 -385t-340 -147.5q-205 0 -324 150.5t-121 394.5h789v2q0 184 -93 294t-255 110q-115 0 -204 -70t-112 -174h-108q20 154 140 253t290 99zM885 838h-658q20 -160 95 -247t229 -87q150 0 232 90t102 244z" glyph-name="uni018F" horiz-adv-x="1114" unicode="Ə"/><glyph d="M680 -14q-227 0 -389 118.5t-178 337.5h131q18 -164 139 -256t317 -92q174 0 271.5 79t97.5 218q0 119 -86 182.5t-297 102.5q-287 51 -410.5 143t-123.5 254q0 156 133 264.5t327 108.5q252 0 399.5 -122t147.5 -333h-119q-25 346 -417 346q-150 0 -250.5 -75.5 t-100.5 -188.5q0 -119 106.5 -182.5t299.5 -95.5q287 -51 399.5 -140.5t112.5 -267.5q0 -182 -140.5 -291.5t-369.5 -109.5zM573 -502v78q41 2 63.5 32t18.5 75h-88v174h166v-174q2 -84 -44 -134.5t-116 -50.5z" glyph-name="Scommaaccent" horiz-adv-x="1302" unicode="Ș"/><glyph d="M512 -23q-168 0 -290 92.5t-130 258.5h119q8 -121 95 -184.5t220 -63.5t191.5 58.5t58.5 142.5q0 82 -60.5 122.5t-199.5 65.5q-203 35 -298 103.5t-95 193.5q0 117 99.5 196.5t242.5 79.5q178 0 290.5 -89t110.5 -259h-110q-6 248 -285 248q-102 0 -170 -50t-68 -126 q0 -80 72 -123t207 -65q205 -35 291 -100.5t86 -201.5q0 -127 -98.5 -213t-278.5 -86zM414 -502v78q41 2 63.5 32t18.5 75h-88v174h165v-174q2 -84 -43.5 -134.5t-115.5 -50.5z" glyph-name="scommaaccent" horiz-adv-x="980" unicode="ș"/><glyph d="M567 0v1325h-526v109h1167v-109h-524v-1325h-117zM547 -502v78q41 2 63.5 32t18.5 75h-88v174h166v-174q2 -84 -44 -134.5t-116 -50.5z" glyph-name="uni021A" horiz-adv-x="1249" unicode="Ț"/><glyph d="M416 0q-113 0 -177.5 67.5t-64.5 190.5v662h-154v104h154v283h113v-283h237v-104h-237v-662q0 -72 35.5 -109.5t93.5 -37.5h112v-111h-112zM264 -502v78q41 2 63.5 32t18.5 75h-88v174h166v-174q2 -84 -44 -134.5t-116 -50.5z" glyph-name="uni021B" horiz-adv-x="589" unicode="ț"/><glyph d="M328 1589v94h635v-94h-635zM580 0v598l-519 836h125l453 -736l453 736h125l-519 -836v-598h-118z" glyph-name="uni0232" horiz-adv-x="1277" unicode="Ȳ"/><glyph d="M190 1180v94h635v-94h-635zM92 -410v109h58q154 0 212 147l82 213l-403 965h133l328 -815l327 815h132l-480 -1192q-45 -119 -117.5 -179.5t-213.5 -62.5h-58z" glyph-name="uni0233" horiz-adv-x="1001" unicode="ȳ"/><glyph d="M0 -362v110h39q57 0 93 38t36 110v1128h113v-1128q0 -123 -64.5 -190.5t-177.5 -67.5h-39z" glyph-name="uni0237" horiz-adv-x="434" unicode="ȷ"/><glyph d="M274 1391h146l205 -205h-138l-139 137l-137 -137h-141z" glyph-name="circumflex" horiz-adv-x="108" unicode="ˆ"/><glyph d="M70 1391h141l137 -138l139 138h138l-205 -205h-146z" glyph-name="caron" horiz-adv-x="108" unicode="ˇ"/><glyph d="M592 1165q-143 0 -236.5 84t-93.5 221h88q0 -94 63.5 -158.5t178.5 -64.5q117 0 181.5 64.5t64.5 158.5h86q0 -137 -93.5 -221t-238.5 -84z" glyph-name="breve" horiz-adv-x="108" unicode="˘"/><glyph d="M227 1231v174h166v-174h-166z" glyph-name="dotaccent" horiz-adv-x="108" unicode="˙"/><glyph d="M180 1149q-82 0 -141 58.5t-59 138.5q0 82 59 140t141 58q80 0 137.5 -58.5t57.5 -139.5q0 -80 -57.5 -138.5t-137.5 -58.5zM180 1231q47 0 81 33.5t34 81.5q0 49 -34 83.5t-81 34.5q-49 0 -83 -34.5t-34 -83.5q0 -47 34 -81t83 -34z" glyph-name="ring" horiz-adv-x="108" unicode="˚"/><glyph d="M279 -532q-102 0 -164 56t-62 152q0 186 277 349l76 -25q-98 -43 -177 -128t-79 -183q0 -63 36.5 -102.5t104.5 -39.5q119 0 196 88l48 -67q-102 -100 -256 -100z" glyph-name="ogonek" horiz-adv-x="108" unicode="˛"/><glyph d="M-260 1278q-117 0 -184 108q-41 68 -107 68q-45 0 -73.5 -35t-28.5 -92q0 -20 2 -31h-90q-2 10 -2 33q0 94 53 153.5t135 59.5q115 0 184 -108q41 -68 109 -68q47 0 74.5 36t27.5 93q0 4 -1 13.5t-1 13.5h88q2 -12 2 -37q0 -90 -52 -148.5t-136 -58.5z" glyph-name="tilde" horiz-adv-x="0" unicode="˜"/><glyph d="M201 1231v174h166v-174h-166zM512 1231v174h166v-174h-166z" glyph-name="hungarumlaut" horiz-adv-x="108" unicode="˝"/><glyph d="M-190 1229l-236 239h141l215 -239h-120z" glyph-name="gravecomb" horiz-adv-x="0" unicode="̀"/><glyph d="M-305 1229h-121l215 239h141z" glyph-name="acutecomb" horiz-adv-x="0" unicode="́"/><glyph d="M-260 1278q-117 0 -184 108q-41 68 -107 68q-45 0 -73.5 -35t-28.5 -92q0 -20 2 -31h-90q-2 10 -2 33q0 94 53 153.5t135 59.5q115 0 184 -108q41 -68 109 -68q47 0 74.5 36t27.5 93q0 4 -1 13.5t-1 13.5h88q2 -12 2 -37q0 -90 -52 -148.5t-136 -58.5z" glyph-name="tildecomb" horiz-adv-x="0" unicode="̃"/><glyph d="M-250 -463v174h166v-174h-166z" glyph-name="dotbelowcomb" horiz-adv-x="0" unicode="̣"/><glyph d="M-700 -502v78q41 2 63.5 32t18.5 75h-89v174h166v-174q2 -84 -43.5 -134.5t-115.5 -50.5z" glyph-name="uni0326" horiz-adv-x="0" unicode="̦"/><glyph d="M934 1559l-236 239h142l215 -239h-121zM459 0l-387 1434h110l357 -1280l348 1280h114l351 -1282l346 1282h114l-387 -1434h-153l-328 1227l-332 -1227h-153z" glyph-name="Wgrave" horiz-adv-x="1884" unicode="Ẁ"/><glyph d="M752 1149l-236 240h141l215 -240h-120zM362 0l-311 1024h135l254 -915l252 915h135l254 -915l252 915h135l-309 -1024h-158l-239 874l-240 -874h-160z" glyph-name="wgrave" horiz-adv-x="1519" unicode="ẁ"/><glyph d="M995 1554h-121l216 240h141zM459 0l-387 1434h110l357 -1280l348 1280h114l351 -1282l346 1282h114l-387 -1434h-153l-328 1227l-332 -1227h-153z" glyph-name="Wacute" horiz-adv-x="1884" unicode="Ẃ"/><glyph d="M813 1145h-121l215 239h142zM362 0l-311 1024h135l254 -915l252 915h135l254 -915l252 915h135l-309 -1024h-158l-239 874l-240 -874h-160z" glyph-name="wacute" horiz-adv-x="1519" unicode="ẃ"/><glyph d="M698 1544v174h166v-174h-166zM1010 1544v174h166v-174h-166zM459 0l-387 1434h110l357 -1280l348 1280h114l351 -1282l346 1282h114l-387 -1434h-153l-328 1227l-332 -1227h-153z" glyph-name="Wdieresis" horiz-adv-x="1884" unicode="Ẅ"/><glyph d="M516 1135v174h166v-174h-166zM827 1135v174h166v-174h-166zM362 0l-311 1024h135l254 -915l252 915h135l254 -915l252 915h135l-309 -1024h-158l-239 874l-240 -874h-160z" glyph-name="wdieresis" horiz-adv-x="1519" unicode="ẅ"/><glyph d="M205 0v1434h112v-1434h-112zM180 -346v174h166v-174h-166z" glyph-name="uni1ECA" horiz-adv-x="522" unicode="Ị"/><glyph d="M164 0v1024h112v-1024h-112zM135 -412v174h166v-174h-166z" glyph-name="uni1ECB" horiz-adv-x="464" unicode="ị"/><glyph d="M782 -20q-283 0 -471 215t-188 522q0 315 184.5 524t475 209t475 -211t184.5 -526q0 -307 -187.5 -520t-472.5 -213zM778 94q242 0 396.5 176t154.5 435q0 270 -152.5 451t-394 181t-392 -180t-150.5 -448q0 -258 151 -436.5t387 -178.5zM700 -346v174h166v-174h-166z " glyph-name="uni1ECC" horiz-adv-x="1564" unicode="Ọ"/><glyph d="M578 -10q-209 0 -342.5 146.5t-133.5 375.5q0 231 133.5 378.5t342.5 147.5q219 0 346 -145t127 -381q0 -229 -133 -375.5t-340 -146.5zM573 96q162 0 264.5 116t102.5 296q0 190 -95 307t-267 117q-158 0 -259.5 -118t-101.5 -302q0 -182 100 -299t256 -117zM496 -346 v174h166v-174h-166z" glyph-name="uni1ECD" horiz-adv-x="1153" unicode="ọ"/><glyph d="M706.5 -16q-241.5 0 -387 143t-145.5 391v916h115v-916q0 -197 113.5 -310.5t304 -113.5t304 114t113.5 310v916h115v-916q0 -248 -145.5 -391t-387 -143zM625 -346v174h166v-174h-166z" glyph-name="uni1EE4" horiz-adv-x="1413" unicode="Ụ"/><glyph d="M541 -27q-174 0 -275.5 117t-101.5 305v629h112v-629q2 -133 78 -227t195 -94q150 0 233.5 100t85.5 275v575h113v-1024h-113v147q-43 -74 -130.5 -124t-196.5 -50zM496 -346v174h166v-174h-166z" glyph-name="uni1EE5" unicode="ụ"/><glyph d="M631 1559l-236 239h142l215 -239h-121zM580 0v598l-519 836h125l453 -736l453 736h125l-519 -836v-598h-118z" glyph-name="Ygrave" horiz-adv-x="1277" unicode="Ỳ"/><glyph d="M494 1149l-236 240h141l215 -240h-120zM92 -410v109h58q154 0 212 147l82 213l-403 965h133l328 -815l327 815h132l-480 -1192q-45 -119 -117.5 -179.5t-213.5 -62.5h-58z" glyph-name="ygrave" horiz-adv-x="1001" unicode="ỳ"/><glyph d="M193 483v78h1024v-78h-1024z" glyph-name="endash" horiz-adv-x="1406" unicode="–"/><glyph d="M20 483v78h2048v-78h-2048z" glyph-name="emdash" horiz-adv-x="2086" unicode="—"/><glyph d="M98 1260v174q-2 84 44 134t116 50v-78q-41 -2 -63.5 -31.5t-18.5 -74.5h88v-174h-166z" glyph-name="quoteleft" horiz-adv-x="321" unicode="‘"/><glyph d="M78 1249v78q41 2 63.5 32t18.5 75h-88v174h166v-174q2 -84 -44 -134.5t-116 -50.5z" glyph-name="quoteright" horiz-adv-x="204" unicode="’"/><glyph d="M109 -184v78q41 2 63.5 31.5t17.5 74.5h-88v174h166v-174q2 -84 -43.5 -134t-115.5 -50z" glyph-name="quotesinglbase" horiz-adv-x="489" unicode="‚"/><glyph d="M23 1260v174q0 84 45 134t114 50v-78q-41 -2 -63.5 -31.5t-18.5 -74.5h88v-174h-165zM264 1260v174q0 84 45 134t115 50v-78q-41 -2 -63.5 -31.5t-18.5 -74.5h88v-174h-166z" glyph-name="quotedblleft" horiz-adv-x="438" unicode="“"/><glyph d="M27 1251v78q41 2 63.5 32t18.5 75h-89v174h166v-174q2 -84 -43.5 -134.5t-115.5 -50.5zM291 1251v78q41 2 63.5 32t18.5 75h-88v174h166v-174q2 -84 -44 -134.5t-116 -50.5z" glyph-name="quotedblright" horiz-adv-x="481" unicode="”"/><glyph d="M109 -184v78q41 2 63.5 31.5t17.5 74.5h-88v174h166v-174q2 -84 -43.5 -134t-115.5 -50zM373 -184v78q41 2 63.5 31.5t18.5 74.5h-88v174h165v-174q2 -84 -43.5 -134t-115.5 -50z" glyph-name="quotedblbase" horiz-adv-x="794" unicode="„"/><glyph d="M492 588v262h243v-262h-243z" glyph-name="bullet" horiz-adv-x="1228" unicode="•"/><glyph d="M145 0v174h166v-174h-166zM629 0v174h166v-174h-166zM1102 0v174h166v-174h-166z" glyph-name="ellipsis" horiz-adv-x="1415" unicode="…"/><glyph d="M391.5 938q-110.5 0 -188.5 91t-78 218t78 218t188.5 91t188 -91t77.5 -218t-77.5 -218t-188 -91zM141 0l1057 1536h121l-1057 -1536h-121zM391.5 1044q65.5 0 112.5 59.5t47 143.5t-47 143.5t-112.5 59.5t-112 -59.5t-46.5 -143.5t46.5 -143.5t112 -59.5zM1091.5 -20 q-110.5 0 -188.5 91t-78 220q0 127 78 218t188.5 91t188.5 -91t78 -218q0 -129 -78 -220t-188.5 -91zM1726.5 -20q-110.5 0 -188.5 91t-78 220q0 127 78 218t188.5 91t188.5 -91t78 -218q0 -129 -78 -220t-188.5 -91zM1091.5 88q65.5 0 111.5 58.5t46 144.5q0 84 -46 142.5 t-111.5 58.5t-112.5 -58.5t-47 -142.5q0 -86 47 -144.5t112.5 -58.5zM1726.5 88q65.5 0 111.5 58.5t46 144.5q0 84 -46 142.5t-111.5 58.5t-112.5 -58.5t-47 -142.5q0 -86 47 -144.5t112.5 -58.5z" glyph-name="perthousand" horiz-adv-x="2101" unicode="‰"/><glyph d="M424 195l-311 376l311 377h119l-312 -377l312 -376h-119z" glyph-name="guilsinglleft" horiz-adv-x="694" unicode="‹"/><glyph d="M152 195l311 376l-311 377h118l312 -377l-312 -376h-118z" glyph-name="guilsinglright" horiz-adv-x="694" unicode="›"/><glyph d="M745 90q342 0 394 350h106q-27 -215 -157 -335.5t-343 -120.5q-238 0 -380 155.5t-158 413.5h-141v78h139v200h-139v78h141q18 256 158.5 414t377.5 158q207 0 333 -113t151 -311h-109q-47 322 -375 321q-197 0 -303 -122.5t-121 -346.5h449v-78h-451v-200h449l2 -78 h-449q29 -463 426 -463z" glyph-name="Euro" horiz-adv-x="1318" unicode="€"/><glyph d="M487 967v413h-176v54h406v-54h-174v-413h-56zM782 969v465h62l172 -404l168 404h61v-465h-53v348l-141 -346h-72l-145 354v-356h-52z" glyph-name="trademark" horiz-adv-x="1624" unicode="™"/><glyph d="M938 -18q-362 0 -618.5 230t-256.5 554q0 328 256 559t619 231q365 0 621 -231t256 -559v-21h-1418q-12 0 -12 -8v-430q0 -23 18 -49q227 -233 537 -233q166 0 313.5 69.5t251.5 192.5h125q-119 -141 -301 -223t-391 -82zM397 788h1088q8 0 8 15v430q0 33 -20 51 q-229 225 -532.5 225t-534.5 -231q-20 -25 -21 -53v-422q0 -15 12 -15z" glyph-name="estimated" horiz-adv-x="1880" unicode="℮"/><glyph d="M131 541v96h1229v-96h-1229z" glyph-name="minus" horiz-adv-x="1488" unicode="−"/><glyph d="M1360 688h-424l-248 -289h672v-94h-752l-254 -299h-96l256 299h-383v94h463l248 289h-711v94h791l213 248h96l-215 -248h344v-94z" glyph-name="notequal" horiz-adv-x="1488" unicode="≠"/><glyph d="M1384 176l-1130 545v125l1130 540v-108l-1038 -496l1038 -495v-111zM254 0v84h1130v-84h-1130z" glyph-name="lessequal" horiz-adv-x="1636" unicode="≤"/><glyph d="M254 176v111l1036 495l-1036 496v108l1130 -540v-125zM254 0v86h1130v-86h-1130z" glyph-name="greaterequal" horiz-adv-x="1636" unicode="≥"/><glyph d="M1116 582v-93h-86v-489h-112v178q-49 -90 -147.5 -145.5t-209.5 -55.5q-197 0 -326 144.5t-133 367.5h-110v93h114q23 201 146 326.5t303 125.5q115 0 215 -56t148 -149v605h112v-852h86zM563 926q-137 0 -227 -94.5t-109 -249.5h693q-23 156 -118.5 250t-238.5 94z M563 88q162 0 261.5 111.5t101.5 289.5h-703q4 -178 96 -289.5t244 -111.5z" glyph-name="glyph354" horiz-adv-x="1126"/><glyph d="M229 -2v1436l547 2q188 -2 304 -117t116 -301q0 -160 -91 -267.5t-245 -134.5l377 -616h-137l-369 608h-389v-610h-113zM342 715h434q141 0 227.5 83t86.5 220q0 141 -86 227t-228 86h-432z" glyph-name="glyph355" horiz-adv-x="1339"/><glyph d="M539 -23q-201 0 -330 149.5t-129 379.5q0 231 127 379.5t325 148.5q115 0 215.5 -56t147.5 -149v195h113v-1024h-113v178q-49 -90 -147 -145.5t-209 -55.5zM541 88q164 0 263 113.5t99 294.5q0 188 -99 309t-263 121q-156 0 -248 -117t-92 -303q0 -184 92 -301t248 -117z " glyph-name="glyph356" horiz-adv-x="1095"/><glyph d="M307 0q-113 0 -177 67.5t-64 190.5v1176h112v-1176q0 -72 36 -109.5t93 -37.5h39v-111h-39z" glyph-name="glyph357" horiz-adv-x="456"/></font>
</defs>
</svg>
