<svg width="24" height="24" viewBox="0 0 24 24" fill="none" xmlns="http://www.w3.org/2000/svg">
    <path d="M22.6206 18.5002H1.37933C1.16986 18.5002 1 18.3529 1 18.1713V6.32897C1 6.14731 1.16986 6 1.37933 6H22.6207C22.8301 6 23 6.14731 23 6.32897V18.1713C23 18.353 22.8301 18.5002 22.6206 18.5002Z" fill="#F5F5F5"/>
    <path d="M23 6.9616H1V6.32897C1 6.14731 1.16986 6 1.37933 6H22.6207C22.8301 6 23 6.14731 23 6.32897L23 6.9616Z" fill="#FF4B55"/>
    <path d="M23 9.84619H1V10.8078H23V9.84619Z" fill="#FF4B55"/>
    <path d="M23 7.92285H1V8.88442H23V7.92285Z" fill="#FF4B55"/>
    <path d="M23 12.7306H1.37933C1.16986 12.7306 1 12.5833 1 12.4017V11.769H23V12.7306Z" fill="#FF4B55"/>
    <path d="M23 15.6157H1V16.5773H23V15.6157Z" fill="#FF4B55"/>
    <path d="M22.6206 18.5001H1.37933C1.16986 18.5001 1 18.3528 1 18.1712V17.5386H23V18.1712C23 18.3529 22.8301 18.5001 22.6206 18.5001Z" fill="#FF4B55"/>
    <path d="M23 13.6924H1V14.6539H23V13.6924Z" fill="#FF4B55"/>
    <path d="M10.862 6H1.37933C1.16986 6 1 6.14727 1 6.32893V12.4019C1 12.5835 1.16986 12.7308 1.37933 12.7308H10.8621C11.0716 12.7308 11.2414 12.5835 11.2414 12.4019V6.32893C11.2414 6.14727 11.0715 6 10.862 6Z" fill="#41479B"/>
    <path d="M2.06553 6.75509L2.14949 6.97346L2.4149 6.97521C2.44928 6.97547 2.4635 7.01348 2.43587 7.03118L2.22236 7.16794L2.30245 7.38739C2.31285 7.41579 2.27551 7.43934 2.24754 7.42197L2.03162 7.28816L1.81571 7.42201C1.78773 7.43934 1.75048 7.41582 1.76079 7.38743L1.84089 7.16798L1.62737 7.03122C1.59975 7.01348 1.61397 6.97551 1.64834 6.97525L1.91376 6.9735L1.99772 6.75513C2.00855 6.72681 2.05461 6.72681 2.06553 6.75509Z" fill="#F5F5F5"/>
    <path d="M2.06553 7.89716L2.14949 8.11552L2.4149 8.11728C2.44928 8.11754 2.4635 8.15555 2.43587 8.17325L2.22236 8.31001L2.30245 8.52946C2.31285 8.55785 2.27551 8.5814 2.24754 8.56404L2.03162 8.43022L1.81571 8.56407C1.78773 8.5814 1.75048 8.55789 1.76079 8.52949L1.84089 8.31004L1.62737 8.17328C1.59975 8.15555 1.61397 8.11757 1.64834 8.11731L1.91376 8.11556L1.99772 7.89719C2.00855 7.86891 2.05461 7.86891 2.06553 7.89716Z" fill="#F5F5F5"/>
    <path d="M2.06553 9.03973L2.14949 9.2581L2.4149 9.25986C2.44928 9.26012 2.4635 9.29813 2.43587 9.31583L2.22236 9.45259L2.30245 9.67204C2.31285 9.70043 2.27551 9.72399 2.24754 9.70662L2.03162 9.5728L1.81571 9.70666C1.78773 9.72399 1.75048 9.70047 1.76079 9.67208L1.84089 9.45263L1.62737 9.31586C1.59975 9.29813 1.61397 9.26015 1.64834 9.25989L1.91376 9.25814L1.99772 9.03977C2.00855 9.01149 2.05461 9.01149 2.06553 9.03973Z" fill="#F5F5F5"/>
    <path d="M2.06553 10.1819L2.14949 10.4002L2.4149 10.402C2.44928 10.4022 2.4635 10.4402 2.43587 10.4579L2.22236 10.5947L2.30245 10.8142C2.31285 10.8425 2.27551 10.8661 2.24754 10.8487L2.03162 10.7149L1.81571 10.8488C1.78773 10.8661 1.75048 10.8426 1.76079 10.8142L1.84089 10.5947L1.62737 10.458C1.59975 10.4402 1.61397 10.4023 1.64834 10.402L1.91376 10.4003L1.99772 10.1819C2.00855 10.1536 2.05461 10.1536 2.06553 10.1819Z" fill="#F5F5F5"/>
    <path d="M2.06553 11.3245L2.14949 11.5428L2.4149 11.5446C2.44928 11.5448 2.4635 11.5829 2.43587 11.6006L2.22236 11.7373L2.30245 11.9568C2.31285 11.9852 2.27551 12.0087 2.24754 11.9913L2.03162 11.8575L1.81571 11.9914C1.78773 12.0087 1.75048 11.9852 1.76079 11.9568L1.84089 11.7373L1.62737 11.6006C1.59975 11.5829 1.61397 11.5449 1.64834 11.5446L1.91376 11.5429L1.99772 11.3245C2.00855 11.2961 2.05461 11.2961 2.06553 11.3245Z" fill="#F5F5F5"/>
    <path d="M3.08799 7.31513L3.17195 7.5335L3.43736 7.53525C3.47174 7.53551 3.48596 7.57352 3.45833 7.59122L3.24482 7.72798L3.32492 7.94743C3.33531 7.97582 3.29797 7.99938 3.27 7.98201L3.05408 7.84816L2.83817 7.98201C2.81019 7.99934 2.77294 7.97582 2.78325 7.94743L2.86335 7.72798L2.64984 7.59122C2.62221 7.57348 2.63643 7.53551 2.6708 7.53525L2.93622 7.5335L3.02018 7.31513C3.03097 7.28688 3.07712 7.28688 3.08799 7.31513Z" fill="#F5F5F5"/>
    <path d="M3.08799 8.45774L3.17195 8.6761L3.43736 8.67785C3.47174 8.67811 3.48596 8.71612 3.45833 8.73382L3.24482 8.87058L3.32492 9.09003C3.33531 9.11842 3.29797 9.14197 3.27 9.12461L3.05408 8.99076L2.83817 9.12461C2.81019 9.14194 2.77294 9.11846 2.78325 9.09003L2.86335 8.87058L2.64984 8.73382C2.62221 8.71609 2.63643 8.67811 2.6708 8.67785L2.93622 8.6761L3.02018 8.45774C3.03097 8.42945 3.07712 8.42945 3.08799 8.45774Z" fill="#F5F5F5"/>
    <path d="M3.08799 9.59983L3.17195 9.81819L3.43736 9.81995C3.47174 9.82021 3.48596 9.85822 3.45833 9.87592L3.24482 10.0127L3.32492 10.2321C3.33531 10.2605 3.29797 10.2841 3.27 10.2667L3.05408 10.1329L2.83817 10.2667C2.81019 10.284 2.77294 10.2605 2.78325 10.2321L2.86335 10.0127L2.64984 9.87592C2.62221 9.85818 2.63643 9.82021 2.6708 9.81995L2.93622 9.81819L3.02018 9.59983C3.03097 9.57154 3.07712 9.57154 3.08799 9.59983Z" fill="#F5F5F5"/>
    <path d="M3.08799 10.7419L3.17195 10.9603L3.43736 10.962C3.47174 10.9623 3.48596 11.0003 3.45833 11.018L3.24482 11.1547L3.32492 11.3742C3.33531 11.4026 3.29797 11.4261 3.27 11.4088L3.05408 11.2749L2.83817 11.4088C2.81019 11.4261 2.77294 11.4026 2.78325 11.3742L2.86335 11.1547L2.64984 11.018C2.62221 11.0002 2.63643 10.9623 2.6708 10.962L2.93622 10.9603L3.02018 10.7419C3.03097 10.7136 3.07712 10.7136 3.08799 10.7419Z" fill="#F5F5F5"/>
    <path d="M4.11045 6.7551L4.19441 6.97347L4.45983 6.97522C4.49421 6.97548 4.50843 7.01349 4.4808 7.03119L4.26729 7.16795L4.34738 7.38739C4.35778 7.41579 4.32044 7.43934 4.29247 7.42198L4.07655 7.28812L3.86063 7.42198C3.83266 7.4393 3.7954 7.41579 3.80572 7.38739L3.88581 7.16795L3.6723 7.03119C3.64467 7.01345 3.65889 6.97548 3.69327 6.97522L3.95869 6.97347L4.04265 6.7551C4.05347 6.72682 4.09958 6.72682 4.11045 6.7551Z" fill="#F5F5F5"/>
    <path d="M4.11045 7.89716L4.19441 8.11553L4.45983 8.11728C4.49421 8.11754 4.50843 8.15555 4.4808 8.17325L4.26729 8.31001L4.34738 8.52946C4.35778 8.55786 4.32044 8.58141 4.29247 8.56404L4.07655 8.43019L3.86063 8.56404C3.83266 8.58137 3.7954 8.55786 3.80572 8.52946L3.88581 8.31001L3.6723 8.17325C3.64467 8.15551 3.65889 8.11754 3.69327 8.11728L3.95869 8.11553L4.04265 7.89716C4.05347 7.86891 4.09958 7.86891 4.11045 7.89716Z" fill="#F5F5F5"/>
    <path d="M4.11045 9.03974L4.19441 9.25811L4.45983 9.25986C4.49421 9.26012 4.50843 9.29813 4.4808 9.31583L4.26729 9.4526L4.34738 9.67205C4.35778 9.70044 4.32044 9.72399 4.29247 9.70663L4.07655 9.57277L3.86063 9.70663C3.83266 9.72396 3.7954 9.70044 3.80572 9.67205L3.88581 9.4526L3.6723 9.31583C3.64467 9.2981 3.65889 9.26012 3.69327 9.25986L3.95869 9.25811L4.04265 9.03974C4.05347 9.01149 4.09958 9.01149 4.11045 9.03974Z" fill="#F5F5F5"/>
    <path d="M4.11045 10.1819L4.19441 10.4002L4.45983 10.402C4.49421 10.4022 4.50843 10.4402 4.4808 10.4579L4.26729 10.5947L4.34738 10.8142C4.35778 10.8426 4.32044 10.8661 4.29247 10.8487L4.07655 10.7149L3.86063 10.8487C3.83266 10.8661 3.7954 10.8426 3.80572 10.8142L3.88581 10.5947L3.6723 10.4579C3.64467 10.4402 3.65889 10.4022 3.69327 10.402L3.95869 10.4002L4.04265 10.1819C4.05347 10.1536 4.09958 10.1536 4.11045 10.1819Z" fill="#F5F5F5"/>
    <path d="M4.11045 11.3245L4.19441 11.5428L4.45983 11.5446C4.49421 11.5448 4.50843 11.5829 4.4808 11.6006L4.26729 11.7373L4.34738 11.9568C4.35778 11.9852 4.32044 12.0087 4.29247 11.9913L4.07655 11.8575L3.86063 11.9913C3.83266 12.0087 3.7954 11.9852 3.80572 11.9568L3.88581 11.7373L3.6723 11.6006C3.64467 11.5828 3.65889 11.5448 3.69327 11.5446L3.95869 11.5428L4.04265 11.3245C4.05347 11.2961 4.09958 11.2961 4.11045 11.3245Z" fill="#F5F5F5"/>
    <path d="M5.13193 7.31513L5.21589 7.5335L5.48131 7.53525C5.51569 7.53551 5.52991 7.57352 5.50228 7.59122L5.28877 7.72798L5.36886 7.94743C5.37926 7.97582 5.34192 7.99938 5.31395 7.98201L5.09803 7.84816L4.88211 7.98201C4.85414 7.99934 4.81689 7.97582 4.8272 7.94743L4.90729 7.72798L4.69378 7.59122C4.66615 7.57348 4.68037 7.53551 4.71475 7.53525L4.98017 7.5335L5.06413 7.31513C5.07491 7.28688 5.12106 7.28688 5.13193 7.31513Z" fill="#F5F5F5"/>
    <path d="M5.13193 8.45774L5.21589 8.6761L5.48131 8.67785C5.51569 8.67811 5.52991 8.71612 5.50228 8.73382L5.28877 8.87058L5.36886 9.09003C5.37926 9.11842 5.34192 9.14197 5.31395 9.12461L5.09803 8.99076L4.88211 9.12461C4.85414 9.14194 4.81689 9.11846 4.8272 9.09003L4.90729 8.87058L4.69378 8.73382C4.66615 8.71609 4.68037 8.67811 4.71475 8.67785L4.98017 8.6761L5.06413 8.45774C5.07491 8.42945 5.12106 8.42945 5.13193 8.45774Z" fill="#F5F5F5"/>
    <path d="M5.13193 9.59983L5.21589 9.81819L5.48131 9.81995C5.51569 9.82021 5.52991 9.85822 5.50228 9.87592L5.28877 10.0127L5.36886 10.2321C5.37926 10.2605 5.34192 10.2841 5.31395 10.2667L5.09803 10.1329L4.88211 10.2667C4.85414 10.284 4.81689 10.2605 4.8272 10.2321L4.90729 10.0127L4.69378 9.87592C4.66615 9.85818 4.68037 9.82021 4.71475 9.81995L4.98017 9.81819L5.06413 9.59983C5.07491 9.57154 5.12106 9.57154 5.13193 9.59983Z" fill="#F5F5F5"/>
    <path d="M5.13193 10.7419L5.21589 10.9603L5.48131 10.962C5.51569 10.9623 5.52991 11.0003 5.50228 11.018L5.28877 11.1547L5.36886 11.3742C5.37926 11.4026 5.34192 11.4261 5.31395 11.4088L5.09803 11.2749L4.88211 11.4088C4.85414 11.4261 4.81689 11.4026 4.8272 11.3742L4.90729 11.1547L4.69378 11.018C4.66615 11.0002 4.68037 10.9623 4.71475 10.962L4.98017 10.9603L5.06413 10.7419C5.07491 10.7136 5.12106 10.7136 5.13193 10.7419Z" fill="#F5F5F5"/>
    <path d="M6.15492 6.7551L6.23889 6.97347L6.5043 6.97522C6.53868 6.97548 6.5529 7.01349 6.52527 7.03119L6.31176 7.16795L6.39185 7.38739C6.40225 7.41579 6.36491 7.43934 6.33694 7.42198L6.12098 7.28812L5.90506 7.42198C5.87709 7.4393 5.83984 7.41579 5.85015 7.38739L5.93024 7.16795L5.71673 7.03119C5.6891 7.01345 5.70332 6.97548 5.7377 6.97522L6.00312 6.97347L6.08708 6.7551C6.09795 6.72682 6.14405 6.72682 6.15492 6.7551Z" fill="#F5F5F5"/>
    <path d="M6.15492 7.89716L6.23889 8.11553L6.5043 8.11728C6.53868 8.11754 6.5529 8.15555 6.52527 8.17325L6.31176 8.31001L6.39185 8.52946C6.40225 8.55786 6.36491 8.58141 6.33694 8.56404L6.12098 8.43019L5.90506 8.56404C5.87709 8.58137 5.83984 8.55786 5.85015 8.52946L5.93024 8.31001L5.71673 8.17325C5.6891 8.15551 5.70332 8.11754 5.7377 8.11728L6.00312 8.11553L6.08708 7.89716C6.09795 7.86891 6.14405 7.86891 6.15492 7.89716Z" fill="#F5F5F5"/>
    <path d="M6.15492 9.03974L6.23889 9.25811L6.5043 9.25986C6.53868 9.26012 6.5529 9.29813 6.52527 9.31583L6.31176 9.4526L6.39185 9.67205C6.40225 9.70044 6.36491 9.72399 6.33694 9.70663L6.12098 9.57277L5.90506 9.70663C5.87709 9.72396 5.83984 9.70044 5.85015 9.67205L5.93024 9.4526L5.71673 9.31583C5.6891 9.2981 5.70332 9.26012 5.7377 9.25986L6.00312 9.25811L6.08708 9.03974C6.09795 9.01149 6.14405 9.01149 6.15492 9.03974Z" fill="#F5F5F5"/>
    <path d="M6.15492 10.1819L6.23889 10.4002L6.5043 10.402C6.53868 10.4022 6.5529 10.4402 6.52527 10.4579L6.31176 10.5947L6.39185 10.8142C6.40225 10.8426 6.36491 10.8661 6.33694 10.8487L6.12098 10.7149L5.90506 10.8487C5.87709 10.8661 5.83984 10.8426 5.85015 10.8142L5.93024 10.5947L5.71673 10.4579C5.6891 10.4402 5.70332 10.4022 5.7377 10.402L6.00312 10.4002L6.08708 10.1819C6.09795 10.1536 6.14405 10.1536 6.15492 10.1819Z" fill="#F5F5F5"/>
    <path d="M6.15492 11.3245L6.23889 11.5428L6.5043 11.5446C6.53868 11.5448 6.5529 11.5829 6.52527 11.6006L6.31176 11.7373L6.39185 11.9568C6.40225 11.9852 6.36491 12.0087 6.33694 11.9913L6.12098 11.8575L5.90506 11.9913C5.87709 12.0087 5.83984 11.9852 5.85015 11.9568L5.93024 11.7373L5.71673 11.6006C5.6891 11.5828 5.70332 11.5448 5.7377 11.5446L6.00312 11.5428L6.08708 11.3245C6.09795 11.2961 6.14405 11.2961 6.15492 11.3245Z" fill="#F5F5F5"/>
    <path d="M7.17686 7.31513L7.26082 7.5335L7.52624 7.53525C7.56062 7.53551 7.57484 7.57352 7.54721 7.59122L7.3337 7.72798L7.41379 7.94743C7.42419 7.97582 7.38685 7.99938 7.35888 7.98201L7.14296 7.84816L6.92704 7.98201C6.89906 7.99934 6.86181 7.97582 6.87212 7.94743L6.95222 7.72798L6.7387 7.59122C6.71107 7.57348 6.7253 7.53551 6.75967 7.53525L7.02509 7.5335L7.10905 7.31513C7.11992 7.28688 7.16599 7.28688 7.17686 7.31513Z" fill="#F5F5F5"/>
    <path d="M7.17686 8.45774L7.26082 8.6761L7.52624 8.67785C7.56062 8.67811 7.57484 8.71612 7.54721 8.73382L7.3337 8.87058L7.41379 9.09003C7.42419 9.11842 7.38685 9.14197 7.35888 9.12461L7.14296 8.99076L6.92704 9.12461C6.89906 9.14194 6.86181 9.11846 6.87212 9.09003L6.95222 8.87058L6.7387 8.73382C6.71107 8.71609 6.7253 8.67811 6.75967 8.67785L7.02509 8.6761L7.10905 8.45774C7.11992 8.42945 7.16599 8.42945 7.17686 8.45774Z" fill="#F5F5F5"/>
    <path d="M7.17686 9.59983L7.26082 9.81819L7.52624 9.81995C7.56062 9.82021 7.57484 9.85822 7.54721 9.87592L7.3337 10.0127L7.41379 10.2321C7.42419 10.2605 7.38685 10.2841 7.35888 10.2667L7.14296 10.1329L6.92704 10.2667C6.89906 10.284 6.86181 10.2605 6.87212 10.2321L6.95222 10.0127L6.7387 9.87592C6.71107 9.85818 6.7253 9.82021 6.75967 9.81995L7.02509 9.81819L7.10905 9.59983C7.11992 9.57154 7.16599 9.57154 7.17686 9.59983Z" fill="#F5F5F5"/>
    <path d="M7.17686 10.7419L7.26082 10.9603L7.52624 10.962C7.56062 10.9623 7.57484 11.0003 7.54721 11.018L7.3337 11.1547L7.41379 11.3742C7.42419 11.4026 7.38685 11.4261 7.35888 11.4088L7.14296 11.2749L6.92704 11.4088C6.89906 11.4261 6.86181 11.4026 6.87212 11.3742L6.95222 11.1547L6.7387 11.018C6.71107 11.0002 6.7253 10.9623 6.75967 10.962L7.02509 10.9603L7.10905 10.7419C7.11992 10.7136 7.16599 10.7136 7.17686 10.7419Z" fill="#F5F5F5"/>
    <path d="M8.19981 6.7551L8.28377 6.97347L8.54919 6.97522C8.58356 6.97548 8.59779 7.01349 8.57016 7.03119L8.35664 7.16795L8.43674 7.38739C8.44714 7.41579 8.4098 7.43934 8.38182 7.42198L8.1659 7.28812L7.94999 7.42198C7.92201 7.4393 7.88476 7.41579 7.89507 7.38739L7.97517 7.16795L7.76165 7.03119C7.73402 7.01345 7.74825 6.97548 7.78262 6.97522L8.04804 6.97347L8.132 6.7551C8.14279 6.72682 8.18894 6.72682 8.19981 6.7551Z" fill="#F5F5F5"/>
    <path d="M8.19981 7.89716L8.28377 8.11553L8.54919 8.11728C8.58356 8.11754 8.59779 8.15555 8.57016 8.17325L8.35664 8.31001L8.43674 8.52946C8.44714 8.55786 8.4098 8.58141 8.38182 8.56404L8.1659 8.43019L7.94999 8.56404C7.92201 8.58137 7.88476 8.55786 7.89507 8.52946L7.97517 8.31001L7.76165 8.17325C7.73402 8.15551 7.74825 8.11754 7.78262 8.11728L8.04804 8.11553L8.132 7.89716C8.14279 7.86891 8.18894 7.86891 8.19981 7.89716Z" fill="#F5F5F5"/>
    <path d="M8.19981 9.03974L8.28377 9.25811L8.54919 9.25986C8.58356 9.26012 8.59779 9.29813 8.57016 9.31583L8.35664 9.4526L8.43674 9.67205C8.44714 9.70044 8.4098 9.72399 8.38182 9.70663L8.1659 9.57277L7.94999 9.70663C7.92201 9.72396 7.88476 9.70044 7.89507 9.67205L7.97517 9.4526L7.76165 9.31583C7.73402 9.2981 7.74825 9.26012 7.78262 9.25986L8.04804 9.25811L8.132 9.03974C8.14279 9.01149 8.18894 9.01149 8.19981 9.03974Z" fill="#F5F5F5"/>
    <path d="M8.19981 10.1819L8.28377 10.4002L8.54919 10.402C8.58356 10.4022 8.59779 10.4402 8.57016 10.4579L8.35664 10.5947L8.43674 10.8142C8.44714 10.8426 8.4098 10.8661 8.38182 10.8487L8.1659 10.7149L7.94999 10.8487C7.92201 10.8661 7.88476 10.8426 7.89507 10.8142L7.97517 10.5947L7.76165 10.4579C7.73402 10.4402 7.74825 10.4022 7.78262 10.402L8.04804 10.4002L8.132 10.1819C8.14279 10.1536 8.18894 10.1536 8.19981 10.1819Z" fill="#F5F5F5"/>
    <path d="M8.19981 11.3245L8.28377 11.5428L8.54919 11.5446C8.58356 11.5448 8.59779 11.5829 8.57016 11.6006L8.35664 11.7373L8.43674 11.9568C8.44714 11.9852 8.4098 12.0087 8.38182 11.9913L8.1659 11.8575L7.94999 11.9913C7.92201 12.0087 7.88476 11.9852 7.89507 11.9568L7.97517 11.7373L7.76165 11.6006C7.73402 11.5828 7.74825 11.5448 7.78262 11.5446L8.04804 11.5428L8.132 11.3245C8.14279 11.2961 8.18894 11.2961 8.19981 11.3245Z" fill="#F5F5F5"/>
    <path d="M9.22226 7.31513L9.30622 7.5335L9.57164 7.53525C9.60601 7.53551 9.62024 7.57352 9.59261 7.59122L9.3791 7.72798L9.45919 7.94743C9.46959 7.97582 9.43225 7.99938 9.40428 7.98201L9.18836 7.84816L8.97244 7.98201C8.94447 7.99934 8.90722 7.97582 8.91753 7.94743L8.99762 7.72798L8.78411 7.59122C8.75648 7.57348 8.77071 7.53551 8.80508 7.53525L9.0705 7.5335L9.15446 7.31513C9.16529 7.28688 9.21143 7.28688 9.22226 7.31513Z" fill="#F5F5F5"/>
    <path d="M9.22226 8.45774L9.30622 8.6761L9.57164 8.67785C9.60601 8.67811 9.62024 8.71612 9.59261 8.73382L9.3791 8.87058L9.45919 9.09003C9.46959 9.11842 9.43225 9.14197 9.40428 9.12461L9.18836 8.99076L8.97244 9.12461C8.94447 9.14194 8.90722 9.11846 8.91753 9.09003L8.99762 8.87058L8.78411 8.73382C8.75648 8.71609 8.77071 8.67811 8.80508 8.67785L9.0705 8.6761L9.15446 8.45774C9.16529 8.42945 9.21143 8.42945 9.22226 8.45774Z" fill="#F5F5F5"/>
    <path d="M9.22226 9.59983L9.30622 9.81819L9.57164 9.81995C9.60601 9.82021 9.62024 9.85822 9.59261 9.87592L9.3791 10.0127L9.45919 10.2321C9.46959 10.2605 9.43225 10.2841 9.40428 10.2667L9.18836 10.1329L8.97244 10.2667C8.94447 10.284 8.90722 10.2605 8.91753 10.2321L8.99762 10.0127L8.78411 9.87592C8.75648 9.85818 8.77071 9.82021 8.80508 9.81995L9.0705 9.81819L9.15446 9.59983C9.16529 9.57154 9.21143 9.57154 9.22226 9.59983Z" fill="#F5F5F5"/>
    <path d="M9.22226 10.7419L9.30622 10.9603L9.57164 10.962C9.60601 10.9623 9.62024 11.0003 9.59261 11.018L9.3791 11.1547L9.45919 11.3742C9.46959 11.4026 9.43225 11.4261 9.40428 11.4088L9.18836 11.2749L8.97244 11.4088C8.94447 11.4261 8.90722 11.4026 8.91753 11.3742L8.99762 11.1547L8.78411 11.018C8.75648 11.0002 8.77071 10.9623 8.80508 10.962L9.0705 10.9603L9.15446 10.7419C9.16529 10.7136 9.21143 10.7136 9.22226 10.7419Z" fill="#F5F5F5"/>
    <path d="M10.2437 6.7551L10.3277 6.97347L10.5931 6.97522C10.6275 6.97548 10.6417 7.01349 10.6141 7.03119L10.4006 7.16795L10.4807 7.38739C10.4911 7.41579 10.4537 7.43934 10.4258 7.42198L10.2098 7.28812L9.99393 7.42198C9.96596 7.4393 9.9287 7.41579 9.93902 7.38739L10.0191 7.16795L9.8056 7.03119C9.77797 7.01345 9.79219 6.97548 9.82657 6.97522L10.092 6.97347L10.1759 6.7551C10.1868 6.72682 10.2328 6.72682 10.2437 6.7551Z" fill="#F5F5F5"/>
    <path d="M10.2437 7.89716L10.3277 8.11553L10.5931 8.11728C10.6275 8.11754 10.6417 8.15555 10.6141 8.17325L10.4006 8.31001L10.4807 8.52946C10.4911 8.55786 10.4537 8.58141 10.4258 8.56404L10.2098 8.43019L9.99393 8.56404C9.96596 8.58137 9.9287 8.55786 9.93902 8.52946L10.0191 8.31001L9.8056 8.17325C9.77797 8.15551 9.79219 8.11754 9.82657 8.11728L10.092 8.11553L10.1759 7.89716C10.1868 7.86891 10.2328 7.86891 10.2437 7.89716Z" fill="#F5F5F5"/>
    <path d="M10.2437 9.03974L10.3277 9.25811L10.5931 9.25986C10.6275 9.26012 10.6417 9.29813 10.6141 9.31583L10.4006 9.4526L10.4807 9.67205C10.4911 9.70044 10.4537 9.72399 10.4258 9.70663L10.2098 9.57277L9.99393 9.70663C9.96596 9.72396 9.9287 9.70044 9.93902 9.67205L10.0191 9.4526L9.8056 9.31583C9.77797 9.2981 9.79219 9.26012 9.82657 9.25986L10.092 9.25811L10.1759 9.03974C10.1868 9.01149 10.2328 9.01149 10.2437 9.03974Z" fill="#F5F5F5"/>
    <path d="M10.2437 10.1819L10.3277 10.4002L10.5931 10.402C10.6275 10.4022 10.6417 10.4402 10.6141 10.4579L10.4006 10.5947L10.4807 10.8142C10.4911 10.8426 10.4537 10.8661 10.4258 10.8487L10.2098 10.7149L9.99393 10.8487C9.96596 10.8661 9.9287 10.8426 9.93902 10.8142L10.0191 10.5947L9.8056 10.4579C9.77797 10.4402 9.79219 10.4022 9.82657 10.402L10.092 10.4002L10.1759 10.1819C10.1868 10.1536 10.2328 10.1536 10.2437 10.1819Z" fill="#F5F5F5"/>
    <path d="M10.2437 11.3245L10.3277 11.5428L10.5931 11.5446C10.6275 11.5448 10.6417 11.5829 10.6141 11.6006L10.4006 11.7373L10.4807 11.9568C10.4911 11.9852 10.4537 12.0087 10.4258 11.9913L10.2098 11.8575L9.99393 11.9913C9.96596 12.0087 9.9287 11.9852 9.93902 11.9568L10.0191 11.7373L9.8056 11.6006C9.77797 11.5828 9.79219 11.5448 9.82657 11.5446L10.092 11.5428L10.1759 11.3245C10.1868 11.2961 10.2328 11.2961 10.2437 11.3245Z" fill="#F5F5F5"/>
</svg>
