<svg width="20" height="20" viewBox="0 0 20 20" fill="none" xmlns="http://www.w3.org/2000/svg">
    <path d="M10 0C9.67613 0 9.41406 0.26207 9.41406 0.585938C9.41406 0.909805 9.67613 1.17188 10 1.17188C14.8466 1.17188 18.8281 5.15344 18.8281 10C18.8281 14.8466 14.8466 18.8281 10 18.8281C5.15344 18.8281 1.17188 14.8466 1.17188 10C1.17188 7.64387 2.20316 5.38668 3.86719 3.7441V4.72656C3.86719 5.05043 4.12926 5.3125 4.45312 5.3125C4.77699 5.3125 5.03906 5.05043 5.03906 4.72656V2.38281C5.03906 2.05895 4.75746 1.79688 4.43359 1.79688H2.08984C1.76598 1.79688 1.50391 2.05895 1.50391 2.38281C1.50391 2.70668 1.76598 2.96484 2.08984 2.96484H2.97117C1.12082 4.82109 0 7.35664 0 10C0 15.4926 4.50742 20 10 20C15.4926 20 20 15.4926 20 10C20 4.50742 15.4926 0 10 0Z" fill="#28334E"/>
    <path d="M15.8594 10.5859C15.5355 10.5859 15.2734 10.3239 15.2734 10C15.2734 9.67613 15.5355 9.41406 15.8594 9.41406H16.4156C16.2943 8.07645 15.7648 6.85559 14.95 5.87863L14.5575 6.27109C14.3285 6.50012 13.9579 6.50012 13.7289 6.27109C13.4999 6.04207 13.4999 5.67148 13.7289 5.44246L14.1214 5.05C13.1444 4.2352 11.9235 3.70566 10.5859 3.58438V4.14062C10.5859 4.46449 10.3239 4.72656 10 4.72656C9.67613 4.72656 9.41406 4.46449 9.41406 4.14062V3.58438C8.07645 3.70566 6.85559 4.2352 5.87863 5.05L6.27109 5.44246C6.50012 5.67148 6.50012 6.04207 6.27109 6.27109C6.04215 6.50012 5.67148 6.50012 5.44246 6.27109L5.05 5.87863C4.2352 6.85559 3.70566 8.07648 3.58438 9.41406H4.14062C4.46449 9.41406 4.72656 9.67613 4.72656 10C4.72656 10.3239 4.46449 10.5859 4.14062 10.5859H3.58438C3.70566 11.9236 4.2352 13.1443 5.05 14.1213L5.44246 13.7288C5.67148 13.4999 6.04215 13.4999 6.27109 13.7288C6.50012 13.9579 6.50012 14.3285 6.27109 14.5575L5.87863 14.95C6.85559 15.7648 8.07648 16.2943 9.41406 16.4156V15.8594C9.41406 15.5355 9.67613 15.2734 10 15.2734C10.3239 15.2734 10.5859 15.5355 10.5859 15.8594V16.4156C11.9236 16.2943 13.1444 15.7648 14.1214 14.95L13.7289 14.5575C13.4999 14.3285 13.4999 13.9579 13.7289 13.7288C13.9579 13.4999 14.3285 13.4999 14.5575 13.7288L14.95 14.1213C15.7648 13.1443 16.2943 11.9235 16.4156 10.5859H15.8594ZM11.5861 11.5861C11.3572 11.815 10.9865 11.815 10.7576 11.5861L9.5857 10.4143C9.47586 10.3044 9.41406 10.1556 9.41406 10V7.65625C9.41406 7.33238 9.67613 7.07031 10 7.07031C10.3239 7.07031 10.5859 7.33238 10.5859 7.65625V9.75738L11.5861 10.7576C11.815 10.9864 11.815 11.3573 11.5861 11.5861Z" fill="#28334E"/>
</svg>
