<svg width="21" height="19" viewBox="0 0 21 19" fill="none" xmlns="http://www.w3.org/2000/svg">
    <path d="M6.84 17.355H13.32V18.075H6.84V17.355Z" fill="#737F92"/>
    <path d="M8.59781 14.475L8.32781 16.635H11.8322L11.5622 14.475H8.59781Z" fill="#737F92"/>
    <path d="M3.96 4.39495H6.12V3.46401L5.65453 3.92948C5.51391 4.06993 5.28609 4.06993 5.14547 3.92948L4.42547 3.20948L4.93453 2.70042L5.4 3.16589L6.12 2.44589V2.23495H3.96V4.39495Z" fill="#737F92"/>
    <path d="M20.16 1.15495C20.16 0.558525 19.6764 0.0749512 19.08 0.0749512H1.08C0.483574 0.0749512 0 0.558525 0 1.15495V10.875H20.16V1.15495ZM9.36 2.23495H13.68V2.95495H9.36V2.23495ZM9.36 6.55495H10.8V7.27495H9.36V6.55495ZM6.84 7.06401V9.07495C6.84 9.27376 6.67881 9.43495 6.48 9.43495H3.6C3.40119 9.43495 3.24 9.27376 3.24 9.07495V6.19495C3.24 5.99614 3.40119 5.83495 3.6 5.83495H6.48C6.63012 5.83548 6.76389 5.92987 6.81486 6.07103L7.30547 5.58042L7.81453 6.08948L6.84 7.06401ZM6.84 2.74401V4.75495C6.84 4.95376 6.67881 5.11495 6.48 5.11495H3.6C3.40119 5.11495 3.24 4.95376 3.24 4.75495V1.87495C3.24 1.67614 3.40119 1.51495 3.6 1.51495H6.48C6.63012 1.51548 6.76389 1.60987 6.81486 1.75103L7.30547 1.26042L7.81453 1.76948L6.84 2.74401ZM15.84 9.43495H9.36V8.71495H15.84V9.43495ZM15.84 7.27495H11.52V6.55495H15.84V7.27495ZM15.84 5.11495H9.36V4.39495H15.84V5.11495Z" fill="#737F92"/>
    <path d="M3.96 8.71495H6.12V7.78401L5.65453 8.24948C5.51391 8.38993 5.28609 8.38993 5.14547 8.24948L4.42547 7.52948L4.93453 7.02042L5.4 7.48589L6.12 6.76589V6.55495H3.96V8.71495Z" fill="#737F92"/>
    <path d="M20.16 11.595H0V12.675C0 13.2714 0.483574 13.755 1.08 13.755H19.08C19.6764 13.755 20.16 13.2714 20.16 12.675V11.595ZM18.6156 12.9305C18.5465 12.9963 18.4553 13.0335 18.36 13.035C18.3359 13.0344 18.3118 13.032 18.2879 13.0277C18.2654 13.0239 18.2436 13.0165 18.2232 13.0061C18.2002 12.9982 18.1784 12.9873 18.1584 12.9738C18.1396 12.9604 18.1215 12.946 18.1044 12.9305C17.9652 12.7885 17.9652 12.5614 18.1044 12.4194C18.2087 12.3186 18.3626 12.2891 18.4968 12.3438C18.5404 12.3621 18.5806 12.3875 18.6156 12.4194C18.7548 12.5614 18.7548 12.7885 18.6156 12.9305Z" fill="#737F92"/>
</svg>
