<svg width="24" height="21" viewBox="0 0 24 21" fill="none" xmlns="http://www.w3.org/2000/svg">
    <path fill-rule="evenodd" clip-rule="evenodd" d="M15.9005 10.6591C15.229 10.1907 14.5115 9.80893 13.761 9.5173C14.7593 8.60992 15.4216 7.33884 15.5368 5.91586C15.5368 5.91586 15.5637 5.31531 15.4498 4.58983C15.336 3.86436 15.1618 3.43362 15.1618 3.43362C14.3524 1.42298 12.382 0 10.0852 0C7.06913 0 4.61517 2.45375 4.61517 5.46982C4.61517 7.06124 5.29837 8.49574 6.38655 9.49614C3.47712 10.5862 1.11807 12.9275 0.157685 15.9134C-0.160766 16.9035 0.00788724 17.9535 0.620487 18.7943C1.23309 19.6348 2.1809 20.1169 3.22089 20.1169H12.5522C13.1444 20.1169 13.6246 19.6367 13.6246 19.0442C13.6246 18.452 13.1444 17.9718 12.5522 17.9718H3.22089C2.87416 17.9718 2.55822 17.8111 2.35395 17.5308C2.14968 17.2504 2.09353 16.9003 2.19955 16.5702C3.25965 13.2742 6.49277 10.9723 10.0617 10.9723C11.7223 10.9723 13.3171 11.4724 14.6734 12.4184C15.1593 12.7573 15.8278 12.6381 16.1668 12.1523C16.5056 11.6664 16.3866 10.9979 15.9005 10.6591ZM13.4101 5.46982C13.4101 3.63663 11.9186 2.14494 10.0852 2.14494C8.2518 2.14494 6.76031 3.63663 6.76031 5.46982C6.76031 7.30322 8.2518 8.79471 10.0852 8.79471C11.9186 8.79471 13.4101 7.30322 13.4101 5.46982Z" fill="#28334E"/>
    <path fill-rule="evenodd" clip-rule="evenodd" d="M22.9273 16.3563C23.5198 16.3563 24 15.8761 24 15.2838C24 14.6913 23.5198 14.2112 22.9273 14.2112H19.9779V11.2617C19.9779 10.6694 19.4977 10.1892 18.9054 10.1892C18.3129 10.1892 17.8327 10.6694 17.8327 11.2617V14.2112H14.8833C14.291 14.2112 13.8108 14.6913 13.8108 15.2838C13.8108 15.8761 14.291 16.3563 14.8833 16.3563H17.8327V19.3057C17.8327 19.8982 18.3129 20.3784 18.9054 20.3784C19.4977 20.3784 19.9779 19.8982 19.9779 19.3057V16.3563H22.9273Z" fill="#28334E"/>
</svg>
