<svg width="19" height="18" viewBox="0 0 19 18" fill="none" xmlns="http://www.w3.org/2000/svg">
    <path d="M12.2041 1.24644C12.2543 1.20963 12.3053 1.20182 12.3395 1.20182C12.3749 1.20182 12.4637 1.21136 12.526 1.29633L14.262 3.6643H15.771L13.5077 0.576756C13.0537 -0.0422565 12.1057 -0.189769 11.4842 0.26539L10.6653 0.865545L11.3849 1.8472L12.2041 1.24644Z" fill="#28334E"/>
    <path d="M8.01857 1.24697C8.06876 1.21015 8.12011 1.20178 8.15429 1.20178C8.18964 1.20178 8.27844 1.21132 8.34079 1.29629L10.0768 3.66427H11.5858L9.32245 0.576718C8.86815 -0.0422941 7.92098 -0.189807 7.299 0.265353L2.6609 3.66427H4.71973L8.01857 1.24697Z" fill="#28334E"/>
    <path d="M9.82043 11.4406C9.82043 9.95096 11.0323 8.73878 12.5219 8.73878H17.0937V5.99472C17.0937 5.38036 16.5952 4.88114 15.9804 4.88114H1.11328C0.49847 4.8811 0 5.38029 0 5.99468V16.8864C0 17.5015 0.49847 18 1.11328 18H15.9804C16.5952 18 17.0937 17.5015 17.0937 16.8864V14.1423H12.5219C11.0323 14.1424 9.82043 12.9302 9.82043 11.4406Z" fill="#28334E"/>
    <path d="M17.6953 9.65147H12.5219C11.5341 9.65147 10.7331 10.4525 10.7331 11.4406C10.7331 12.4289 11.5341 13.2297 12.5219 13.2297H17.6954C18.0217 13.2297 18.2863 12.9647 18.2863 12.6391V10.2426C18.2863 9.91644 18.0216 9.65147 17.6953 9.65147Z" fill="#28334E"/>
</svg>
