<?xml version="1.0" standalone="no"?>
<!DOCTYPE svg PUBLIC "-//W3C//DTD SVG 1.1//EN" "http://www.w3.org/Graphics/SVG/1.1/DTD/svg11.dtd">
<svg xmlns="http://www.w3.org/2000/svg"><metadata>This SVG WebFont was generated by YouWorkForThem.
Copyright Â© 2017 by Samuel Oakes. All rights reserved.</metadata><defs><font horiz-adv-x="1165" id="ywftsvg"><font-face ascent="1638" bbox="-774.258 -1001 2308 2030" cap-height="1434" descent="-410" font-family="" font-stretch="normal" font-weight="600" panose-1="0 0 7 0 0 0 0 0 0 0" underline-position="0" underline-thickness="0" unicode-range="U+0020-2265" units-per-em="2048" x-height="1024"/><missing-glyph horiz-adv-x="1228"/><glyph glyph-name=".notdef" horiz-adv-x="1228"/><glyph glyph-name="glyph1" horiz-adv-x="1228"/><glyph glyph-name="glyph2" horiz-adv-x="681"/><glyph glyph-name="space" horiz-adv-x="573" unicode=" "/><glyph d="M100 422l127 1114h219l-184 -1114h-162zM14 0l33 244h229l-34 -244h-228z" glyph-name="exclam" horiz-adv-x="493" unicode="!"/><glyph d="M233 1206l-38 183l32 245h230l-35 -245l-90 -183h-99zM600 1206l-39 183l35 245h227l-35 -245l-90 -183h-98z" glyph-name="quotedbl" horiz-adv-x="774" unicode="&quot;"/><glyph d="M287 0l94 334h-264l39 168h272l119 418h-262l41 167h268l96 351h168l-94 -351h334l94 351h168l-94 -351h223l-41 -167h-225l-123 -418h221l-39 -168h-229l-99 -334h-166l95 334h-336l-92 -334h-168zM596 502h334l125 418h-342z" glyph-name="numbersign" horiz-adv-x="1536" unicode="#"/><glyph d="M512 -111l16 107q-195 27 -312.5 142.5t-104.5 307.5h229q8 -127 90 -196.5t232 -69.5q135 0 224 68.5t101 163.5q12 92 -46 146t-210 73q-289 35 -404.5 141.5t-95.5 265.5q23 162 161 279t335 131l14 106h199l-16 -118q180 -35 271 -150t73 -291h-217q8 121 -72 188.5 t-215 67.5q-125 0 -207 -62.5t-94 -144.5q-12 -88 63.5 -142t218.5 -73q285 -37 389.5 -142t79.5 -277q-23 -170 -155.5 -282t-331.5 -134l-16 -105h-199z" glyph-name="dollar" horiz-adv-x="1316" unicode="$"/><glyph d="M31 0l1272 1536h202l-1272 -1536h-202zM464.5 971q-110.5 0 -177 81t-49.5 195q14 115 104 196t200.5 81t177 -81t50.5 -196q-14 -115 -104.5 -195.5t-201 -80.5zM485 1116q47 0 87 38t46 91q8 53 -20.5 90t-75.5 37t-86 -37t-45 -90q-8 -53 19.5 -91t74.5 -38z M1003.5 -4q-110.5 0 -177 81t-50.5 195q14 115 103.5 196t200 81t177 -81t52.5 -196q-16 -115 -105.5 -195.5t-200 -80.5zM1022 141q47 0 87 38t48 91q6 53 -22.5 90t-75.5 37t-85 -36.5t-46 -90t19.5 -91.5t74.5 -38z" glyph-name="percent" horiz-adv-x="1480" unicode="%"/><glyph d="M500 -27q-195 0 -306.5 113t-87.5 283q33 246 318 405q-137 184 -115 336q20 145 142 245.5t278 100.5q152 0 240 -95t67 -241q-14 -113 -102 -213t-217 -164l223 -254l96 134l242 2l-201 -285l291 -340h-270l-158 180q-184 -207 -440 -207zM608 879q102 49 168 112.5 t74 126.5q10 68 -32 116t-113 48q-70 0 -128.5 -49t-66.5 -113q-8 -66 15.5 -116.5t82.5 -124.5zM514 166q164 0 299 158l-281 313q-207 -102 -227 -254q-14 -96 49.5 -156.5t159.5 -60.5z" glyph-name="ampersand" horiz-adv-x="1521" unicode="&amp;"/><glyph d="M184 1206l-39 183l33 245h230l-35 -245l-90 -183h-99z" glyph-name="quotesingle" horiz-adv-x="253" unicode="'"/><glyph d="M326 -459q-127 197 -182.5 473.5t-10.5 583.5q41 305 173 583.5t312 436.5h177q-195 -188 -323 -457.5t-169 -562.5q-41 -291 17.5 -564.5t175.5 -492.5h-170z" glyph-name="parenleft" horiz-adv-x="634" unicode="("/><glyph d="M-88 -459q180 219 315 492.5t176 564.5q41 293 -12 562.5t-192 457.5h176q133 -158 186 -435.5t12 -584.5q-45 -309 -178 -584.5t-313 -472.5h-170z" glyph-name="parenright" horiz-adv-x="675" unicode=")"/><glyph d="M317 1001l-106 70l139 156l-196 -23l18 135l190 -22l-94 158l125 67l53 -180l107 180l106 -67l-141 -158l201 22l-19 -135l-194 23l96 -156l-127 -70l-53 181z" glyph-name="asterisk" horiz-adv-x="653" unicode="*"/><glyph d="M682 59l63 449h-407l20 156h408l63 446h152l-63 -446h407l-20 -156h-408l-63 -449h-152z" glyph-name="plus" horiz-adv-x="1652" unicode="+"/><glyph d="M-63 -233l16 114q109 4 123 119h-117l35 244h227l-35 -244q-16 -117 -82.5 -175t-166.5 -58z" glyph-name="comma" horiz-adv-x="313" unicode=","/><glyph d="M197 588l20 151h717l-21 -151h-716z" glyph-name="hyphen" horiz-adv-x="1099" unicode="-"/><glyph d="M-16 0l34 244h228l-35 -244h-227z" glyph-name="period" horiz-adv-x="358" unicode="."/><glyph d="M12 -410l1174 1946h192l-1171 -1946h-195z" glyph-name="slash" horiz-adv-x="1179" unicode="/"/><glyph d="M561 -18q-250 0 -375 202.5t-77 526.5q47 330 229 533.5t434 203.5q250 0 375 -204t80 -529q-47 -326 -230.5 -529.5t-435.5 -203.5zM592 160q162 0 278.5 151.5t151.5 397.5q35 250 -41 405.5t-239.5 155.5t-277.5 -148.5t-149 -398.5q-37 -254 38 -408.5t239 -154.5z " glyph-name="zero" horiz-adv-x="1290" unicode="0"/><glyph d="M942 0h-881l25 172h344l145 1036l-374 -247l26 192l406 277h164l-176 -1258h346z" glyph-name="one" horiz-adv-x="1130" unicode="1"/><glyph d="M0 0l29 199l405 317q266 207 328 264q117 115 131 224q16 117 -47.5 187.5t-183.5 70.5q-119 0 -208 -75t-120 -200h-211q39 207 195.5 335t369.5 128q203 0 319.5 -125t90.5 -313q-12 -80 -47 -149.5t-100.5 -138.5t-125 -121t-161.5 -132q-39 -29 -58 -45l-299 -238 l690 2l-26 -190h-971z" glyph-name="two" horiz-adv-x="1107" unicode="2"/><glyph d="M819 745q115 -43 179.5 -133t43.5 -229q-29 -176 -180 -292t-364 -116q-225 0 -349 130.5t-102 336.5h209q-20 -123 52.5 -200.5t207.5 -77.5q127 0 215 64.5t100 162.5q16 106 -61.5 171t-230.5 65h-80l28 196h74q137 0 226.5 62.5t105.5 167.5q12 94 -51.5 151.5 t-177.5 57.5q-127 0 -209 -74t-107 -205h-207q35 215 184.5 342t372.5 127q203 0 317.5 -104.5t92.5 -268.5q-18 -121 -103.5 -210t-185.5 -124z" glyph-name="three" horiz-adv-x="1128" unicode="3"/><glyph d="M852 0h-201l39 295h-688l25 172l796 967h230l-135 -955h198l-26 -188h-197zM815 1165l-579 -686h481z" glyph-name="four" horiz-adv-x="1167" unicode="4"/><glyph d="M664 952q197 0 309 -132t84 -343q-31 -211 -194 -351t-374 -140q-217 0 -335.5 127t-92.5 331h199q-14 -131 54.5 -201.5t203.5 -70.5q123 0 218 86t114 207q20 129 -48.5 221t-193.5 92q-141 0 -254 -100h-211l226 756h727l-27 -189h-573l-113 -379q134 86 281 86z" glyph-name="five" horiz-adv-x="1142" unicode="5"/><glyph d="M508 -2q-242 -2 -358.5 186.5t-67.5 528.5q25 176 78 310t116.5 211t144.5 126t150.5 65.5t143.5 16.5q184 -2 296.5 -110.5t112.5 -276.5l-190 -2q-10 115 -89 169t-183 44q-297 -25 -373 -459l-10 -49q154 188 387 188q190 0 308 -130t87 -341q-33 -223 -193.5 -350 t-359.5 -127zM530 178q117 0 207 85t107 206q16 119 -51.5 200t-182.5 81q-117 0 -210 -83t-107 -204q-16 -115 51 -200t186 -85z" glyph-name="six" horiz-adv-x="1130" unicode="6"/><glyph d="M373 0h-211l786 1257h-790l22 177h1004l-23 -174z" glyph-name="seven" horiz-adv-x="1120" unicode="7"/><glyph d="M479 -20q-223 0 -336.5 121.5t-89.5 299.5q20 127 104.5 225.5t202.5 139.5q-94 33 -143 119t-35 194q23 162 161 265.5t337 103.5q201 0 315.5 -104.5t91.5 -264.5q-16 -119 -98 -202.5t-174 -110.5q113 -41 169 -141.5t40 -227.5q-25 -174 -173.5 -295.5t-371.5 -121.5 zM602 856q106 0 186 61.5t93 153.5q12 84 -51.5 146.5t-172 62.5t-185.5 -61.5t-87 -145.5q-14 -94 47 -155.5t170 -61.5zM502 156q121 0 209 69.5t104 175.5q14 109 -55.5 181.5t-188 72.5t-204.5 -71.5t-103 -182.5q-16 -106 50.5 -175.5t187.5 -69.5z" glyph-name="eight" horiz-adv-x="1124" unicode="8"/><glyph d="M668 1442q242 0 358.5 -187.5t69.5 -529.5q-25 -176 -78 -310t-117.5 -211t-145.5 -126t-150.5 -64.5t-143.5 -15.5q-184 0 -297 108.5t-113 276.5l193 2q8 -115 87 -169t183 -44q297 29 375 459l8 49q-72 -90 -174 -139t-211 -49q-190 0 -308 131t-87 342 q31 221 191.5 348t359.5 129zM645 1260q-117 0 -207 -84t-106 -205q-16 -119 51.5 -201t181.5 -82q117 0 210 84t108 203q16 115 -51.5 200t-186.5 85z" glyph-name="nine" horiz-adv-x="1130" unicode="9"/><glyph d="M100 780l35 244h227l-34 -244h-228zM-6 0l33 244h229l-35 -244h-227z" glyph-name="colon" horiz-adv-x="481" unicode=":"/><glyph d="M203 780l35 244h227l-33 -244h-229zM72 -233l16 114q109 4 123 119h-117l35 244h227l-34 -244q-16 -117 -83 -175t-167 -58z" glyph-name="semicolon" horiz-adv-x="604" unicode=";"/><glyph d="M1251 53l-1050 572l18 125l1211 567l-25 -172l-1002 -459l873 -459z" glyph-name="less" horiz-adv-x="1513" unicode="&lt;"/><glyph d="M145 655l21 160h1229l-21 -160h-1229zM92 272l21 160h1228l-20 -160h-1229z" glyph-name="equal" horiz-adv-x="1488" unicode="="/><glyph d="M121 53l24 174l1004 459l-875 459l25 172l1051 -567l-19 -125z" glyph-name="greater" horiz-adv-x="1513" unicode=">"/><glyph d="M373 367l14 106q16 115 66.5 202t113 139t124 97t107.5 99.5t54 122.5q14 106 -56.5 169.5t-171 63.5t-193.5 -66.5t-116 -197.5h-182q20 184 172 308t338 124q195 0 306.5 -120t88.5 -281q-12 -88 -60 -159t-108.5 -120t-122 -98t-108.5 -116t-57 -148l-17 -125h-192z M307 0l35 244h227l-34 -244h-228z" glyph-name="question" horiz-adv-x="1097" unicode="?"/><glyph d="M604 -43q-279 0 -447.5 177t-129.5 446q41 281 269 482.5t509 201.5q274 0 429 -170t118 -430q-25 -172 -138.5 -288t-246.5 -116q-123 0 -164 82q-96 -90 -213 -90q-123 0 -187.5 82t-46.5 213q23 156 129.5 265.5t237.5 109.5q47 0 88 -20.5t57 -55.5l13 63h178 l-74 -291l-29 -110q-20 -88 31 -88q63 0 122.5 66.5t74.5 175.5q29 199 -82 319.5t-322 120.5q-215 0 -381 -150.5t-196 -369.5q-29 -205 93 -334t331 -129h534l-22 -162h-535zM627 412q61 0 116.5 62.5t65.5 143.5q18 141 -92 142q-63 0 -115.5 -61.5t-64.5 -151.5 q-19 -135 90 -135z" glyph-name="at" horiz-adv-x="1357" unicode="@"/><glyph d="M203 0l-232 2l750 1432h209l348 -1434h-229l-88 365h-572zM473 551h455l-137 633z" glyph-name="A" horiz-adv-x="1404" unicode="A"/><glyph d="M82 -4l203 1438h598q170 -2 270 -102.5t76 -268.5q-12 -96 -77 -174t-148 -115q104 -41 159.5 -144.5t34.5 -232.5q-29 -182 -157 -291.5t-314 -109.5h-645zM399 836h394q80 0 145.5 58t75.5 142q14 92 -32 153.5t-140 61.5h-385zM311 193h404q100 0 174 61t88 164 q14 100 -42 167.5t-155 67.5h-403z" glyph-name="B" horiz-adv-x="1300" unicode="B"/><glyph d="M674 -10q-283 0 -445.5 204.5t-117.5 516.5q47 322 266 529.5t514 207.5q252 0 396.5 -143.5t146.5 -364.5h-230q-6 129 -100 218t-248 89q-197 0 -341 -153.5t-177 -384.5q-33 -223 67.5 -371t292.5 -148q158 0 280 92.5t165 219.5h229q-66 -221 -253 -366.5 t-445 -145.5z" glyph-name="C" horiz-adv-x="1460" unicode="C"/><glyph d="M82 -4l203 1438l516 4q293 4 455.5 -197t119.5 -514q-45 -317 -258 -521t-497 -206zM303 193l315 4q209 2 364 146t187 376q33 233 -79.5 377.5t-317.5 140.5l-321 -4z" glyph-name="D" horiz-adv-x="1441" unicode="D"/><glyph d="M84 0l201 1434h927l-26 -197h-729l-60 -416h686l-26 -190h-686l-62 -434h729l-26 -197h-928z" glyph-name="E" horiz-adv-x="1159" unicode="E"/><glyph d="M84 0l201 1434h911l-27 -191h-712l-62 -430h670l-23 -174h-669l-90 -639h-199z" glyph-name="F" horiz-adv-x="1081" unicode="F"/><glyph d="M672 -10q-285 0 -445.5 203.5t-115.5 517.5q47 319 268 528t516 209q252 0 397.5 -143.5t147.5 -364.5h-230q-4 127 -100 217t-250 90q-199 0 -345 -154.5t-179 -383.5q-31 -223 71.5 -373t297.5 -148q147 2 280 89.5t193 261.5h-418l26 194l627 -2l-102 -731h-181 l19 223q-84 -115 -212 -174t-265 -59z" glyph-name="G" horiz-adv-x="1540" unicode="G"/><glyph d="M84 0l201 1434h215l-86 -609h698l86 609h215l-201 -1434h-215l90 645h-698l-90 -645h-215z" glyph-name="H" horiz-adv-x="1452" unicode="H"/><glyph d="M94 0l201 1434h211l-201 -1434h-211z" glyph-name="I" horiz-adv-x="555" unicode="I"/><glyph d="M393 -16q-199 0 -304 120.5t-79 321.5l15 113h194l-14 -107q-14 -117 45 -186.5t170 -69.5q109 0 185.5 74t96.5 207l136 977h209l-140 -983q-31 -215 -176 -341t-338 -126z" glyph-name="J" horiz-adv-x="1064" unicode="J"/><glyph d="M84 0l201 1434h194l-100 -713l749 713h250l-690 -656l510 -778h-260l-412 633l-184 -178l-63 -455h-195z" glyph-name="K" horiz-adv-x="1294" unicode="K"/><glyph d="M84 0l201 1434h213l-172 -1231h639l-27 -203h-854z" glyph-name="L" horiz-adv-x="1054" unicode="L"/><glyph d="M84 0l201 1434h256l293 -1162l608 1162h248l-201 -1434h-197l150 1067l-555 -1067h-187l-262 1071l-149 -1071h-205z" glyph-name="M" horiz-adv-x="1728" unicode="M"/><glyph d="M961 0l-525 1128l-157 -1128h-195l201 1434h247l535 -1158l164 1158h194l-202 -1436z" glyph-name="N" horiz-adv-x="1464" unicode="N"/><glyph d="M684 -20q-287 0 -451.5 209.5t-119.5 527t267 525.5t511 208q287 0 452.5 -209t120.5 -528q-45 -315 -269 -524t-511 -209zM709 178q207 0 358.5 149.5t183.5 379.5q35 236 -74.5 392t-314.5 156q-201 0 -351.5 -154.5t-184.5 -389.5q-33 -229 74.5 -381t308.5 -152z" glyph-name="O" horiz-adv-x="1531" unicode="O"/><glyph d="M82 -2l203 1436l600 2q186 0 286.5 -123t73.5 -312q-27 -186 -163 -306t-328 -120h-389l-84 -577h-199zM389 752h354q117 0 201 66.5t100 185.5q16 121 -48 188.5t-181 67.5h-354z" glyph-name="P" horiz-adv-x="1230" unicode="P"/><glyph d="M1266 -76l-201 166q-178 -106 -383 -106q-285 0 -449.5 208.5t-119.5 524t267 522.5t506.5 207t449.5 -208t120 -525q-43 -301 -242 -504l177 -148zM707 180q102 0 194 49l-160 131l131 136l191 -160q150 150 180 371q35 233 -74.5 388.5t-310.5 155.5 q-197 0 -347.5 -153.5t-182.5 -386.5q-33 -229 74.5 -380t304.5 -151z" glyph-name="Q" horiz-adv-x="1552" unicode="Q"/><glyph d="M82 -2l203 1436l604 2q188 0 288.5 -111t75.5 -281q-18 -127 -96 -222t-172 -126q92 -31 123 -111.5t22 -224.5q-2 -43 -7 -105t-6 -87t-1 -59.5t6 -58t17 -50.5h-230q-6 23 -9 43t-2 53t2 53.5t6 76t7 83.5q8 74 3 131.5t-26.5 97.5t-75.5 61.5t-148 21.5h-293l-88 -623 h-203zM399 797h355q119 0 200.5 59t98.5 172q16 117 -48.5 174.5t-185.5 57.5h-356z" glyph-name="R" horiz-adv-x="1329" unicode="R"/><glyph d="M584 -14q-229 0 -382 118.5t-139 337.5h230q8 -127 90 -195.5t231 -68.5q135 0 224.5 68.5t101.5 163.5q12 92 -46 145t-210 72q-289 35 -404.5 142.5t-93.5 266.5q23 170 183.5 290t375.5 120q244 0 371 -121t105 -334h-217q8 121 -71 188.5t-214 67.5 q-125 0 -208 -61.5t-95 -143.5q-23 -176 282 -217q285 -37 389.5 -141t81.5 -276q-27 -193 -189.5 -307.5t-395.5 -114.5z" glyph-name="S" horiz-adv-x="1269" unicode="S"/><glyph d="M432 0l176 1243h-502l25 191h1200l-24 -191l-500 2l-176 -1245h-199z" glyph-name="T" horiz-adv-x="1218" unicode="T"/><glyph d="M631 -16q-260 0 -393.5 153.5t-98.5 413.5l125 883h203l-123 -883q-27 -178 59 -277.5t256 -99.5q168 0 282 99.5t140 277.5l123 883h203l-123 -883q-37 -260 -215 -413.5t-438 -153.5z" glyph-name="U" horiz-adv-x="1425" unicode="U"/><glyph d="M483 0l-331 1434h208l263 -1170l589 1170h207l-733 -1434h-203z" glyph-name="V" horiz-adv-x="1325" unicode="V"/><glyph d="M385 0l-223 1434h207l157 -1145l471 1145h193l164 -1147l461 1147h206l-610 -1434h-199l-161 1122l-465 -1122h-201z" glyph-name="W" horiz-adv-x="1937" unicode="W"/><glyph d="M-29 0l631 717l-430 717h252l324 -551l477 551h252l-631 -717l430 -717h-252l-324 551l-477 -551h-252z" glyph-name="X" horiz-adv-x="1402" unicode="X"/><glyph d="M477 0l80 582l-405 852h223l309 -668l514 668h207l-647 -852l-80 -582h-201z" glyph-name="Y" horiz-adv-x="1310" unicode="Y"/><glyph d="M12 0l27 201l1055 1032h-895l26 201h1145l-27 -201l-1042 -1032h883l-27 -201h-1145z" glyph-name="Z" horiz-adv-x="1316" unicode="Z"/><glyph d="M0 -649l326 2322h383l-21 -151h-219l-283 -2020h220l-23 -151h-383z" glyph-name="bracketleft" horiz-adv-x="552" unicode="["/><glyph d="M913 -430l-659 1966h192l660 -1966h-193z" glyph-name="backslash" horiz-adv-x="1179" unicode="\"/><glyph d="M0 -649l23 151h219l282 2020h-219l21 151h383l-326 -2322h-383z" glyph-name="bracketright" horiz-adv-x="552" unicode="]"/><glyph d="M90 -160l25 160h1024l-25 -160h-1024z" glyph-name="underscore" horiz-adv-x="1406" unicode="_"/><glyph d="M-268 1188l-264 268h251l209 -268h-196z" glyph-name="grave" horiz-adv-x="0" unicode="`"/><glyph d="M334 -20q-143 0 -232.5 83.5t-70.5 225.5q20 143 123 219q109 76 295 92q53 4 69.5 6t63.5 9.5t66.5 15.5t48 21.5t42 34t17.5 46.5q8 59 -39 98t-129 39q-102 0 -168 -51t-86 -127l-209 -2q37 158 168 258.5t313 100.5q186 0 278.5 -98.5t69.5 -254.5l-96 -696h-205 l19 129q-139 -149 -338 -149zM389 152q104 -4 201.5 60t118.5 185l16 109q-63 -41 -258 -57q-201 -16 -223 -148q-8 -63 31.5 -104t113.5 -45z" glyph-name="a" horiz-adv-x="1056" unicode="a"/><glyph d="M580 -23q-119 0 -201 54.5t-109 118.5l-18 -150h-189l201 1434h189l-80 -566q135 166 362 166q186 0 302 -142t83 -386q-35 -244 -195.5 -386.5t-344.5 -142.5zM571 162q131 0 225.5 99t114.5 257q23 147 -44.5 241.5t-196.5 94.5q-133 0 -229.5 -99.5t-118.5 -254.5 q-23 -147 47.5 -242.5t201.5 -95.5z" glyph-name="b" horiz-adv-x="1198" unicode="b"/><glyph d="M473 -14q-213 0 -327.5 146.5t-82.5 379.5q33 236 191 384t375 148q176 0 284.5 -101t106.5 -261h-205q-8 82 -64.5 137t-150.5 55q-121 0 -213 -96t-113 -256q-25 -164 41 -262t187 -98q96 0 167.5 55t100.5 137h205q-45 -162 -185.5 -265t-316.5 -103z" glyph-name="c" horiz-adv-x="1075" unicode="c"/><glyph d="M455 -23q-184 0 -305 142.5t-88.5 386.5t190.5 386t346 142q117 0 196.5 -47t116.5 -119l80 566h189l-201 -1434h-188l20 150q-41 -61 -139 -117t-217 -56zM514 162q131 0 227.5 95t118.5 243q23 156 -47 255t-203 99q-129 0 -222 -94t-116 -242q-23 -158 45 -257 t197 -99z" glyph-name="d" horiz-adv-x="1198" unicode="d"/><glyph d="M475 -23q-221 0 -333.5 141.5t-80.5 385.5q35 238 188.5 385t371.5 147q225 0 326.5 -165.5t49.5 -421.5h-739v-3q-20 -137 46.5 -216.5t197.5 -79.5q76 0 154.5 41.5t119.5 134.5h187q-45 -156 -177.5 -252.5t-310.5 -96.5zM289 623h524q8 109 -51.5 175t-172 66 t-194 -67.5t-106.5 -173.5z" glyph-name="e" horiz-adv-x="1083" unicode="e"/><glyph d="M86 0l119 856h-156l25 168h155l19 139q16 121 103 196t208 75h178l-22 -177h-133q-70 0 -103 -29.5t-43 -107.5l-14 -96h256l-25 -168h-256l-118 -856h-193z" glyph-name="f" horiz-adv-x="624" unicode="f"/><glyph d="M422 -426q-201 0 -310.5 103.5t-97.5 254.5l197 -2q4 -59 33.5 -100t73.5 -57.5t75 -22.5t60 -6q143 0 242.5 86t123.5 262l15 103q-59 -92 -168 -148.5t-224 -56.5q-209 0 -310 146.5t-69 381.5q33 229 182.5 379t350.5 150q111 0 202 -55.5t128 -145.5l24 178h191 l-129 -932q-37 -256 -195.5 -387t-394.5 -131zM518 170q131 0 228.5 99.5t119.5 254.5q20 147 -49 242.5t-203 95.5q-129 0 -224 -99t-118 -257q-20 -147 48.5 -241.5t197.5 -94.5z" glyph-name="g" horiz-adv-x="1206" unicode="g"/><glyph d="M63 0l201 1434h197l-76 -543q47 59 135 109.5t199 50.5q66 0 126 -21.5t113.5 -66.5t78 -131.5t7.5 -202.5l-88 -629h-211l84 608q18 129 -31.5 197.5t-148.5 68.5q-115 0 -204 -94t-111 -252l-74 -528h-197z" glyph-name="h" unicode="h"/><glyph d="M221 1194l33 240h221l-33 -240h-221zM61 0l144 1024h207l-144 -1024h-207z" glyph-name="i" horiz-adv-x="483" unicode="i"/><glyph d="M231 1194l33 240h221l-32 -240h-222zM-162 -362l27 188h45q66 0 109.5 39t56.5 119l145 1040h197l-152 -1073q-20 -145 -117.5 -229t-234.5 -84h-76z" glyph-name="j" horiz-adv-x="483" unicode="j"/><glyph d="M63 0l201 1434h195l-117 -832l455 422h243l-440 -408l340 -614l-223 -2l-262 477l-150 -137l-47 -340h-195z" glyph-name="k" horiz-adv-x="1046" unicode="k"/><glyph d="M63 0l201 1434h207l-201 -1434h-207z" glyph-name="l" horiz-adv-x="489" unicode="l"/><glyph d="M63 0l144 1024h196l-18 -133q123 160 317 160q221 0 302 -199q141 199 374 199q66 0 126.5 -21.5t114.5 -66.5t79.5 -131.5t9.5 -202.5l-88 -629h-211l84 608q18 131 -32 198.5t-148 67.5q-111 0 -194 -94t-105 -252l-74 -528h-211l84 608q18 131 -32 198.5t-148 67.5 q-111 0 -194 -94t-105 -252l-74 -528h-197z" glyph-name="m" horiz-adv-x="1828" unicode="m"/><glyph d="M63 0l144 1024h196l-18 -133q47 59 135 109.5t199 50.5q66 0 126 -21.5t113.5 -66.5t78 -131.5t7.5 -202.5l-88 -629h-211l84 608q18 131 -31.5 198.5t-148.5 67.5q-111 0 -202 -95t-113 -251l-74 -528h-197z" glyph-name="n" unicode="n"/><glyph d="M481 -10q-211 0 -330.5 147.5t-87.5 374.5q33 229 194 377.5t372 148.5t329.5 -147.5t85.5 -378.5q-33 -227 -193.5 -374.5t-369.5 -147.5zM504 174q137 0 230 94t116 242q20 152 -44.5 248t-203.5 96q-135 0 -227 -96t-113 -246q-23 -147 43 -242.5t199 -95.5z" glyph-name="o" horiz-adv-x="1120" unicode="o"/><glyph d="M6 -410l201 1434h188l-22 -150q43 63 140 118t216 55q184 0 305 -142.5t88 -386.5q-35 -244 -191.5 -386t-342.5 -142q-117 0 -198 47t-118 119l-77 -566h-189zM573 170q129 0 223.5 94t114.5 242q23 158 -43.5 257t-195.5 99q-133 0 -229.5 -95t-116.5 -243 q-23 -156 46.5 -255t200.5 -99z" glyph-name="p" horiz-adv-x="1200" unicode="p"/><glyph d="M731 -410l80 566q-139 -166 -362 -166q-188 0 -304 142t-84 386q23 164 111 288t200.5 182.5t229.5 58.5q119 0 202 -54.5t107 -118.5l21 150h188l-200 -1434h-189zM514 170q131 0 228.5 99.5t119.5 254.5q20 147 -49.5 242.5t-202.5 95.5q-129 0 -224 -99t-118 -257 q-20 -147 48.5 -241.5t197.5 -94.5z" glyph-name="q" horiz-adv-x="1196" unicode="q"/><glyph d="M63 0l144 1024h190l-18 -129q100 150 319 145h37l-28 -202l-29 -2q-305 8 -348 -299l-76 -537h-191z" glyph-name="r" horiz-adv-x="679" unicode="r"/><glyph d="M414 -23q-180 0 -291 91.5t-96 259.5h190q2 -86 62.5 -134.5t154.5 -48.5q90 0 147.5 45.5t69.5 112.5q6 55 -33.5 91t-150.5 52q-119 18 -195.5 51t-109.5 77t-42 85t-3 91q16 121 133 206.5t282 85.5q162 0 265.5 -86t89.5 -262h-185q2 98 -55 137t-135 39 q-74 0 -131 -32.5t-66 -89.5q-6 -51 37 -86t140 -50q219 -29 299.5 -105.5t62.5 -203.5q-20 -145 -150 -235.5t-290 -90.5z" glyph-name="s" horiz-adv-x="950" unicode="s"/><glyph d="M342 0q-123 0 -188.5 75t-49.5 195l84 586h-159l24 168h158l45 319h193l-43 -319h256l-25 -168h-256l-76 -543q-10 -78 13.5 -107.5t93.5 -29.5h133l-25 -176h-178z" glyph-name="t" horiz-adv-x="626" unicode="t"/><glyph d="M434 -27q-66 0 -126 21.5t-113.5 66.5t-78 131.5t-7.5 202.5l88 629h211l-86 -608q-18 -129 31.5 -197.5t148.5 -68.5q115 0 205 94t110 252l76 528h197l-144 -1024h-196l16 133q-47 -61 -134 -110.5t-198 -49.5z" glyph-name="u" unicode="u"/><glyph d="M344 0l-270 1024h211l180 -760l393 760h215l-559 -1024h-170z" glyph-name="v" horiz-adv-x="1015" unicode="v"/><glyph d="M272 0l-188 1024h213l115 -760l325 760h164l113 -760l325 760h217l-477 -1024h-202l-105 682l-295 -682h-205z" glyph-name="w" horiz-adv-x="1509" unicode="w"/><glyph d="M-49 0l448 512l-305 512h234l209 -356l303 356h231l-446 -512l303 -512h-232l-207 356l-307 -356h-231z" glyph-name="x" horiz-adv-x="1034" unicode="x"/><glyph d="M-57 -410l22 181h92q127 0 207 145l74 147l-264 961h215l184 -723l373 723h215l-612 -1157q-152 -276 -398 -277h-108z" glyph-name="y" horiz-adv-x="1003" unicode="y"/><glyph d="M-8 0l24 182l680 662h-587l26 182l828 -2l-25 -180l-680 -662h586l-25 -182h-827z" glyph-name="z" horiz-adv-x="987" unicode="z"/><glyph d="M328 -635q-88 0 -147.5 77t-45.5 185l68 486q25 139 5 210.5t-112 120.5l21 134q104 51 141 117.5t57 211.5l68 486q16 115 95 187.5t169 72.5h51l-20 -150q-70 0 -100.5 -31.5t-40.5 -99.5l-70 -495q-18 -129 -59 -216.5t-142 -150.5q82 -61 101.5 -161.5t-5.5 -205.5 l-69 -501q-10 -66 14.5 -95.5t91.5 -29.5l-22 -152h-49z" glyph-name="braceleft" horiz-adv-x="653" unicode="{"/><glyph d="M94 -307l258 1843h158l-258 -1843h-158z" glyph-name="bar" horiz-adv-x="587" unicode="|"/><glyph d="M-55 -635l20 150q72 0 101.5 30.5t39.5 100.5l70 495q18 129 59 216t142 151q-82 61 -100.5 161.5t4.5 204.5l69 502q10 66 -14.5 95.5t-89.5 29.5l20 152h49q88 0 147.5 -77t45.5 -185l-68 -486q-25 -137 -5 -208.5t112 -123.5l-19 -133q-106 -49 -143 -116.5 t-57 -212.5l-68 -486q-16 -113 -96 -186.5t-168 -73.5h-51z" glyph-name="braceright" horiz-adv-x="653" unicode="}"/><glyph d="M221 877l33 245h229l-32 -245h-230zM49 -414l184 1114h162l-127 -1114h-219z" glyph-name="exclamdown" horiz-adv-x="583" unicode="¡"/><glyph d="M399 0l21 156q-176 27 -268.5 168t-63.5 352t161 354.5t320 171.5l23 160h166l-23 -160q141 -23 226.5 -120t82.5 -236h-204q-6 82 -62.5 137t-152.5 55q-119 0 -211 -96t-115 -256q-25 -164 41 -262t186 -98q96 0 169 56t100 136h204q-37 -139 -150.5 -237.5 t-262.5 -122.5l-21 -158h-166z" glyph-name="cent" horiz-adv-x="1097" unicode="¢"/><glyph d="M1100 287q-27 -141 -134.5 -222t-230.5 -81q-94 0 -216 68.5t-183 68.5q-51 0 -96 -31t-56 -92h-172q16 213 221 283q41 78 52 141q20 106 0 205h-166l22 164l133 -3q-27 195 -10 295q29 174 172.5 291t331.5 117q184 0 299 -106.5t104 -284.5h-188q0 123 -73.5 174 t-174.5 49q-109 0 -195.5 -68.5t-103.5 -177.5q-10 -70 13 -286h442l-23 -164h-397q4 -137 -6 -209q-10 -59 -41 -139q49 -10 158.5 -65.5t156.5 -55.5q70 0 114 36.5t56 92.5h191z" glyph-name="sterling" horiz-adv-x="1228" unicode="£"/><glyph d="M541 0l34 246h-419l20 164h420l20 127h-419l22 163h363l-367 754h225l312 -661l514 661h209l-580 -754h365l-21 -163h-422l-18 -127h420l-23 -164h-420l-35 -246h-200z" glyph-name="yen" horiz-adv-x="1357" unicode="¥"/><glyph d="M199 799l104 737h174l-104 -737h-174zM45 -307l102 737h175l-103 -737h-174z" glyph-name="brokenbar" horiz-adv-x="587" unicode="¦"/><glyph d="M137 1214v244h228v-244h-228zM518 1214v244h230v-244h-230z" glyph-name="dieresis" horiz-adv-x="108" unicode="¨"/><glyph d="M815 -33q-330 0 -531.5 234.5t-156.5 564.5q31 217 164 401.5t332.5 292t416.5 107.5q330 0 532 -235.5t154 -565.5q-45 -330 -313 -564.5t-598 -234.5zM831.5 74q288.5 0 520 201.5t270.5 490.5q41 289 -133 491.5t-463 202.5t-520.5 -202.5t-272.5 -491.5 q-39 -289 135.5 -490.5t463 -201.5zM858 285q-186 0 -292.5 136t-78.5 339q31 211 175.5 348t338.5 137q166 0 261.5 -93t99.5 -239h-154q-6 82 -68.5 140.5t-160.5 58.5q-129 0 -223 -99.5t-117 -252.5q-20 -150 45.5 -245t189.5 -95q102 0 182.5 59.5t110.5 141.5h154 q-47 -145 -171 -240.5t-292 -95.5z" glyph-name="copyright" horiz-adv-x="1794" unicode="©"/><glyph d="M430 195l-258 376l365 377h184l-365 -377l258 -376h-184zM848 195l-258 376l364 377h187l-365 -377l258 -376h-186z" glyph-name="guillemotleft" horiz-adv-x="1253" unicode="«"/><glyph d="M178 451l19 143h716l-18 -143h-717z" glyph-name="uni00AD" horiz-adv-x="1208" unicode="­"/><glyph d="M813 -33q-330 0 -531.5 235.5t-156.5 565.5q47 330 315.5 565.5t598 235.5t532.5 -235.5t155 -565.5q-45 -330 -314 -565.5t-599 -235.5zM829 76q291 0 520.5 201.5t270.5 490.5t-132 490.5t-464 201.5q-289 0 -519.5 -201.5t-271 -490.5t133 -490.5t462.5 -201.5z M1079 328q-10 41 2 194q4 45 1 81t-15 60.5t-46 37t-91 12.5h-176l-56 -385h-133l127 897l379 2q119 0 183.5 -71t48.5 -177q-12 -78 -59.5 -137.5t-104.5 -79.5q98 -35 86 -207q-2 -25 -5 -65.5t-3 -55v-38t3 -38t11 -30.5h-152zM770 829h217q72 0 121 35t59 105 q10 72 -28.5 105.5t-112.5 33.5h-217z" glyph-name="registered" horiz-adv-x="1794" unicode="®"/><glyph d="M70 1210v160h635v-160h-635z" glyph-name="macron" horiz-adv-x="137" unicode="¯"/><glyph d="M571.5 1008q-112.5 0 -182.5 80.5t-53 193.5q16 115 107.5 194.5t204 79.5t182 -80.5t55.5 -193.5q-16 -113 -108.5 -193.5t-205 -80.5zM592 1155q57 0 97 35t48 92t-22.5 92t-88 35t-97.5 -35t-46 -92q-8 -57 22 -92t87 -35z" glyph-name="degree" horiz-adv-x="1013" unicode="°"/><glyph d="M-334 1188h-198l208 268h252z" glyph-name="acute" horiz-adv-x="0" unicode="´"/><glyph d="M170 502l35 246h227l-35 -246h-227z" glyph-name="periodcentered" horiz-adv-x="552" unicode="·"/><glyph d="M274 -532q-74 0 -143.5 43t-93.5 102l117 43q16 -27 52 -47.5t68 -20.5q41 0 69 29t28 70q0 72 -68 86q-51 14 -110 -17l-99 58l99 186h124l-67 -127q39 8 76 2q74 -8 122 -60.5t48 -127.5q0 -92 -65 -155.5t-157 -63.5z" glyph-name="cedilla" horiz-adv-x="108" unicode="¸"/><glyph d="M117 195l364 376l-258 377h185l258 -377l-365 -376h-184zM535 195l364 376l-258 377h186l258 -377l-364 -376h-186z" glyph-name="guillemotright" horiz-adv-x="1253" unicode="»"/><glyph d="M504 881l35 243h227l-33 -243h-229zM428 -410q-197 0 -309.5 121t-87.5 281q12 88 59 158.5t108.5 119.5t122 98.5t107.5 116t59 148.5l19 125h192l-16 -107q-16 -115 -66.5 -202t-113 -139t-123 -97t-106.5 -99.5t-56 -121.5q-16 -106 55.5 -170t172 -64t193.5 66.5 t116 198.5h182q-20 -184 -172 -308.5t-336 -124.5z" glyph-name="questiondown" horiz-adv-x="1097" unicode="¿"/><glyph d="M756 1524l-226 270h252l170 -270h-196zM203 0l-232 2l750 1432h209l348 -1434h-229l-88 365h-572zM473 551h455l-137 633z" glyph-name="Agrave" horiz-adv-x="1404" unicode="À"/><glyph d="M913 1522h-198l248 268h251zM203 0l-232 2l750 1432h209l348 -1434h-229l-88 365h-572zM473 551h455l-137 633z" glyph-name="Aacute" horiz-adv-x="1404" unicode="Á"/><glyph d="M727 1839h277l172 -319h-211l-115 202l-172 -202h-209zM203 0l-232 2l750 1432h209l348 -1434h-229l-88 365h-572zM473 551h455l-137 633z" glyph-name="Acircumflex" horiz-adv-x="1404" unicode="Â"/><glyph d="M975 1520q-123 0 -187 116q-20 45 -59 45q-55 0 -72 -71q-4 -43 2 -72h-157q-2 23 2 59q10 104 77.5 171t161.5 67q127 0 187 -117q20 -45 61 -45q33 0 53.5 30t20.5 81q-4 20 -4 33h156q4 -14 0 -27q2 -117 -68 -193.5t-174 -76.5zM203 0l-232 2l750 1432h209l348 -1434 h-229l-88 365h-572zM473 551h455l-137 633z" glyph-name="Atilde" horiz-adv-x="1404" unicode="Ã"/><glyph d="M532 1548l35 244h228l-33 -244h-230zM915 1548l33 244h230l-35 -244h-228zM203 0l-232 2l750 1432h209l348 -1434h-229l-88 365h-572zM473 551h455l-137 633z" glyph-name="Adieresis" horiz-adv-x="1404" unicode="Ä"/><glyph d="M838 1518q-80 0 -127 56t-37 134t73.5 134t143.5 56q76 0 124 -56t37.5 -134t-73.5 -134t-141 -56zM852 1626q84 0 94 82q4 39 -14.5 62.5t-54.5 23.5q-39 0 -66 -23.5t-31 -62.5t15.5 -60.5t56.5 -21.5zM203 0l-232 2l750 1432h209l348 -1434h-229l-88 365h-572z M473 551h455l-137 633z" glyph-name="Aring" horiz-adv-x="1404" unicode="Å"/><glyph d="M1884 1237h-729l-57 -416h686l-27 -190h-686l-61 -434h729l-27 -197h-928l52 367h-459l-191 -367l-215 2l736 1432h1206zM473 567h391l92 664h-149z" glyph-name="AE" horiz-adv-x="1859" unicode="Æ"/><glyph d="M698 190q158 0 280 92.5t165 219.5h229q-63 -217 -246.5 -362.5t-435.5 -149.5l-37 -53q41 8 78 2q74 -10 114 -61.5t27 -127.5q-12 -92 -84.5 -155.5t-164.5 -63.5q-74 0 -138.5 42t-78.5 103l120 43q16 -29 49 -48t66 -19q39 0 70.5 28.5t36.5 69.5q12 72 -56 86 q-43 12 -112 -16l-91 57l82 121q-240 39 -369.5 235.5t-90.5 477.5q47 322 266 529.5t514 207.5q252 0 396.5 -143.5t146.5 -364.5h-230q-6 129 -100 218t-248 89q-197 0 -341 -153.5t-177 -384.5q-33 -223 67 -371t293 -148z" glyph-name="Ccedilla" horiz-adv-x="1460" unicode="Ç"/><glyph d="M684 1524l-225 270h254l170 -270h-199zM84 0l201 1434h927l-26 -197h-729l-60 -416h686l-26 -190h-686l-62 -434h729l-26 -197h-928z" glyph-name="Egrave" horiz-adv-x="1159" unicode="È"/><glyph d="M844 1522h-199l246 268h254zM84 0l201 1434h927l-26 -197h-729l-60 -416h686l-26 -190h-686l-62 -434h729l-26 -197h-928z" glyph-name="Eacute" horiz-adv-x="1159" unicode="É"/><glyph d="M657 1839h277l170 -319h-209l-115 202l-174 -202h-207zM84 0l201 1434h927l-26 -197h-729l-60 -416h686l-26 -190h-686l-62 -434h729l-26 -197h-928z" glyph-name="Ecircumflex" horiz-adv-x="1159" unicode="Ê"/><glyph d="M463 1548l35 244h227l-35 -244h-227zM844 1548l35 244h227l-33 -244h-229zM84 0l201 1434h927l-26 -197h-729l-60 -416h686l-26 -190h-686l-62 -434h729l-26 -197h-928z" glyph-name="Edieresis" horiz-adv-x="1159" unicode="Ë"/><glyph d="M332 1524l-228 270h254l170 -270h-196zM94 0l201 1434h211l-201 -1434h-211z" glyph-name="Igrave" horiz-adv-x="555" unicode="Ì"/><glyph d="M489 1522h-198l246 268h254zM94 0l201 1434h211l-201 -1434h-211z" glyph-name="Iacute" horiz-adv-x="555" unicode="Í"/><glyph d="M303 1839h277l170 -319h-209l-115 202l-172 -202h-209zM94 0l201 1434h211l-201 -1434h-211z" glyph-name="Icircumflex" horiz-adv-x="559" unicode="Î"/><glyph d="M109 1548l34 244h228l-35 -244h-227zM489 1548l35 244h230l-35 -244h-230zM94 0l201 1434h211l-201 -1434h-211z" glyph-name="Idieresis" horiz-adv-x="561" unicode="Ï"/><glyph d="M934 1438q293 4 455.5 -197t119.5 -514q-45 -317 -258 -521t-497 -206l-539 -4l90 641h-133l25 186h135l86 611zM1303 719q33 233 -80 377.5t-318 140.5l-321 -4l-58 -410h146l-25 -186h-147l-64 -444l316 4q209 2 363.5 146.5t187.5 375.5z" glyph-name="Eth" horiz-adv-x="1574" unicode="Ð"/><glyph d="M1004 1520q-121 0 -185 116q-20 45 -59 45q-57 0 -72 -71q-6 -33 2 -72h-158q-4 35 3 59q10 104 77.5 171t161.5 67q127 0 187 -117q20 -45 59 -45q35 0 55.5 31t18.5 80q0 8 -4 33h157v-27q0 -117 -68.5 -193.5t-174.5 -76.5zM961 0l-525 1128l-157 -1128h-195l201 1434 h247l535 -1158l164 1158h194l-202 -1436z" glyph-name="Ntilde" horiz-adv-x="1464" unicode="Ñ"/><glyph d="M819 1524l-227 270h254l170 -270h-197zM684 -20q-287 0 -451.5 209.5t-119.5 527t267 525.5t511 208q287 0 452.5 -209t120.5 -528q-45 -315 -269 -524t-511 -209zM709 178q207 0 358.5 149.5t183.5 379.5q35 236 -74.5 392t-314.5 156q-201 0 -351.5 -154.5 t-184.5 -389.5q-33 -229 74.5 -381t308.5 -152z" glyph-name="Ograve" horiz-adv-x="1531" unicode="Ò"/><glyph d="M977 1522h-199l246 268h254zM684 -20q-287 0 -451.5 209.5t-119.5 527t267 525.5t511 208q287 0 452.5 -209t120.5 -528q-45 -315 -269 -524t-511 -209zM709 178q207 0 358.5 149.5t183.5 379.5q35 236 -74.5 392t-314.5 156q-201 0 -351.5 -154.5t-184.5 -389.5 q-33 -229 74.5 -381t308.5 -152z" glyph-name="Oacute" horiz-adv-x="1531" unicode="Ó"/><glyph d="M791 1839h276l170 -319h-209l-115 202l-172 -202h-209zM684 -20q-287 0 -451.5 209.5t-119.5 527t267 525.5t511 208q287 0 452.5 -209t120.5 -528q-45 -315 -269 -524t-511 -209zM709 178q207 0 358.5 149.5t183.5 379.5q35 236 -74.5 392t-314.5 156 q-201 0 -351.5 -154.5t-184.5 -389.5q-33 -229 74.5 -381t308.5 -152z" glyph-name="Ocircumflex" horiz-adv-x="1531" unicode="Ô"/><glyph d="M1036 1520q-121 0 -184 116q-20 45 -59 45q-57 0 -72 -71q-6 -33 2 -72h-158q-4 35 2 59q10 104 78 171t162 67q127 0 186 -117q20 -45 60 -45q35 0 55 31t18 80q0 8 -4 33h158v-27q0 -117 -69 -193.5t-175 -76.5zM684 -20q-287 0 -451.5 209.5t-119.5 527t267 525.5 t511 208q287 0 452.5 -209t120.5 -528q-45 -315 -269 -524t-511 -209zM709 178q207 0 358.5 149.5t183.5 379.5q35 236 -74.5 392t-314.5 156q-201 0 -351.5 -154.5t-184.5 -389.5q-33 -229 74.5 -381t308.5 -152z" glyph-name="Otilde" horiz-adv-x="1531" unicode="Õ"/><glyph d="M596 1548l35 244h227l-35 -244h-227zM977 1548l35 244h229l-35 -244h-229zM684 -20q-287 0 -451.5 209.5t-119.5 527t267 525.5t511 208q287 0 452.5 -209t120.5 -528q-45 -315 -269 -524t-511 -209zM709 178q207 0 358.5 149.5t183.5 379.5q35 236 -74.5 392t-314.5 156 q-201 0 -351.5 -154.5t-184.5 -389.5q-33 -229 74.5 -381t308.5 -152z" glyph-name="Odieresis" horiz-adv-x="1531" unicode="Ö"/><glyph d="M338 115l-123 143l430 377l-323 379l161 141l326 -379l430 379l123 -141l-432 -379l325 -377l-161 -143l-326 379z" glyph-name="multiply" horiz-adv-x="1497" unicode="×"/><glyph d="M1573 1434l-213 -215q147 -207 104 -506q-45 -315 -269 -524t-511 -209q-236 0 -397 149l-127 -129h-217l247 252q-117 197 -77 465q45 317 267 525t511 208q211 0 362 -119l103 103h217zM326 711q-25 -162 28 -293l748 760q-100 78 -240 77q-201 0 -351 -154t-185 -390z M1251 707q31 199 -49 350l-762 -772q102 -106 269 -107q207 0 358 150t184 379z" glyph-name="Oslash" horiz-adv-x="1568" unicode="Ø"/><glyph d="M776 1524l-227 270h254l170 -270h-197zM631 -16q-260 0 -393.5 153.5t-98.5 413.5l125 883h203l-123 -883q-27 -178 59 -277.5t256 -99.5q168 0 282 99.5t140 277.5l123 883h203l-123 -883q-37 -260 -215 -413.5t-438 -153.5z" glyph-name="Ugrave" horiz-adv-x="1425" unicode="Ù"/><glyph d="M934 1522h-199l246 268h254zM631 -16q-260 0 -393.5 153.5t-98.5 413.5l125 883h203l-123 -883q-27 -178 59 -277.5t256 -99.5q168 0 282 99.5t140 277.5l123 883h203l-123 -883q-37 -260 -215 -413.5t-438 -153.5z" glyph-name="Uacute" horiz-adv-x="1425" unicode="Ú"/><glyph d="M748 1839h276l170 -319h-209l-115 202l-172 -202h-209zM631 -16q-260 0 -393.5 153.5t-98.5 413.5l125 883h203l-123 -883q-27 -178 59 -277.5t256 -99.5q168 0 282 99.5t140 277.5l123 883h203l-123 -883q-37 -260 -215 -413.5t-438 -153.5z" glyph-name="Ucircumflex" horiz-adv-x="1425" unicode="Û"/><glyph d="M553 1548l35 244h227l-35 -244h-227zM934 1548l35 244h229l-35 -244h-229zM631 -16q-260 0 -393.5 153.5t-98.5 413.5l125 883h203l-123 -883q-27 -178 59 -277.5t256 -99.5q168 0 282 99.5t140 277.5l123 883h203l-123 -883q-37 -260 -215 -413.5t-438 -153.5z" glyph-name="Udieresis" horiz-adv-x="1425" unicode="Ü"/><glyph d="M866 1522h-198l245 268h254zM477 0l80 582l-405 852h223l309 -668l514 668h207l-647 -852l-80 -582h-201z" glyph-name="Yacute" horiz-adv-x="1310" unicode="Ý"/><glyph d="M82 0l201 1434h198l-39 -275l404 2q186 0 285.5 -123t72.5 -311q-25 -186 -162 -306t-329 -120h-389l-43 -301h-199zM348 477h354q119 0 203 66.5t100.5 185.5t-49 187.5t-182.5 68.5h-354z" glyph-name="Thorn" horiz-adv-x="1228" unicode="Þ"/><glyph d="M459 -4l24 197h172q121 0 207 57t101 151q16 119 -69 179.5t-257 60.5h-68l27 180h61q150 0 253.5 75t119.5 187q14 96 -57.5 162t-190.5 66q-143 0 -239.5 -88t-114.5 -228l-139 -999h-207l139 999q33 227 196 361.5t404 134.5q215 0 335 -110.5t93 -290.5 q-29 -223 -250 -340q104 -47 152.5 -139.5t32.5 -211.5q-27 -182 -179.5 -292.5t-377.5 -110.5h-168z" glyph-name="germandbls" horiz-adv-x="1286" unicode="ß"/><glyph d="M530 1135l-225 268h252l172 -268h-199zM334 -20q-143 0 -232.5 83.5t-70.5 225.5q20 143 123 219q109 76 295 92q53 4 69.5 6t63.5 9.5t66.5 15.5t48 21.5t42 34t17.5 46.5q8 59 -39 98t-129 39q-102 0 -168 -51t-86 -127l-209 -2q37 158 168 258.5t313 100.5 q186 0 278.5 -98.5t69.5 -254.5l-96 -696h-205l19 129q-139 -149 -338 -149zM389 152q104 -4 201.5 60t118.5 185l16 109q-63 -41 -258 -57q-201 -16 -223 -148q-8 -63 31.5 -104t113.5 -45z" glyph-name="agrave" horiz-adv-x="1056" unicode="à"/><glyph d="M688 1133h-196l245 268h252zM334 -20q-143 0 -232.5 83.5t-70.5 225.5q20 143 123 219q109 76 295 92q53 4 69.5 6t63.5 9.5t66.5 15.5t48 21.5t42 34t17.5 46.5q8 59 -39 98t-129 39q-102 0 -168 -51t-86 -127l-209 -2q37 158 168 258.5t313 100.5q186 0 278.5 -98.5 t69.5 -254.5l-96 -696h-205l19 129q-139 -149 -338 -149zM389 152q104 -4 201.5 60t118.5 185l16 109q-63 -41 -258 -57q-201 -16 -223 -148q-8 -63 31.5 -104t113.5 -45z" glyph-name="aacute" horiz-adv-x="1056" unicode="á"/><glyph d="M504 1450h276l172 -322h-209l-116 205l-172 -205h-209zM334 -20q-143 0 -232.5 83.5t-70.5 225.5q20 143 123 219q109 76 295 92q53 4 69.5 6t63.5 9.5t66.5 15.5t48 21.5t42 34t17.5 46.5q8 59 -39 98t-129 39q-102 0 -168 -51t-86 -127l-209 -2q37 158 168 258.5 t313 100.5q186 0 278.5 -98.5t69.5 -254.5l-96 -696h-205l19 129q-139 -149 -338 -149zM389 152q104 -4 201.5 60t118.5 185l16 109q-63 -41 -258 -57q-201 -16 -223 -148q-8 -63 31.5 -104t113.5 -45z" glyph-name="acircumflex" horiz-adv-x="1056" unicode="â"/><glyph d="M750 1130q-123 0 -187 117q-20 45 -59 45q-55 0 -72 -73q-4 -35 2 -72h-158q-2 25 3 61q10 104 78.5 171t160.5 67q129 0 189 -117q18 -45 59 -45q33 0 53.5 29.5t20.5 79.5q0 10 -4 34h157v-28q0 -115 -68.5 -192t-174.5 -77zM334 -20q-143 0 -232.5 83.5t-70.5 225.5 q20 143 123 219q109 76 295 92q53 4 69.5 6t63.5 9.5t66.5 15.5t48 21.5t42 34t17.5 46.5q8 59 -39 98t-129 39q-102 0 -168 -51t-86 -127l-209 -2q37 158 168 258.5t313 100.5q186 0 278.5 -98.5t69.5 -254.5l-96 -696h-205l19 129q-139 -149 -338 -149zM389 152 q104 -4 201.5 60t118.5 185l16 109q-63 -41 -258 -57q-201 -16 -223 -148q-8 -63 31.5 -104t113.5 -45z" glyph-name="atilde" horiz-adv-x="1056" unicode="ã"/><glyph d="M309 1157l33 246h229l-34 -246h-228zM690 1157l35 246h227l-34 -246h-228zM334 -20q-143 0 -232.5 83.5t-70.5 225.5q20 143 123 219q109 76 295 92q53 4 69.5 6t63.5 9.5t66.5 15.5t48 21.5t42 34t17.5 46.5q8 59 -39 98t-129 39q-102 0 -168 -51t-86 -127l-209 -2 q37 158 168 258.5t313 100.5q186 0 278.5 -98.5t69.5 -254.5l-96 -696h-205l19 129q-139 -149 -338 -149zM389 152q104 -4 201.5 60t118.5 185l16 109q-63 -41 -258 -57q-201 -16 -223 -148q-8 -63 31.5 -104t113.5 -45z" glyph-name="adieresis" horiz-adv-x="1056" unicode="ä"/><glyph d="M612.5 1128q-77.5 0 -126 55.5t-37.5 133.5q10 80 74.5 135t142 55t125 -55t36.5 -135q-8 -76 -72.5 -132.5t-142 -56.5zM629 1235q37 0 62.5 22.5t29.5 59.5q6 39 -12.5 62.5t-57.5 23.5t-64.5 -23.5t-31.5 -62.5q-4 -37 15.5 -59.5t58.5 -22.5zM334 -20 q-143 0 -232.5 83.5t-70.5 225.5q20 143 123 219q109 76 295 92q53 4 69.5 6t63.5 9.5t66.5 15.5t48 21.5t42 34t17.5 46.5q8 59 -39 98t-129 39q-102 0 -168 -51t-86 -127l-209 -2q37 158 168 258.5t313 100.5q186 0 278.5 -98.5t69.5 -254.5l-96 -696h-205l19 129 q-139 -149 -338 -149zM389 152q104 -4 201.5 60t118.5 185l16 109q-63 -41 -258 -57q-201 -16 -223 -148q-8 -63 31.5 -104t113.5 -45z" glyph-name="aring" horiz-adv-x="1056" unicode="å"/><glyph d="M932 449v-3q-20 -135 46 -215.5t196 -80.5q78 0 156.5 41.5t119.5 134.5h186q-45 -156 -177 -252.5t-310 -96.5q-266 0 -371 195q-45 -74 -164.5 -133t-255.5 -59q-145 0 -245.5 85t-81.5 224q20 143 123 219q109 76 295 92q53 4 69.5 6t63.5 9.5t66.5 15.5t48 21.5 t42 34t17.5 46.5q8 59 -39 98t-129 39q-102 0 -168 -51t-86 -127l-209 -2q37 158 168 258.5t313 100.5q240 0 324 -154q152 141 364 141q225 0 325.5 -165.5t49.5 -421.5h-737zM1263.5 864q-112.5 0 -194.5 -67.5t-106 -173.5h524q8 109 -51.5 175t-172 66zM709 397l16 109 q-63 -41 -258 -57q-201 -12 -223 -148q-8 -63 31.5 -104t113.5 -45q102 -6 201 58t119 187z" glyph-name="ae" horiz-adv-x="1757" unicode="æ"/><glyph d="M600 874q-121 0 -213 -96t-113 -256q-25 -164 41 -262t187 -98q96 0 167.5 55t100.5 137h205q-43 -156 -174 -257t-299 -111l-39 -58q41 8 78 2q72 -8 111.5 -60t29.5 -128q-12 -92 -85 -155.5t-165 -63.5q-76 0 -138.5 43t-78.5 102l121 43q14 -27 47 -47t66 -20 q41 0 72.5 28.5t35.5 69.5q12 72 -55 86q-47 14 -113 -16l-90 57l84 125q-172 31 -260 172t-60 346q33 236 191 384t375 148q176 0 284.5 -101t106.5 -261h-205q-8 82 -64.5 137t-150.5 55z" glyph-name="ccedilla" horiz-adv-x="1075" unicode="ç"/><glyph d="M547 1124l-225 269h251l172 -269h-198zM475 -23q-221 0 -333.5 141.5t-80.5 385.5q35 238 188.5 385t371.5 147q225 0 326.5 -165.5t49.5 -421.5h-739v-3q-20 -137 46.5 -216.5t197.5 -79.5q76 0 154.5 41.5t119.5 134.5h187q-45 -156 -177.5 -252.5t-310.5 -96.5z M289 623h524q8 109 -51.5 175t-172 66t-194 -67.5t-106.5 -173.5z" glyph-name="egrave" horiz-adv-x="1083" unicode="è"/><glyph d="M705 1122h-199l246 269h254zM475 -23q-221 0 -333.5 141.5t-80.5 385.5q35 238 188.5 385t371.5 147q225 0 326.5 -165.5t49.5 -421.5h-739v-3q-20 -137 46.5 -216.5t197.5 -79.5q76 0 154.5 41.5t119.5 134.5h187q-45 -156 -177.5 -252.5t-310.5 -96.5zM289 623h524 q8 109 -51.5 175t-172 66t-194 -67.5t-106.5 -173.5z" glyph-name="eacute" horiz-adv-x="1083" unicode="é"/><glyph d="M518 1440h277l172 -322h-209l-117 205l-172 -205h-209zM475 -23q-221 0 -333.5 141.5t-80.5 385.5q35 238 188.5 385t371.5 147q225 0 326.5 -165.5t49.5 -421.5h-739v-3q-20 -137 46.5 -216.5t197.5 -79.5q76 0 154.5 41.5t119.5 134.5h187q-45 -156 -177.5 -252.5 t-310.5 -96.5zM289 623h524q8 109 -51.5 175t-172 66t-194 -67.5t-106.5 -173.5z" glyph-name="ecircumflex" horiz-adv-x="1083" unicode="ê"/><glyph d="M326 1147l32 246h230l-35 -246h-227zM707 1147l34 246h228l-35 -246h-227zM475 -23q-221 0 -333.5 141.5t-80.5 385.5q35 238 188.5 385t371.5 147q225 0 326.5 -165.5t49.5 -421.5h-739v-3q-20 -137 46.5 -216.5t197.5 -79.5q76 0 154.5 41.5t119.5 134.5h187 q-45 -156 -177.5 -252.5t-310.5 -96.5zM289 623h524q8 109 -51.5 175t-172 66t-194 -67.5t-106.5 -173.5z" glyph-name="edieresis" horiz-adv-x="1083" unicode="ë"/><glyph d="M268 1114l-227 270h254l170 -270h-197zM92 0l144 1024h204l-143 -1024h-205z" glyph-name="igrave" horiz-adv-x="485" unicode="ì"/><glyph d="M350 1112h-196l245 268h252zM16 0l144 1024h207l-144 -1024h-207z" glyph-name="iacute" horiz-adv-x="540" unicode="í"/><glyph d="M264 1430h277l170 -320h-209l-115 203l-174 -203h-207zM115 0l143 1024h207l-143 -1024h-207z" glyph-name="icircumflex" horiz-adv-x="614" unicode="î"/><glyph d="M39 1139l33 243h229l-35 -243h-227zM420 1139l35 243h227l-35 -243h-227zM84 0l143 1024h207l-143 -1024h-207z" glyph-name="idieresis" horiz-adv-x="579" unicode="ï"/><glyph d="M1337 1298l-26 -174h-174l-158 -1124h-188l20 150q-41 -61 -139.5 -117t-216.5 -56q-184 0 -305 142.5t-88.5 386.5t190.5 386t346 142q117 0 196.5 -47t116.5 -119l37 256h-168l27 174h166l18 136h189l-19 -136h176zM860 500q23 156 -47 255t-203 99q-129 0 -222 -94 t-116 -242q-23 -158 45 -257t197 -99q131 0 227 95.5t119 242.5z" glyph-name="eth" horiz-adv-x="1374" unicode="ð"/><glyph d="M815 1128q-121 0 -184 117q-20 45 -60 45q-57 0 -71 -73q-6 -33 2 -72h-158q-4 37 2 61q10 104 78 171t162 67q127 0 186 -117q20 -45 59 -45q35 0 55.5 30.5t18.5 80.5q0 8 -4 32h158v-26q0 -117 -69 -194t-175 -77zM63 0l144 1024h196l-18 -133q47 59 135 109.5 t199 50.5q66 0 126 -21.5t113.5 -66.5t78 -131.5t7.5 -202.5l-88 -629h-211l84 608q18 131 -31.5 198.5t-148.5 67.5q-111 0 -202 -95t-113 -251l-74 -528h-197z" glyph-name="ntilde" unicode="ñ"/><glyph d="M557 1114l-227 270h254l170 -270h-197zM481 -10q-211 0 -330.5 147.5t-87.5 374.5q33 229 194 377.5t372 148.5t329.5 -147.5t85.5 -378.5q-33 -227 -193.5 -374.5t-369.5 -147.5zM504 174q137 0 230 94t116 242q20 152 -44.5 248t-203.5 96q-135 0 -227 -96t-113 -246 q-23 -147 43 -242.5t199 -95.5z" glyph-name="ograve" horiz-adv-x="1120" unicode="ò"/><glyph d="M715 1112h-199l246 268h254zM481 -10q-211 0 -330.5 147.5t-87.5 374.5q33 229 194 377.5t372 148.5t329.5 -147.5t85.5 -378.5q-33 -227 -193.5 -374.5t-369.5 -147.5zM504 174q137 0 230 94t116 242q20 152 -44.5 248t-203.5 96q-135 0 -227 -96t-113 -246 q-23 -147 43 -242.5t199 -95.5z" glyph-name="oacute" horiz-adv-x="1120" unicode="ó"/><glyph d="M528 1430h277l170 -320h-209l-115 203l-172 -203h-209zM481 -10q-211 0 -330.5 147.5t-87.5 374.5q33 229 194 377.5t372 148.5t329.5 -147.5t85.5 -378.5q-33 -227 -193.5 -374.5t-369.5 -147.5zM504 174q137 0 230 94t116 242q20 152 -44.5 248t-203.5 96 q-135 0 -227 -96t-113 -246q-23 -147 43 -242.5t199 -95.5z" glyph-name="ocircumflex" horiz-adv-x="1120" unicode="ô"/><glyph d="M774 1110q-121 0 -184 117q-20 45 -60 45q-57 0 -71 -72q-6 -33 2 -72h-158q-4 35 2 60q10 104 78 170.5t162 66.5q127 0 186 -116q20 -45 60 -45q35 0 55 30.5t18 79.5q0 8 -4 33h158v-27q0 -117 -69 -193.5t-175 -76.5zM481 -10q-211 0 -330.5 147.5t-87.5 374.5 q33 229 194 377.5t372 148.5t329.5 -147.5t85.5 -378.5q-33 -227 -193.5 -374.5t-369.5 -147.5zM504 174q137 0 230 94t116 242q20 152 -44.5 248t-203.5 96q-135 0 -227 -96t-113 -246q-23 -147 43 -242.5t199 -95.5z" glyph-name="otilde" horiz-adv-x="1120" unicode="õ"/><glyph d="M334 1139l35 243h227l-35 -243h-227zM715 1139l35 243h229l-35 -243h-229zM481 -10q-211 0 -330.5 147.5t-87.5 374.5q33 229 194 377.5t372 148.5t329.5 -147.5t85.5 -378.5q-33 -227 -193.5 -374.5t-369.5 -147.5zM504 174q137 0 230 94t116 242q20 152 -44.5 248 t-203.5 96q-135 0 -227 -96t-113 -246q-23 -147 43 -242.5t199 -95.5z" glyph-name="odieresis" horiz-adv-x="1120" unicode="ö"/><glyph d="M672 850l35 244h227l-35 -244h-227zM174 508l21 162h1136l-20 -162h-1137zM561 70l35 245h227l-32 -245h-230z" glyph-name="divide" horiz-adv-x="1488" unicode="÷"/><glyph d="M1165 1024l-180 -172q86 -141 59 -340q-33 -227 -193.5 -374.5t-369.5 -147.5q-172 0 -286 102l-95 -92h-184l199 190q-78 137 -52 322q33 229 194 377.5t372 148.5q164 0 272 -90l80 76h184zM262 512q-14 -92 8 -170l488 467q-63 45 -156 45q-135 0 -227.5 -96 t-112.5 -246zM850 510q16 113 -16 195l-494 -476q66 -55 164 -55q137 0 230 94.5t116 241.5z" glyph-name="oslash" horiz-adv-x="1167" unicode="ø"/><glyph d="M578 1114l-226 270h252l172 -270h-198zM434 -27q-66 0 -126 21.5t-113.5 66.5t-78 131.5t-7.5 202.5l88 629h211l-86 -608q-18 -129 31.5 -197.5t148.5 -68.5q115 0 205 94t110 252l76 528h197l-144 -1024h-196l16 133q-47 -61 -134 -110.5t-198 -49.5z" glyph-name="ugrave" unicode="ù"/><glyph d="M735 1112h-196l245 268h252zM434 -27q-66 0 -126 21.5t-113.5 66.5t-78 131.5t-7.5 202.5l88 629h211l-86 -608q-18 -129 31.5 -197.5t148.5 -68.5q115 0 205 94t110 252l76 528h197l-144 -1024h-196l16 133q-47 -61 -134 -110.5t-198 -49.5z" glyph-name="uacute" unicode="ú"/><glyph d="M549 1430h276l172 -320h-209l-116 203l-172 -203h-209zM434 -27q-66 0 -126 21.5t-113.5 66.5t-78 131.5t-7.5 202.5l88 629h211l-86 -608q-18 -129 31.5 -197.5t148.5 -68.5q115 0 205 94t110 252l76 528h197l-144 -1024h-196l16 133q-47 -61 -134 -110.5t-198 -49.5z " glyph-name="ucircumflex" unicode="û"/><glyph d="M354 1139l35 243h229l-34 -243h-230zM737 1139l35 243h227l-34 -243h-228zM434 -27q-66 0 -126 21.5t-113.5 66.5t-78 131.5t-7.5 202.5l88 629h211l-86 -608q-18 -129 31.5 -197.5t148.5 -68.5q115 0 205 94t110 252l76 528h197l-144 -1024h-196l16 133 q-47 -61 -134 -110.5t-198 -49.5z" glyph-name="udieresis" unicode="ü"/><glyph d="M655 1112h-198l245 268h254zM-57 -410l22 181h92q127 0 207 145l74 147l-264 961h215l184 -723l373 723h215l-612 -1157q-152 -276 -398 -277h-108z" glyph-name="yacute" horiz-adv-x="1003" unicode="ý"/><glyph d="M16 -262l224 1603h188l-66 -467q43 63 140.5 118t216.5 55q184 0 305 -142.5t88 -386.5q-35 -244 -191.5 -386t-342.5 -142q-119 0 -199 47t-117 119l-59 -418h-187zM563 170q129 0 223.5 94t114.5 242q23 158 -43.5 257t-195.5 99q-133 0 -230.5 -95t-116.5 -243 q-23 -156 47 -255t201 -99z" glyph-name="thorn" horiz-adv-x="1181" unicode="þ"/><glyph d="M274 1139l35 243h228l-35 -243h-228zM655 1139l35 243h230l-35 -243h-230zM-57 -410l22 181h92q127 0 207 145l74 147l-264 961h215l184 -723l373 723h215l-612 -1157q-152 -276 -398 -277h-108z" glyph-name="ydieresis" horiz-adv-x="1003" unicode="ÿ"/><glyph d="M528 1544l23 160h635l-23 -160h-635zM203 0l-232 2l750 1432h209l348 -1434h-229l-88 365h-572zM473 551h455l-137 633z" glyph-name="Amacron" horiz-adv-x="1404" unicode="Ā"/><glyph d="M307 1153l23 160h635l-23 -160h-635zM334 -20q-143 0 -232.5 83.5t-70.5 225.5q20 143 123 219q109 76 295 92q53 4 69.5 6t63.5 9.5t66.5 15.5t48 21.5t42 34t17.5 46.5q8 59 -39 98t-129 39q-102 0 -168 -51t-86 -127l-209 -2q37 158 168 258.5t313 100.5 q186 0 278.5 -98.5t69.5 -254.5l-96 -696h-205l19 129q-139 -149 -338 -149zM389 152q104 -4 201.5 60t118.5 185l16 109q-63 -41 -258 -57q-201 -16 -223 -148q-8 -63 31.5 -104t113.5 -45z" glyph-name="amacron" horiz-adv-x="1056" unicode="ā"/><glyph d="M838 1518q-166 0 -246 104t-64 256h162q-8 -92 34 -154.5t134 -60.5q94 2 153.5 64.5t73.5 150.5h162q-23 -152 -132 -256t-277 -104zM203 0l-232 2l750 1432h209l348 -1434h-229l-88 365h-572zM473 551h455l-137 633z" glyph-name="Abreve" horiz-adv-x="1404" unicode="Ă"/><glyph d="M614 1128q-166 0 -245.5 103.5t-63.5 255.5h162q-8 -90 34 -152.5t134 -62.5q94 2 154.5 64.5t74.5 150.5h160q-23 -152 -132.5 -255.5t-277.5 -103.5zM334 -20q-143 0 -232.5 83.5t-70.5 225.5q20 143 123 219q109 76 295 92q53 4 69.5 6t63.5 9.5t66.5 15.5t48 21.5 t42 34t17.5 46.5q8 59 -39 98t-129 39q-102 0 -168 -51t-86 -127l-209 -2q37 158 168 258.5t313 100.5q186 0 278.5 -98.5t69.5 -254.5l-96 -696h-205l19 129q-139 -149 -338 -149zM389 152q104 -4 201.5 60t118.5 185l16 109q-63 -41 -258 -57q-201 -16 -223 -148 q-8 -63 31.5 -104t113.5 -45z" glyph-name="abreve" horiz-adv-x="1056" unicode="ă"/><glyph d="M1270 -295l67 -117q-147 -129 -331 -118q-115 6 -178.5 64t-51.5 165q29 195 281 301h-8l-88 365h-572l-186 -365l-232 2l750 1432h209l346 -1428l18 -6q-129 -8 -224 -95t-109 -184q-8 -53 20.5 -86.5t85.5 -33.5q117 0 203 104zM473 551h455l-137 633z" glyph-name="Aogonek" horiz-adv-x="1228" unicode="Ą"/><glyph d="M954 696l-96 -696h-4l6 -2q-131 -8 -225 -95t-109 -184q-8 -53 20.5 -85.5t86.5 -32.5q55 0 110.5 28.5t90.5 75.5l69 -119q-143 -129 -332 -118q-117 6 -180 64t-47 165q29 209 311 313l17 119q-139 -150 -338 -149q-143 0 -232.5 83.5t-70.5 225.5q20 143 123 219 q109 76 295 92q53 4 69.5 6t63.5 9.5t66.5 15.5t48 21.5t42 34t17.5 46.5q8 59 -39 98t-129 39q-102 0 -168 -51t-86 -127l-209 -2q37 158 168 258.5t313 100.5q186 0 278.5 -98.5t69.5 -254.5zM389 152q104 -4 201.5 60t118.5 185l16 109q-63 -41 -258 -57 q-201 -16 -223 -148q-8 -63 31.5 -104t113.5 -45z" glyph-name="aogonek" horiz-adv-x="1056" unicode="ą"/><glyph d="M971 1534h-199l246 268h254zM674 -10q-283 0 -445.5 204.5t-117.5 516.5q47 322 266 529.5t514 207.5q252 0 396.5 -143.5t146.5 -364.5h-230q-6 129 -100 218t-248 89q-197 0 -341 -153.5t-177 -384.5q-33 -223 67.5 -371t292.5 -148q158 0 280 92.5t165 219.5h229 q-66 -221 -253 -366.5t-445 -145.5z" glyph-name="Cacute" horiz-adv-x="1460" unicode="Ć"/><glyph d="M692 1112h-198l245 268h254zM473 -14q-213 0 -327.5 146.5t-82.5 379.5q33 236 191 384t375 148q176 0 284.5 -101t106.5 -261h-205q-8 82 -64.5 137t-150.5 55q-121 0 -213 -96t-113 -256q-25 -164 41 -262t187 -98q96 0 167.5 55t100.5 137h205q-45 -162 -185.5 -265 t-316.5 -103z" glyph-name="cacute" horiz-adv-x="1075" unicode="ć"/><glyph d="M784 1851h277l170 -321h-209l-115 205l-172 -205h-209zM674 -10q-283 0 -445.5 204.5t-117.5 516.5q47 322 266 529.5t514 207.5q252 0 396.5 -143.5t146.5 -364.5h-230q-6 129 -100 218t-248 89q-197 0 -341 -153.5t-177 -384.5q-33 -223 67.5 -371t292.5 -148 q158 0 280 92.5t165 219.5h229q-66 -221 -253 -366.5t-445 -145.5z" glyph-name="Ccircumflex" horiz-adv-x="1460" unicode="Ĉ"/><glyph d="M506 1430h276l170 -320h-209l-114 203l-174 -203h-207zM473 -14q-213 0 -327.5 146.5t-82.5 379.5q33 236 191 384t375 148q176 0 284.5 -101t106.5 -261h-205q-8 82 -64.5 137t-150.5 55q-121 0 -213 -96t-113 -256q-25 -164 41 -262t187 -98q96 0 167.5 55t100.5 137 h205q-45 -162 -185.5 -265t-316.5 -103z" glyph-name="ccircumflex" horiz-adv-x="1075" unicode="ĉ"/><glyph d="M780 1567l35 243h227l-34 -243h-228zM674 -10q-283 0 -445.5 204.5t-117.5 516.5q47 322 266 529.5t514 207.5q252 0 396.5 -143.5t146.5 -364.5h-230q-6 129 -100 218t-248 89q-197 0 -341 -153.5t-177 -384.5q-33 -223 67.5 -371t292.5 -148q158 0 280 92.5t165 219.5 h229q-66 -221 -253 -366.5t-445 -145.5z" glyph-name="Cdotaccent" horiz-adv-x="1460" unicode="Ċ"/><glyph d="M502 1145l33 244h229l-35 -244h-227zM473 -14q-213 0 -327.5 146.5t-82.5 379.5q33 236 191 384t375 148q176 0 284.5 -101t106.5 -261h-205q-8 82 -64.5 137t-150.5 55q-121 0 -213 -96t-113 -256q-25 -164 41 -262t187 -98q96 0 167.5 55t100.5 137h205 q-45 -162 -185.5 -265t-316.5 -103z" glyph-name="cdotaccent" horiz-adv-x="1075" unicode="ċ"/><glyph d="M588 1876h200l123 -203l181 203h200l-260 -320h-276zM674 -10q-283 0 -445.5 204.5t-117.5 516.5q47 322 266 529.5t514 207.5q252 0 396.5 -143.5t146.5 -364.5h-230q-6 129 -100 218t-248 89q-197 0 -341 -153.5t-177 -384.5q-33 -223 67.5 -371t292.5 -148 q158 0 280 92.5t165 219.5h229q-66 -221 -253 -366.5t-445 -145.5z" glyph-name="Ccaron" horiz-adv-x="1460" unicode="Č"/><glyph d="M309 1456h201l123 -205l180 205h201l-260 -321h-277zM473 -14q-213 0 -327.5 146.5t-82.5 379.5q33 236 191 384t375 148q176 0 284.5 -101t106.5 -261h-205q-8 82 -64.5 137t-150.5 55q-121 0 -213 -96t-113 -256q-25 -164 41 -262t187 -98q96 0 167.5 55t100.5 137h205 q-45 -162 -185.5 -265t-316.5 -103z" glyph-name="ccaron" horiz-adv-x="1075" unicode="č"/><glyph d="M549 1866h203l120 -205l183 205h200l-262 -322h-276zM82 -4l203 1438l516 4q293 4 455.5 -197t119.5 -514q-45 -317 -258 -521t-497 -206zM303 193l315 4q209 2 364 146t187 376q33 233 -79.5 377.5t-317.5 140.5l-321 -4z" glyph-name="Dcaron" horiz-adv-x="1441" unicode="Ď"/><glyph d="M455 -23q-184 0 -305 142.5t-88.5 386.5t190.5 386t346 142q117 0 196.5 -47t116.5 -119l80 566h189l-201 -1434h-188l20 150q-41 -61 -139 -117t-217 -56zM229 1434h203l143 -205l158 205h203l-225 -322h-277zM514 162q131 0 227.5 95t118.5 243q23 156 -47 255t-203 99 q-129 0 -222 -94t-116 -242q-23 -158 45 -257t197 -99z" glyph-name="dcaron" horiz-adv-x="1198" unicode="ď"/><glyph d="M885 1438q293 4 455.5 -197t119.5 -514q-45 -317 -258 -521t-497 -206l-539 -4l90 637h-147l24 170h148l88 631zM1253 719q33 233 -79.5 377.5t-317.5 140.5l-321 -4l-62 -430h358l-24 -170h-358l-62 -440l315 4q209 2 363.5 146.5t187.5 375.5z" glyph-name="Dcroat" horiz-adv-x="1613" unicode="Đ"/><glyph d="M459 1544l22 160h635l-22 -160h-635zM84 0l201 1434h927l-26 -197h-729l-60 -416h686l-26 -190h-686l-62 -434h729l-26 -197h-928z" glyph-name="Emacron" horiz-adv-x="1159" unicode="Ē"/><glyph d="M322 1143l22 160h635l-23 -160h-634zM475 -23q-221 0 -333.5 141.5t-80.5 385.5q35 238 188.5 385t371.5 147q225 0 326.5 -165.5t49.5 -421.5h-739v-3q-20 -137 46.5 -216.5t197.5 -79.5q76 0 154.5 41.5t119.5 134.5h187q-45 -156 -177.5 -252.5t-310.5 -96.5zM289 623 h524q8 109 -51.5 175t-172 66t-194 -67.5t-106.5 -173.5z" glyph-name="emacron" horiz-adv-x="1083" unicode="ē"/><glyph d="M768 1518q-168 0 -248 104t-61 256h162q-8 -92 33.5 -154.5t134 -60.5t152.5 64.5t75 150.5h162q-25 -152 -134.5 -256t-275.5 -104zM84 0l201 1434h927l-26 -197h-729l-60 -416h686l-26 -190h-686l-62 -434h729l-26 -197h-928z" glyph-name="Ebreve" horiz-adv-x="1159" unicode="Ĕ"/><glyph d="M629 1118q-166 0 -246 103.5t-61 257.5h161q-10 -92 32 -154.5t134 -60.5q94 0 154.5 62.5t75.5 152.5h161q-25 -154 -134 -257.5t-277 -103.5zM475 -23q-221 0 -333.5 141.5t-80.5 385.5q35 238 188.5 385t371.5 147q225 0 326.5 -165.5t49.5 -421.5h-739v-3 q-20 -137 46.5 -216.5t197.5 -79.5q76 0 154.5 41.5t119.5 134.5h187q-45 -156 -177.5 -252.5t-310.5 -96.5zM289 623h524q8 109 -51.5 175t-172 66t-194 -67.5t-106.5 -173.5z" glyph-name="ebreve" horiz-adv-x="1083" unicode="ĕ"/><glyph d="M653 1554l33 244h229l-34 -244h-228zM84 0l201 1434h927l-26 -197h-729l-60 -416h686l-26 -190h-686l-62 -434h729l-26 -197h-928z" glyph-name="Edotaccent" horiz-adv-x="1159" unicode="Ė"/><glyph d="M514 1155l35 244h229l-35 -244h-229zM475 -23q-221 0 -333.5 141.5t-80.5 385.5q35 238 188.5 385t371.5 147q225 0 326.5 -165.5t49.5 -421.5h-739v-3q-20 -137 46.5 -216.5t197.5 -79.5q76 0 154.5 41.5t119.5 134.5h187q-45 -156 -177.5 -252.5t-310.5 -96.5zM289 623 h524q8 109 -51.5 175t-172 66t-194 -67.5t-106.5 -173.5z" glyph-name="edotaccent" horiz-adv-x="1083" unicode="ė"/><glyph d="M1186 1237h-729l-60 -416h686l-26 -190h-686l-62 -434h729l-26 -197h-4q-129 -8 -223.5 -95t-108.5 -184q-8 -53 20.5 -85.5t85.5 -32.5q53 0 109.5 28.5t91.5 75.5l68 -119q-143 -129 -332 -118q-115 6 -178.5 64t-48.5 165q29 197 282 301h-690l201 1434h927z" glyph-name="Eogonek" horiz-adv-x="1159" unicode="Ę"/><glyph d="M258 449v-3q-20 -137 46.5 -216.5t197.5 -79.5q76 0 154.5 41.5t119.5 134.5h187q-43 -147 -167 -243.5t-292 -105.5q-86 -35 -144.5 -106.5t-68.5 -142.5q-8 -55 20.5 -88t85.5 -33q53 0 108.5 29.5t92.5 74.5l70 -119q-150 -131 -332 -116q-117 6 -180.5 64.5 t-46.5 164.5q27 180 245 285q-164 37 -242.5 172t-50.5 342q35 238 188.5 385t371.5 147q225 0 326.5 -165.5t49.5 -421.5h-739zM589.5 864q-112.5 0 -194.5 -67.5t-106 -173.5h524q8 109 -51.5 175t-172 66z" glyph-name="eogonek" horiz-adv-x="1083" unicode="ę"/><glyph d="M461 1866h201l122 -205l181 205h200l-260 -322h-276zM84 0l201 1434h927l-26 -197h-729l-60 -416h686l-26 -190h-686l-62 -434h729l-26 -197h-928z" glyph-name="Ecaron" horiz-adv-x="1159" unicode="Ě"/><glyph d="M322 1466h202l121 -204l182 204h201l-262 -321h-277zM475 -23q-221 0 -333.5 141.5t-80.5 385.5q35 238 188.5 385t371.5 147q225 0 326.5 -165.5t49.5 -421.5h-739v-3q-20 -137 46.5 -216.5t197.5 -79.5q76 0 154.5 41.5t119.5 134.5h187q-45 -156 -177.5 -252.5 t-310.5 -96.5zM289 623h524q8 109 -51.5 175t-172 66t-194 -67.5t-106.5 -173.5z" glyph-name="ecaron" horiz-adv-x="1083" unicode="ě"/><glyph d="M795 1839h276l172 -319h-209l-116 202l-173 -202h-208zM672 -10q-285 0 -445.5 203.5t-115.5 517.5q47 319 268 528t516 209q252 0 397.5 -143.5t147.5 -364.5h-230q-4 127 -100 217t-250 90q-199 0 -345 -154.5t-179 -383.5q-31 -223 71.5 -373t297.5 -148 q147 2 280 89.5t193 261.5h-418l26 194l627 -2l-102 -731h-181l19 223q-84 -115 -212 -174t-265 -59z" glyph-name="Gcircumflex" horiz-adv-x="1540" unicode="Ĝ"/><glyph d="M569 1434h277l172 -322h-211l-115 205l-172 -205h-209zM422 -426q-201 0 -310.5 103.5t-97.5 254.5l197 -2q4 -59 33.5 -100t73.5 -57.5t75 -22.5t60 -6q143 0 242.5 86t123.5 262l15 103q-59 -92 -168 -148.5t-224 -56.5q-209 0 -310 146.5t-69 381.5q33 229 182.5 379 t350.5 150q111 0 202 -55.5t128 -145.5l24 178h191l-129 -932q-37 -256 -195.5 -387t-394.5 -131zM518 170q131 0 228.5 99.5t119.5 254.5q20 147 -49 242.5t-203 95.5q-129 0 -224 -99t-118 -257q-20 -147 48.5 -241.5t197.5 -94.5z" glyph-name="gcircumflex" horiz-adv-x="1206" unicode="ĝ"/><glyph d="M905 1518q-166 0 -245.5 104t-61.5 256h162q-10 -92 32 -154.5t134 -60.5q94 2 154.5 64.5t74.5 150.5h162q-25 -152 -134.5 -256t-277.5 -104zM672 -10q-285 0 -445.5 203.5t-115.5 517.5q47 319 268 528t516 209q252 0 397.5 -143.5t147.5 -364.5h-230q-4 127 -100 217 t-250 90q-199 0 -345 -154.5t-179 -383.5q-31 -223 71.5 -373t297.5 -148q147 2 280 89.5t193 261.5h-418l26 194l627 -2l-102 -731h-181l19 223q-84 -115 -212 -174t-265 -59z" glyph-name="Gbreve" horiz-adv-x="1540" unicode="Ğ"/><glyph d="M680 1112q-168 0 -247 103.5t-62 257.5h161q-8 -92 34 -155t134 -61q94 0 153.5 62.5t74.5 153.5h162q-23 -152 -132.5 -256.5t-277.5 -104.5zM422 -426q-201 0 -310.5 103.5t-97.5 254.5l197 -2q4 -59 33.5 -100t73.5 -57.5t75 -22.5t60 -6q143 0 242.5 86t123.5 262 l15 103q-59 -92 -168 -148.5t-224 -56.5q-209 0 -310 146.5t-69 381.5q33 229 182.5 379t350.5 150q111 0 202 -55.5t128 -145.5l24 178h191l-129 -932q-37 -256 -195.5 -387t-394.5 -131zM518 170q131 0 228.5 99.5t119.5 254.5q20 147 -49 242.5t-203 95.5 q-129 0 -224 -99t-118 -257q-20 -147 48.5 -241.5t197.5 -94.5z" glyph-name="gbreve" horiz-adv-x="1206" unicode="ğ"/><glyph d="M791 1554l34 244h230l-35 -244h-229zM672 -10q-285 0 -445.5 203.5t-115.5 517.5q47 319 268 528t516 209q252 0 397.5 -143.5t147.5 -364.5h-230q-4 127 -100 217t-250 90q-199 0 -345 -154.5t-179 -383.5q-31 -223 71.5 -373t297.5 -148q147 2 280 89.5t193 261.5h-418 l26 194l627 -2l-102 -731h-181l19 223q-84 -115 -212 -174t-265 -59z" glyph-name="Gdotaccent" horiz-adv-x="1540" unicode="Ġ"/><glyph d="M565 1149l35 244h227l-34 -244h-228zM422 -426q-201 0 -310.5 103.5t-97.5 254.5l197 -2q4 -59 33.5 -100t73.5 -57.5t75 -22.5t60 -6q143 0 242.5 86t123.5 262l15 103q-59 -92 -168 -148.5t-224 -56.5q-209 0 -310 146.5t-69 381.5q33 229 182.5 379t350.5 150 q111 0 202 -55.5t128 -145.5l24 178h191l-129 -932q-37 -256 -195.5 -387t-394.5 -131zM518 170q131 0 228.5 99.5t119.5 254.5q20 147 -49 242.5t-203 95.5q-129 0 -224 -99t-118 -257q-20 -147 48.5 -241.5t197.5 -94.5z" glyph-name="gdotaccent" horiz-adv-x="1206" unicode="ġ"/><glyph d="M672 -10q-285 0 -445.5 203.5t-115.5 517.5q47 319 268 528t516 209q252 0 397.5 -143.5t147.5 -364.5h-230q-4 127 -100 217t-250 90q-199 0 -345 -154.5t-179 -383.5q-31 -223 71.5 -373t297.5 -148q147 2 280 89.5t193 261.5h-418l26 194l627 -2l-102 -731h-181 l19 223q-84 -115 -212 -174t-265 -59zM506 -592l16 115q109 4 121 119h-115l35 243h228l-37 -243q-33 -234 -248 -234z" glyph-name="Gcommaaccent" horiz-adv-x="1540" unicode="Ģ"/><glyph d="M422 -426q-201 0 -310.5 103.5t-97.5 254.5l197 -2q4 -59 33.5 -100t73.5 -57.5t75 -22.5t60 -6q143 0 242.5 86t123.5 262l15 103q-59 -92 -168 -148.5t-224 -56.5q-209 0 -310 146.5t-69 381.5q33 229 182.5 379t350.5 150q111 0 202 -55.5t128 -145.5l24 178h191 l-129 -932q-37 -256 -195.5 -387t-394.5 -131zM518 170q131 0 228.5 99.5t119.5 254.5q20 147 -49 242.5t-203 95.5q-129 0 -224 -99t-118 -257q-20 -147 48.5 -241.5t197.5 -94.5zM283 -1001l16 114q109 4 121 119h-117l35 244h229l-37 -244q-32 -233 -247 -233z" glyph-name="gcommaaccent" horiz-adv-x="1206" unicode="ģ"/><glyph d="M752 1839h276l170 -319h-209l-115 202l-172 -202h-208zM84 0l201 1434h215l-86 -609h698l86 609h215l-201 -1434h-215l90 645h-698l-90 -645h-215z" glyph-name="Hcircumflex" horiz-adv-x="1452" unicode="Ĥ"/><glyph d="M639 1942h276l172 -322h-208l-117 205l-172 -205h-209zM63 0l201 1434h197l-76 -543q47 59 135 109.5t199 50.5q66 0 126 -21.5t113.5 -66.5t78 -131.5t7.5 -202.5l-88 -629h-211l84 608q18 129 -31.5 197.5t-148.5 68.5q-115 0 -204 -94t-111 -252l-74 -528h-197z" glyph-name="hcircumflex" unicode="ĥ"/><glyph d="M1475 1214l-25 -176h-92l-146 -1038h-215l90 645h-698l-90 -645h-215l145 1038h-90l25 176h90l31 220h215l-31 -220h698l31 220h215l-31 -220h93zM1112 825l31 213h-699l-30 -213h698z" glyph-name="Hbar" horiz-adv-x="1558" unicode="Ħ"/><glyph d="M831 1051q66 0 126.5 -21.5t113.5 -66.5t78 -131.5t8 -202.5l-88 -629h-211l84 608q18 129 -32 197.5t-148 68.5q-115 0 -204 -94t-112 -252l-73 -528h-197l160 1143h-113l23 153h112l19 138h196l-18 -138h219l-22 -153h-220l-34 -252q47 59 134.5 109.5t198.5 50.5z" glyph-name="hbar" horiz-adv-x="1277" unicode="ħ"/><glyph d="M549 1520q-121 0 -184 116q-20 45 -60 45q-57 0 -72 -71q-6 -33 3 -72h-158q-4 35 2 59q10 104 77.5 171t161.5 67q127 0 187 -117q20 -45 59 -45q35 0 55.5 31t18.5 80q0 8 -4 33h158v-27q0 -117 -69 -193.5t-175 -76.5zM94 0l201 1434h211l-201 -1434h-211z" glyph-name="Itilde" horiz-adv-x="555" unicode="Ĩ"/><glyph d="M506 1110q-123 0 -187 117q-20 45 -59 45q-55 0 -72 -72q-4 -35 2 -72h-157q-2 23 2 60q10 104 78.5 170.5t160.5 66.5q129 0 189 -116q18 -45 59 -45q35 0 54.5 29.5t19.5 80.5q0 8 -4 33h156q4 -14 0 -27q2 -117 -68 -193.5t-174 -76.5zM111 0l143 1024h207l-144 -1024 h-206z" glyph-name="itilde" horiz-adv-x="620" unicode="ĩ"/><glyph d="M72 1544l22 160h635l-22 -160h-635zM61 0l201 1434h211l-201 -1434h-211z" glyph-name="Imacron" horiz-adv-x="489" unicode="Ī"/><glyph d="M43 1135l23 159h634l-22 -159h-635zM94 0l144 1024h204l-143 -1024h-205z" glyph-name="imacron" horiz-adv-x="581" unicode="ī"/><glyph d="M389 1518q-168 0 -248 104t-61 256h162q-8 -92 33.5 -154.5t134 -60.5t153 64.5t74.5 150.5h162q-25 -152 -133.5 -256t-276.5 -104zM70 0l200 1434h211l-200 -1434h-211z" glyph-name="Ibreve" horiz-adv-x="491" unicode="Ĭ"/><glyph d="M389 1108q-166 0 -246 104.5t-63 255.5h162q-8 -92 33.5 -154.5t134.5 -60.5q94 2 154.5 64.5t74.5 150.5h160q-23 -152 -132.5 -256t-277.5 -104zM131 0l143 1024h207l-143 -1024h-207z" glyph-name="ibreve" horiz-adv-x="657" unicode="ĭ"/><glyph d="M68 -399q53 0 109 28.5t91 75.5l68 -119q-141 -129 -330 -118q-117 6 -180.5 64t-46.5 165q29 207 307 311l199 1426h211l-201 -1434h-8l6 -2q-129 -8 -223.5 -95t-108.5 -184q-8 -53 21 -85.5t86 -32.5z" glyph-name="Iogonek" horiz-adv-x="524" unicode="Į"/><glyph d="M254 1434h221l-33 -240h-221zM264 0q-129 -8 -223 -95t-109 -184q-8 -53 21 -86.5t86 -33.5q53 0 108.5 29.5t92.5 74.5l67 -117q-143 -129 -332 -118q-115 6 -178 64t-49 165q16 98 96 180t219 133l142 1012h207l-144 -1024h-4z" glyph-name="iogonek" horiz-adv-x="483" unicode="į"/><glyph d="M299 1554l35 244h227l-35 -244h-227zM94 0l201 1434h211l-201 -1434h-211z" glyph-name="Idotaccent" horiz-adv-x="555" unicode="İ"/><glyph d="M53 0l144 1024h206l-143 -1024h-207z" glyph-name="dotlessi" horiz-adv-x="468" unicode="ı"/><glyph d="M844 1829h276l172 -322h-211l-114 205l-172 -205h-209zM393 -16q-199 0 -304 120.5t-79 321.5l15 113h194l-14 -107q-14 -117 45 -186.5t170 -69.5q109 0 185.5 74t96.5 207l136 977h209l-140 -983q-31 -215 -176 -341t-338 -126z" glyph-name="Jcircumflex" horiz-adv-x="1064" unicode="Ĵ"/><glyph d="M311 1413h277l172 -321h-211l-115 204l-172 -204h-209zM-80 -362l25 188h47q66 0 109.5 39t56.5 119l145 1040h197l-152 -1073q-20 -145 -117.5 -229t-234.5 -84h-76z" glyph-name="jcircumflex" horiz-adv-x="632" unicode="ĵ"/><glyph d="M84 0l201 1434h194l-100 -713l749 713h250l-690 -656l510 -778h-260l-412 633l-184 -178l-63 -455h-195zM383 -592l16 115q109 4 121 119h-117l35 243h228l-35 -243q-33 -234 -248 -234z" glyph-name="Kcommaaccent" horiz-adv-x="1294" unicode="Ķ"/><glyph d="M63 0l201 1434h195l-117 -832l455 422h243l-440 -408l340 -614l-223 -2l-262 477l-150 -137l-47 -340h-195zM258 -592l16 115q109 4 121 119h-114l32 243h230l-37 -243q-33 -234 -248 -234z" glyph-name="kcommaaccent" horiz-adv-x="1046" unicode="ķ"/><glyph d="M481 1522h-198l247 268h252zM84 0l201 1434h213l-172 -1231h639l-27 -203h-854z" glyph-name="Lacute" horiz-adv-x="1054" unicode="Ĺ"/><glyph d="M477 1686h-196l245 268h252zM63 0l201 1434h207l-201 -1434h-207z" glyph-name="lacute" horiz-adv-x="489" unicode="ĺ"/><glyph d="M84 0l201 1434h213l-172 -1231h639l-27 -203h-854zM262 -592l17 115q109 4 120 119h-114l32 243h230l-37 -243q-33 -234 -248 -234z" glyph-name="Lcommaaccent" horiz-adv-x="1054" unicode="Ļ"/><glyph d="M63 0l201 1434h207l-201 -1434h-207zM-20 -592l16 115q109 4 121 119h-115l33 243h229l-37 -243q-32 -234 -247 -234z" glyph-name="lcommaaccent" horiz-adv-x="489" unicode="ļ"/><glyph d="M98 1866h203l121 -205l180 205h203l-262 -322h-277zM84 0l201 1434h213l-172 -1231h639l-27 -203h-854z" glyph-name="Lcaron" horiz-adv-x="1054" unicode="Ľ"/><glyph d="M96 2030h203l121 -205l182 205h201l-262 -322h-277zM63 0l201 1434h207l-201 -1434h-207z" glyph-name="lcaron" horiz-adv-x="489" unicode="ľ"/><glyph d="M285 1522l34 243h228l-35 -243h-227zM84 0l201 1434h213l-172 -1231h639l-27 -203h-854z" glyph-name="Ldot" horiz-adv-x="1054" unicode="Ŀ"/><glyph d="M260 1499l35 246h227l-35 -246h-227zM63 0l201 1434h207l-201 -1434h-207z" glyph-name="ldot" horiz-adv-x="497" unicode="ŀ"/><glyph d="M326 203h639l-27 -203h-854l80 573l-172 -81l24 176l172 82l97 684h213l-80 -578l307 145l-25 -176l-307 -145z" glyph-name="Lslash" horiz-adv-x="1067" unicode="Ł"/><glyph d="M588 1040l-25 -176l-182 -67l-111 -797h-207l101 715l-121 -45l25 176l120 45l76 543h207l-65 -461z" glyph-name="lslash" horiz-adv-x="559" unicode="ł"/><glyph d="M944 1522h-199l246 268h254zM961 0l-525 1128l-157 -1128h-195l201 1434h247l535 -1158l164 1158h194l-202 -1436z" glyph-name="Nacute" horiz-adv-x="1464" unicode="Ń"/><glyph d="M756 1130h-199l246 269h254zM63 0l144 1024h196l-18 -133q47 59 135 109.5t199 50.5q66 0 126 -21.5t113.5 -66.5t78 -131.5t7.5 -202.5l-88 -629h-211l84 608q18 131 -31.5 198.5t-148.5 67.5q-111 0 -202 -95t-113 -251l-74 -528h-197z" glyph-name="nacute" unicode="ń"/><glyph d="M961 0l-525 1128l-157 -1128h-195l201 1434h247l535 -1158l164 1158h194l-202 -1436zM469 -592l16 115q109 4 121 119h-117l35 243h228l-35 -243q-33 -234 -248 -234z" glyph-name="Ncommaaccent" horiz-adv-x="1464" unicode="Ņ"/><glyph d="M63 0l144 1024h196l-18 -133q47 59 135 109.5t199 50.5q66 0 126 -21.5t113.5 -66.5t78 -131.5t7.5 -202.5l-88 -629h-211l84 608q18 131 -31.5 198.5t-148.5 67.5q-111 0 -202 -95t-113 -251l-74 -528h-197zM317 -592l17 115q109 4 121 119h-115l33 243h229l-37 -243 q-33 -234 -248 -234z" glyph-name="ncommaaccent" unicode="ņ"/><glyph d="M561 1866h201l123 -205l180 205h201l-260 -322h-277zM961 0l-525 1128l-157 -1128h-195l201 1434h247l535 -1158l164 1158h194l-202 -1436z" glyph-name="Ncaron" horiz-adv-x="1464" unicode="Ň"/><glyph d="M375 1475h200l123 -205l181 205h200l-260 -322h-276zM63 0l144 1024h196l-18 -133q47 59 135 109.5t199 50.5q66 0 126 -21.5t113.5 -66.5t78 -131.5t7.5 -202.5l-88 -629h-211l84 608q18 131 -31.5 198.5t-148.5 67.5q-111 0 -202 -95t-113 -251l-74 -528h-197z" glyph-name="ncaron" unicode="ň"/><glyph d="M1425 1434l-202 -1434h2q-68 -428 -486 -428l25 180q72 0 139.5 34t75.5 103q4 41 -18 111l-525 1128l-157 -1128h-195l201 1434h247l535 -1158l164 1158h194z" glyph-name="Eng" horiz-adv-x="1464" unicode="Ŋ"/><glyph d="M719 1051q66 0 126 -21.5t113.5 -66.5t78 -131.5t7.5 -202.5l-88 -629q-23 -156 -106.5 -243t-257.5 -87l24 187q70 0 94.5 31.5t34.5 111.5l84 608q18 131 -31.5 198.5t-148.5 67.5q-111 0 -202 -95t-113 -251l-74 -528h-197l144 1024h196l-18 -133q47 59 135 109.5 t199 50.5z" glyph-name="eng" unicode="ŋ"/><glyph d="M592 1544l22 160h635l-22 -160h-635zM684 -20q-287 0 -451.5 209.5t-119.5 527t267 525.5t511 208q287 0 452.5 -209t120.5 -528q-45 -315 -269 -524t-511 -209zM709 178q207 0 358.5 149.5t183.5 379.5q35 236 -74.5 392t-314.5 156q-201 0 -351.5 -154.5t-184.5 -389.5 q-33 -229 74.5 -381t308.5 -152z" glyph-name="Omacron" horiz-adv-x="1531" unicode="Ō"/><glyph d="M330 1135l22 159h635l-22 -159h-635zM481 -10q-211 0 -330.5 147.5t-87.5 374.5q33 229 194 377.5t372 148.5t329.5 -147.5t85.5 -378.5q-33 -227 -193.5 -374.5t-369.5 -147.5zM504 174q137 0 230 94t116 242q20 152 -44.5 248t-203.5 96q-135 0 -227 -96t-113 -246 q-23 -147 43 -242.5t199 -95.5z" glyph-name="omacron" horiz-adv-x="1120" unicode="ō"/><glyph d="M901 1518q-168 0 -248 104t-61 256h162q-8 -92 33.5 -154.5t134 -60.5t153 64.5t74.5 150.5h162q-25 -152 -133.5 -256t-276.5 -104zM684 -20q-287 0 -451.5 209.5t-119.5 527t267 525.5t511 208q287 0 452.5 -209t120.5 -528q-45 -315 -269 -524t-511 -209zM709 178 q207 0 358.5 149.5t183.5 379.5q35 236 -74.5 392t-314.5 156q-201 0 -351.5 -154.5t-184.5 -389.5q-33 -229 74.5 -381t308.5 -152z" glyph-name="Obreve" horiz-adv-x="1531" unicode="Ŏ"/><glyph d="M639 1108q-168 0 -248 104.5t-61 255.5h162q-8 -92 33.5 -154.5t134 -60.5t152.5 64.5t75 150.5h162q-25 -152 -133.5 -256t-276.5 -104zM481 -10q-211 0 -330.5 147.5t-87.5 374.5q33 229 194 377.5t372 148.5t329.5 -147.5t85.5 -378.5q-33 -227 -193.5 -374.5 t-369.5 -147.5zM504 174q137 0 230 94t116 242q20 152 -44.5 248t-203.5 96q-135 0 -227 -96t-113 -246q-23 -147 43 -242.5t199 -95.5z" glyph-name="obreve" horiz-adv-x="1120" unicode="ŏ"/><glyph d="M594 1554l35 244h227l-33 -244h-229zM977 1554l33 244h229l-35 -244h-227zM684 -20q-287 0 -451.5 209.5t-119.5 527t267 525.5t511 208q287 0 452.5 -209t120.5 -528q-45 -315 -269 -524t-511 -209zM709 178q207 0 358.5 149.5t183.5 379.5q35 236 -74.5 392t-314.5 156 q-201 0 -351.5 -154.5t-184.5 -389.5q-33 -229 74.5 -381t308.5 -152z" glyph-name="Ohungarumlaut" horiz-adv-x="1531" unicode="Ő"/><glyph d="M332 1145l35 244h227l-33 -244h-229zM715 1145l33 244h229l-35 -244h-227zM481 -10q-211 0 -330.5 147.5t-87.5 374.5q33 229 194 377.5t372 148.5t329.5 -147.5t85.5 -378.5q-33 -227 -193.5 -374.5t-369.5 -147.5zM504 174q137 0 230 94t116 242q20 152 -44.5 248 t-203.5 96q-135 0 -227 -96t-113 -246q-23 -147 43 -242.5t199 -95.5z" glyph-name="ohungarumlaut" horiz-adv-x="1120" unicode="ő"/><glyph d="M2281 1237h-729l-57 -416h686l-29 -190h-686l-59 -434h729l-29 -197h-927l28 201q-227 -221 -524 -221q-287 0 -451.5 209.5t-119.5 527t267 525.5t511 208q297 0 461 -219l28 203h928zM709 178q207 0 358.5 149.5t183.5 379.5q35 236 -74.5 392t-314.5 156 q-201 0 -351.5 -154.5t-184.5 -389.5q-33 -229 74.5 -381t308.5 -152z" glyph-name="OE" horiz-adv-x="2254" unicode="Œ"/><glyph d="M1096 449v-3q-20 -135 46 -215.5t195 -80.5q78 0 157 41.5t120 134.5h186q-45 -156 -177 -252.5t-310 -96.5q-299 0 -389 240q-80 -106 -197 -166.5t-246 -60.5q-211 0 -330.5 147.5t-87.5 374.5q33 229 194 377.5t372 148.5q133 0 234.5 -62.5t148.5 -172.5 q162 233 446 233q227 0 326.5 -164.5t48.5 -422.5h-737zM1427.5 864q-112.5 0 -194.5 -67.5t-107 -173.5h525q8 109 -51.5 175t-172 66zM850 510q20 152 -44.5 248t-203.5 96q-135 0 -227 -96t-113 -246q-23 -147 43 -242.5t199 -95.5q137 0 230 94.5t116 241.5z" glyph-name="oe" horiz-adv-x="1921" unicode="œ"/><glyph d="M877 1522h-199l246 268h254zM82 -2l203 1436l604 2q188 0 288.5 -111t75.5 -281q-18 -127 -96 -222t-172 -126q92 -31 123 -111.5t22 -224.5q-2 -43 -7 -105t-6 -87t-1 -59.5t6 -58t17 -50.5h-230q-6 23 -9 43t-2 53t2 53.5t6 76t7 83.5q8 74 3 131.5t-26.5 97.5 t-75.5 61.5t-148 21.5h-293l-88 -623h-203zM399 797h355q119 0 200.5 59t98.5 172q16 117 -48.5 174.5t-185.5 57.5h-356z" glyph-name="Racute" horiz-adv-x="1329" unicode="Ŕ"/><glyph d="M494 1112h-197l246 268h252zM63 0l144 1024h190l-18 -129q100 150 319 145h37l-28 -202l-29 -2q-305 8 -348 -299l-76 -537h-191z" glyph-name="racute" horiz-adv-x="679" unicode="ŕ"/><glyph d="M82 -2l203 1436l604 2q188 0 288.5 -111t75.5 -281q-18 -127 -96 -222t-172 -126q92 -31 123 -111.5t22 -224.5q-2 -43 -7 -105t-6 -87t-1 -59.5t6 -58t17 -50.5h-230q-6 23 -9 43t-2 53t2 53.5t6 76t7 83.5q8 74 3 131.5t-26.5 97.5t-75.5 61.5t-148 21.5h-293l-88 -623 h-203zM399 797h355q119 0 200.5 59t98.5 172q16 117 -48.5 174.5t-185.5 57.5h-356zM399 -592l17 115q111 4 123 119h-117l35 243h227l-35 -243q-33 -234 -250 -234z" glyph-name="Rcommaaccent" horiz-adv-x="1329" unicode="Ŗ"/><glyph d="M63 0l144 1024h190l-18 -129q100 150 319 145h37l-28 -202l-29 -2q-305 8 -348 -299l-76 -537h-191zM-2 -592l16 115q109 4 121 119h-117l35 243h230l-37 -243q-33 -234 -248 -234z" glyph-name="rcommaaccent" horiz-adv-x="679" unicode="ŗ"/><glyph d="M494 1866h200l123 -205l180 205h201l-260 -322h-276zM82 -2l203 1436l604 2q188 0 288.5 -111t75.5 -281q-18 -127 -96 -222t-172 -126q92 -31 123 -111.5t22 -224.5q-2 -43 -7 -105t-6 -87t-1 -59.5t6 -58t17 -50.5h-230q-6 23 -9 43t-2 53t2 53.5t6 76t7 83.5 q8 74 3 131.5t-26.5 97.5t-75.5 61.5t-148 21.5h-293l-88 -623h-203zM399 797h355q119 0 200.5 59t98.5 172q16 117 -48.5 174.5t-185.5 57.5h-356z" glyph-name="Rcaron" horiz-adv-x="1329" unicode="Ř"/><glyph d="M111 1456h202l121 -205l182 205h201l-262 -321h-276zM63 0l144 1024h190l-18 -129q100 150 319 145h37l-28 -202l-29 -2q-305 8 -348 -299l-76 -537h-191z" glyph-name="rcaron" horiz-adv-x="679" unicode="ř"/><glyph d="M846 1522h-199l246 268h254zM584 -14q-229 0 -382 118.5t-139 337.5h230q8 -127 90 -195.5t231 -68.5q135 0 224.5 68.5t101.5 163.5q12 92 -46 145t-210 72q-289 35 -404.5 142.5t-93.5 266.5q23 170 183.5 290t375.5 120q244 0 371 -121t105 -334h-217q8 121 -71 188.5 t-214 67.5q-125 0 -208 -61.5t-95 -143.5q-23 -176 282 -217q285 -37 389.5 -141t81.5 -276q-27 -193 -189.5 -307.5t-395.5 -114.5z" glyph-name="Sacute" horiz-adv-x="1269" unicode="Ś"/><glyph d="M629 1112h-199l246 268h254zM414 -23q-180 0 -291 91.5t-96 259.5h190q2 -86 62.5 -134.5t154.5 -48.5q90 0 147.5 45.5t69.5 112.5q6 55 -33.5 91t-150.5 52q-119 18 -195.5 51t-109.5 77t-42 85t-3 91q16 121 133 206.5t282 85.5q162 0 265.5 -86t89.5 -262h-185 q2 98 -55 137t-135 39q-74 0 -131 -32.5t-66 -89.5q-6 -51 37 -86t140 -50q219 -29 299.5 -105.5t62.5 -203.5q-20 -145 -150 -235.5t-290 -90.5z" glyph-name="sacute" horiz-adv-x="950" unicode="ś"/><glyph d="M659 1839h277l170 -319h-209l-115 202l-172 -202h-209zM584 -14q-229 0 -382 118.5t-139 337.5h230q8 -127 90 -195.5t231 -68.5q135 0 224.5 68.5t101.5 163.5q12 92 -46 145t-210 72q-289 35 -404.5 142.5t-93.5 266.5q23 170 183.5 290t375.5 120q244 0 371 -121 t105 -334h-217q8 121 -71 188.5t-214 67.5q-125 0 -208 -61.5t-95 -143.5q-23 -176 282 -217q285 -37 389.5 -141t81.5 -276q-27 -193 -189.5 -307.5t-395.5 -114.5z" glyph-name="Scircumflex" horiz-adv-x="1269" unicode="Ŝ"/><glyph d="M442 1430h277l170 -320h-209l-115 203l-172 -203h-209zM414 -23q-180 0 -291 91.5t-96 259.5h190q2 -86 62.5 -134.5t154.5 -48.5q90 0 147.5 45.5t69.5 112.5q6 55 -33.5 91t-150.5 52q-119 18 -195.5 51t-109.5 77t-42 85t-3 91q16 121 133 206.5t282 85.5 q162 0 265.5 -86t89.5 -262h-185q2 98 -55 137t-135 39q-74 0 -131 -32.5t-66 -89.5q-6 -51 37 -86t140 -50q219 -29 299.5 -105.5t62.5 -203.5q-20 -145 -150 -235.5t-290 -90.5z" glyph-name="scircumflex" horiz-adv-x="950" unicode="ŝ"/><glyph d="M1221 991h-217q8 121 -71 188.5t-214 67.5q-125 0 -208 -61.5t-95 -143.5q-23 -176 282 -217q285 -37 389.5 -141t81.5 -276q-27 -188 -184.5 -303t-384.5 -119l-41 -60q33 8 78 4q74 -10 112.5 -61t28.5 -127q-14 -92 -85.5 -156.5t-164.5 -64.5q-76 0 -139 43t-80 102 l123 43q14 -29 47 -47t66 -18q41 0 72.5 28.5t35.5 69.5q10 72 -55 84q-47 14 -113 -16l-90 59l84 123q-193 27 -310.5 143.5t-105.5 306.5h230q8 -127 90 -195.5t231 -68.5q135 0 224.5 68.5t101.5 163.5q12 92 -46 145t-210 72q-289 35 -404.5 142.5t-93.5 266.5 q23 170 183.5 290t375.5 120q244 0 371.5 -121t104.5 -334z" glyph-name="Scedilla" horiz-adv-x="1269" unicode="Ş"/><glyph d="M887 694h-185q2 98 -55 137t-135 39q-74 0 -131 -32.5t-66 -89.5q-6 -51 37 -86t140 -50q219 -29 299.5 -105.5t62.5 -203.5q-20 -141 -142 -230t-278 -96l-35 -49q41 8 78 2q74 -8 114 -60t30 -128q-14 -92 -87 -155.5t-165 -63.5q-74 0 -137.5 43t-79.5 102l122 43 q12 -27 45 -47t68 -20q39 0 70.5 28.5t38.5 69.5q10 72 -58 86q-47 14 -112 -16l-90 57l79 117q-139 23 -220 110.5t-68 231.5h190q2 -86 62.5 -134.5t154.5 -48.5q90 0 147.5 45.5t69.5 112.5q6 55 -33.5 91t-150.5 52q-119 18 -195.5 51t-109.5 77t-42 85t-3 91 q16 121 133 206.5t282 85.5q162 0 265.5 -86t89.5 -262z" glyph-name="scedilla" horiz-adv-x="950" unicode="ş"/><glyph d="M463 1866h201l122 -205l181 205h200l-260 -322h-276zM584 -14q-229 0 -382 118.5t-139 337.5h230q8 -127 90 -195.5t231 -68.5q135 0 224.5 68.5t101.5 163.5q12 92 -46 145t-210 72q-289 35 -404.5 142.5t-93.5 266.5q23 170 183.5 290t375.5 120q244 0 371 -121 t105 -334h-217q8 121 -71 188.5t-214 67.5q-125 0 -208 -61.5t-95 -143.5q-23 -176 282 -217q285 -37 389.5 -141t81.5 -276q-27 -193 -189.5 -307.5t-395.5 -114.5z" glyph-name="Scaron" horiz-adv-x="1269" unicode="Š"/><glyph d="M246 1456h200l123 -205l181 205h200l-260 -321h-276zM414 -23q-180 0 -291 91.5t-96 259.5h190q2 -86 62.5 -134.5t154.5 -48.5q90 0 147.5 45.5t69.5 112.5q6 55 -33.5 91t-150.5 52q-119 18 -195.5 51t-109.5 77t-42 85t-3 91q16 121 133 206.5t282 85.5 q162 0 265.5 -86t89.5 -262h-185q2 98 -55 137t-135 39q-74 0 -131 -32.5t-66 -89.5q-6 -51 37 -86t140 -50q219 -29 299.5 -105.5t62.5 -203.5q-20 -145 -150 -235.5t-290 -90.5z" glyph-name="scaron" horiz-adv-x="950" unicode="š"/><glyph d="M131 1434h1200l-24 -191l-500 2l-172 -1220h12q74 -10 114 -61.5t27 -127.5q-12 -92 -84.5 -156.5t-164.5 -64.5q-74 0 -138.5 43t-78.5 102l120 43q16 -29 49 -47t66 -18q41 0 71.5 28.5t35.5 69.5q12 70 -56 84q-47 14 -112 -16l-90 59l26 39l176 1241h-502z" glyph-name="Tcommaaccent" horiz-adv-x="1218" unicode="Ţ"/><glyph d="M381 856l-76 -543q-10 -78 13.5 -107.5t93.5 -29.5h133l-25 -176h-178q-33 0 -59 6l-41 -61q49 6 77 2q74 -10 114 -61.5t28 -127.5q-12 -92 -85 -155.5t-165 -63.5q-74 0 -138.5 42t-78.5 104l121 41q14 -27 47 -46.5t67 -19.5q41 0 72 28.5t35 69.5q12 70 -55 84 q-47 14 -113 -16l-90 59l108 160q-104 78 -82 225l84 586h-159l24 168h158l45 319h193l-43 -319h256l-25 -168h-256z" glyph-name="tcommaaccent" horiz-adv-x="634" unicode="ţ"/><glyph d="M438 1866h201l123 -205l180 205h201l-260 -322h-277zM432 0l176 1243h-502l25 191h1200l-24 -191l-500 2l-176 -1245h-199z" glyph-name="Tcaron" horiz-adv-x="1218" unicode="Ť"/><glyph d="M63 1774h201l123 -203l180 203h201l-260 -320h-277zM342 0q-123 0 -188.5 75t-49.5 195l84 586h-159l24 168h158l45 319h193l-43 -319h256l-25 -168h-256l-76 -543q-10 -78 13.5 -107.5t93.5 -29.5h133l-25 -176h-178z" glyph-name="tcaron" horiz-adv-x="626" unicode="ť"/><glyph d="M436 1544l23 160h635l-23 -160h-635zM432 0l176 1243h-502l25 191h1200l-24 -191l-500 2l-176 -1245h-199z" glyph-name="Tbar" horiz-adv-x="1218" unicode="Ŧ"/><glyph d="M670 856h-258l-19 -133h260l-22 -160h-260l-35 -250q-10 -78 13.5 -107.5t92.5 -29.5h133l-24 -176h-178q-123 0 -188.5 75t-49.5 195l43 293h-151l22 160h152l18 133h-160l25 168h160l43 319h192l-43 -319h256z" glyph-name="tbar" horiz-adv-x="659" unicode="ŧ"/><glyph d="M993 1520q-121 0 -184 116q-20 45 -59 45q-57 0 -72 -71q-6 -33 2 -72h-158q-4 35 2 59q10 104 78 171t162 67q127 0 186 -117q20 -45 60 -45q35 0 55 31t18 80q0 8 -4 33h158v-27q0 -117 -69 -193.5t-175 -76.5zM631 -16q-260 0 -393.5 153.5t-98.5 413.5l125 883h203 l-123 -883q-27 -178 59 -277.5t256 -99.5q168 0 282 99.5t140 277.5l123 883h203l-123 -883q-37 -260 -215 -413.5t-438 -153.5z" glyph-name="Utilde" horiz-adv-x="1425" unicode="Ũ"/><glyph d="M797 1110q-123 0 -187 117q-20 45 -59 45q-55 0 -72 -72q-4 -35 2 -72h-157q-2 23 2 60q10 104 78.5 170.5t160.5 66.5q129 0 189 -116q18 -45 59 -45q35 0 54.5 29.5t19.5 80.5q0 8 -4 33h155q4 -14 0 -27q2 -117 -67.5 -193.5t-173.5 -76.5zM434 -27q-66 0 -126 21.5 t-113.5 66.5t-78 131.5t-7.5 202.5l88 629h211l-86 -608q-18 -129 31.5 -197.5t148.5 -68.5q115 0 205 94t110 252l76 528h197l-144 -1024h-196l16 133q-47 -61 -134 -110.5t-198 -49.5z" glyph-name="utilde" unicode="ũ"/><glyph d="M549 1544l22 160h635l-22 -160h-635zM631 -16q-260 0 -393.5 153.5t-98.5 413.5l125 883h203l-123 -883q-27 -178 59 -277.5t256 -99.5q168 0 282 99.5t140 277.5l123 883h203l-123 -883q-37 -260 -215 -413.5t-438 -153.5z" glyph-name="Umacron" horiz-adv-x="1425" unicode="Ū"/><glyph d="M352 1135l23 159h635l-23 -159h-635zM434 -27q-66 0 -126 21.5t-113.5 66.5t-78 131.5t-7.5 202.5l88 629h211l-86 -608q-18 -129 31.5 -197.5t148.5 -68.5q115 0 205 94t110 252l76 528h197l-144 -1024h-196l16 133q-47 -61 -134 -110.5t-198 -49.5z" glyph-name="umacron" unicode="ū"/><glyph d="M858 1518q-168 0 -248 104t-61 256h162q-8 -92 33.5 -154.5t134 -60.5t153 64.5t74.5 150.5h162q-25 -152 -133.5 -256t-276.5 -104zM631 -16q-260 0 -393.5 153.5t-98.5 413.5l125 883h203l-123 -883q-27 -178 59 -277.5t256 -99.5q168 0 282 99.5t140 277.5l123 883 h203l-123 -883q-37 -260 -215 -413.5t-438 -153.5z" glyph-name="Ubreve" horiz-adv-x="1425" unicode="Ŭ"/><glyph d="M659 1108q-166 0 -245.5 104.5t-63.5 255.5h162q-8 -92 34 -154.5t134 -60.5q94 2 154.5 64.5t74.5 150.5h160q-23 -152 -132.5 -256t-277.5 -104zM434 -27q-66 0 -126 21.5t-113.5 66.5t-78 131.5t-7.5 202.5l88 629h211l-86 -608q-18 -129 31.5 -197.5t148.5 -68.5 q115 0 205 94t110 252l76 528h197l-144 -1024h-196l16 133q-47 -61 -134 -110.5t-198 -49.5z" glyph-name="ubreve" unicode="ŭ"/><glyph d="M858 1518q-80 0 -128 56t-36 134q10 78 73.5 134t143.5 56q76 0 124 -56t38 -134t-73.5 -134t-141.5 -56zM872 1626q82 0 95 82q4 39 -14.5 62.5t-55.5 23.5q-39 0 -65.5 -23.5t-30.5 -62.5q-6 -39 13 -60.5t58 -21.5zM631 -16q-260 0 -393.5 153.5t-98.5 413.5l125 883 h203l-123 -883q-27 -178 59 -277.5t256 -99.5q168 0 282 99.5t140 277.5l123 883h203l-123 -883q-37 -260 -215 -413.5t-438 -153.5z" glyph-name="Uring" horiz-adv-x="1425" unicode="Ů"/><glyph d="M659.5 1108q-77.5 0 -126 56.5t-38 134t75 134t142.5 56.5t125 -55.5t36 -135.5q-8 -78 -72.5 -134t-142 -56zM676 1217q82 0 92 81q6 39 -12.5 62.5t-57.5 23.5t-64.5 -23.5t-31.5 -62.5q-4 -39 15.5 -60t58.5 -21zM434 -27q-66 0 -126 21.5t-113.5 66.5t-78 131.5 t-7.5 202.5l88 629h211l-86 -608q-18 -129 31.5 -197.5t148.5 -68.5q115 0 205 94t110 252l76 528h197l-144 -1024h-196l16 133q-47 -61 -134 -110.5t-198 -49.5z" glyph-name="uring" unicode="ů"/><glyph d="M551 1554l35 244h227l-33 -244h-229zM934 1554l33 244h229l-35 -244h-227zM631 -16q-260 0 -393.5 153.5t-98.5 413.5l125 883h203l-123 -883q-27 -178 59 -277.5t256 -99.5q168 0 282 99.5t140 277.5l123 883h203l-123 -883q-37 -260 -215 -413.5t-438 -153.5z" glyph-name="Uhungarumlaut" horiz-adv-x="1425" unicode="Ű"/><glyph d="M354 1145l33 244h229l-34 -244h-228zM735 1145l35 244h227l-34 -244h-228zM434 -27q-66 0 -126 21.5t-113.5 66.5t-78 131.5t-7.5 202.5l88 629h211l-86 -608q-18 -129 31.5 -197.5t148.5 -68.5q115 0 205 94t110 252l76 528h197l-144 -1024h-196l16 133 q-47 -61 -134 -110.5t-198 -49.5z" glyph-name="uhungarumlaut" unicode="ű"/><glyph d="M1204 1434h203l-123 -883q-33 -242 -190.5 -392.5t-391.5 -170.5q-94 -35 -156.5 -110t-72.5 -148q-8 -53 20.5 -87t86.5 -34q53 0 108 29.5t92 74.5l68 -116q-141 -129 -330 -119q-117 6 -180.5 64.5t-46.5 164.5q27 178 239 283q-213 29 -318.5 178t-72.5 383l125 883 h203l-123 -883q-27 -178 59 -277.5t256 -99.5q168 0 282 99.5t140 277.5z" glyph-name="Uogonek" horiz-adv-x="1425" unicode="Ų"/><glyph d="M715 -399q117 0 203 104l67 -117q-143 -129 -332 -118q-115 6 -178 64t-49 165q14 100 97 183t229 134l14 117q-47 -61 -134 -110.5t-198 -49.5q-66 0 -126 21.5t-113.5 66.5t-78 131.5t-7.5 202.5l88 629h211l-86 -608q-18 -129 31.5 -197.5t148.5 -68.5q115 0 205 94 t110 252l76 528h197l-144 -1024h-4q-129 -8 -224 -95t-110 -184q-6 -53 22 -86.5t85 -33.5z" glyph-name="uogonek" unicode="ų"/><glyph d="M993 1839h277l170 -319h-209l-115 202l-174 -202h-207zM385 0l-223 1434h207l157 -1145l471 1145h193l164 -1147l461 1147h206l-610 -1434h-199l-161 1122l-465 -1122h-201z" glyph-name="Wcircumflex" horiz-adv-x="1937" unicode="Ŵ"/><glyph d="M721 1430h276l172 -320h-208l-117 203l-172 -203h-209zM272 0l-188 1024h213l115 -760l325 760h164l113 -760l325 760h217l-477 -1024h-202l-105 682l-295 -682h-205z" glyph-name="wcircumflex" horiz-adv-x="1509" unicode="ŵ"/><glyph d="M680 1839h276l170 -319h-208l-115 202l-172 -202h-209zM477 0l80 582l-405 852h223l309 -668l514 668h207l-647 -852l-80 -582h-201z" glyph-name="Ycircumflex" horiz-adv-x="1310" unicode="Ŷ"/><glyph d="M469 1430h276l170 -320h-208l-115 203l-172 -203h-209zM-57 -410l22 181h92q127 0 207 145l74 147l-264 961h215l184 -723l373 723h215l-612 -1157q-152 -276 -398 -277h-108z" glyph-name="ycircumflex" horiz-adv-x="1003" unicode="ŷ"/><glyph d="M485 1548l35 244h228l-35 -244h-228zM866 1548l35 244h229l-34 -244h-230zM477 0l80 582l-405 852h223l309 -668l514 668h207l-647 -852l-80 -582h-201z" glyph-name="Ydieresis" horiz-adv-x="1310" unicode="Ÿ"/><glyph d="M870 1522h-198l246 268h253zM12 0l27 201l1055 1032h-895l26 201h1145l-27 -201l-1042 -1032h883l-27 -201h-1145z" glyph-name="Zacute" horiz-adv-x="1316" unicode="Ź"/><glyph d="M655 1112h-196l246 268h251zM-8 0l24 182l680 662h-587l26 182l828 -2l-25 -180l-680 -662h586l-25 -182h-827z" glyph-name="zacute" horiz-adv-x="987" unicode="ź"/><glyph d="M680 1554l35 244h227l-35 -244h-227zM12 0l27 201l1055 1032h-895l26 201h1145l-27 -201l-1042 -1032h883l-27 -201h-1145z" glyph-name="Zdotaccent" horiz-adv-x="1316" unicode="Ż"/><glyph d="M465 1145l35 244h229l-35 -244h-229zM-8 0l24 182l680 662h-587l26 182l828 -2l-25 -180l-680 -662h586l-25 -182h-827z" glyph-name="zdotaccent" horiz-adv-x="987" unicode="ż"/><glyph d="M487 1866h201l123 -205l180 205h201l-260 -322h-277zM12 0l27 201l1055 1032h-895l26 201h1145l-27 -201l-1042 -1032h883l-27 -201h-1145z" glyph-name="Zcaron" horiz-adv-x="1316" unicode="Ž"/><glyph d="M272 1456h203l121 -205l182 205h201l-262 -321h-277zM-8 0l24 182l680 662h-587l26 182l828 -2l-25 -180l-680 -662h586l-25 -182h-827z" glyph-name="zcaron" horiz-adv-x="987" unicode="ž"/><glyph d="M653 1456q221 0 334 -141t80 -385q-35 -238 -188.5 -385.5t-370.5 -147.5q-225 0 -326.5 166t-50.5 422h737v2q20 137 -45 217t-196 80q-78 0 -156 -42t-121 -134h-184q43 154 176 251t311 97zM838 811h-523q-8 -109 51.5 -175.5t172 -66.5t194.5 68t105 174z" glyph-name="uni018F" horiz-adv-x="1083" unicode="Ə"/><glyph d="M584 -14q-229 0 -382 118.5t-139 337.5h230q8 -127 90 -195.5t231 -68.5q135 0 224.5 68.5t101.5 163.5q12 92 -46 145t-210 72q-289 35 -404.5 142.5t-93.5 266.5q23 170 183.5 290t375.5 120q244 0 371 -121t105 -334h-217q8 121 -71 188.5t-214 67.5 q-125 0 -208 -61.5t-95 -143.5q-23 -176 282 -217q285 -37 389.5 -141t81.5 -276q-27 -193 -189.5 -307.5t-395.5 -114.5zM371 -592l16 115q109 4 121 119h-117l35 243h227l-35 -243q-32 -234 -247 -234z" glyph-name="Scommaaccent" horiz-adv-x="1269" unicode="Ș"/><glyph d="M414 -23q-180 0 -291 91.5t-96 259.5h190q2 -86 62.5 -134.5t154.5 -48.5q90 0 147.5 45.5t69.5 112.5q6 55 -33.5 91t-150.5 52q-119 18 -195.5 51t-109.5 77t-42 85t-3 91q16 121 133 206.5t282 85.5q162 0 265.5 -86t89.5 -262h-185q2 98 -55 137t-135 39 q-74 0 -131 -32.5t-66 -89.5q-6 -51 37 -86t140 -50q219 -29 299.5 -105.5t62.5 -203.5q-20 -145 -150 -235.5t-290 -90.5zM211 -592l16 115q109 4 121 119h-117l35 243h228l-35 -243q-33 -234 -248 -234z" glyph-name="scommaaccent" horiz-adv-x="950" unicode="ș"/><glyph d="M432 0l176 1243h-502l25 191h1200l-24 -191l-500 2l-176 -1245h-199zM344 -592l16 115q111 4 123 119h-116l34 243h228l-35 -243q-33 -234 -250 -234z" glyph-name="uni021A" horiz-adv-x="1218" unicode="Ț"/><glyph d="M342 0q-123 0 -188.5 75t-49.5 195l84 586h-159l24 168h158l45 319h193l-43 -319h256l-25 -168h-256l-76 -543q-10 -78 13.5 -107.5t93.5 -29.5h133l-25 -176h-178zM102 -592l17 115q109 4 121 119h-117l35 243h229l-37 -243q-33 -234 -248 -234z" glyph-name="uni021B" horiz-adv-x="626" unicode="ț"/><glyph d="M481 1544l23 160h635l-23 -160h-635zM477 0l80 582l-405 852h223l309 -668l514 668h207l-647 -852l-80 -582h-201z" glyph-name="uni0232" horiz-adv-x="1310" unicode="Ȳ"/><glyph d="M270 1135l23 159h635l-23 -159h-635zM-57 -410l22 181h92q127 0 207 145l74 147l-264 961h215l184 -723l373 723h215l-612 -1157q-152 -276 -398 -277h-108z" glyph-name="uni0233" horiz-adv-x="1003" unicode="ȳ"/><glyph d="M-162 -362l27 188h45q66 0 109.5 39t56.5 119l145 1040h197l-152 -1073q-20 -145 -117.5 -229t-234.5 -84h-76z" glyph-name="uni0237" horiz-adv-x="473" unicode="ȷ"/><glyph d="M250 1507h276l217 -321h-211l-143 205l-143 -205h-209z" glyph-name="circumflex" horiz-adv-x="108" unicode="ˆ"/><glyph d="M37 1507h203l149 -204l152 204h202l-217 -321h-276z" glyph-name="caron" horiz-adv-x="108" unicode="ˇ"/><glyph d="M588 1145q-166 0 -260.5 104.5t-98.5 255.5h162q4 -92 54.5 -154.5t142.5 -60.5q94 2 145 64.5t53 150.5h162q-4 -152 -98 -256t-262 -104z" glyph-name="breve" horiz-adv-x="108" unicode="˘"/><glyph d="M197 1198v244h227v-244h-227z" glyph-name="dotaccent" horiz-adv-x="108" unicode="˙"/><glyph d="M174 1147q-80 0 -135 56.5t-55 134t55 134t135 56.5q76 0 131 -56.5t57 -134.5q0 -78 -56 -134t-132 -56zM174 1255q37 0 59.5 21.5t22.5 60.5t-22.5 62.5t-59.5 23.5q-39 0 -61.5 -23.5t-22.5 -62.5t22.5 -60.5t61.5 -21.5z" glyph-name="ring" horiz-adv-x="108" unicode="˚"/><glyph d="M256 -530q-117 6 -188.5 64t-71.5 165q0 113 89 202t259 138l125 -39q-127 -8 -210 -95t-83 -184q0 -53 33 -86.5t90 -33.5q53 0 104.5 29.5t81.5 74.5l86 -117q-127 -128 -315 -118z" glyph-name="ogonek" horiz-adv-x="108" unicode="˛"/><glyph d="M-293 1233q-121 0 -203 117q-27 45 -65 45q-55 0 -62 -72q0 -33 13 -72h-158q-6 31 -6 60q-4 104 54 170.5t153 66.5q125 0 202 -116q27 -45 66 -46q35 0 51.5 30t7.5 81q0 4 -3 15.5t-5 17.5h156q4 -16 4 -27q16 -117 -41.5 -193.5t-163.5 -76.5z" glyph-name="tilde" horiz-adv-x="0" unicode="˜"/><glyph d="M137 1214v244h228v-244h-228zM518 1214v244h230v-244h-230z" glyph-name="hungarumlaut" horiz-adv-x="108" unicode="˝"/><glyph d="M-268 1188l-264 268h251l209 -268h-196z" glyph-name="gravecomb" horiz-adv-x="0" unicode="̀"/><glyph d="M-334 1188h-198l208 268h252z" glyph-name="acutecomb" horiz-adv-x="0" unicode="́"/><glyph d="M-293 1233q-121 0 -203 117q-27 45 -65 45q-55 0 -62 -72q0 -33 13 -72h-158q-6 31 -6 60q-4 104 54 170.5t153 66.5q125 0 202 -116q27 -45 66 -46q35 0 51.5 30t7.5 81q0 4 -3 15.5t-5 17.5h156q4 -16 4 -27q16 -117 -41.5 -193.5t-163.5 -76.5z" glyph-name="tildecomb" horiz-adv-x="0" unicode="̃"/><glyph d="M-289 -520v244h228v-244h-228z" glyph-name="dotbelowcomb" horiz-adv-x="0" unicode="̣"/><glyph d="M-733 -592v115q111 4 104 119h-114v243h227l-2 -243q0 -117 -57.5 -175.5t-157.5 -58.5z" glyph-name="uni0326" horiz-adv-x="0" unicode="̦"/><glyph d="M1020 1524l-225 270h254l170 -270h-199zM385 0l-223 1434h207l157 -1145l471 1145h193l164 -1147l461 1147h206l-610 -1434h-199l-161 1122l-465 -1122h-201z" glyph-name="Wgrave" horiz-adv-x="1937" unicode="Ẁ"/><glyph d="M750 1114l-226 270h252l172 -270h-198zM272 0l-188 1024h213l115 -760l325 760h164l113 -760l325 760h217l-477 -1024h-202l-105 682l-295 -682h-205z" glyph-name="wgrave" horiz-adv-x="1509" unicode="ẁ"/><glyph d="M1180 1522h-199l246 268h254zM385 0l-223 1434h207l157 -1145l471 1145h193l164 -1147l461 1147h206l-610 -1434h-199l-161 1122l-465 -1122h-201z" glyph-name="Wacute" horiz-adv-x="1937" unicode="Ẃ"/><glyph d="M907 1112h-196l245 268h252zM272 0l-188 1024h213l115 -760l325 760h164l113 -760l325 760h217l-477 -1024h-202l-105 682l-295 -682h-205z" glyph-name="wacute" horiz-adv-x="1509" unicode="ẃ"/><glyph d="M799 1548l35 244h227l-35 -244h-227zM1180 1548l34 244h228l-33 -244h-229zM385 0l-223 1434h207l157 -1145l471 1145h193l164 -1147l461 1147h206l-610 -1434h-199l-161 1122l-465 -1122h-201z" glyph-name="Wdieresis" horiz-adv-x="1937" unicode="Ẅ"/><glyph d="M528 1139l33 243h230l-35 -243h-228zM909 1139l35 243h227l-34 -243h-228zM272 0l-188 1024h213l115 -760l325 760h164l113 -760l325 760h217l-477 -1024h-202l-105 682l-295 -682h-205z" glyph-name="wdieresis" horiz-adv-x="1509" unicode="ẅ"/><glyph d="M94 0l201 1434h211l-201 -1434h-211zM39 -346l35 244h227l-33 -244h-229z" glyph-name="uni1ECA" horiz-adv-x="555" unicode="Ị"/><glyph d="M88 0l143 1024h205l-143 -1024h-205zM25 -367l34 246h228l-33 -246h-229z" glyph-name="uni1ECB" horiz-adv-x="514" unicode="ị"/><glyph d="M684 -20q-287 0 -451.5 209.5t-119.5 527t267 525.5t511 208q287 0 452.5 -209t120.5 -528q-45 -315 -269 -524t-511 -209zM709 178q207 0 358.5 149.5t183.5 379.5q35 236 -74.5 392t-314.5 156q-201 0 -351.5 -154.5t-184.5 -389.5q-33 -229 74.5 -381t308.5 -152z M526 -346l35 244h227l-32 -244h-230z" glyph-name="uni1ECC" horiz-adv-x="1531" unicode="Ọ"/><glyph d="M481 -10q-211 0 -330.5 147.5t-87.5 374.5q33 229 194 377.5t372 148.5t329.5 -147.5t85.5 -378.5q-33 -227 -193.5 -374.5t-369.5 -147.5zM504 174q137 0 230 94t116 242q20 152 -44.5 248t-203.5 96q-135 0 -227 -96t-113 -246q-23 -147 43 -242.5t199 -95.5zM322 -346 l34 244h228l-33 -244h-229z" glyph-name="uni1ECD" horiz-adv-x="1120" unicode="ọ"/><glyph d="M631 -16q-260 0 -393.5 153.5t-98.5 413.5l125 883h203l-123 -883q-27 -178 59 -277.5t256 -99.5q168 0 282 99.5t140 277.5l123 883h203l-123 -883q-37 -260 -215 -413.5t-438 -153.5zM473 -346l35 244h227l-33 -244h-229z" glyph-name="uni1EE4" horiz-adv-x="1425" unicode="Ụ"/><glyph d="M434 -27q-66 0 -126 21.5t-113.5 66.5t-78 131.5t-7.5 202.5l88 629h211l-86 -608q-18 -129 31.5 -197.5t148.5 -68.5q115 0 205 94t110 252l76 528h197l-144 -1024h-196l16 133q-47 -61 -134 -110.5t-198 -49.5zM344 -346l33 244h229l-35 -244h-227z" glyph-name="uni1EE5" unicode="ụ"/><glyph d="M709 1524l-228 270h254l170 -270h-196zM477 0l80 582l-405 852h223l309 -668l514 668h207l-647 -852l-80 -582h-201z" glyph-name="Ygrave" horiz-adv-x="1310" unicode="Ỳ"/><glyph d="M498 1114l-228 270h254l170 -270h-196zM-57 -410l22 181h92q127 0 207 145l74 147l-264 961h215l184 -723l373 723h215l-612 -1157q-152 -276 -398 -277h-108z" glyph-name="ygrave" horiz-adv-x="1003" unicode="ỳ"/><glyph d="M178 451l19 143h1024l-19 -143h-1024z" glyph-name="endash" horiz-adv-x="1406" unicode="–"/><glyph d="M6 451l19 143h2048l-19 -143h-2048z" glyph-name="emdash" horiz-adv-x="2086" unicode="—"/><glyph d="M143 1157l35 244q35 233 250 233l-18 -114q-109 -4 -121 -119h117l-35 -244h-228z" glyph-name="quoteleft" horiz-adv-x="337" unicode="‘"/><glyph d="M147 1155l19 117q106 4 121 117h-117l35 245h227l-35 -245q-18 -117 -84 -175.5t-166 -58.5z" glyph-name="quoteright" horiz-adv-x="270" unicode="’"/><glyph d="M-16 -233l16 114q109 4 123 119h-117l35 244h227l-35 -244q-34 -233 -249 -233z" glyph-name="quotesinglbase" horiz-adv-x="489" unicode="‚"/><glyph d="M113 1157l37 244q35 233 247 233l-16 -114q-109 -4 -121 -119h115l-35 -244h-227zM432 1157l35 244q35 233 250 233l-19 -114q-109 -4 -120 -119h116l-35 -244h-227z" glyph-name="quotedblleft" horiz-adv-x="600" unicode="“"/><glyph d="M102 1155l17 115q109 4 121 119h-117l35 243h229l-37 -243q-35 -234 -248 -234zM424 1155l18 115q109 4 121 119h-117l35 243h228l-35 -243q-35 -234 -250 -234z" glyph-name="quotedblright" horiz-adv-x="589" unicode="”"/><glyph d="M-8 -233l14 114q111 4 123 119h-117l35 244h229l-36 -244q-35 -233 -248 -233zM313 -233l17 114q109 4 123 119h-117l35 244h227l-35 -244q-35 -233 -250 -233z" glyph-name="quotedblbase" horiz-adv-x="794" unicode="„"/><glyph d="M360 473l62 442h414l-64 -442h-412z" glyph-name="bullet" horiz-adv-x="1228" unicode="•"/><glyph d="M68 0l34 244h228l-35 -244h-227zM573 0l35 244h228l-33 -244h-230zM1081 0l35 244h227l-34 -244h-228z" glyph-name="ellipsis" horiz-adv-x="1529" unicode="…"/><glyph d="M31 0l1272 1536h202l-1272 -1536h-202zM464.5 971q-110.5 0 -177 81t-49.5 195q14 115 104 196t200.5 81t177 -81t50.5 -196q-14 -115 -104.5 -195.5t-201 -80.5zM485 1116q47 0 87 38t46 91q8 53 -20.5 90t-75.5 37t-86 -37t-45 -90q-8 -53 19.5 -91t74.5 -38zM1624 0 q-111 0 -177.5 81t-50 195.5t106.5 195.5t201 81t176.5 -81t48.5 -196q-14 -115 -104 -195.5t-201 -80.5zM1003.5 -4q-110.5 0 -177 81t-50.5 195q14 115 103.5 196t200 81t177 -81t52.5 -196q-16 -115 -105.5 -195.5t-200 -80.5zM1646.5 145q47.5 0 86.5 38t45 91 q8 53 -20.5 90t-76 37t-86.5 -36.5t-45 -90.5q-8 -53 20.5 -91t76 -38zM1022 141q47 0 87 38t48 91q6 53 -22.5 90t-75.5 37t-85 -36.5t-46 -90t19.5 -91.5t74.5 -38z" glyph-name="perthousand" horiz-adv-x="2101" unicode="‰"/><glyph d="M373 195l-258 376l364 377h185l-365 -377l258 -376h-184z" glyph-name="guilsinglleft" horiz-adv-x="694" unicode="‹"/><glyph d="M70 195l364 376l-258 377h184l258 -377l-364 -376h-184z" glyph-name="guilsinglright" horiz-adv-x="694" unicode="›"/><glyph d="M664 129q145 -2 243.5 88t139.5 260h194q-51 -236 -210 -378t-380 -140q-217 2 -348 138t-127 407h-137l24 174h132l12 100h-129l22 160h136q72 270 240.5 406.5t387.5 138.5q223 2 341 -139.5t102 -372.5h-195q14 166 -60.5 253t-222.5 85q-139 0 -242.5 -100.5 t-142.5 -270.5h418l-22 -160h-426l-15 -100h426l-24 -174h-418q-10 -172 66 -272.5t215 -102.5z" glyph-name="Euro" horiz-adv-x="1318" unicode="€"/><glyph d="M475 938l57 420h-186l10 76h455l-10 -76l-187 2l-59 -422h-80zM813 940l70 492h98l121 -385l221 385h94l-69 -492h-78l49 344l-199 -344h-71l-109 346l-45 -346h-82z" glyph-name="trademark" horiz-adv-x="1538" unicode="™"/><glyph d="M856 -18q-362 0 -585.5 230t-178.5 554q45 328 334 559t651 231q365 0 588 -231t178 -559l-2 -21h-1417q-12 0 -14 -8l-60 -430q-4 -23 10 -49q197 -233 504 -233q340 0 602 262h125q-137 -141 -331.5 -223t-403.5 -82zM430 788h1088q6 0 10 15l59 430q4 35 -12 51 q-199 225 -502 225q-301 0 -567 -231q-25 -25 -27 -53l-59 -422q-4 -15 10 -15z" glyph-name="estimated" horiz-adv-x="1880" unicode="℮"/><glyph d="M125 508l20 162h1229l-20 -162h-1229z" glyph-name="minus" horiz-adv-x="1488" unicode="−"/><glyph d="M1374 655h-428l-221 -223h616l-20 -160h-754l-270 -270h-168l270 270h-307l21 160h444l221 223h-633l21 160h770l209 211h168l-209 -211h291z" glyph-name="notequal" horiz-adv-x="1488" unicode="≠"/><glyph d="M1284 180l-1053 568l19 124l1210 562l-24 -172l-1000 -453l873 -455zM1044 51l-12 -90h-690l12 90h690z" glyph-name="lessequal" horiz-adv-x="1636" unicode="≤"/><glyph d="M152 180l24 174l1002 455l-875 453l25 172l1052 -562l-18 -124zM129 51l918 17l210 -107l-917 -16z" glyph-name="greaterequal" horiz-adv-x="1538" unicode="≥"/><glyph d="M1204 600l-22 -158h-142l-61 -442h-188l20 150q-41 -61 -139.5 -117t-216.5 -56q-170 0 -290 125t-110 340h-80l23 158h82q55 203 202.5 318.5t315.5 115.5q117 0 196.5 -47t116.5 -119l80 566h189l-117 -834h141zM610.5 854q-108.5 0 -194.5 -69.5t-125 -184.5h573 q-10 115 -77.5 184.5t-176 69.5zM514 162q117 0 208 77.5t126 202.5h-580q2 -127 68.5 -203.5t177.5 -76.5z" glyph-name="glyph354" horiz-adv-x="1126"/><glyph d="M2 -2l203 1436l600 2q186 0 286.5 -123t73.5 -312q-20 -150 -116.5 -259t-239.5 -148l264 -594h-219l-252 575h-317l-84 -577h-199zM309 752h355q117 0 200.5 66.5t100.5 185.5q16 121 -48.5 188.5t-181.5 67.5h-354z" glyph-name="glyph355" horiz-adv-x="1196"/><glyph d="M473 -23q-201 0 -309.5 149.5t-75.5 379t181.5 379t346.5 149.5q211 0 308 -151l20 141h195l-144 -1024h-194l20 143q-131 -166 -348 -166zM526 150q131 0 227.5 96t118.5 252q20 162 -47 262t-198 100q-127 0 -222.5 -98t-117.5 -256q-20 -158 46 -257t193 -99z" glyph-name="glyph356" horiz-adv-x="1177"/><glyph d="M211 0q-137 0 -212 84t-54 229l166 1121h196l-160 -1088q-12 -80 22 -119t99 -39h45l-24 -188h-78z" glyph-name="glyph357" horiz-adv-x="456"/></font>
</defs>
</svg>
