<svg width="1920" height="1077" viewBox="0 0 1920 1077" fill="none" xmlns="http://www.w3.org/2000/svg">
<rect width="1920" height="1077" fill="#F5FBFB"/>
<path d="M10.307 447.479L-243.91 587.028C-250.985 590.912 -875.758 936.29 -957.092 988.306C-962.848 991.987 -962.298 996.915 -956.537 1000.59L-265.43 1441.17C-259.669 1444.84 -256.749 1451.54 -253.688 1457.65C-249.805 1465.4 -241.788 1470.72 -232.528 1470.72H1469.43C1493.57 1470.72 1502.21 1438.81 1481.36 1426.64L736.254 1002.56C720.3 993.248 720.705 970.057 736.975 961.305L774.59 941.07C781.459 937.375 789.708 937.304 796.64 940.879L1095.46 1097.03C1102.57 1100.7 1111.04 1100.53 1117.99 1096.58L1170.1 1066.97C1186.17 1057.85 1186.04 1034.66 1169.87 1025.71L527.326 670.158C511.479 661.389 510.963 638.792 526.393 629.31L570.924 601.942C586.34 592.467 585.842 569.896 570.022 561.111L333.343 429.677C326.358 425.798 317.886 425.708 310.819 429.437L163.16 507.369C156.098 511.096 147.632 511.008 140.648 507.136L33.1603 447.529C26.0563 443.589 17.4278 443.571 10.307 447.479Z" stroke="#5B7D88" stroke-opacity="0.12" stroke-width="4.7307"/>
<path d="M-110.056 307.96L-187.577 348.141C-199.385 354.262 -199.523 371.102 -187.817 377.415L-110.454 419.134C-105.46 421.827 -99.4354 421.776 -94.4884 418.998L-18.5934 376.383C-7.11044 369.936 -7.3857 353.312 -19.0759 347.248L-94.8125 307.962C-99.5911 305.484 -105.277 305.483 -110.056 307.96Z" stroke="#5B7D88" stroke-opacity="0.12" stroke-width="4.7307"/>
<path d="M484.659 351.588L469.656 359.496C465.487 361.694 465.438 367.646 469.57 369.912L484.515 378.109C486.318 379.098 488.506 379.079 490.291 378.059L504.979 369.672C509.03 367.358 508.932 361.484 504.806 359.307L490.175 351.589C488.449 350.678 486.385 350.678 484.659 351.588Z" stroke="#5B7D88" stroke-opacity="0.12" stroke-width="4.7307"/>
<path d="M-311.707 406.326L-408.155 456.193C-424.207 464.493 -424.394 487.383 -408.48 495.943L-312.246 547.71C-305.48 551.349 -297.323 551.28 -290.62 547.526L-196.196 494.639C-180.584 485.895 -180.957 463.299 -196.85 455.076L-291.06 406.33C-297.534 402.98 -305.231 402.979 -311.707 406.326Z" stroke="#5B7D88" stroke-opacity="0.12" stroke-width="4.7307"/>
<path d="M796.64 540.021L678.473 601.451C662.48 609.765 662.293 632.578 678.148 641.153L796.099 704.949C802.889 708.621 811.089 708.551 817.815 704.763L933.503 639.613C949.054 630.855 948.681 608.336 932.848 600.099L817.375 540.024C810.877 536.643 803.139 536.642 796.64 540.021Z" stroke="#5B7D88" stroke-opacity="0.12" stroke-width="4.7307"/>
<path d="M179.645 293.823L135.624 316.644C127.191 321.016 127.092 333.044 135.453 337.553L179.361 361.235C182.929 363.159 187.233 363.123 190.767 361.138L233.864 336.935C242.065 332.329 241.869 320.457 233.519 316.125L190.535 293.824C187.121 292.053 183.06 292.053 179.645 293.823Z" stroke="#5B7D88" stroke-opacity="0.12" stroke-width="4.7307"/>
<path d="M759.74 393.14L718.816 414.238C710.351 418.602 710.253 430.67 718.645 435.172L759.456 457.062C763.011 458.969 767.292 458.932 770.813 456.966L810.878 434.59C819.111 429.992 818.914 418.078 810.534 413.754L770.582 393.141C767.181 391.387 763.141 391.386 759.74 393.14Z" stroke="#5B7D88" stroke-opacity="0.12" stroke-width="4.7307"/>
<path d="M1636.91 995.445L1518.75 1056.87C1502.75 1065.19 1502.57 1088 1518.42 1096.58L1636.37 1160.37C1643.16 1164.05 1651.36 1163.98 1658.09 1160.19L1773.78 1095.04C1789.33 1086.28 1788.95 1063.76 1773.12 1055.52L1657.65 995.448C1651.15 992.068 1643.41 992.066 1636.91 995.445Z" stroke="#5B7D88" stroke-opacity="0.12" stroke-width="4.7307"/>
<path d="M1950.65 953.586L1935.64 961.495C1931.48 963.692 1931.43 969.644 1935.56 971.91L1950.5 980.107C1952.31 981.096 1954.49 981.077 1956.28 980.057L1970.97 971.67C1975.02 969.357 1974.92 963.482 1970.79 961.305L1956.16 953.587C1954.44 952.676 1952.37 952.676 1950.65 953.586Z" stroke="#5B7D88" stroke-opacity="0.12" stroke-width="4.7307"/>
<path d="M14.8192 127.77L-59.0966 166.068C-70.3551 171.902 -70.4865 187.953 -59.325 193.97L14.4398 233.734C19.2012 236.301 24.9458 236.252 29.6627 233.604L102.028 192.987C112.977 186.841 112.714 170.997 101.568 165.217L29.3536 127.773C24.7973 125.41 19.3763 125.409 14.8192 127.77Z" fill="url(#paint0_linear)"/>
<path d="M287.354 308.733L273.049 316.271C269.075 318.365 269.028 324.038 272.967 326.198L287.218 334.011C288.937 334.953 291.023 334.935 292.725 333.963L306.73 325.969C310.593 323.764 310.499 318.165 306.564 316.09L292.614 308.733C290.969 307.866 289 307.865 287.354 308.733Z" fill="url(#paint1_linear)"/>
<path d="M-177.452 221.526L-269.415 269.056C-284.72 276.966 -284.899 298.784 -269.725 306.943L-177.967 356.283C-171.515 359.752 -163.738 359.686 -157.347 356.108L-67.3139 305.699C-52.4281 297.365 -52.7845 275.829 -67.9378 267.991L-157.766 221.529C-163.939 218.336 -171.278 218.335 -177.452 221.526Z" fill="url(#paint2_linear)"/>
<path d="M176.231 435.353L63.5606 493.904C48.3118 501.828 48.1335 523.573 63.2503 531.746L175.715 592.551C182.19 596.052 190.008 595.985 196.422 592.374L306.73 530.277C321.557 521.93 321.201 500.466 306.105 492.615L196.002 435.356C189.806 432.134 182.428 432.133 176.231 435.353Z" fill="url(#paint3_linear)"/>
<path d="M1619.48 959.707L1577.51 981.458C1569.47 985.625 1569.37 997.089 1577.35 1001.39L1619.21 1023.96C1622.61 1025.79 1626.72 1025.76 1630.09 1023.87L1671.18 1000.8C1679 996.408 1678.81 985.092 1670.85 980.964L1629.87 959.708C1626.61 958.02 1622.74 958.02 1619.48 959.707Z" fill="url(#paint4_linear)"/>
<path d="M141.047 295.356L102.027 315.465C93.9558 319.625 93.8621 331.128 101.864 335.418L140.777 356.282C144.166 358.1 148.248 358.065 151.606 356.19L189.807 334.863C197.658 330.48 197.47 319.125 189.479 315.004L151.385 295.357C148.142 293.685 144.29 293.684 141.047 295.356Z" fill="url(#paint5_linear)"/>
<path d="M1898.81 725.496L1786.14 784.047C1770.89 791.971 1770.71 813.715 1785.83 821.888L1898.29 882.694C1904.77 886.194 1912.59 886.127 1919 882.517L2029.31 820.42C2044.13 812.073 2043.78 790.609 2028.68 782.758L1918.58 725.499C1912.38 722.277 1905.01 722.276 1898.81 725.496Z" fill="url(#paint6_linear)"/>
<path d="M1685.16 882.516L1670.85 890.054C1666.88 892.148 1666.83 897.822 1670.77 899.982L1685.02 907.794C1686.74 908.737 1688.82 908.719 1690.53 907.747L1704.53 899.753C1708.4 897.547 1708.3 891.948 1704.37 889.873L1690.42 882.517C1688.77 881.649 1686.8 881.649 1685.16 882.516Z" fill="url(#paint7_linear)"/>
<circle cx="365.999" cy="270" r="42" fill="#E2E1FF"/>
<circle cx="1651.5" cy="751.5" r="23.5" fill="#E2E1FF"/>
<circle cx="186" cy="191" r="10" transform="rotate(-180 186 191)" fill="#E2E1FF"/>
<circle cx="1756" cy="581" r="10" transform="rotate(-180 1756 581)" fill="#E2E1FF"/>
<defs>
<linearGradient id="paint0_linear" x1="1235" y1="1315.5" x2="1438" y2="229.5" gradientUnits="userSpaceOnUse">
<stop stop-color="#00F9FF"/>
<stop offset="1" stop-color="#E1EAFF" stop-opacity="0"/>
</linearGradient>
<linearGradient id="paint1_linear" x1="1235" y1="1315.5" x2="1438" y2="229.5" gradientUnits="userSpaceOnUse">
<stop stop-color="#00F9FF"/>
<stop offset="1" stop-color="#E1EAFF" stop-opacity="0"/>
</linearGradient>
<linearGradient id="paint2_linear" x1="1235" y1="1315.5" x2="1438" y2="229.5" gradientUnits="userSpaceOnUse">
<stop stop-color="#00F9FF"/>
<stop offset="1" stop-color="#E1EAFF" stop-opacity="0"/>
</linearGradient>
<linearGradient id="paint3_linear" x1="1235" y1="1315.5" x2="1438" y2="229.5" gradientUnits="userSpaceOnUse">
<stop stop-color="#00F9FF"/>
<stop offset="1" stop-color="#E1EAFF" stop-opacity="0"/>
</linearGradient>
<linearGradient id="paint4_linear" x1="1235" y1="1315.5" x2="1438" y2="229.5" gradientUnits="userSpaceOnUse">
<stop stop-color="#00F9FF"/>
<stop offset="1" stop-color="#E1EAFF" stop-opacity="0"/>
</linearGradient>
<linearGradient id="paint5_linear" x1="1235" y1="1315.5" x2="1438" y2="229.5" gradientUnits="userSpaceOnUse">
<stop stop-color="#00F9FF"/>
<stop offset="1" stop-color="#E1EAFF" stop-opacity="0"/>
</linearGradient>
<linearGradient id="paint6_linear" x1="1235" y1="1315.5" x2="1438" y2="229.5" gradientUnits="userSpaceOnUse">
<stop stop-color="#00F9FF"/>
<stop offset="1" stop-color="#E1EAFF" stop-opacity="0"/>
</linearGradient>
<linearGradient id="paint7_linear" x1="1235" y1="1315.5" x2="1438" y2="229.5" gradientUnits="userSpaceOnUse">
<stop stop-color="#00F9FF"/>
<stop offset="1" stop-color="#E1EAFF" stop-opacity="0"/>
</linearGradient>
</defs>
</svg>
