<svg width="541" height="338" viewBox="0 0 541 338" fill="none" xmlns="http://www.w3.org/2000/svg">
<path d="M539.482 218.602C537.096 212.877 495.591 189.5 495.591 189.5L327.66 168.986C232.722 142.906 37.3116 94.5622 15.1752 109.829C-6.96108 125.095 -0.091187 136.545 6.1108 140.362C90.7123 187.592 266.594 294.457 313.825 318.311C352.945 345.027 364.395 340.876 395.882 322.128C437.547 297.32 515.724 252.951 529.463 245.318C543.203 237.685 541.867 224.327 539.482 218.602Z" fill="#08003F"/>
<path d="M5.81528 106.915L5.72583 122.506C5.72583 126.69 7.81768 130.525 11.6529 132.617L343.221 324.027C351.24 328.559 361.002 328.559 369.021 324.027L528.355 231.983C532.888 229.542 535.328 224.661 534.98 219.78L533.849 204.711L354.378 176.198L5.81528 106.915Z" fill="#00BDD0"/>
<path d="M5.81528 106.915L5.72583 122.506C5.72583 126.69 7.81768 130.525 11.6529 132.617L343.221 324.027C351.24 328.559 361.002 328.559 369.021 324.027L528.355 231.983C532.888 229.542 535.328 224.661 534.98 219.78L533.849 204.711L354.378 176.198L5.81528 106.915Z" fill="url(#paint0_radial)"/>
<path d="M5.81528 106.915L5.72583 122.506C5.72583 126.69 7.81768 130.525 11.6529 132.617L343.221 324.027C351.24 328.559 361.002 328.559 369.021 324.027L528.355 231.983C532.888 229.542 535.328 224.661 534.98 219.78L533.849 204.711L354.378 176.198L5.81528 106.915Z" stroke="black" stroke-width="0.954152"/>
<path d="M307.852 296.709C309.014 296.033 309.009 293.854 307.839 291.842C306.67 289.83 304.78 288.747 303.617 289.423C302.455 290.098 302.461 292.277 303.63 294.289C304.799 296.301 306.69 297.384 307.852 296.709Z" fill="#00F9FF" stroke="black" stroke-width="0.954152"/>
<path d="M320.254 304.342C321.416 303.667 321.411 301.488 320.241 299.476C319.072 297.464 317.182 296.381 316.019 297.056C314.857 297.732 314.863 299.91 316.032 301.922C317.201 303.934 319.092 305.018 320.254 304.342Z" fill="#00F9FF" stroke="black" stroke-width="0.954152"/>
<path d="M11.3023 115.881L344.962 308.337C351.935 312.521 360.652 312.521 367.625 308.337L529.051 215.247C535.675 211.412 535.675 201.649 529.051 197.814L192.601 3.61489C186.674 0.12837 179.701 0.12837 173.774 3.61489L11.3023 97.4024C3.98061 101.586 3.98061 111.697 11.3023 115.881Z" fill="#3C2F9B"/>
<path d="M11.3023 115.881L344.962 308.337C351.935 312.521 360.652 312.521 367.625 308.337L529.051 215.247C535.675 211.412 535.675 201.649 529.051 197.814L192.601 3.61489C186.674 0.12837 179.701 0.12837 173.774 3.61489L11.3023 97.4024C3.98061 101.586 3.98061 111.697 11.3023 115.881Z" fill="url(#paint1_radial)"/>
<path d="M11.3023 115.881L344.962 308.337C351.935 312.521 360.652 312.521 367.625 308.337L529.051 215.247C535.675 211.412 535.675 201.649 529.051 197.814L192.601 3.61489C186.674 0.12837 179.701 0.12837 173.774 3.61489L11.3023 97.4024C3.98061 101.586 3.98061 111.697 11.3023 115.881Z" stroke="black" stroke-width="0.954152"/>
<path d="M20.3676 109.954L346.357 299.969C353.33 304.153 362.395 304.153 369.368 299.969L519.637 212.806C523.821 210.366 523.821 204.439 519.637 201.998L190.161 9.54209C185.977 7.10153 181.096 7.10153 176.912 9.54209L140.304 30.8098C137.863 32.2044 137.515 35.3424 139.258 37.4343C140.653 38.8289 140.304 41.2695 138.561 42.3155L86.6115 72.9968C83.8223 74.7401 79.9871 75.0887 76.8493 74.0427L74.7573 73.3454C71.6195 72.2994 68.133 72.648 64.9951 74.3913L20.3676 100.192C16.5324 102.632 16.5324 107.862 20.3676 109.954Z" fill="#EBE1FF"/>
<path d="M20.3676 109.954L346.357 299.969C353.33 304.153 362.395 304.153 369.368 299.969L519.637 212.806C523.821 210.366 523.821 204.439 519.637 201.998L190.161 9.54209C185.977 7.10153 181.096 7.10153 176.912 9.54209L140.304 30.8098C137.863 32.2044 137.515 35.3424 139.258 37.4343C140.653 38.8289 140.304 41.2695 138.561 42.3155L86.6115 72.9968C83.8223 74.7401 79.9871 75.0887 76.8493 74.0427L74.7573 73.3454C71.6195 72.2994 68.133 72.648 64.9951 74.3913L20.3676 100.192C16.5324 102.632 16.5324 107.862 20.3676 109.954Z" fill="url(#paint2_linear)"/>
<path d="M20.3676 109.954L346.357 299.969C353.33 304.153 362.395 304.153 369.368 299.969L519.637 212.806C523.821 210.366 523.821 204.439 519.637 201.998L190.161 9.54209C185.977 7.10153 181.096 7.10153 176.912 9.54209L140.304 30.8098C137.863 32.2044 137.515 35.3424 139.258 37.4343C140.653 38.8289 140.304 41.2695 138.561 42.3155L86.6115 72.9968C83.8223 74.7401 79.9871 75.0887 76.8493 74.0427L74.7573 73.3454C71.6195 72.2994 68.133 72.648 64.9951 74.3913L20.3676 100.192C16.5324 102.632 16.5324 107.862 20.3676 109.954Z" stroke="black" stroke-width="0.954152"/>
<path fill-rule="evenodd" clip-rule="evenodd" d="M44.9271 144.455C45.321 143.77 46.1959 143.534 46.8812 143.927L77.2139 161.36C77.8992 161.754 78.1355 162.629 77.7416 163.314C77.3477 163.999 76.4729 164.236 75.7876 163.842L45.4549 146.409C44.7696 146.015 44.5333 145.14 44.9271 144.455Z" fill="#00F9FF" stroke="black" stroke-width="0.954152" stroke-miterlimit="10" stroke-linecap="round" stroke-linejoin="round"/>
<path fill-rule="evenodd" clip-rule="evenodd" d="M91.9948 171.649C92.3886 170.964 93.2635 170.728 93.9488 171.122L124.281 188.554C124.967 188.948 125.203 189.823 124.809 190.508C124.415 191.194 123.541 191.43 122.855 191.036L92.5225 173.604C91.8372 173.21 91.6009 172.335 91.9948 171.649Z" fill="#00F9FF" stroke="black" stroke-width="0.954152" stroke-miterlimit="10" stroke-linecap="round" stroke-linejoin="round"/>
<defs>
<radialGradient id="paint0_radial" cx="0" cy="0" r="1" gradientUnits="userSpaceOnUse" gradientTransform="translate(-74.5214 92.9888) rotate(29.3409) scale(456.056 448.308)">
<stop stop-color="#74FFE6"/>
<stop offset="1" stop-color="#00BDD0"/>
</radialGradient>
<radialGradient id="paint1_radial" cx="0" cy="0" r="1" gradientUnits="userSpaceOnUse" gradientTransform="translate(-148.459 -43.2783) rotate(35.7733) scale(580.436 612.457)">
<stop stop-color="#FF8BF3"/>
<stop offset="1" stop-color="#3C2F9B"/>
</radialGradient>
<linearGradient id="paint2_linear" x1="-496.318" y1="16.8326" x2="-150.006" y2="567.386" gradientUnits="userSpaceOnUse">
<stop stop-color="white"/>
<stop offset="1" stop-color="white" stop-opacity="0"/>
</linearGradient>
</defs>
</svg>
