<svg width="25" height="25" viewBox="0 0 25 25" fill="none" xmlns="http://www.w3.org/2000/svg">
<path fill-rule="evenodd" clip-rule="evenodd" d="M12.5 0C5.59644 0 0 5.59644 0 12.5C0 19.4036 5.59644 25 12.5 25C19.4036 25 25 19.4036 25 12.5C25 5.59644 19.4036 0 12.5 0ZM19.5829 7.32102L18.4525 8.40576C18.3557 8.47859 18.3062 8.60175 18.3268 8.72194V16.6958C18.3062 16.8154 18.3563 16.9386 18.4531 17.012L19.557 18.0962V18.3336H14.0013V18.0956L15.1464 16.9842C15.2574 16.8729 15.2574 16.8379 15.2574 16.668V10.2253L12.074 18.3129H11.6437L7.94147 10.2253V15.6454C7.909 15.8746 7.98515 16.1025 8.14629 16.2671L9.63379 18.0725V18.3099H5.41626V18.0754L6.90376 16.2671C7.06195 16.1031 7.13515 15.871 7.09442 15.6454V9.37918C7.11154 9.20569 7.04425 9.03339 6.91557 8.91556L5.59511 7.32102V7.08359H9.70109L12.8762 14.0515L15.667 7.08359H19.5829V7.32102Z" fill="#737F92"/>
</svg>
