<svg width="25" height="25" viewBox="0 0 25 25" fill="none" xmlns="http://www.w3.org/2000/svg">
<path fill-rule="evenodd" clip-rule="evenodd" d="M12.5 0C5.59644 0 0 5.59644 0 12.5C0 19.4036 5.59644 25 12.5 25C19.4036 25 25 19.4036 25 12.5C25 5.59644 19.4036 0 12.5 0ZM17.8865 14.1758C18.1531 14.3263 18.504 14.3029 18.8019 14.1146C19.2598 13.8254 19.5015 13.2321 19.4656 12.4858C19.4654 12.482 19.4657 12.4785 19.466 12.475C19.4662 12.4723 19.4665 12.4695 19.4665 12.4667C19.4663 12.464 19.4659 12.4615 19.4655 12.4589C19.4649 12.4553 19.4644 12.4518 19.4644 12.4479C19.4644 8.59417 16.3765 5.45917 12.5806 5.45917C8.78479 5.45917 5.69645 8.59417 5.69645 12.4479C5.69502 13.5924 5.97307 14.7199 6.50645 15.7325L10.4906 9.335C10.9715 8.59917 11.4665 8.56042 11.7973 8.65708C12.2973 8.80333 12.5606 9.28833 12.5806 10.0992V13.6233L14.359 10.74L14.3594 10.7394C14.6447 10.2755 15.4028 9.04305 16.4106 9.33667C17.0056 9.50958 17.3615 10.15 17.3615 11.05V12.9138C17.3615 13.5367 17.5477 13.9846 17.8865 14.1758ZM20.994 12.4288V12.4483C21.0465 13.7575 20.5435 14.8438 19.6102 15.4333C18.8402 15.9192 17.8952 15.9575 17.1435 15.5333C16.3098 15.0629 15.8315 14.1079 15.8315 12.9138V11.2937C15.7781 11.3708 15.7198 11.46 15.6565 11.5633L13.6802 14.7671C13.0131 15.8504 12.3777 15.9329 11.9619 15.8121C11.5465 15.6912 11.051 15.2783 11.051 14.0008V11.3413L7.45812 17.1104C8.71937 18.5371 10.5481 19.4367 12.5806 19.4367C14.3216 19.437 15.9965 18.77 17.2606 17.5729C17.3338 17.5037 17.4201 17.4498 17.5144 17.4144C17.6087 17.379 17.7091 17.3628 17.8098 17.3666C17.9104 17.3705 18.0093 17.3944 18.1006 17.437C18.1919 17.4796 18.2738 17.54 18.3415 17.6146C18.629 17.9288 18.6106 18.42 18.3006 18.7117C16.741 20.1804 14.7094 20.9896 12.5806 20.9896C7.94145 20.9896 4.16687 17.1575 4.16687 12.4479C4.16687 7.73792 7.94145 3.90625 12.5802 3.90625C17.2069 3.90625 20.9723 7.71625 20.9935 12.4096L20.994 12.4288Z" fill="#737F92"/>
</svg>
