<svg width="25" height="25" viewBox="0 0 25 25" fill="none" xmlns="http://www.w3.org/2000/svg">
<path fill-rule="evenodd" clip-rule="evenodd" d="M12.5 0C5.59644 0 0 5.59644 0 12.5C0 19.4036 5.59644 25 12.5 25C19.4036 25 25 19.4036 25 12.5C25 5.59644 19.4036 0 12.5 0ZM6.00098 10.3531H8.83375V18.8644H6.00098V10.3531ZM9.02084 7.72015C9.00245 6.88563 8.40568 6.25 7.43661 6.25C6.46753 6.25 5.83398 6.88563 5.83398 7.72015C5.83398 8.5374 6.44881 9.19133 7.39983 9.19133H7.41794C8.40568 9.19133 9.02084 8.5374 9.02084 7.72015ZM15.7878 10.1532C17.6519 10.1532 19.0494 11.3699 19.0494 13.9842L19.0493 18.8644H16.2167V14.3108C16.2167 13.1671 15.8067 12.3866 14.7813 12.3866C13.9987 12.3866 13.5325 12.9127 13.3278 13.4209C13.2529 13.603 13.2345 13.8568 13.2345 14.1112V18.8646H10.4014C10.4014 18.8646 10.4387 11.1519 10.4014 10.3533H13.2345V11.5588C13.6105 10.9793 14.2838 10.1532 15.7878 10.1532Z" fill="#737F92"/>
</svg>
