<svg width="25" height="25" viewBox="0 0 25 25" fill="none" xmlns="http://www.w3.org/2000/svg">
<path fill-rule="evenodd" clip-rule="evenodd" d="M25 12.5C25 19.4036 19.4036 25 12.5 25C5.59644 25 0 19.4036 0 12.5C0 5.59644 5.59644 0 12.5 0C19.4036 0 25 5.59644 25 12.5ZM19.5841 10.2638C20.7326 10.2638 21.6667 11.194 21.6667 12.3372C21.6667 13.0931 21.2566 13.7535 20.6489 14.1151C20.6739 14.2878 20.6874 14.4624 20.6874 14.6389C20.6874 17.5872 17.0914 19.986 12.6717 19.986C8.25156 19.986 4.65601 17.5872 4.65601 14.6389C4.65601 14.4486 4.67169 14.2605 4.7008 14.0748C4.12951 13.7051 3.75 13.0651 3.75 12.3372C3.75 11.194 4.68411 10.264 5.83261 10.2638C6.34283 10.2638 6.8109 10.4486 7.17351 10.7535C8.55635 9.8825 10.4016 9.33561 12.4355 9.29588L13.6247 5.55358C13.6872 5.35453 13.8945 5.23757 14.0985 5.2852L17.1783 6.00662C17.454 5.42122 18.0499 5.01358 18.7414 5.01358C19.693 5.01358 20.4677 5.78446 20.4677 6.7323C20.4677 7.68013 19.6932 8.45101 18.7414 8.45101C17.8087 8.45101 17.0486 7.71054 17.0179 6.78966L14.2771 6.14709L13.2725 9.30824C15.1829 9.40331 16.908 9.94635 18.2128 10.7809C18.5795 10.4602 19.0588 10.2638 19.5841 10.2638Z" fill="#737F92"/>
<path fill-rule="evenodd" clip-rule="evenodd" d="M20.4296 13.2918C20.1366 12.5408 19.6032 11.8539 18.8892 11.2686C19.0895 11.1387 19.3281 11.0625 19.5847 11.0625C20.2907 11.0625 20.8651 11.6343 20.8651 12.3373C20.8647 12.7174 20.6957 13.0583 20.4296 13.2918Z" fill="#737F92"/>
<path fill-rule="evenodd" clip-rule="evenodd" d="M18.7417 5.81274C19.2513 5.81274 19.6659 6.22565 19.6659 6.73301C19.6659 7.24038 19.2513 7.65308 18.7417 7.65308C18.2319 7.65308 17.8174 7.24038 17.8174 6.73301C17.8174 6.22565 18.2319 5.81274 18.7417 5.81274Z" fill="#737F92"/>
<path fill-rule="evenodd" clip-rule="evenodd" d="M12.6715 19.1875C16.6486 19.1875 19.885 17.1469 19.885 14.6392C19.885 14.5547 19.8807 14.4712 19.8736 14.3875C19.8504 14.1203 19.7885 13.8594 19.695 13.606C19.4578 12.9665 19.0081 12.3783 18.3928 11.8738C18.1888 11.7061 17.9673 11.5476 17.7289 11.3998C16.4267 10.5908 14.6401 10.0906 12.6715 10.0906C10.731 10.0906 8.96825 10.5771 7.67031 11.3658C7.43251 11.5103 7.21038 11.6652 7.00536 11.8292C6.36463 12.3414 5.89554 12.9422 5.65102 13.5969C5.55675 13.8495 5.49486 14.1102 5.47063 14.3767C5.46289 14.4637 5.45801 14.5508 5.45801 14.6392C5.45801 17.1471 8.6938 19.1875 12.6715 19.1875ZM10.0336 12.4396C10.7102 12.4396 11.2587 13.0045 11.2587 13.6779C11.2587 14.3511 10.7102 14.8969 10.0336 14.8978C9.35747 14.8978 8.79004 14.3511 8.79004 13.6779C8.79004 13.0045 9.35726 12.4396 10.0336 12.4396ZM15.4007 12.4393C14.7243 12.4393 14.1553 13.004 14.1553 13.6774C14.1553 14.351 14.7243 14.8972 15.4007 14.8972C16.0772 14.8972 16.6261 14.3514 16.6261 13.6774C16.6257 13.0036 16.0772 12.4393 15.4007 12.4393ZM12.7172 17.3047C13.8368 17.3047 14.6009 17.0856 15.0548 16.6344C15.2117 16.4787 15.4658 16.4787 15.6228 16.6348C15.7794 16.7905 15.7794 17.043 15.6224 17.1993C15.0108 17.8074 14.0604 18.1036 12.7172 18.1036C12.7155 18.1036 12.7138 18.1033 12.7122 18.103C12.7106 18.1027 12.7091 18.1024 12.7075 18.1024C12.7059 18.1024 12.7044 18.1027 12.7028 18.103C12.7013 18.1033 12.6997 18.1036 12.6979 18.1036C11.3546 18.1036 10.4044 17.8074 9.79336 17.1989C9.63659 17.0434 9.63659 16.7907 9.79336 16.6344C9.94993 16.4783 10.204 16.4783 10.3606 16.6344C10.8138 17.0856 11.5781 17.3047 12.6979 17.3047C12.6995 17.3047 12.701 17.305 12.7025 17.3052C12.7041 17.3055 12.7057 17.3057 12.7075 17.3057C12.7091 17.3057 12.7106 17.3055 12.7122 17.3053C12.7138 17.305 12.7155 17.3047 12.7172 17.3047Z" fill="#737F92"/>
<path fill-rule="evenodd" clip-rule="evenodd" d="M4.55176 12.3373C4.55176 11.6345 5.12611 11.0625 5.83199 11.0625C6.0704 11.0625 6.29314 11.1292 6.48472 11.2429C5.77029 11.8208 5.23565 12.5009 4.93412 13.2442C4.69815 13.0129 4.55176 12.692 4.55176 12.3373Z" fill="#737F92"/>
</svg>
