<svg width="25" height="25" viewBox="0 0 25 25" fill="none" xmlns="http://www.w3.org/2000/svg">
<path fill-rule="evenodd" clip-rule="evenodd" d="M12.5 25C19.4036 25 25 19.4036 25 12.5C25 5.59644 19.4036 0 12.5 0C5.59644 0 0 5.59644 0 12.5C0 19.4036 5.59644 25 12.5 25ZM10.209 18.2292C10.513 18.2292 10.6519 18.0939 10.8199 17.9304L10.834 17.9167L12.3351 16.457L15.4583 18.7645C16.0332 19.0816 16.4481 18.9174 16.5912 18.2308L18.6418 8.56796C18.8517 7.72627 18.3209 7.34452 17.771 7.59419L5.73037 12.237C4.90849 12.5667 4.91328 13.0252 5.58056 13.2295L8.67046 14.1939L15.8239 9.68089C16.1616 9.47611 16.4715 9.5862 16.2171 9.81197L10.4208 15.0427L10.4216 15.0433L10.209 18.2292Z" fill="#737F92"/>
</svg>
