<svg width="25" height="25" viewBox="0 0 25 25" fill="none" xmlns="http://www.w3.org/2000/svg">
<path fill-rule="evenodd" clip-rule="evenodd" d="M12.5 0C5.59644 0 0 5.59644 0 12.5C0 19.4036 5.59644 25 12.5 25C19.4036 25 25 19.4036 25 12.5C25 5.59644 19.4036 0 12.5 0ZM17.7098 8.20283C18.2835 8.36026 18.7353 8.82412 18.8887 9.41319C19.1673 10.4808 19.1673 12.7084 19.1673 12.7084C19.1673 12.7084 19.1673 14.9359 18.8887 16.0036C18.7353 16.5926 18.2835 17.0565 17.7098 17.214C16.6701 17.5001 12.5007 17.5001 12.5007 17.5001C12.5007 17.5001 8.33118 17.5001 7.29141 17.214C6.7177 17.0565 6.26588 16.5926 6.11255 16.0036C5.83398 14.9359 5.83398 12.7084 5.83398 12.7084C5.83398 12.7084 5.83398 10.4808 6.11255 9.41319C6.26588 8.82412 6.7177 8.36026 7.29141 8.20283C8.33118 7.91672 12.5007 7.91672 12.5007 7.91672C12.5007 7.91672 16.6701 7.91672 17.7098 8.20283Z" fill="#737F92"/>
<path fill-rule="evenodd" clip-rule="evenodd" d="M11.25 14.9999V10.8333L14.5833 12.9167L11.25 14.9999Z" fill="#737F92"/>
</svg>
