<svg width="1355" height="980" viewBox="0 0 1355 980" fill="none" xmlns="http://www.w3.org/2000/svg">
    <g opacity="0.1">
    <mask id="mask0" mask-type="alpha" maskUnits="userSpaceOnUse" x="0" y="0" width="1355" height="980">
    <rect width="1355" height="980" fill="white"/>
    </mask>
    <g mask="url(#mask0)">
    <g opacity="0.6">
    <path d="M327.375 974.031L1040.43 3296.73C1048.78 3324.44 1064.54 3341.76 1079.38 3340.03L2500.86 3341.76C2536.09 3341.76 2557.42 3272.48 2540.73 3211.86L1838.8 892.624C1830.45 864.911 1814.69 847.59 1799.85 849.323L366.32 845.858C330.157 842.394 307.903 915.141 327.375 974.031Z" stroke="white" stroke-miterlimit="10" stroke-linecap="round" stroke-dasharray="12 12"/>
    <path d="M267.104 1077.96L327.375 885.696" stroke="white" stroke-miterlimit="10" stroke-linecap="round"/>
    <path d="M389.502 572.192L1101.63 2893.16C1109.98 2920.87 1125.74 2938.19 1140.58 2936.46L2562.98 2938.19C2598.22 2938.19 2619.55 2868.91 2602.86 2808.29L1901.85 490.786C1893.51 463.073 1877.74 445.752 1862.91 447.484L427.519 445.752C391.356 444.02 370.029 515.034 389.502 572.192Z" stroke="white" stroke-miterlimit="10" stroke-linecap="round" stroke-dasharray="12.18 12.18"/>
    <path d="M446.991 386.862L1160.05 2709.56C1168.39 2737.27 1184.16 2754.59 1198.99 2752.86L2620.47 2754.59C2655.71 2754.59 2677.04 2685.31 2660.35 2624.69L1958.42 305.455C1950.07 277.742 1934.31 260.422 1919.47 262.154L485.936 258.689C449.773 255.225 427.519 327.972 446.991 386.862Z" stroke="white" stroke-miterlimit="10" stroke-linecap="round"/>
    <path d="M386.72 490.787L446.991 298.527" stroke="white" stroke-miterlimit="10" stroke-linecap="round"/>
    <path d="M304.194 78.555L1016.32 2399.52C1024.67 2427.23 1040.43 2444.55 1055.27 2442.82L2477.68 2444.55C2512.91 2444.55 2534.24 2375.27 2517.55 2314.65L1816.54 -2.85205C1808.2 -30.565 1792.44 -47.8857 1777.6 -46.1536L343.139 -47.8856C306.976 -49.6177 284.722 19.6648 304.194 78.555Z" stroke="white" stroke-miterlimit="10" stroke-linecap="round"/>
    <path d="M361.684 -106.775L1074.74 2215.92C1083.09 2243.63 1098.85 2260.95 1113.69 2259.22L2535.17 2260.95C2570.4 2260.95 2591.73 2191.67 2575.04 2131.05L1874.96 -189.914C1866.62 -217.627 1850.85 -234.947 1836.02 -233.215L402.483 -236.68C365.393 -238.412 342.211 -165.665 361.684 -106.775Z" stroke="white" stroke-miterlimit="10" stroke-linecap="round"/>
    <path d="M518.39 -212.431L1230.52 2108.53C1238.87 2136.25 1254.63 2153.57 1269.47 2151.83L2691.87 2153.57C2727.11 2153.57 2748.44 2084.28 2731.74 2023.66L2031.67 -295.57C2023.32 -323.283 2007.56 -340.603 1992.72 -338.871H557.334C520.244 -342.335 498.917 -271.321 518.39 -212.431Z" stroke="white" stroke-miterlimit="10" stroke-linecap="round"/>
    <path d="M575.879 -399.493L1288.94 1923.2C1297.28 1950.92 1313.05 1968.24 1327.88 1966.5L2749.36 1968.24C2784.6 1968.24 2805.92 1898.95 2789.23 1838.33L2089.16 -480.9C2080.81 -508.613 2065.05 -525.934 2050.21 -524.202L615.751 -527.666C579.588 -531.13 556.407 -456.651 575.879 -399.493Z" stroke="white" stroke-miterlimit="10" stroke-linecap="round"/>
    <path d="M362.611 -905.256L1074.74 1415.71C1083.09 1443.42 1098.85 1460.74 1113.69 1459.01L2536.09 1460.74C2571.33 1460.74 2592.66 1391.46 2575.97 1330.84L1876.82 -986.663C1868.47 -1014.38 1852.71 -1031.7 1837.87 -1029.96L402.483 -1031.7C365.393 -1033.43 343.139 -964.146 362.611 -905.256Z" stroke="white" stroke-miterlimit="10" stroke-linecap="round" stroke-dasharray="12.18 12.18"/>
    <path d="M1096 1449.88L1530 55.791" stroke="white" stroke-miterlimit="10" stroke-linecap="round"/>
    <path d="M669.532 -1095.78L1381.66 1225.18C1390.01 1252.89 1405.77 1270.21 1420.61 1268.48L2843.01 1270.21C2878.25 1270.21 2899.58 1200.93 2882.89 1140.31L2182.81 -1177.19C2174.46 -1204.9 2158.7 -1222.22 2143.87 -1220.49L708.477 -1222.22C671.387 -1225.69 650.06 -1154.67 669.532 -1095.78Z" stroke="white" stroke-miterlimit="10" stroke-linecap="round"/>
    <path d="M727.022 -1282.85L1440.08 1039.85C1448.43 1067.56 1464.19 1084.88 1479.02 1083.15L2900.5 1084.88C2935.74 1084.88 2957.07 1015.6 2940.38 954.979L2239.37 -1364.25C2231.03 -1391.97 2215.26 -1409.29 2200.43 -1407.55L766.894 -1411.02C729.804 -1414.48 707.55 -1340 727.022 -1282.85Z" stroke="white" stroke-miterlimit="10" stroke-linecap="round" stroke-dasharray="12.18 12.18"/>
    <path d="M882.801 -1388.5L1594.93 932.464C1603.28 960.177 1619.04 977.497 1633.88 975.765L3056.28 977.497C3091.52 977.497 3112.85 908.214 3096.16 847.592L2397.01 -1469.91C2388.66 -1497.62 2372.9 -1514.94 2358.06 -1513.21H922.673C885.582 -1516.67 863.328 -1445.66 882.801 -1388.5Z" stroke="white" stroke-miterlimit="10" stroke-linecap="round" stroke-dasharray="12.18 12.18"/>
    <path d="M940.29 -1573.83L1654.28 748.864C1662.62 776.577 1678.38 793.897 1693.22 792.165L3114.7 793.897C3149.94 793.897 3171.26 724.615 3154.57 663.993L2453.57 -1656.97C2445.22 -1684.68 2429.46 -1702 2414.62 -1700.27L981.09 -1703.74C943.999 -1705.47 921.745 -1632.72 940.29 -1573.83Z" stroke="white" stroke-miterlimit="10" stroke-linecap="round"/>
    <path d="M1189.72 -1579.03L1901.85 741.936C1910.2 769.649 1925.96 786.969 1940.8 785.237L3363.2 786.969C3398.44 786.969 3419.77 717.687 3403.08 657.064L2703 -1660.44C2694.65 -1688.15 2678.89 -1705.47 2664.05 -1703.74L1228.67 -1705.47C1191.58 -1707.2 1170.25 -1637.92 1189.72 -1579.03Z" stroke="white" stroke-miterlimit="10" stroke-linecap="round"/>
    <path d="M1247.21 -1764.36L1960.27 558.336C1968.61 586.049 1984.38 603.37 1999.21 601.638L3420.69 603.37C3455.93 603.37 3477.26 534.088 3460.57 473.465L2759.56 -1847.5C2751.22 -1875.21 2735.45 -1892.53 2720.62 -1890.8L1287.08 -1894.26C1249.99 -1897.73 1227.74 -1823.25 1247.21 -1764.36Z" stroke="white" stroke-miterlimit="10" stroke-linecap="round" stroke-dasharray="12.18 12.18"/>
    </g>
    </g>
    </g>
</svg>
