<svg width="1920" height="500" viewBox="0 0 1920 500" fill="none" xmlns="http://www.w3.org/2000/svg">
<mask id="mask0" mask-type="alpha" maskUnits="userSpaceOnUse" x="0" y="0" width="1920" height="500">
<rect width="1920" height="500" fill="#171C29"/>
</mask>
<g mask="url(#mask0)">
<rect width="1920" height="500" fill="#171C29"/>
<g opacity="0.15">
<mask id="mask1" mask-type="alpha" maskUnits="userSpaceOnUse" x="7" y="-153" width="1355" height="763">
<rect width="1355" height="762.188" transform="matrix(-1 0 0 1 1362 -153)" fill="white"/>
</mask>
<g mask="url(#mask1)">
<g opacity="0.6">
<path d="M999.389 208.363L287.258 2013.48C278.913 2035.03 263.149 2048.5 248.313 2047.15L-1174.09 2048.5C-1209.33 2048.5 -1230.66 1994.62 -1213.97 1947.47L-514.816 145.05C-506.471 123.496 -490.708 110.025 -475.872 111.372L959.517 110.025C996.607 108.678 1018.86 162.562 999.389 208.363Z" stroke="white" stroke-miterlimit="10" stroke-linecap="round" stroke-dasharray="12.18 12.18"/>
<path d="M1001.24 145.05L940.972 -4.47852" stroke="white" stroke-miterlimit="10" stroke-linecap="round"/>
<path d="M692.468 60.182L-19.6629 1865.29C-28.0082 1886.85 -43.7716 1900.32 -58.6076 1898.97L-1481.01 1900.32C-1516.25 1900.32 -1537.58 1846.43 -1520.89 1799.29L-820.81 -3.13159C-812.465 -24.6852 -796.702 -38.1561 -781.866 -36.8091L653.523 -38.1561C690.613 -40.8503 711.94 14.3807 692.468 60.182Z" stroke="white" stroke-miterlimit="10" stroke-linecap="round"/>
<path d="M634.978 -85.3044L-78.08 1721.15C-86.4253 1742.71 -102.189 1756.18 -117.025 1754.83L-1538.5 1756.18C-1573.74 1756.18 -1595.07 1702.29 -1578.38 1655.15L-877.373 -148.618C-869.028 -170.172 -853.264 -183.643 -838.428 -182.295L595.106 -184.99C632.196 -187.684 654.45 -129.759 634.978 -85.3044Z" stroke="white" stroke-miterlimit="10" stroke-linecap="round" stroke-dasharray="12.18 12.18"/>
<path d="M479.199 -167.477L-232.932 1637.63C-241.277 1659.19 -257.04 1672.66 -271.876 1671.31L-1694.28 1672.66C-1729.52 1672.66 -1750.85 1618.78 -1734.16 1571.63L-1035.01 -230.79C-1026.66 -252.344 -1010.9 -265.815 -996.061 -264.468H439.327C476.418 -267.162 498.672 -211.931 479.199 -167.477Z" stroke="white" stroke-miterlimit="10" stroke-linecap="round" stroke-dasharray="12.18 12.18"/>
<path d="M421.71 -311.617L-292.276 1494.84C-300.621 1516.4 -316.384 1529.87 -331.221 1528.52L-1752.7 1529.87C-1787.94 1529.87 -1809.26 1475.98 -1792.57 1428.83L-1091.57 -376.277C-1083.22 -397.831 -1067.46 -411.302 -1052.62 -409.955L380.91 -412.649C418.001 -413.996 440.255 -357.418 421.71 -311.617Z" stroke="white" stroke-miterlimit="10" stroke-linecap="round"/>
<path d="M172.278 -315.658L-539.852 1489.45C-548.198 1511.01 -563.961 1524.48 -578.797 1523.13L-2001.2 1524.48C-2036.44 1524.48 -2057.77 1470.59 -2041.08 1423.45L-1341 -378.972C-1332.65 -400.525 -1316.89 -413.996 -1302.05 -412.649L133.334 -413.996C170.424 -415.343 191.751 -361.459 172.278 -315.658Z" stroke="white" stroke-miterlimit="10" stroke-linecap="round"/>
<path d="M114.789 -459.798L-598.269 1346.66C-606.615 1368.21 -622.378 1381.69 -637.214 1380.34L-2058.69 1381.69C-2093.93 1381.69 -2115.26 1327.8 -2098.57 1280.65L-1397.56 -524.459C-1389.22 -546.012 -1373.45 -559.483 -1358.62 -558.136L74.9168 -560.83C112.007 -563.524 134.261 -505.599 114.789 -459.798Z" stroke="white" stroke-miterlimit="10" stroke-linecap="round" stroke-dasharray="12.18 12.18"/>
</g>
</g>
</g>
</g>
</svg>
