<svg width="17" height="17" viewBox="0 0 17 17" fill="none" xmlns="http://www.w3.org/2000/svg">
    <path d="M3.44409 9.64453C4.24618 10.4466 5.22013 10.8477 6.36597 10.8477C7.5118 10.8477 8.48576 10.4466 9.28784 9.64453C10.0899 8.84245 10.491 7.86849 10.491 6.72266C10.491 5.57682 10.0899 4.60286 9.28784 3.80078C8.48576 2.9987 7.5118 2.59766 6.36597 2.59766C5.22013 2.59766 4.24618 2.9987 3.44409 3.80078C2.64201 4.60286 2.24097 5.57682 2.24097 6.72266C2.24097 7.86849 2.64201 8.84245 3.44409 9.64453ZM11.866 10.8477L16.4207 15.4023L15.0457 16.7773L10.491 12.2227V11.4922L10.2332 11.2344C9.14461 12.1797 7.85555 12.6523 6.36597 12.6523C4.70451 12.6523 3.28654 12.0794 2.11206 10.9336C0.966227 9.78776 0.393311 8.38411 0.393311 6.72266C0.393311 5.0612 0.966227 3.65755 2.11206 2.51172C3.28654 1.33724 4.70451 0.75 6.36597 0.75C8.02743 0.75 9.43107 1.33724 10.5769 2.51172C11.7227 3.65755 12.2957 5.0612 12.2957 6.72266C12.2957 8.21224 11.823 9.5013 10.8777 10.5898L11.1355 10.8477H11.866Z"
        fill="#7A96A6" />
</svg>
