<svg width="1427" height="698" viewBox="0 0 1427 698" fill="none" xmlns="http://www.w3.org/2000/svg">
    <path d="M29.4275 52.8438L29.4275 572.172" stroke="#E85E59"/>
    <rect x="22.6323" y="164.498" width="13.5903" height="396.24" fill="#E85E59" stroke="#E85E59"/>
    <path d="M49.4893 473.772L49.4893 697.903" stroke="#E85E59"/>
    <rect x="42.6941" y="561.739" width="13.5903" height="91.9323" fill="#E85E59" stroke="#E85E59"/>
    <path d="M118.793 391.773L119.913 646.882" stroke="#E85E59"/>
    <rect x="111.998" y="410.496" width="13.5903" height="111.977" fill="#E85E59" stroke="#E85E59"/>
    <path d="M206.335 96.5767L206.335 346.218" stroke="#E85E59"/>
    <rect x="199.54" y="131.699" width="13.5903" height="73.7103" fill="#E85E59" stroke="#E85E59"/>
    <path d="M250.106 45.5552L250.106 249.642" stroke="#E85E59"/>
    <rect x="243.311" y="102.543" width="13.5903" height="108.332" fill="#E85E59" stroke="#E85E59"/>
    <path d="M271.991 169.465L273.111 331.641" stroke="#E85E59"/>
    <rect x="265.196" y="204.587" width="13.5903" height="113.799" fill="#E85E59" stroke="#E85E59"/>
    <path d="M293.877 318.885L293.877 484.706" stroke="#E85E59"/>
    <rect x="287.082" y="323.03" width="13.5903" height="90.1101" fill="#E85E59" stroke="#E85E59"/>
    <path d="M338.768 198.62L337.648 251.464" stroke="#E85E59"/>
    <rect x="330.852" y="230.098" width="13.5903" height="4.46662" fill="#E85E59" stroke="#E85E59"/>
    <path d="M359.533 213.198L360.653 278.797" stroke="#E85E59"/>
    <rect x="352.738" y="222.809" width="13.5902" height="42.7328" fill="#E85E59" stroke="#E85E59"/>
    <path d="M403.304 388.129L404.424 519.328" stroke="#E85E59"/>
    <rect x="396.509" y="390.451" width="13.5903" height="22.6887" fill="#E85E59" stroke="#E85E59"/>
    <path d="M448.899 335.285L450.019 397.24" stroke="#E85E59"/>
    <rect x="442.104" y="361.296" width="13.5903" height="13.5777" fill="#E85E59" stroke="#E85E59"/>
    <path d="M470.784 364.44L471.904 419.107" stroke="#E85E59"/>
    <rect x="463.989" y="366.763" width="13.5903" height="19.0442" fill="#E85E59" stroke="#E85E59"/>
    <path d="M580.211 142.132L580.211 245.997" stroke="#E85E59"/>
    <rect x="573.416" y="149.921" width="13.5902" height="84.6435" fill="#E85E59" stroke="#E85E59"/>
    <path d="M603.217 216.842L602.097 264.219" stroke="#E85E59"/>
    <rect x="595.302" y="226.453" width="13.5902" height="15.3998" fill="#E85E59" stroke="#E85E59"/>
    <path d="M691.462 0L692.582 85.6435" stroke="#E85E59"/>
    <rect x="684.667" y="31.4775" width="13.5904" height="50.0217" fill="#E85E59" stroke="#E85E59"/>
    <path d="M800.89 23.6885L802.01 287.908" stroke="#E85E59"/>
    <rect x="794.094" y="29.6553" width="13.5903" height="254.108" fill="#E85E59" stroke="#E85E59"/>
    <path d="M713.348 49.1997L714.468 134.843" stroke="#E85E59"/>
    <rect x="706.553" y="67.9214" width="13.5903" height="13.5776" fill="#E85E59" stroke="#E85E59"/>
    <path d="M868.37 89.2876L869.49 160.353" stroke="#E85E59"/>
    <rect x="861.575" y="97.0767" width="13.5903" height="13.5776" fill="#E85E59" stroke="#E85E59"/>
    <path d="M890.255 81.999L891.375 233.242" stroke="#E85E59"/>
    <rect x="883.46" y="108.01" width="13.5904" height="121.088" fill="#E85E59" stroke="#E85E59"/>
    <path d="M910.317 205.909L911.437 320.707" stroke="#E85E59"/>
    <rect x="903.522" y="230.098" width="13.5904" height="86.4657" fill="#E85E59" stroke="#E85E59"/>
    <path d="M932.203 309.774L933.323 448.262" stroke="#E85E59"/>
    <rect x="925.407" y="313.919" width="13.5903" height="104.688" fill="#E85E59" stroke="#E85E59"/>
    <path d="M977.797 337.107L978.917 462.839" stroke="#E85E59"/>
    <rect x="971.002" y="399.562" width="13.5903" height="59.1327" fill="#E85E59" stroke="#E85E59"/>
    <path d="M999.683 446.439L1000.8 572.171" stroke="#E85E59"/>
    <rect x="992.887" y="450.584" width="13.5903" height="90.1101" fill="#E85E59" stroke="#E85E59"/>
    <path d="M1044.57 499.283L1043.45 614.082" stroke="#E85E59"/>
    <rect x="1036.66" y="508.895" width="13.5903" height="28.1552" fill="#E85E59" stroke="#E85E59"/>
    <path d="M1065.34 481.062L1066.46 575.816" stroke="#E85E59"/>
    <rect x="1058.54" y="532.583" width="13.5903" height="13.5776" fill="#E85E59" stroke="#E85E59"/>
    <path d="M1109.11 450.084L1110.23 590.394" stroke="#E85E59"/>
    <rect x="1102.31" y="479.739" width="13.5903" height="95.5767" fill="#E85E59" stroke="#E85E59"/>
    <path d="M1154.7 471.95L1155.82 550.305" stroke="#E85E59"/>
    <rect x="1147.91" y="488.85" width="13.5903" height="42.7329" fill="#E85E59" stroke="#E85E59"/>
    <path d="M1174.77 519.328L1174.77 625.015" stroke="#E85E59"/>
    <rect x="1167.97" y="523.472" width="13.5903" height="60.9548" fill="#E85E59" stroke="#E85E59"/>
    <path d="M1196.65 557.594L1197.77 637.771" stroke="#E85E59"/>
    <rect x="1189.86" y="585.427" width="13.5903" height="13.5776" fill="#E85E59" stroke="#E85E59"/>
    <path d="M1242.25 481.062L1243.37 572.172" stroke="#E85E59"/>
    <rect x="1235.45" y="508.895" width="13.5905" height="28.1552" fill="#E85E59" stroke="#E85E59"/>
    <path d="M1329.79 222.309L1330.91 397.24" stroke="#E85E59"/>
    <rect x="1322.99" y="246.497" width="13.5903" height="22.6887" fill="#E85E59" stroke="#E85E59"/>
    <path d="M1373.56 185.865L1374.68 348.041" stroke="#E85E59"/>
    <rect x="1366.76" y="270.186" width="13.5903" height="66.4215" fill="#E85E59" stroke="#E85E59"/>
    <path d="M383.242 256.931L384.362 399.062" stroke="#E85E59"/>
    <rect x="376.447" y="259.253" width="13.5903" height="137.487" fill="#E85E59" stroke="#E85E59"/>
    <path d="M73.1982 424.573C73.1982 512.102 73.1983 561.176 73.1983 648.704" stroke="#54B489"/>
    <rect x="66.4031" y="556.272" width="13.5903" height="90.1101" fill="#54B489" stroke="#54B489"/>
    <path d="M95.0837 384.485C95.0837 473.437 95.0838 523.309 95.0838 612.26" stroke="#54B489"/>
    <rect x="88.2886" y="410.496" width="13.5903" height="144.776" fill="#54B489" stroke="#54B489"/>
    <path d="M138.855 362.619C138.855 445.166 138.855 491.447 138.855 573.994" stroke="#54B489"/>
    <rect x="132.06" y="410.496" width="13.5903" height="126.554" fill="#54B489" stroke="#54B489"/>
    <path d="M160.74 271.456C160.74 354.003 160.74 400.284 160.74 482.832" stroke="#54B489"/>
    <rect x="153.945" y="275.6" width="13.5903" height="137.487" fill="#54B489" stroke="#54B489"/>
    <path d="M184.449 69.2441C184.887 183.102 185.132 246.938 185.569 360.796" stroke="#54B489"/>
    <rect x="177.654" y="128.054" width="13.5903" height="153.887" fill="#54B489" stroke="#54B489"/>
    <path d="M228.22 41.9111C228.22 124.458 228.22 170.739 228.22 253.287" stroke="#54B489"/>
    <rect x="221.425" y="97.0771" width="13.5903" height="101.043" fill="#54B489" stroke="#54B489"/>
    <path d="M315.762 225.901C315.762 300.62 315.762 342.513 315.762 417.232" stroke="#54B489"/>
    <rect x="308.967" y="240.978" width="13.5903" height="172.109" fill="#54B489" stroke="#54B489"/>
    <path d="M425.189 306.13C425.627 348.827 425.872 372.766 426.309 415.462" stroke="#54B489"/>
    <rect x="418.394" y="368.585" width="13.5903" height="44.5551" fill="#54B489" stroke="#54B489"/>
    <path d="M492.67 344.396C493.107 384.959 493.352 407.7 493.79 448.262" stroke="#54B489"/>
    <rect x="485.874" y="346.719" width="13.5903" height="42.7329" fill="#54B489" stroke="#54B489"/>
    <path d="M514.555 233.189C514.992 286.561 515.238 316.484 515.675 369.855" stroke="#54B489"/>
    <rect x="507.76" y="240.978" width="13.5902" height="119.265" fill="#54B489" stroke="#54B489"/>
    <path d="M537.56 180.346C537.123 210.945 536.878 228.101 536.44 258.7" stroke="#54B489"/>
    <rect x="529.645" y="182.668" width="13.5902" height="51.8439" fill="#54B489" stroke="#54B489"/>
    <path d="M558.326 120.266C558.763 159.404 559.009 181.348 559.446 220.487" stroke="#54B489"/>
    <rect x="551.531" y="149.868" width="13.5903" height="29.9774" fill="#54B489" stroke="#54B489"/>
    <path d="M625.102 142.132C624.665 178.425 624.42 198.772 623.982 235.065" stroke="#54B489"/>
    <rect x="617.187" y="169.913" width="13.5903" height="59.1327" fill="#54B489" stroke="#54B489"/>
    <path d="M647.691 78.355C648.129 120.34 648.374 143.88 648.811 185.865" stroke="#54B489"/>
    <rect x="640.896" y="115.299" width="13.5903" height="60.9549" fill="#54B489" stroke="#54B489"/>
    <path d="M733.409 34.6221C733.847 72.3376 734.092 93.4832 734.529 131.199" stroke="#54B489"/>
    <rect x="726.614" y="75.2104" width="13.5902" height="2.64443" fill="#54B489" stroke="#54B489"/>
    <path d="M669.577 23.689C670.014 74.9252 670.26 103.651 670.697 154.888" stroke="#54B489"/>
    <rect x="662.782" y="26.0112" width="13.5903" height="88.2879" fill="#54B489" stroke="#54B489"/>
    <path d="M756.415 20.0444C755.978 49.9322 755.732 66.6891 755.295 96.5769" stroke="#54B489"/>
    <rect x="748.5" y="53.3442" width="13.5903" height="24.5109" fill="#54B489" stroke="#54B489"/>
    <path d="M844.661 60.1333C845.098 87.8862 845.343 103.446 845.781 131.199" stroke="#54B489"/>
    <rect x="837.865" y="84.3213" width="13.5903" height="22.6886" fill="#54B489" stroke="#54B489"/>
    <path d="M954.088 368.085C954.525 400.108 954.771 418.062 955.208 450.085" stroke="#54B489"/>
    <rect x="947.293" y="403.207" width="13.5903" height="19.0442" fill="#54B489" stroke="#54B489"/>
    <path d="M1021.57 457.373C1022.01 495.089 1022.25 516.234 1022.69 553.95" stroke="#54B489"/>
    <rect x="1014.77" y="512.539" width="13.5904" height="33.6218" fill="#54B489" stroke="#54B489"/>
    <path d="M1087.22 439.151C1087.66 485.406 1087.91 511.339 1088.34 557.594" stroke="#54B489"/>
    <rect x="1080.43" y="485.206" width="13.5903" height="70.0659" fill="#54B489" stroke="#54B489"/>
    <path d="M1132.82 475.595C1133.26 512.599 1133.5 533.346 1133.94 570.35" stroke="#54B489"/>
    <rect x="1126.02" y="497.961" width="13.5903" height="66.4215" fill="#54B489" stroke="#54B489"/>
    <path d="M1219.66 470.128C1219.22 522.788 1218.97 552.312 1218.54 604.971" stroke="#54B489"/>
    <rect x="1211.74" y="508.895" width="13.5903" height="75.5324" fill="#54B489" stroke="#54B489"/>
    <path d="M1265.25 420.929C1264.81 470.742 1264.57 498.67 1264.13 548.483" stroke="#54B489"/>
    <rect x="1257.34" y="465.162" width="13.5903" height="57.3105" fill="#54B489" stroke="#54B489"/>
    <path d="M1306.08 233.189C1306.52 283.714 1306.76 312.041 1307.2 362.566" stroke="#54B489"/>
    <rect x="1299.28" y="240.978" width="13.5903" height="119.265" fill="#54B489" stroke="#54B489"/>
    <path d="M1395.44 258.7C1395.88 300.685 1396.13 324.225 1396.56 366.21" stroke="#54B489"/>
    <rect x="1388.65" y="270.134" width="13.5903" height="55.4882" fill="#54B489" stroke="#54B489"/>
    <path d="M1420.27 222.256C1419.84 255.702 1419.59 274.454 1419.15 307.9" stroke="#54B489"/>
    <rect x="1412.36" y="257.378" width="13.5902" height="20.8664" fill="#54B489" stroke="#54B489"/>
    <path d="M1351.67 120.266C1352.11 199.255 1352.36 243.541 1352.79 322.53" stroke="#54B489"/>
    <rect x="1344.88" y="270.134" width="13.5903" height="2.64437" fill="#54B489" stroke="#54B489"/>
    <path d="M1284.19 353.508C1284.63 401.897 1284.88 429.028 1285.31 477.417" stroke="#54B489"/>
    <rect x="1277.4" y="355.83" width="13.5903" height="119.265" fill="#54B489" stroke="#54B489"/>
    <path d="M822.775 103.866C823.212 174.316 823.458 213.814 823.895 284.264" stroke="#54B489"/>
    <rect x="815.98" y="120.766" width="13.5903" height="157.532" fill="#54B489" stroke="#54B489"/>
    <path d="M777.18 21.8667C777.18 36.099 777.18 44.0784 777.18 58.3107" stroke="#54B489"/>
    <rect x="770.385" y="26.0112" width="13.5903" height="11.7554" fill="#54B489" stroke="#54B489"/>
    <path d="M7.54199 92.9326C7.542 171.922 7.542 216.208 7.542 295.197" stroke="#54B489"/>
    <rect x="0.746826" y="184.49" width="13.5903" height="93.7545" fill="#54B489" stroke="#54B489"/>
</svg>
