<?xml version="1.0" standalone="no"?>
<!DOCTYPE svg PUBLIC "-//W3C//DTD SVG 1.1//EN" "http://www.w3.org/Graphics/SVG/1.1/DTD/svg11.dtd">
<svg xmlns="http://www.w3.org/2000/svg"><metadata>This SVG WebFont was generated by YouWorkForThem.
Copyright Â© 2017 by Samuel Oakes. All rights reserved.</metadata><defs><font horiz-adv-x="1157" id="ywftsvg"><font-face ascent="1638" bbox="-752 -934 2214 1915" cap-height="1434" descent="-410" font-family="" font-stretch="normal" font-weight="400" panose-1="0 0 5 0 0 0 0 0 0 0" underline-position="0" underline-thickness="0" unicode-range="U+0020-2265" units-per-em="2048" x-height="1024"/><missing-glyph horiz-adv-x="1228"/><glyph glyph-name=".notdef" horiz-adv-x="1228"/><glyph glyph-name="glyph1" horiz-adv-x="1228"/><glyph glyph-name="glyph2" horiz-adv-x="681"/><glyph glyph-name="space" horiz-adv-x="573" unicode=" "/><glyph d="M119 422l-17 1114h146l-17 -1114h-112zM88 0v193h182v-193h-182z" glyph-name="exclam" horiz-adv-x="468" unicode="!"/><glyph d="M84 1266l-57 157v191h182v-191l-57 -157h-68zM401 1266l-55 157v191h182v-191l-57 -157h-70z" glyph-name="quotedbl" horiz-adv-x="602" unicode="&quot;"/><glyph d="M365 0l51 356h-283l14 121h285l70 479h-283l17 119h280l51 363h119l-49 -363h383l49 363h119l-49 -363h272l-16 -119h-273l-67 -479h270l-14 -121h-273l-55 -356h-117l52 356h-386l-49 -356h-118zM551 477h383l70 479h-386z" glyph-name="numbersign" horiz-adv-x="1536" unicode="#"/><glyph d="M672 -119v107q-209 14 -355.5 132t-160.5 322h155q20 -154 134 -239.5t298 -85.5q166 0 258.5 75.5t92.5 204.5q0 113 -81 173.5t-278 93.5q-289 47 -414.5 143t-125.5 258q0 158 131 268.5t323 112.5v98h131v-106q201 -29 314.5 -144.5t115.5 -302.5h-143 q-10 158 -111.5 241t-281.5 83q-143 0 -237.5 -72t-94.5 -176q0 -203 383 -264q287 -47 401.5 -140.5t114.5 -269.5q0 -168 -118.5 -276.5t-319.5 -126.5v-109h-131z" glyph-name="dollar" horiz-adv-x="1316" unicode="$"/><glyph d="M395.5 946q-110.5 0 -188.5 88t-78 213t78 213t188.5 88t188.5 -88t78 -213t-78 -213t-188.5 -88zM133 0l1057 1536h141l-1057 -1536h-141zM395 1063q61 0 105.5 54t44.5 130t-44 130.5t-106 54.5q-59 0 -103 -54.5t-44 -130.5t44 -130t103 -54zM1089.5 -16 q-110.5 0 -188.5 89t-78 214t78 213t188.5 88t188.5 -88t78 -213t-78 -214t-188.5 -89zM1089.5 102q61.5 0 104.5 53.5t43 131.5q0 76 -43 129t-104.5 53t-105.5 -53.5t-44 -128.5q0 -78 44 -131.5t105.5 -53.5z" glyph-name="percent" horiz-adv-x="1480" unicode="%"/><glyph d="M604 -31q-190 0 -322 110.5t-132 278.5q0 264 270 433q-162 184 -162 335q0 139 100.5 236.5t245.5 97.5q139 0 237.5 -93t98.5 -228q0 -119 -90 -224.5t-217 -156.5l364 -365l101 176h159l-157 -276l297 -293h-189l-178 182q-168 -213 -426 -213zM539 856 q113 41 190.5 120t77.5 163q0 82 -58.5 138t-142.5 56q-88 0 -148.5 -56t-60.5 -136q1 -150 142 -285zM604 106q190 0 326 177l-418 409q-227 -131 -227 -313q0 -121 91 -197t228 -76z" glyph-name="ampersand" horiz-adv-x="1521" unicode="&amp;"/><glyph d="M72 1266l-58 157v191h183v-191l-58 -157h-67z" glyph-name="quotesingle" horiz-adv-x="217" unicode="'"/><glyph d="M518 -459q-154 197 -248 473.5t-94 583.5t92 584.5t250 435.5h127q-168 -188 -258 -457.5t-90 -562.5q0 -291 96 -564.5t246 -492.5h-121z" glyph-name="parenleft" horiz-adv-x="634" unicode="("/><glyph d="M55 -459q150 219 246 492.5t96 564.5q0 293 -90 562.5t-258 457.5h127q158 -158 250 -435.5t92 -584.5t-94 -583.5t-248 -473.5h-121z" glyph-name="parenright" horiz-adv-x="675" unicode=")"/><glyph d="M199 1051l-82 49l108 153l-188 -14v96l188 -16l-108 151l82 52l82 -170l79 170l84 -52l-108 -151l188 16v-96l-188 14l108 -153l-84 -49l-79 170z" glyph-name="asterisk" horiz-adv-x="555" unicode="*"/><glyph d="M776 59v473h-432v107h432v471h103v-471h432v-107h-432v-473h-103z" glyph-name="plus" horiz-adv-x="1652" unicode="+"/><glyph d="M33 -197v88q43 2 66.5 31t19.5 78h-94v193h182l-2 -193q2 -92 -47 -144.5t-125 -52.5z" glyph-name="comma" horiz-adv-x="280" unicode=","/><glyph d="M193 612v103h716v-103h-716z" glyph-name="hyphen" horiz-adv-x="1099" unicode="-"/><glyph d="M61 0v193h183v-193h-183z" glyph-name="period" horiz-adv-x="337" unicode="."/><glyph d="M147 -410l902 1946h131l-899 -1946h-134z" glyph-name="slash" horiz-adv-x="1179" unicode="/"/><glyph d="M641 -20q-242 0 -384 197.5t-142 529.5q0 334 144 532.5t386 198.5t384 -199t142 -532q0 -332 -144 -529.5t-386 -197.5zM643 106q180 0 286.5 162t106.5 437q0 276 -107.5 440t-289.5 164q-178 0 -282.5 -162t-104.5 -436q0 -279 105.5 -442t285.5 -163z" glyph-name="zero" horiz-adv-x="1288" unicode="0"/><glyph d="M975 0h-785v121h347v1134l-330 -256v144l344 270h113v-1292h311v-121z" glyph-name="one" horiz-adv-x="1128" unicode="1"/><glyph d="M104 0v133l476 428q170 154 236.5 249t66.5 204q0 139 -86 223t-232 84q-143 0 -235 -86t-103 -231h-139q14 195 148.5 317.5t328.5 122.5q197 0 323 -122t126 -304q0 -135 -72 -247t-233 -259l-420 -383l753 2v-131h-938z" glyph-name="two" horiz-adv-x="1128" unicode="2"/><glyph d="M758 754q119 -35 206 -123t87 -238q-2 -170 -130 -288.5t-339 -118.5q-215 0 -352.5 127t-145.5 327h137q2 -145 102.5 -236t251.5 -91q158 0 251.5 85t93.5 199q0 129 -113 208t-289 79h-47v121h41q162 0 262 74.5t100 195.5q0 106 -87 175t-222 69q-141 0 -229 -83 t-98 -228h-132q10 201 138.5 320.5t333.5 119.5q188 0 308 -101.5t120 -259.5q0 -119 -73 -206.5t-175 -126.5z" glyph-name="three" horiz-adv-x="1136" unicode="3"/><glyph d="M889 0h-129v309h-707v121l670 1004h166v-1002h235v-125h-235v-307zM760 1286l-563 -854h563v854z" glyph-name="four" horiz-adv-x="1177" unicode="4"/><glyph d="M588 956q199 0 332 -134t133 -341q0 -205 -135.5 -344t-350.5 -139q-199 0 -337 131t-130 322h129q0 -147 96.5 -236.5t247.5 -89.5q158 0 253.5 103.5t95.5 250.5q2 154 -98.5 255.5t-254.5 101.5q-172 0 -288 -129h-138l119 727h684v-125h-584l-79 -465 q135 112 305 112z" glyph-name="five" horiz-adv-x="1148" unicode="5"/><glyph d="M602 -18q-229 0 -377.5 184t-148.5 539q0 387 149.5 567t376.5 178q193 0 311.5 -103.5t141.5 -261.5h-131q-27 117 -113 179.5t-209 60.5q-389 -10 -395 -608v-66q55 131 167.5 197.5t250.5 66.5q195 0 322.5 -128t127.5 -328q0 -211 -135 -343t-338 -134zM606 109 q150 0 239 100t89 250q0 143 -92 233t-235.5 90t-240 -98t-96.5 -242q0 -133 95.5 -233t240.5 -100z" glyph-name="six" horiz-adv-x="1150" unicode="6"/><glyph d="M403 0h-141l625 1309h-819v125h960v-121z" glyph-name="seven" horiz-adv-x="1093" unicode="7"/><glyph d="M569 -14q-209 0 -340 117.5t-131 285.5q0 139 75 234.5t206 138.5q-109 39 -176.5 130t-67.5 198q0 147 122 251.5t310 104.5q190 0 314.5 -104.5t124.5 -254.5q0 -106 -70 -197t-178 -128q135 -43 208.5 -138.5t73.5 -234.5q0 -168 -131 -285.5t-340 -117.5zM569 842 q129 0 213 68.5t84 172.5q0 98 -85 169t-214 71q-127 0 -211 -70.5t-84 -169.5q0 -104 83 -172.5t214 -68.5zM569 111q143 0 237.5 82.5t94.5 203.5q0 127 -93 210t-241 83q-145 0 -238 -82t-93 -209q0 -121 94 -204.5t239 -83.5z" glyph-name="eight" horiz-adv-x="1138" unicode="8"/><glyph d="M549 1450q229 2 377.5 -183.5t148.5 -537.5q0 -385 -149.5 -566t-376.5 -181q-193 2 -311.5 105t-141.5 261h131q27 -117 113 -179.5t209 -59.5q190 4 290.5 158.5t102.5 449.5l2 65q-57 -131 -168.5 -197.5t-249.5 -66.5q-195 0 -322.5 127t-127.5 328q0 213 134 345 t339 132zM542.5 1325q-147.5 0 -236.5 -100.5t-89 -251.5q0 -141 92 -231.5t235.5 -90.5t240 97.5t96.5 242.5q0 133 -95.5 233.5t-243 100.5z" glyph-name="nine" horiz-adv-x="1150" unicode="9"/><glyph d="M92 834v192h182v-192h-182zM92 0v193h182v-193h-182z" glyph-name="colon" horiz-adv-x="481" unicode=":"/><glyph d="M197 831v193h182v-193h-182zM205 -197v88q43 2 66.5 31t19.5 78h-94v193h182l-2 -193q2 -92 -47 -144.5t-125 -52.5z" glyph-name="semicolon" horiz-adv-x="604" unicode=";"/><glyph d="M1323 53l-1130 572v125l1130 567v-123l-1014 -508l1014 -504v-129z" glyph-name="less" horiz-adv-x="1513" unicode="&lt;"/><glyph d="M131 680v111h1229v-111h-1229zM131 297v111h1229v-111h-1229z" glyph-name="equal" horiz-adv-x="1488" unicode="="/><glyph d="M193 53v129l1013 504l-1013 508v123l1130 -567v-125z" glyph-name="greater" horiz-adv-x="1513" unicode=">"/><glyph d="M401 367v106q0 94 28 171t69 122t89 90t89 79t68.5 85t27.5 113q0 119 -89 200.5t-212 81.5q-115 0 -205 -76.5t-100 -195.5h-125q6 164 131 277.5t297 113.5q180 0 304 -118t124 -283q0 -84 -38 -152t-92 -117t-107.5 -98t-91.5 -118.5t-38 -155.5v-125h-129zM377 0v193 h182v-193h-182z" glyph-name="question" horiz-adv-x="1036" unicode="?"/><glyph d="M688 -18q-266 0 -440 168.5t-174 429.5q0 262 185 447t446 185q254 0 418.5 -154.5t164.5 -393.5q0 -166 -80 -272.5t-200 -106.5q-129 0 -170 102q-80 -111 -205 -111q-113 0 -181.5 74t-68.5 197q0 145 86 247.5t211 102.5q113 0 168 -80l4 68h129l-39 -340 q-4 -29 -4 -58q-4 -92 70 -92q72 0 116.5 72t44.5 195q0 201 -127 319.5t-337 118.5q-217 0 -361.5 -148.5t-144.5 -369.5q0 -217 136 -352.5t353 -135.5h492v-112h-492zM647 387q72 0 125 68.5t53 162.5q0 80 -35.5 123t-101.5 43q-74 0 -124 -68.5t-50 -168.5 q0 -76 35 -118t98 -42z" glyph-name="at" horiz-adv-x="1267" unicode="@"/><glyph d="M227 0l-153 2l547 1432h149l551 -1434h-156l-149 399h-639zM422 537h549l-275 741z" glyph-name="A" horiz-adv-x="1394" unicode="A"/><glyph d="M186 -4v1438h613q150 -4 252 -110.5t102 -260.5q0 -94 -51 -176t-137 -115q111 -43 177 -142.5t66 -238.5q0 -168 -111.5 -281.5t-277.5 -113.5h-633zM324 813h460q100 0 168 69.5t68 172.5q0 106 -68.5 181t-169.5 75h-458v-498zM324 129h460q119 0 201 77t82 189 q0 125 -82 212t-201 87h-460v-565z" glyph-name="B" horiz-adv-x="1312" unicode="B"/><glyph d="M758 -12q-281 0 -462 201.5t-181 519.5q0 328 183 531.5t470 203.5q231 0 391 -132t193 -337h-144q-33 143 -154.5 239.5t-285.5 96.5q-221 0 -362.5 -169t-141.5 -437q0 -256 139.5 -417t356.5 -161q168 0 293 96t155 240h144q-35 -209 -198 -342t-396 -133z" glyph-name="C" horiz-adv-x="1456" unicode="C"/><glyph d="M186 -4v1438l525 4q295 0 472 -195.5t177 -515.5q0 -328 -171 -527.5t-458 -199.5zM322 129l376 4q240 2 383.5 162t143.5 424q0 266 -140.5 425t-375.5 156l-387 -4v-1167z" glyph-name="D" horiz-adv-x="1474" unicode="D"/><glyph d="M186 0v1434h891v-131h-753v-512h710v-129h-710v-531h753v-131h-891z" glyph-name="E" horiz-adv-x="1171" unicode="E"/><glyph d="M186 0v1434h887v-129h-749v-517h706v-124h-706v-664h-138z" glyph-name="F" horiz-adv-x="1105" unicode="F"/><glyph d="M770 -12q-281 0 -468 202.5t-187 518.5q0 326 190.5 532.5t476.5 206.5q227 0 395.5 -134t196.5 -339h-143q-25 145 -153 244.5t-294 99.5q-223 0 -373.5 -173t-150.5 -441q0 -254 147.5 -418t368.5 -164q74 0 151 26.5t147.5 79t119.5 144.5t57 209h-440v135l573 -2 v-715l-129 -2v264q-78 -135 -210 -204.5t-275 -69.5z" glyph-name="G" horiz-adv-x="1560" unicode="G"/><glyph d="M186 0v1434h142v-643h772v643h141v-1434h-141v666h-772v-666h-142z" glyph-name="H" horiz-adv-x="1427" unicode="H"/><glyph d="M197 0v1434h137v-1434h-137z" glyph-name="I" horiz-adv-x="530" unicode="I"/><glyph d="M463 -16q-182 0 -295 111.5t-115 297.5v111h133v-109q4 -129 79 -206.5t196 -77.5q129 0 202.5 81.5t73.5 227.5v1014h137v-1016q0 -201 -112.5 -317.5t-298.5 -116.5z" glyph-name="J" horiz-adv-x="1040" unicode="J"/><glyph d="M186 0v1434h133v-738l693 738l178 2l-582 -623l592 -813h-174l-512 713l-195 -207v-506h-133z" glyph-name="K" horiz-adv-x="1243" unicode="K"/><glyph d="M186 0v1434h142v-1303h653v-131h-795z" glyph-name="L" horiz-adv-x="1044" unicode="L"/><glyph d="M186 0v1434h187l481 -1289l469 1289h184v-1434h-133v1198l-436 -1198h-174l-442 1210v-1210h-136z" glyph-name="M" horiz-adv-x="1693" unicode="M"/><glyph d="M1112 -2l-793 1231v-1229h-133v1434h162l797 -1237v1235h133v-1434h-166z" glyph-name="N" horiz-adv-x="1464" unicode="N"/><glyph d="M778 -20q-283 0 -473 214t-190 523q0 315 186 524t477 209t477.5 -210t186.5 -527q0 -309 -189.5 -521t-474.5 -212zM774 115q231 0 381 170t150 420q0 262 -147.5 437t-379 175t-377 -174t-145.5 -434q0 -250 146.5 -422t371.5 -172z" glyph-name="O" horiz-adv-x="1556" unicode="O"/><glyph d="M186 -2v1436l562 2q188 -2 303.5 -119t115.5 -303q0 -184 -118.5 -299t-313.5 -115h-413v-602h-136zM322 725h413q135 0 218 79t83 210q0 135 -83 217t-218 82h-413v-588z" glyph-name="P" horiz-adv-x="1241" unicode="P"/><glyph d="M1358 -59l-223 172q-162 -117 -371 -117q-276 0 -462.5 207t-186.5 514q0 309 185 513t463.5 204t464 -205t185.5 -516q0 -309 -184 -514l209 -164zM760 127q141 0 256 76l-193 147l86 94l207 -159q156 166 156 419.5t-146.5 426t-361.5 172.5q-217 0 -360.5 -170 t-143.5 -424q0 -248 143.5 -415t356.5 -167z" glyph-name="Q" horiz-adv-x="1552" unicode="Q"/><glyph d="M186 -2v1436l562 2q201 2 310 -100.5t109 -282.5q0 -109 -64.5 -202t-162.5 -122q111 -35 146.5 -114.5t46.5 -241.5q18 -250 32 -301q10 -35 31 -72h-154q-8 20 -14 39.5t-10 52.5t-6 54.5t-6.5 80t-6.5 95.5q0 10 -2 30q-4 68 -8 99.5t-19.5 81t-42 73t-76.5 42 t-122 18.5h-407v-668h-136zM322 788h413q131 0 217 73t86 188q0 129 -78.5 196.5t-224.5 67.5h-411z" glyph-name="R" horiz-adv-x="1337" unicode="R"/><glyph d="M676 -14q-227 0 -391 118.5t-181 337.5h156q20 -154 134 -240.5t298 -86.5q166 0 258 75.5t92 204.5q0 113 -80.5 174.5t-277.5 94.5q-287 47 -414 143t-127 256q0 162 136.5 272.5t334.5 110.5q250 0 396.5 -122t148.5 -333h-143q-10 158 -112.5 241t-280.5 83 q-143 0 -237.5 -73t-94.5 -177q0 -201 383 -262q287 -47 401.5 -141.5t114.5 -270.5q0 -184 -141.5 -294.5t-372.5 -110.5z" glyph-name="S" horiz-adv-x="1294" unicode="S"/><glyph d="M553 0v1305h-520v129h1175v-129h-518v-1305h-137z" glyph-name="T" horiz-adv-x="1241" unicode="T"/><glyph d="M708.5 -16q-245.5 0 -394 145t-148.5 397v908h137v-908q0 -193 110.5 -302t295 -109t295 109.5t110.5 301.5v908h137v-908q0 -252 -148.5 -397t-394 -145z" glyph-name="U" horiz-adv-x="1417" unicode="U"/><glyph d="M573 0l-520 1434h137l476 -1291l462 1291h144l-520 -1434h-179z" glyph-name="V" horiz-adv-x="1325" unicode="V"/><glyph d="M461 0l-398 1434h136l346 -1248l338 1248h135l344 -1248l334 1248h137l-391 -1434h-166l-326 1200l-325 -1200h-164z" glyph-name="W" horiz-adv-x="1896" unicode="W"/><glyph d="M74 0l528 717l-528 717h166l444 -605l442 605h166l-528 -717l528 -717h-166l-442 604l-444 -604h-166z" glyph-name="X" horiz-adv-x="1366" unicode="X"/><glyph d="M573 0v594l-520 840h150l440 -719l444 719h146l-520 -840v-594h-140z" glyph-name="Y" horiz-adv-x="1286" unicode="Y"/><glyph d="M115 0v131l962 1172h-950v131h1120v-131l-964 -1172h952v-131h-1120z" glyph-name="Z" horiz-adv-x="1341" unicode="Z"/><glyph d="M170 -649v2322h383v-102h-268v-2118h268v-102h-383z" glyph-name="bracketleft" horiz-adv-x="552" unicode="["/><glyph d="M1065 -492l-1045 2028h134l1042 -2028h-131z" glyph-name="backslash" horiz-adv-x="1179" unicode="\"/><glyph d="M170 -649v102h268v2118h-268v102h383v-2322h-383z" glyph-name="bracketright" horiz-adv-x="552" unicode="]"/><glyph d="M193 -98v98h1024v-98h-1024z" glyph-name="underscore" horiz-adv-x="1406" unicode="_"/><glyph d="M-84 1219l-242 247h170l213 -247h-141z" glyph-name="grave" horiz-adv-x="135" unicode="`"/><glyph d="M440 -20q-143 0 -244.5 83.5t-101.5 225t99 221.5q94 74 274 90q68 6 109.5 12t99 22.5t87.5 46.5t30 71q0 86 -70 132t-174 46q-117 0 -189.5 -56.5t-87.5 -152.5l-139 -2q16 150 127 240t285 90q180 0 281.5 -94.5t101.5 -245.5v-709h-135v152q-132 -172 -353 -172z M457 106q125 -2 230.5 79t105.5 235v149q-66 -63 -289 -80q-268 -27 -268 -196q0 -88 65.5 -137.5t155.5 -49.5z" glyph-name="a" horiz-adv-x="1073" unicode="a"/><glyph d="M647 -23q-111 0 -208 54.5t-142 138.5v-170h-131v1434h131v-594q47 86 143.5 140t212.5 54q197 0 326 -147.5t129 -381t-132 -381t-329 -147.5zM637 106q150 0 239 112t89 290q0 176 -89.5 287.5t-238.5 111.5q-156 0 -251 -115.5t-95 -295.5q0 -172 95 -281t251 -109z " glyph-name="b" horiz-adv-x="1202" unicode="b"/><glyph d="M553 -14q-199 0 -329 146.5t-130 379.5q0 240 130 386t337 146q164 0 280.5 -98t137.5 -252h-131q-20 100 -100 165t-185 65q-147 0 -237 -114t-90 -300q0 -180 89 -289.5t234 -109.5q109 0 190.5 66.5t98.5 164.5h131q-20 -156 -139 -256t-287 -100z" glyph-name="c" horiz-adv-x="1073" unicode="c"/><glyph d="M555 -23q-197 0 -329 147.5t-132 381t130 381t325 147.5q117 0 213 -54t143 -140v594h131v-1434h-131v170q-43 -84 -140 -138.5t-210 -54.5zM565 106q156 0 251 109t95 281q0 180 -95 295.5t-251 115.5q-150 0 -238.5 -111.5t-88.5 -287.5q0 -178 88.5 -290t238.5 -112z " glyph-name="d" horiz-adv-x="1202" unicode="d"/><glyph d="M563 -23q-211 0 -340 144.5t-129 382t126 385t343 147.5q211 0 332 -153.5t117 -401.5h-776v-2q0 -172 89 -274.5t242 -102.5q106 0 190.5 61.5t110.5 164.5h127q-20 -152 -140 -251.5t-292 -99.5zM242 602h624q-35 311 -307 311q-139 0 -219 -84t-98 -227z" glyph-name="e" horiz-adv-x="1105" unicode="e"/><glyph d="M174 0v903h-141v121h141v150q0 121 67.5 190.5t182.5 69.5h129v-123h-117q-129 0 -129 -150v-137h240v-121h-240v-903h-133z" glyph-name="f" horiz-adv-x="585" unicode="f"/><glyph d="M563 -424q-184 0 -304 97.5t-128 250.5h135q14 -115 103.5 -170t193.5 -55q160 0 253 92t93 277v127q-47 -92 -147 -148.5t-215 -56.5q-201 0 -327 148.5t-126 379.5q0 229 129 379t330 150q111 0 209 -55.5t147 -145.5v178h133v-956q0 -242 -131 -367t-348 -125z M565 117q156 0 251 115.5t95 295.5q0 172 -95 281t-251 109q-150 0 -238.5 -112t-88.5 -290q0 -176 88.5 -287.5t238.5 -111.5z" glyph-name="g" horiz-adv-x="1198" unicode="g"/><glyph d="M166 0v1434h133v-553q41 70 128 120t196 50q168 0 273 -113t105 -309v-629h-137v625q-2 131 -73.5 219t-184.5 88q-141 0 -223 -99.5t-84 -269.5v-563h-133z" glyph-name="h" unicode="h"/><glyph d="M156 1262v172h155v-172h-155zM166 0v1024h135v-1024h-135z" glyph-name="i" horiz-adv-x="466" unicode="i"/><glyph d="M156 1262v172h155v-172h-155zM-8 -362v129h41q59 0 96 37.5t37 113.5v1106h133v-1114q0 -129 -70.5 -200.5t-187.5 -71.5h-49z" glyph-name="j" horiz-adv-x="456" unicode="j"/><glyph d="M166 0v1434h133v-914l479 504h166l-379 -397l418 -627l-156 2l-352 520l-176 -182v-340h-133z" glyph-name="k" horiz-adv-x="1036" unicode="k"/><glyph d="M166 0v1434h135v-1434h-135z" glyph-name="l" horiz-adv-x="466" unicode="l"/><glyph d="M166 0v1024h133v-143q43 72 127 121t192 49q106 0 195.5 -53.5t140.5 -157.5q49 92 144.5 151.5t222.5 59.5q164 0 269.5 -114t105.5 -308v-629h-137v625q0 141 -71 224t-188 83q-131 0 -216 -101.5t-87 -267.5v-563h-137v625q0 141 -70.5 224t-187.5 83 q-131 0 -216 -101.5t-87 -267.5v-563h-133z" glyph-name="m" horiz-adv-x="1851" unicode="m"/><glyph d="M166 0v1024h133v-143q41 70 128 120t196 50q168 0 273 -113t105 -309v-629h-137v625q0 139 -71.5 223t-186.5 84q-131 0 -218 -101.5t-89 -267.5v-563h-133z" glyph-name="n" unicode="n"/><glyph d="M573 -10q-209 0 -344 146.5t-135 375.5q0 231 135.5 378.5t343.5 147.5q217 0 347.5 -146.5t130.5 -379.5q0 -229 -135.5 -375.5t-342.5 -146.5zM569 115q156 0 253.5 110.5t97.5 282.5q0 180 -91.5 291.5t-255.5 111.5q-154 0 -249 -111.5t-95 -287.5q0 -174 94 -285.5 t246 -111.5z" glyph-name="o" horiz-adv-x="1144" unicode="o"/><glyph d="M166 -410v1434h131v-170q45 84 142.5 138.5t207.5 54.5q197 0 329 -147.5t132 -381t-129 -381t-326 -147.5q-117 0 -213 54t-143 140v-594h-131zM637 117q150 0 239 111.5t89 287.5q0 178 -89.5 290t-238.5 112q-156 0 -251 -109t-95 -281q0 -180 95 -295.5t251 -115.5z " glyph-name="p" horiz-adv-x="1202" unicode="p"/><glyph d="M905 -410v594q-47 -86 -143 -140t-213 -54q-195 0 -325 147.5t-130 381t132 381t329 147.5q113 0 210 -54.5t140 -138.5v170h131v-1434h-131zM565 117q156 0 251 115.5t95 295.5q0 172 -95 281t-251 109q-150 0 -238.5 -112t-88.5 -290q0 -176 88.5 -287.5t238.5 -111.5z " glyph-name="q" horiz-adv-x="1202" unicode="q"/><glyph d="M166 0v1024h133v-143q25 63 104.5 115.5t227.5 43.5l10 -2v-129l-8 -2q-334 10 -334 -317v-590h-133z" glyph-name="r" horiz-adv-x="690" unicode="r"/><glyph d="M508 -23q-172 0 -294 91.5t-130 259.5h137q10 -113 92 -172.5t205 -59.5t179.5 55.5t56.5 135.5q0 76 -57.5 114.5t-188.5 61.5q-207 35 -300 106.5t-93 192.5q0 117 101 198.5t249 81.5q174 0 287.5 -89t113.5 -259h-129q-12 229 -266 230q-94 0 -158.5 -46.5 t-64.5 -115.5q0 -135 258 -176q207 -33 295 -101.5t88 -201.5q0 -131 -103.5 -218.5t-277.5 -87.5z" glyph-name="s" horiz-adv-x="972" unicode="s"/><glyph d="M416 0q-113 0 -180.5 69.5t-67.5 190.5v643h-156v121h156v291h131v-291h244v-121h-244v-631q0 -145 129 -145h119l-2 -127h-129z" glyph-name="t" horiz-adv-x="600" unicode="t"/><glyph d="M535 -27q-168 0 -273.5 113t-105.5 309v629h137v-625q2 -131 73.5 -219t184.5 -88q141 0 223 99.5t84 269.5v563h133v-1024h-133v143q-41 -70 -127.5 -120t-195.5 -50z" glyph-name="u" unicode="u"/><glyph d="M426 0l-393 1024h143l330 -874l330 874h147l-397 -1024h-160z" glyph-name="v" horiz-adv-x="1015" unicode="v"/><glyph d="M360 0l-317 1024h156l245 -877l242 877h143l246 -877l244 877h156l-316 -1024h-170l-229 825l-230 -825h-170z" glyph-name="w" horiz-adv-x="1517" unicode="w"/><glyph d="M53 0l365 512l-365 512h156l287 -401l282 401h158l-365 -512l365 -512h-156l-284 403l-287 -403h-156z" glyph-name="x" horiz-adv-x="989" unicode="x"/><glyph d="M88 -410v127h66q150 0 206 146l76 196l-403 965h153l318 -793l313 793h152l-471 -1184q-47 -123 -123 -185.5t-217 -64.5h-70z" glyph-name="y" horiz-adv-x="1001" unicode="y"/><glyph d="M94 0v123l649 778h-649v125l811 -2v-123l-645 -778h641v-123h-807z" glyph-name="z" horiz-adv-x="1019" unicode="z"/><glyph d="M496 -635q-88 0 -159 78t-71 184v486q0 154 -27.5 224.5t-125.5 119.5v108q98 49 125.5 122t27.5 220v486q0 115 68.5 187.5t159.5 72.5h51v-101q-172 0 -172 -180v-495q0 -131 -29 -217.5t-121 -149.5q92 -61 121 -148.5t29 -218.5v-501q0 -90 41 -132t131 -42v-103h-49 z" glyph-name="braceleft" horiz-adv-x="653" unicode="{"/><glyph d="M240 -307v1843h108v-1843h-108z" glyph-name="bar" horiz-adv-x="587" unicode="|"/><glyph d="M113 -635v103q172 0 172 174v501q0 131 28.5 218.5t120.5 148.5q-92 63 -120.5 149t-28.5 218v495q0 180 -172 180v101h51q88 0 157.5 -74t69.5 -186v-486q0 -150 27.5 -221.5t126.5 -120.5v-108q-98 -51 -126 -122t-28 -222v-486q0 -109 -70.5 -185.5t-158.5 -76.5h-49z " glyph-name="braceright" horiz-adv-x="653" unicode="}"/><glyph d="M203 934v190h180v-190h-180zM219 -412l17 1114h112l17 -1114h-146z" glyph-name="exclamdown" horiz-adv-x="583" unicode="¡"/><glyph d="M512 0v154q-180 18 -295 161.5t-115 362.5q0 221 114 364.5t296 163.5v158h115v-158q143 -16 242.5 -110.5t117.5 -235.5h-131q-20 100 -100 165t-185 65q-147 0 -237 -114t-90 -300q0 -180 89 -290t234 -110q109 0 191 66t98 166h131q-18 -139 -117.5 -236.5 t-242.5 -115.5v-156h-115z" glyph-name="cent" horiz-adv-x="1097" unicode="¢"/><glyph d="M1137 297q-8 -145 -93.5 -231t-216.5 -86q-98 0 -253.5 72.5t-217 72.5t-102.5 -34t-45 -95h-127q4 90 54 155.5t132 88.5q43 78 43 159q0 102 -41 254h-172v115h142q-49 160 -50 299q2 176 129 298t320 122q190 0 310 -103.5t134 -283.5h-125q-39 270 -321 270 q-135 -2 -229.5 -92t-96.5 -223q0 -37 6.5 -79t12.5 -65.5t21.5 -75t19.5 -67.5h471v-115h-436q37 -156 36 -256q0 -70 -32 -155q57 -12 199.5 -74t205.5 -62q180 0 191 191h131z" glyph-name="sterling" horiz-adv-x="1228" unicode="£"/><glyph d="M618 0v317h-425v107h425v192h-425v111h411l-514 789h154l444 -691l449 691h151l-514 -789h416v-111h-430v-192h430v-107h-430v-317h-142z" glyph-name="yen" horiz-adv-x="1357" unicode="¥"/><glyph d="M227 799v737h113v-737h-113zM227 -307v737h113v-737h-113z" glyph-name="brokenbar" horiz-adv-x="587" unicode="¦"/><glyph d="M184 1227v192h183v-192h-183zM514 1227v192h180v-192h-180z" glyph-name="dieresis" horiz-adv-x="108" unicode="¨"/><glyph d="M897 -25q-328 0 -559.5 232.5t-231.5 560.5t231.5 559.5t559.5 231.5t560.5 -231.5t232.5 -559.5t-232.5 -560.5t-560.5 -232.5zM897 66q293 0 499 204.5t206 497.5q0 291 -206 495.5t-499 204.5q-291 0 -495.5 -203.5t-204.5 -496.5t204.5 -497.5t495.5 -204.5zM893 330 q-172 0 -281.5 121.5t-109.5 314.5q0 195 110.5 319.5t284.5 124.5q139 0 238.5 -83t117.5 -209h-110q-16 82 -85 135t-159 53q-125 0 -204 -95.5t-79 -248.5q0 -143 78 -233.5t199 -90.5q94 0 163.5 52.5t86.5 134.5h110q-20 -129 -119.5 -212t-240.5 -83z" glyph-name="copyright" horiz-adv-x="1794" unicode="©"/><glyph d="M530 195l-311 376l311 377h136l-312 -377l312 -376h-136zM899 195l-311 376l311 377h137l-311 -377l311 -376h-137z" glyph-name="guillemotleft" horiz-adv-x="1253" unicode="«"/><glyph d="M193 475v94h716v-94h-716z" glyph-name="uni00AD" horiz-adv-x="1208" unicode="­"/><glyph d="M897 -23q-328 0 -559.5 231.5t-231.5 559.5t231.5 559.5t559.5 231.5t559.5 -231.5t231.5 -559.5t-231.5 -559.5t-559.5 -231.5zM897 66q293 0 499 204.5t206 497.5t-206 497.5t-499 204.5q-291 0 -496.5 -204.5t-205.5 -497.5t205.5 -497.5t496.5 -204.5zM1114 354 q-14 31 -27 189q-4 49 -5 62t-10 47t-22.5 45.5t-41 22.5t-66.5 11h-219v-373h-107v846h340q119 0 186.5 -62.5t67.5 -170.5q0 -59 -30.5 -111.5t-79.5 -79.5q49 -25 66.5 -73t25.5 -132q12 -170 41 -221h-119zM723 829h225q70 0 115 38t45 100q0 139 -160 139h-225v-277z " glyph-name="registered" horiz-adv-x="1794" unicode="®"/><glyph d="M70 1235v111h635v-111h-635z" glyph-name="macron" horiz-adv-x="137" unicode="¯"/><glyph d="M508 1008q-113 0 -194 80.5t-81 193.5q0 115 80 194.5t195 79.5q113 0 193.5 -80.5t80.5 -193.5t-80.5 -193.5t-193.5 -80.5zM508 1102q76 0 128 52t52 128t-52 128t-128 52q-78 0 -129 -51t-51 -129q0 -76 52 -128t128 -52z" glyph-name="degree" horiz-adv-x="1013" unicode="°"/><glyph d="M-186 1219h-140l213 247h168z" glyph-name="acute" horiz-adv-x="135" unicode="´"/><glyph d="M201 528v191h180v-191h-180z" glyph-name="periodcentered" horiz-adv-x="552" unicode="·"/><glyph d="M297 -532q-70 0 -137.5 36.5t-98.5 89.5l78 35q25 -33 70 -54t88 -21q51 0 85 34.5t34 87.5q0 51 -32 81t-85 32q-37 2 -92 -16l-72 49l90 178h88l-67 -139q33 6 63 6q86 -4 140.5 -56.5t54.5 -134.5q0 -88 -59.5 -148t-147.5 -60z" glyph-name="cedilla" horiz-adv-x="108" unicode="¸"/><glyph d="M217 195l311 376l-311 377h135l312 -377l-312 -376h-135zM586 195l311 376l-311 377h137l311 -377l-311 -376h-137z" glyph-name="guillemotright" horiz-adv-x="1253" unicode="»"/><glyph d="M471 932v192h182v-192h-182zM559 -410q-180 0 -304 118t-124 284q0 84 38 151.5t92 116.5t107.5 98.5t91.5 119t38 155.5v125h129v-107q0 -94 -28 -171t-69 -122t-89 -90t-89 -78.5t-68.5 -85t-27.5 -112.5q0 -119 89 -201t214 -82q115 0 205 77t98 196h125 q-6 -164 -131 -278t-297 -114z" glyph-name="questiondown" horiz-adv-x="1048" unicode="¿"/><glyph d="M670 1550l-242 248h170l213 -248h-141zM227 0l-153 2l547 1432h149l551 -1434h-156l-149 399h-639zM422 537h549l-275 741z" glyph-name="Agrave" horiz-adv-x="1394" unicode="À"/><glyph d="M756 1546h-140l213 248h170zM227 0l-153 2l547 1432h149l551 -1434h-156l-149 399h-639zM422 537h549l-275 741z" glyph-name="Aacute" horiz-adv-x="1394" unicode="Á"/><glyph d="M604 1767h178l207 -233h-153l-142 154l-139 -154h-158zM227 0l-153 2l547 1432h149l551 -1434h-156l-149 399h-639zM422 537h549l-275 741z" glyph-name="Acircumflex" horiz-adv-x="1394" unicode="Â"/><glyph d="M842 1530q-119 0 -189 110q-39 61 -96 62q-41 0 -66.5 -32t-25.5 -83q0 -27 4 -41h-107q-4 14 -4 41q0 96 54.5 157.5t138.5 61.5q121 0 190 -110q35 -61 99 -62q43 0 67.5 34t22.5 89q0 12 -4 29h106q2 -12 2 -35q4 -96 -50 -158.5t-142 -62.5zM227 0l-153 2l547 1432 h149l551 -1434h-156l-149 399h-639zM422 537h549l-275 741z" glyph-name="Atilde" horiz-adv-x="1394" unicode="Ã"/><glyph d="M438 1544v193h183v-193h-183zM768 1544v193h180v-193h-180zM227 0l-153 2l547 1432h149l551 -1434h-156l-149 399h-639zM422 537h549l-275 741z" glyph-name="Adieresis" horiz-adv-x="1394" unicode="Ä"/><glyph d="M698 1524q-82 0 -140 57t-58 137q0 82 58 139.5t140 57.5q80 0 136.5 -57.5t56.5 -139.5q2 -80 -55.5 -137t-137.5 -57zM698 1612q45 0 76 30.5t31 75.5q0 47 -31 79t-76 32t-76.5 -32t-31.5 -79q0 -45 31.5 -75.5t76.5 -30.5zM227 0l-153 2l547 1432h149l551 -1434h-156 l-149 399h-639zM422 537h549l-275 741z" glyph-name="Aring" horiz-adv-x="1394" unicode="Å"/><glyph d="M1702 1303h-754v-512h711v-129h-711v-531h754v-131h-891v408h-432l-154 -408l-151 2l542 1432h1086v-131zM422 541h389v762h-109z" glyph-name="AE" horiz-adv-x="1796" unicode="Æ"/><glyph d="M760 127q168 0 293 96t155 240h144q-35 -209 -198 -342t-396 -133h-10l-37 -78q35 6 61 6q86 -4 141.5 -56.5t55.5 -133.5q0 -88 -60.5 -148.5t-148.5 -60.5q-68 0 -136.5 36.5t-97.5 90.5l78 34q23 -33 69 -54t87 -21q51 0 86 34.5t35 88.5q0 51 -32 80.5t-85 31.5 q-47 4 -92 -16l-72 49l62 123q-244 35 -395.5 230.5t-151.5 484.5q0 328 183 531.5t470 203.5q231 0 391 -132t193 -337h-144q-33 143 -154.5 239.5t-285.5 96.5q-221 0 -362.5 -169t-141.5 -437q0 -256 139.5 -417t356.5 -161z" glyph-name="Ccedilla" horiz-adv-x="1456" unicode="Ç"/><glyph d="M604 1550l-242 248h170l213 -248h-141zM186 0v1434h891v-131h-753v-512h710v-129h-710v-531h753v-131h-891z" glyph-name="Egrave" horiz-adv-x="1171" unicode="È"/><glyph d="M688 1546h-139l213 248h170zM186 0v1434h891v-131h-753v-512h710v-129h-710v-531h753v-131h-891z" glyph-name="Eacute" horiz-adv-x="1171" unicode="É"/><glyph d="M537 1767h178l207 -233h-154l-141 154l-140 -154h-157zM186 0v1434h891v-131h-753v-512h710v-129h-710v-531h753v-131h-891z" glyph-name="Ecircumflex" horiz-adv-x="1171" unicode="Ê"/><glyph d="M371 1544v193h182v-193h-182zM700 1544v193h181v-193h-181zM186 0v1434h891v-131h-753v-512h710v-129h-710v-531h753v-131h-891z" glyph-name="Edieresis" horiz-adv-x="1171" unicode="Ë"/><glyph d="M238 1550l-242 248h170l213 -248h-141zM197 0v1434h137v-1434h-137z" glyph-name="Igrave" horiz-adv-x="530" unicode="Ì"/><glyph d="M324 1546h-140l213 248h170zM197 0v1434h137v-1434h-137z" glyph-name="Iacute" horiz-adv-x="530" unicode="Í"/><glyph d="M172 1769h178l207 -235h-154l-141 156l-139 -156h-158zM197 0v1434h137v-1434h-137z" glyph-name="Icircumflex" horiz-adv-x="528" unicode="Î"/><glyph d="M6 1544v193h182v-193h-182zM336 1544v193h180v-193h-180zM197 0v1434h137v-1434h-137z" glyph-name="Idieresis" horiz-adv-x="518" unicode="Ï"/><glyph d="M784 1438q295 0 472.5 -195.5t177.5 -515.5q0 -328 -171 -527.5t-458 -199.5l-545 -4v666h-74v124h74v648zM772 133q240 2 383 162t143 424q0 266 -140 425t-376 156l-387 -4v-510h180v-124h-180v-533z" glyph-name="Eth" horiz-adv-x="1548" unicode="Ð"/><glyph d="M879 1530q-119 0 -189 110q-39 61 -96 62q-41 0 -66.5 -32t-25.5 -83q0 -27 4 -41h-107q-4 14 -4 41q0 96 54.5 157.5t138.5 61.5q121 0 190 -110q35 -61 99 -62q43 0 67.5 34t22.5 89q0 12 -4 29h106q2 -12 2 -35q4 -96 -50 -158.5t-142 -62.5zM1112 -2l-793 1231v-1229 h-133v1434h162l797 -1237v1235h133v-1434h-166z" glyph-name="Ntilde" horiz-adv-x="1464" unicode="Ñ"/><glyph d="M750 1550l-242 248h170l213 -248h-141zM778 -20q-283 0 -473 214t-190 523q0 315 186 524t477 209t477.5 -210t186.5 -527q0 -309 -189.5 -521t-474.5 -212zM774 115q231 0 381 170t150 420q0 262 -147.5 437t-379 175t-377 -174t-145.5 -434q0 -250 146.5 -422 t371.5 -172z" glyph-name="Ograve" horiz-adv-x="1556" unicode="Ò"/><glyph d="M836 1546h-140l213 248h170zM778 -20q-283 0 -473 214t-190 523q0 315 186 524t477 209t477.5 -210t186.5 -527q0 -309 -189.5 -521t-474.5 -212zM774 115q231 0 381 170t150 420q0 262 -147.5 437t-379 175t-377 -174t-145.5 -434q0 -250 146.5 -422t371.5 -172z" glyph-name="Oacute" horiz-adv-x="1556" unicode="Ó"/><glyph d="M684 1767h178l207 -233h-154l-141 154l-139 -154h-158zM778 -20q-283 0 -473 214t-190 523q0 315 186 524t477 209t477.5 -210t186.5 -527q0 -309 -189.5 -521t-474.5 -212zM774 115q231 0 381 170t150 420q0 262 -147.5 437t-379 175t-377 -174t-145.5 -434 q0 -250 146.5 -422t371.5 -172z" glyph-name="Ocircumflex" horiz-adv-x="1556" unicode="Ô"/><glyph d="M924 1530q-119 0 -189 110q-39 61 -96 62q-41 0 -66.5 -32t-25.5 -83q0 -27 4 -41h-107q-4 14 -4 41q0 96 54.5 157.5t138.5 61.5q121 0 190 -110q35 -61 99 -62q43 0 67.5 34t22.5 89q0 12 -4 29h106q2 -12 2 -35q4 -96 -50 -158.5t-142 -62.5zM778 -20q-283 0 -473 214 t-190 523q0 315 186 524t477 209t477.5 -210t186.5 -527q0 -309 -189.5 -521t-474.5 -212zM774 115q231 0 381 170t150 420q0 262 -147.5 437t-379 175t-377 -174t-145.5 -434q0 -250 146.5 -422t371.5 -172z" glyph-name="Otilde" horiz-adv-x="1556" unicode="Õ"/><glyph d="M518 1544v193h182v-193h-182zM848 1544v193h180v-193h-180zM778 -20q-283 0 -473 214t-190 523q0 315 186 524t477 209t477.5 -210t186.5 -527q0 -309 -189.5 -521t-474.5 -212zM774 115q231 0 381 170t150 420q0 262 -147.5 437t-379 175t-377 -174t-145.5 -434 q0 -250 146.5 -422t371.5 -172z" glyph-name="Odieresis" horiz-adv-x="1556" unicode="Ö"/><glyph d="M375 141l-92 92l401 402l-401 403l92 92l401 -403l404 403l92 -92l-404 -403l404 -402l-92 -92l-404 402z" glyph-name="multiply" horiz-adv-x="1497" unicode="×"/><glyph d="M1262 1231q180 -207 180 -518q0 -309 -189.5 -521t-474.5 -212q-250 0 -430 170l-127 -150h-141l194 229q-160 205 -159 488q0 315 186 524t477 209q231 0 408 -143l106 127h142zM256 709q0 -213 109 -373l733 866q-133 115 -320 115q-231 0 -376.5 -174t-145.5 -434z M774 115q231 0 381 170t150 420q0 248 -134 419l-737 -872q141 -137 340 -137z" glyph-name="Oslash" horiz-adv-x="1579" unicode="Ø"/><glyph d="M682 1550l-242 248h170l213 -248h-141zM708.5 -16q-245.5 0 -394 145t-148.5 397v908h137v-908q0 -193 110.5 -302t295 -109t295 109.5t110.5 301.5v908h137v-908q0 -252 -148.5 -397t-394 -145z" glyph-name="Ugrave" horiz-adv-x="1417" unicode="Ù"/><glyph d="M768 1546h-139l213 248h170zM708.5 -16q-245.5 0 -394 145t-148.5 397v908h137v-908q0 -193 110.5 -302t295 -109t295 109.5t110.5 301.5v908h137v-908q0 -252 -148.5 -397t-394 -145z" glyph-name="Uacute" horiz-adv-x="1417" unicode="Ú"/><glyph d="M616 1767h179l206 -233h-153l-141 154l-140 -154h-157zM708.5 -16q-245.5 0 -394 145t-148.5 397v908h137v-908q0 -193 110.5 -302t295 -109t295 109.5t110.5 301.5v908h137v-908q0 -252 -148.5 -397t-394 -145z" glyph-name="Ucircumflex" horiz-adv-x="1417" unicode="Û"/><glyph d="M451 1544v193h182v-193h-182zM780 1544v193h181v-193h-181zM708.5 -16q-245.5 0 -394 145t-148.5 397v908h137v-908q0 -193 110.5 -302t295 -109t295 109.5t110.5 301.5v908h137v-908q0 -252 -148.5 -397t-394 -145z" glyph-name="Udieresis" horiz-adv-x="1417" unicode="Ü"/><glyph d="M700 1546h-139l213 248h170zM573 0v594l-520 840h150l440 -719l444 719h146l-520 -840v-594h-140z" glyph-name="Yacute" horiz-adv-x="1286" unicode="Ý"/><glyph d="M186 -2v1436h133v-283l429 2q188 -2 303.5 -118.5t115.5 -303.5q0 -184 -118.5 -299t-313.5 -115h-413v-319h-136zM322 442h413q135 0 218 79t83 210q0 137 -83 218t-218 81h-413v-588z" glyph-name="Thorn" horiz-adv-x="1241" unicode="Þ"/><glyph d="M485 -16l-2 127h203q141 0 232.5 74.5t91.5 193.5q0 129 -103.5 211t-288.5 82h-43v116h37q170 0 270.5 86.5t100.5 208.5q0 117 -92 182.5t-221 65.5q-160 0 -253 -91t-93 -245v-1007h-138v1007q0 213 134.5 338t361.5 125q197 0 322.5 -101.5t125.5 -266.5 q0 -121 -69.5 -212.5t-186.5 -134.5q135 -35 211 -131t76 -225q0 -178 -132 -290.5t-343 -112.5h-201z" glyph-name="germandbls" horiz-adv-x="1265" unicode="ß"/><glyph d="M512 1145l-242 248h170l213 -248h-141zM440 -20q-143 0 -244.5 83.5t-101.5 225t99 221.5q94 74 274 90q68 6 109.5 12t99 22.5t87.5 46.5t30 71q0 86 -70 132t-174 46q-117 0 -189.5 -56.5t-87.5 -152.5l-139 -2q16 150 127 240t285 90q180 0 281.5 -94.5t101.5 -245.5 v-709h-135v152q-132 -172 -353 -172zM457 106q125 -2 230.5 79t105.5 235v149q-66 -63 -289 -80q-268 -27 -268 -196q0 -88 65.5 -137.5t155.5 -49.5z" glyph-name="agrave" horiz-adv-x="1073" unicode="à"/><glyph d="M596 1141h-139l213 248h170zM440 -20q-143 0 -244.5 83.5t-101.5 225t99 221.5q94 74 274 90q68 6 109.5 12t99 22.5t87.5 46.5t30 71q0 86 -70 132t-174 46q-117 0 -189.5 -56.5t-87.5 -152.5l-139 -2q16 150 127 240t285 90q180 0 281.5 -94.5t101.5 -245.5v-709h-135 v152q-132 -172 -353 -172zM457 106q125 -2 230.5 79t105.5 235v149q-66 -63 -289 -80q-268 -27 -268 -196q0 -88 65.5 -137.5t155.5 -49.5z" glyph-name="aacute" horiz-adv-x="1073" unicode="á"/><glyph d="M444 1364h179l206 -234h-153l-141 154l-140 -154h-157zM440 -20q-143 0 -244.5 83.5t-101.5 225t99 221.5q94 74 274 90q68 6 109.5 12t99 22.5t87.5 46.5t30 71q0 86 -70 132t-174 46q-117 0 -189.5 -56.5t-87.5 -152.5l-139 -2q16 150 127 240t285 90 q180 0 281.5 -94.5t101.5 -245.5v-709h-135v152q-132 -172 -353 -172zM457 106q125 -2 230.5 79t105.5 235v149q-66 -63 -289 -80q-268 -27 -268 -196q0 -88 65.5 -137.5t155.5 -49.5z" glyph-name="acircumflex" horiz-adv-x="1073" unicode="â"/><glyph d="M684 1124q-119 0 -188 111q-39 61 -97 61q-41 0 -66.5 -31.5t-25.5 -82.5q0 -27 4 -41h-106q-4 14 -4 41q0 96 54 157.5t138 61.5q121 0 191 -111q35 -61 98 -61q43 0 67.5 33.5t22.5 89.5q0 12 -4 28h106q2 -12 3 -34q4 -96 -50.5 -159t-142.5 -63zM440 -20 q-143 0 -244.5 83.5t-101.5 225t99 221.5q94 74 274 90q68 6 109.5 12t99 22.5t87.5 46.5t30 71q0 86 -70 132t-174 46q-117 0 -189.5 -56.5t-87.5 -152.5l-139 -2q16 150 127 240t285 90q180 0 281.5 -94.5t101.5 -245.5v-709h-135v152q-132 -172 -353 -172zM457 106 q125 -2 230.5 79t105.5 235v149q-66 -63 -289 -80q-268 -27 -268 -196q0 -88 65.5 -137.5t155.5 -49.5z" glyph-name="atilde" horiz-adv-x="1073" unicode="ã"/><glyph d="M279 1141v192h182v-192h-182zM608 1141v192h180v-192h-180zM440 -20q-143 0 -244.5 83.5t-101.5 225t99 221.5q94 74 274 90q68 6 109.5 12t99 22.5t87.5 46.5t30 71q0 86 -70 132t-174 46q-117 0 -189.5 -56.5t-87.5 -152.5l-139 -2q16 150 127 240t285 90 q180 0 281.5 -94.5t101.5 -245.5v-709h-135v152q-132 -172 -353 -172zM457 106q125 -2 230.5 79t105.5 235v149q-66 -63 -289 -80q-268 -27 -268 -196q0 -88 65.5 -137.5t155.5 -49.5z" glyph-name="adieresis" horiz-adv-x="1073" unicode="ä"/><glyph d="M539 1120q-82 0 -140.5 57.5t-58.5 137.5q0 82 58.5 139t140.5 57q80 0 136 -57t56 -139q2 -80 -55 -137.5t-137 -57.5zM539 1208q45 0 75.5 31t30.5 76q0 47 -30.5 78.5t-75.5 31.5t-77 -31.5t-32 -78.5q0 -45 32 -76t77 -31zM440 -20q-143 0 -244.5 83.5t-101.5 225 t99 221.5q94 74 274 90q68 6 109.5 12t99 22.5t87.5 46.5t30 71q0 86 -70 132t-174 46q-117 0 -189.5 -56.5t-87.5 -152.5l-139 -2q16 150 127 240t285 90q180 0 281.5 -94.5t101.5 -245.5v-709h-135v152q-132 -172 -353 -172zM457 106q125 -2 230.5 79t105.5 235v149 q-66 -63 -289 -80q-268 -27 -268 -196q0 -88 65.5 -137.5t155.5 -49.5z" glyph-name="aring" horiz-adv-x="1073" unicode="å"/><glyph d="M1726 481h-776v-2q0 -172 90 -274.5t244 -102.5q104 0 188 62.5t111 163.5h127q-20 -152 -140 -251.5t-292 -99.5q-135 0 -240.5 62.5t-165.5 177.5q-33 -86 -154.5 -161.5t-275.5 -75.5q-141 0 -244.5 85t-103.5 224q0 141 99 221q94 74 274 90q68 6 109.5 12t99 22.5 t87.5 46.5t30 71q0 86 -70 132t-174 46q-117 0 -189.5 -56.5t-87.5 -152.5l-139 -2q16 150 127 240t285 90q133 0 226 -54.5t132 -148.5q129 190 375 190q211 0 331.5 -153.5t116.5 -401.5zM1274 913q-139 0 -219 -84t-99 -227h625q-35 311 -307 311zM793 420v149 q-66 -63 -289 -80q-268 -23 -268 -196q0 -88 65.5 -137.5t155.5 -49.5q125 -2 230.5 79t105.5 235z" glyph-name="ae" horiz-adv-x="1820" unicode="æ"/><glyph d="M559 111q109 0 190.5 66.5t98.5 164.5h131q-20 -154 -138 -254t-284 -102l-37 -76q35 6 64 6q86 -4 140 -56.5t54 -133.5q0 -88 -59.5 -148.5t-147.5 -60.5q-70 0 -137 36.5t-98 90.5l78 34q25 -33 69.5 -54t87.5 -21q51 0 85 34.5t34 88.5q0 51 -31.5 80.5t-85.5 31.5 q-37 2 -92 -16l-71 49l61 123q-168 29 -272.5 170t-104.5 348q0 240 130 386t337 146q164 0 280.5 -98t137.5 -252h-131q-20 100 -100 165t-185 65q-147 0 -237 -114t-90 -300q0 -180 89 -289.5t234 -109.5z" glyph-name="ccedilla" horiz-adv-x="1073" unicode="ç"/><glyph d="M528 1143l-241 248h170l213 -248h-142zM563 -23q-211 0 -340 144.5t-129 382t126 385t343 147.5q211 0 332 -153.5t117 -401.5h-776v-2q0 -172 89 -274.5t242 -102.5q106 0 190.5 61.5t110.5 164.5h127q-20 -152 -140 -251.5t-292 -99.5zM242 602h624q-35 311 -307 311 q-139 0 -219 -84t-98 -227z" glyph-name="egrave" horiz-adv-x="1105" unicode="è"/><glyph d="M612 1139h-139l213 247h170zM563 -23q-211 0 -340 144.5t-129 382t126 385t343 147.5q211 0 332 -153.5t117 -401.5h-776v-2q0 -172 89 -274.5t242 -102.5q106 0 190.5 61.5t110.5 164.5h127q-20 -152 -140 -251.5t-292 -99.5zM242 602h624q-35 311 -307 311 q-139 0 -219 -84t-98 -227z" glyph-name="eacute" horiz-adv-x="1105" unicode="é"/><glyph d="M461 1362h178l207 -234h-154l-141 154l-139 -154h-158zM563 -23q-211 0 -340 144.5t-129 382t126 385t343 147.5q211 0 332 -153.5t117 -401.5h-776v-2q0 -172 89 -274.5t242 -102.5q106 0 190.5 61.5t110.5 164.5h127q-20 -152 -140 -251.5t-292 -99.5zM242 602h624 q-35 311 -307 311q-139 0 -219 -84t-98 -227z" glyph-name="ecircumflex" horiz-adv-x="1105" unicode="ê"/><glyph d="M295 1139v192h182v-192h-182zM625 1139v192h180v-192h-180zM563 -23q-211 0 -340 144.5t-129 382t126 385t343 147.5q211 0 332 -153.5t117 -401.5h-776v-2q0 -172 89 -274.5t242 -102.5q106 0 190.5 61.5t110.5 164.5h127q-20 -152 -140 -251.5t-292 -99.5zM242 602h624 q-35 311 -307 311q-139 0 -219 -84t-98 -227z" glyph-name="edieresis" horiz-adv-x="1105" unicode="ë"/><glyph d="M227 1141l-243 245h170l213 -245h-140zM184 0v1024h138v-1024h-138z" glyph-name="igrave" horiz-adv-x="456" unicode="ì"/><glyph d="M258 1137h-139l213 247h170zM131 0v1024h135v-1024h-135z" glyph-name="iacute" horiz-adv-x="489" unicode="í"/><glyph d="M145 1360h179l208 -236h-155l-141 156l-140 -156h-157zM172 0v1024h135v-1024h-135z" glyph-name="icircumflex" horiz-adv-x="495" unicode="î"/><glyph d="M-35 1135v192h182v-192h-182zM295 1135v192h182v-192h-182zM158 0v1024h135v-1024h-135z" glyph-name="idieresis" horiz-adv-x="464" unicode="ï"/><glyph d="M1184 1255v-112h-148v-1143h-131v170q-43 -84 -140 -138.5t-210 -54.5q-197 0 -329 147.5t-132 381t130 381t325 147.5q117 0 213 -54t143 -140v303h-203v112h203v179h131v-179h148zM565 106q156 0 251 109t95 281q0 180 -95 295.5t-251 115.5q-150 0 -238.5 -111.5 t-88.5 -287.5q0 -178 88.5 -290t238.5 -112z" glyph-name="eth" horiz-adv-x="1349" unicode="ð"/><glyph d="M727 1124q-119 0 -188 111q-39 61 -97 61q-41 0 -66.5 -31.5t-25.5 -82.5q0 -27 4 -41h-106q-4 14 -4 41q0 96 54 157.5t138 61.5q121 0 191 -111q35 -61 98 -61q43 0 67.5 33.5t22.5 89.5q0 12 -4 28h107q2 -12 2 -34q4 -96 -50.5 -159t-142.5 -63zM166 0v1024h133v-143 q41 70 128 120t196 50q168 0 273 -113t105 -309v-629h-137v625q0 139 -71.5 223t-186.5 84q-131 0 -218 -101.5t-89 -267.5v-563h-133z" glyph-name="ntilde" unicode="ñ"/><glyph d="M545 1141l-242 248h170l213 -248h-141zM573 -10q-209 0 -344 146.5t-135 375.5q0 231 135.5 378.5t343.5 147.5q217 0 347.5 -146.5t130.5 -379.5q0 -229 -135.5 -375.5t-342.5 -146.5zM569 115q156 0 253.5 110.5t97.5 282.5q0 180 -91.5 291.5t-255.5 111.5 q-154 0 -249 -111.5t-95 -287.5q0 -174 94 -285.5t246 -111.5z" glyph-name="ograve" horiz-adv-x="1144" unicode="ò"/><glyph d="M631 1137h-139l213 247h169zM573 -10q-209 0 -344 146.5t-135 375.5q0 231 135.5 378.5t343.5 147.5q217 0 347.5 -146.5t130.5 -379.5q0 -229 -135.5 -375.5t-342.5 -146.5zM569 115q156 0 253.5 110.5t97.5 282.5q0 180 -91.5 291.5t-255.5 111.5q-154 0 -249 -111.5 t-95 -287.5q0 -174 94 -285.5t246 -111.5z" glyph-name="oacute" horiz-adv-x="1144" unicode="ó"/><glyph d="M479 1358h178l207 -234h-153l-142 154l-139 -154h-158zM573 -10q-209 0 -344 146.5t-135 375.5q0 231 135.5 378.5t343.5 147.5q217 0 347.5 -146.5t130.5 -379.5q0 -229 -135.5 -375.5t-342.5 -146.5zM569 115q156 0 253.5 110.5t97.5 282.5q0 180 -91.5 291.5 t-255.5 111.5q-154 0 -249 -111.5t-95 -287.5q0 -174 94 -285.5t246 -111.5z" glyph-name="ocircumflex" horiz-adv-x="1144" unicode="ô"/><glyph d="M719 1120q-119 0 -189 111q-39 61 -96 61q-41 0 -66.5 -31.5t-25.5 -82.5q0 -27 4 -41h-106q-4 14 -4 41q0 96 54 157.5t138 61.5q121 0 190 -111q35 -61 99 -61q43 0 67.5 33.5t22.5 89.5q0 12 -4 28h106q2 -12 2 -35q4 -96 -50 -158.5t-142 -62.5zM573 -10 q-209 0 -344 146.5t-135 375.5q0 231 135.5 378.5t343.5 147.5q217 0 347.5 -146.5t130.5 -379.5q0 -229 -135.5 -375.5t-342.5 -146.5zM569 115q156 0 253.5 110.5t97.5 282.5q0 180 -91.5 291.5t-255.5 111.5q-154 0 -249 -111.5t-95 -287.5q0 -174 94 -285.5t246 -111.5z " glyph-name="otilde" horiz-adv-x="1144" unicode="õ"/><glyph d="M313 1135v192h183v-192h-183zM643 1135v192h180v-192h-180zM573 -10q-209 0 -344 146.5t-135 375.5q0 231 135.5 378.5t343.5 147.5q217 0 347.5 -146.5t130.5 -379.5q0 -229 -135.5 -375.5t-342.5 -146.5zM569 115q156 0 253.5 110.5t97.5 282.5q0 180 -91.5 291.5 t-255.5 111.5q-154 0 -249 -111.5t-95 -287.5q0 -174 94 -285.5t246 -111.5z" glyph-name="odieresis" horiz-adv-x="1144" unicode="ö"/><glyph d="M653 850v192h183v-192h-183zM229 532v113h1039v-113h-1039zM653 129v190h183v-190h-183z" glyph-name="divide" horiz-adv-x="1488" unicode="÷"/><glyph d="M1085 1024l-143 -158q109 -143 109 -354q0 -229 -135.5 -375.5t-342.5 -146.5q-184 0 -313 116l-96 -106h-123l158 174q-104 143 -105 338q0 231 135.5 378.5t343.5 147.5q182 0 308 -106l82 92h122zM229 512q0 -137 60 -238l504 562q-86 76 -220 75q-154 0 -249 -111.5 t-95 -287.5zM920 508q0 156 -66 258l-508 -563q92 -88 223 -88q156 0 253.5 110.5t97.5 282.5z" glyph-name="oslash" horiz-adv-x="1175" unicode="ø"/><glyph d="M551 1141l-242 248h170l213 -248h-141zM535 -27q-168 0 -273.5 113t-105.5 309v629h137v-625q2 -131 73.5 -219t184.5 -88q141 0 223 99.5t84 269.5v563h133v-1024h-133v143q-41 -70 -127.5 -120t-195.5 -50z" glyph-name="ugrave" unicode="ù"/><glyph d="M637 1137h-139l213 247h170zM535 -27q-168 0 -273.5 113t-105.5 309v629h137v-625q2 -131 73.5 -219t184.5 -88q141 0 223 99.5t84 269.5v563h133v-1024h-133v143q-41 -70 -127.5 -120t-195.5 -50z" glyph-name="uacute" unicode="ú"/><glyph d="M485 1358h179l206 -234h-153l-142 154l-139 -154h-157zM535 -27q-168 0 -273.5 113t-105.5 309v629h137v-625q2 -131 73.5 -219t184.5 -88q141 0 223 99.5t84 269.5v563h133v-1024h-133v143q-41 -70 -127.5 -120t-195.5 -50z" glyph-name="ucircumflex" unicode="û"/><glyph d="M317 1135v192h183v-192h-183zM647 1135v192h180v-192h-180zM535 -27q-168 0 -273.5 113t-105.5 309v629h137v-625q2 -131 73.5 -219t184.5 -88q141 0 223 99.5t84 269.5v563h133v-1024h-133v143q-41 -70 -127.5 -120t-195.5 -50z" glyph-name="udieresis" unicode="ü"/><glyph d="M559 1137h-139l213 247h170zM88 -410v127h66q150 0 206 146l76 196l-403 965h153l318 -793l313 793h152l-471 -1184q-47 -123 -123 -185.5t-217 -64.5h-70z" glyph-name="yacute" horiz-adv-x="1001" unicode="ý"/><glyph d="M123 -309v1679h131v-516q45 84 142.5 138.5t207.5 54.5q197 0 329 -147.5t132 -381t-129 -381t-326 -147.5q-115 0 -211 54t-145 140v-493h-131zM596 117q147 0 237.5 111.5t90.5 287.5t-90.5 289t-237.5 113q-158 0 -253 -109t-95 -281q0 -180 96 -295.5t252 -115.5z " glyph-name="thorn" horiz-adv-x="1140" unicode="þ"/><glyph d="M242 1135v192h182v-192h-182zM571 1135v192h181v-192h-181zM88 -410v127h66q150 0 206 146l76 196l-403 965h153l318 -793l313 793h152l-471 -1184q-47 -123 -123 -185.5t-217 -64.5h-70z" glyph-name="ydieresis" horiz-adv-x="1001" unicode="ÿ"/><glyph d="M387 1577v111h635v-111h-635zM227 0l-153 2l547 1432h149l551 -1434h-156l-149 399h-639zM422 537h549l-275 741z" glyph-name="Amacron" horiz-adv-x="1394" unicode="Ā"/><glyph d="M227 1174v110h635v-110h-635zM440 -20q-143 0 -244.5 83.5t-101.5 225t99 221.5q94 74 274 90q68 6 109.5 12t99 22.5t87.5 46.5t30 71q0 86 -70 132t-174 46q-117 0 -189.5 -56.5t-87.5 -152.5l-139 -2q16 150 127 240t285 90q180 0 281.5 -94.5t101.5 -245.5v-709h-135 v152q-132 -172 -353 -172zM457 106q125 -2 230.5 79t105.5 235v149q-66 -63 -289 -80q-268 -27 -268 -196q0 -88 65.5 -137.5t155.5 -49.5z" glyph-name="amacron" horiz-adv-x="1073" unicode="ā"/><glyph d="M698.5 1540q-149.5 0 -243 88t-95.5 230h107q2 -94 62.5 -158t168.5 -64q111 0 171.5 63.5t62.5 158.5h104q0 -139 -94 -228.5t-243.5 -89.5zM227 0l-153 2l547 1432h149l551 -1434h-156l-149 399h-639zM422 537h549l-275 741z" glyph-name="Abreve" horiz-adv-x="1394" unicode="Ă"/><glyph d="M540.5 1135q-149.5 0 -242.5 88t-95 229h106q2 -94 62.5 -157.5t169.5 -63.5q111 0 171 63.5t62 157.5h105q0 -139 -94.5 -228t-244 -89zM440 -20q-143 0 -244.5 83.5t-101.5 225t99 221.5q94 74 274 90q68 6 109.5 12t99 22.5t87.5 46.5t30 71q0 86 -70 132t-174 46 q-117 0 -189.5 -56.5t-87.5 -152.5l-139 -2q16 150 127 240t285 90q180 0 281.5 -94.5t101.5 -245.5v-709h-135v152q-132 -172 -353 -172zM457 106q125 -2 230.5 79t105.5 235v149q-66 -63 -289 -80q-268 -27 -268 -196q0 -88 65.5 -137.5t155.5 -49.5z" glyph-name="abreve" horiz-adv-x="1073" unicode="ă"/><glyph d="M1395 -346l57 -82q-111 -109 -272 -104q-106 2 -170 59t-64 156q0 186 230 317h-11l-149 399h-639l-150 -399l-153 2l547 1432h149l549 -1430l12 -4q-104 -31 -186 -119t-82 -184q0 -61 36 -98t101 -37q119 0 195 92zM422 537h549l-275 741z" glyph-name="Aogonek" horiz-adv-x="1228" unicode="Ą"/><glyph d="M995 -346l56 -82q-111 -109 -271 -104q-106 2 -169.5 59t-63.5 156q0 182 246 321v148q-131 -172 -353 -172q-143 0 -244.5 83.5t-101.5 225t99 221.5q94 74 274 90q68 6 109.5 12t99 22.5t87.5 46.5t30 71q0 86 -70 132t-174 46q-117 0 -189.5 -56.5t-87.5 -152.5 l-139 -2q16 150 127 240t285 90q180 0 281.5 -94.5t101.5 -245.5v-709h2q-104 -31 -185 -119t-81 -184q0 -61 35.5 -98t101.5 -37q118 0 194 92zM457 106q125 -2 230.5 79t105.5 235v149q-66 -63 -289 -80q-268 -27 -268 -196q0 -88 65.5 -137.5t155.5 -49.5z" glyph-name="aogonek" horiz-adv-x="1073" unicode="ą"/><glyph d="M793 1548h-140l213 248h170zM758 -12q-281 0 -462 201.5t-181 519.5q0 328 183 531.5t470 203.5q231 0 391 -132t193 -337h-144q-33 143 -154.5 239.5t-285.5 96.5q-221 0 -362.5 -169t-141.5 -437q0 -256 139.5 -417t356.5 -161q168 0 293 96t155 240h144 q-35 -209 -198 -342t-396 -133z" glyph-name="Cacute" horiz-adv-x="1456" unicode="Ć"/><glyph d="M594 1137h-139l213 247h170zM553 -14q-199 0 -329 146.5t-130 379.5q0 240 130 386t337 146q164 0 280.5 -98t137.5 -252h-131q-20 100 -100 165t-185 65q-147 0 -237 -114t-90 -300q0 -180 89 -289.5t234 -109.5q109 0 190.5 66.5t98.5 164.5h131q-20 -156 -139 -256 t-287 -100z" glyph-name="cacute" horiz-adv-x="1073" unicode="ć"/><glyph d="M641 1772h178l207 -234h-154l-141 154l-139 -154h-158zM758 -12q-281 0 -462 201.5t-181 519.5q0 328 183 531.5t470 203.5q231 0 391 -132t193 -337h-144q-33 143 -154.5 239.5t-285.5 96.5q-221 0 -362.5 -169t-141.5 -437q0 -256 139.5 -417t356.5 -161q168 0 293 96 t155 240h144q-35 -209 -198 -342t-396 -133z" glyph-name="Ccircumflex" horiz-adv-x="1456" unicode="Ĉ"/><glyph d="M442 1358h179l206 -234h-153l-142 154l-139 -154h-157zM553 -14q-199 0 -329 146.5t-130 379.5q0 240 130 386t337 146q164 0 280.5 -98t137.5 -252h-131q-20 100 -100 165t-185 65q-147 0 -237 -114t-90 -300q0 -180 89 -289.5t234 -109.5q109 0 190.5 66.5t98.5 164.5 h131q-20 -156 -139 -256t-287 -100z" glyph-name="ccircumflex" horiz-adv-x="1073" unicode="ĉ"/><glyph d="M639 1569v192h182v-192h-182zM758 -12q-281 0 -462 201.5t-181 519.5q0 328 183 531.5t470 203.5q231 0 391 -132t193 -337h-144q-33 143 -154.5 239.5t-285.5 96.5q-221 0 -362.5 -169t-141.5 -437q0 -256 139.5 -417t356.5 -161q168 0 293 96t155 240h144 q-35 -209 -198 -342t-396 -133z" glyph-name="Cdotaccent" horiz-adv-x="1456" unicode="Ċ"/><glyph d="M440 1157v193h183v-193h-183zM553 -14q-199 0 -329 146.5t-130 379.5q0 240 130 386t337 146q164 0 280.5 -98t137.5 -252h-131q-20 100 -100 165t-185 65q-147 0 -237 -114t-90 -300q0 -180 89 -289.5t234 -109.5q109 0 190.5 66.5t98.5 164.5h131q-20 -156 -139 -256 t-287 -100z" glyph-name="cdotaccent" horiz-adv-x="1073" unicode="ċ"/><glyph d="M432 1767h156l141 -153l143 153h152l-207 -233h-178zM758 -12q-281 0 -462 201.5t-181 519.5q0 328 183 531.5t470 203.5q231 0 391 -132t193 -337h-144q-33 143 -154.5 239.5t-285.5 96.5q-221 0 -362.5 -169t-141.5 -437q0 -256 139.5 -417t356.5 -161q168 0 293 96 t155 240h144q-35 -209 -198 -342t-396 -133z" glyph-name="Ccaron" horiz-adv-x="1456" unicode="Č"/><glyph d="M236 1356h155l141 -154l144 154h151l-206 -234h-179zM553 -14q-199 0 -329 146.5t-130 379.5q0 240 130 386t337 146q164 0 280.5 -98t137.5 -252h-131q-20 100 -100 165t-185 65q-147 0 -237 -114t-90 -300q0 -180 89 -289.5t234 -109.5q109 0 190.5 66.5t98.5 164.5 h131q-20 -156 -139 -256t-287 -100z" glyph-name="ccaron" horiz-adv-x="1073" unicode="č"/><glyph d="M436 1765h156l141 -153l144 153h151l-207 -233h-178zM186 -4v1438l525 4q295 0 472 -195.5t177 -515.5q0 -328 -171 -527.5t-458 -199.5zM322 129l376 4q240 2 383.5 162t143.5 424q0 266 -140.5 425t-375.5 156l-387 -4v-1167z" glyph-name="Dcaron" horiz-adv-x="1474" unicode="Ď"/><glyph d="M555 -23q-197 0 -329 147.5t-132 381t130 381t325 147.5q117 0 213 -54t143 -140v594h131v-1434h-131v170q-43 -84 -140 -138.5t-210 -54.5zM219 1434h156l141 -154l143 154h152l-207 -234h-178zM565 106q156 0 251 109t95 281q0 180 -95 295.5t-251 115.5 q-150 0 -238.5 -111.5t-88.5 -287.5q0 -178 88.5 -290t238.5 -112z" glyph-name="dcaron" horiz-adv-x="1202" unicode="ď"/><glyph d="M795 1438q295 0 472 -195.5t177 -515.5q0 -328 -171 -527.5t-458 -199.5l-545 -4v663h-123v121h123v654zM782 133q240 2 383.5 162t143.5 424q0 266 -140.5 425t-375.5 156l-387 -4v-516h354v-121h-354v-530z" glyph-name="Dcroat" horiz-adv-x="1622" unicode="Đ"/><glyph d="M319 1577v111h635v-111h-635zM186 0v1434h891v-131h-753v-512h710v-129h-710v-531h753v-131h-891z" glyph-name="Emacron" horiz-adv-x="1171" unicode="Ē"/><glyph d="M244 1171v111h635v-111h-635zM563 -23q-211 0 -340 144.5t-129 382t126 385t343 147.5q211 0 332 -153.5t117 -401.5h-776v-2q0 -172 89 -274.5t242 -102.5q106 0 190.5 61.5t110.5 164.5h127q-20 -152 -140 -251.5t-292 -99.5zM242 602h624q-35 311 -307 311 q-139 0 -219 -84t-98 -227z" glyph-name="emacron" horiz-adv-x="1105" unicode="ē"/><glyph d="M632.5 1540q-149.5 0 -242.5 88t-95 230h106q2 -94 62.5 -158t169.5 -64q111 0 171 63.5t62 158.5h105q0 -139 -94.5 -228.5t-244 -89.5zM186 0v1434h891v-131h-753v-512h710v-129h-710v-531h753v-131h-891z" glyph-name="Ebreve" horiz-adv-x="1171" unicode="Ĕ"/><glyph d="M557.5 1133q-149.5 0 -243 88t-95.5 229h107q2 -94 62.5 -157.5t168.5 -63.5q111 0 171 63.5t63 157.5h104q0 -139 -94 -228t-243.5 -89zM563 -23q-211 0 -340 144.5t-129 382t126 385t343 147.5q211 0 332 -153.5t117 -401.5h-776v-2q0 -172 89 -274.5t242 -102.5 q106 0 190.5 61.5t110.5 164.5h127q-20 -152 -140 -251.5t-292 -99.5zM242 602h624q-35 311 -307 311q-139 0 -219 -84t-98 -227z" glyph-name="ebreve" horiz-adv-x="1105" unicode="ĕ"/><glyph d="M535 1567v192h182v-192h-182zM186 0v1434h891v-131h-753v-512h710v-129h-710v-531h753v-131h-891z" glyph-name="Edotaccent" horiz-adv-x="1171" unicode="Ė"/><glyph d="M459 1159v193h182v-193h-182zM563 -23q-211 0 -340 144.5t-129 382t126 385t343 147.5q211 0 332 -153.5t117 -401.5h-776v-2q0 -172 89 -274.5t242 -102.5q106 0 190.5 61.5t110.5 164.5h127q-20 -152 -140 -251.5t-292 -99.5zM242 602h624q-35 311 -307 311 q-139 0 -219 -84t-98 -227z" glyph-name="edotaccent" horiz-adv-x="1105" unicode="ė"/><glyph d="M1141 -344l55 -82q-111 -109 -270 -104q-106 2 -170 59t-64 156q0 180 236 315h-742v1434h891v-131h-753v-512h710v-129h-710v-531h753v-131h-8q-102 -33 -181 -119t-79 -182q0 -61 36 -98t101 -37q119 0 195 92z" glyph-name="Eogonek" horiz-adv-x="1171" unicode="Ę"/><glyph d="M1012 481h-776v-2q0 -172 89 -274.5t242 -102.5q106 0 190.5 61.5t110.5 164.5h127q-18 -137 -118.5 -232.5t-247.5 -113.5q-100 -35 -177 -120t-77 -179q0 -61 35.5 -98.5t101.5 -37.5q119 0 195 93l55 -82q-111 -109 -270 -105q-106 2 -170 59.5t-64 155.5 q0 178 234 314q-180 25 -289 165t-109 357q0 238 126 385t343 147q211 0 332 -153.5t117 -401.5zM559 913q-139 0 -219 -84t-98 -227h624q-35 311 -307 311z" glyph-name="eogonek" horiz-adv-x="1105" unicode="ę"/><glyph d="M330 1765h155l142 -153l143 153h152l-207 -233h-178zM186 0v1434h891v-131h-753v-512h710v-129h-710v-531h753v-131h-891z" glyph-name="Ecaron" horiz-adv-x="1171" unicode="Ě"/><glyph d="M254 1358h156l141 -154l143 154h152l-207 -234h-178zM563 -23q-211 0 -340 144.5t-129 382t126 385t343 147.5q211 0 332 -153.5t117 -401.5h-776v-2q0 -172 89 -274.5t242 -102.5q106 0 190.5 61.5t110.5 164.5h127q-20 -152 -140 -251.5t-292 -99.5zM242 602h624 q-35 311 -307 311q-139 0 -219 -84t-98 -227z" glyph-name="ecaron" horiz-adv-x="1105" unicode="ě"/><glyph d="M686 1767h178l207 -233h-153l-142 154l-139 -154h-158zM770 -12q-281 0 -468 202.5t-187 518.5q0 326 190.5 532.5t476.5 206.5q227 0 395.5 -134t196.5 -339h-143q-25 145 -153 244.5t-294 99.5q-223 0 -373.5 -173t-150.5 -441q0 -254 147.5 -418t368.5 -164 q74 0 151 26.5t147.5 79t119.5 144.5t57 209h-440v135l573 -2v-715l-129 -2v264q-78 -135 -210 -204.5t-275 -69.5z" glyph-name="Gcircumflex" horiz-adv-x="1560" unicode="Ĝ"/><glyph d="M496 1374h178l207 -233h-154l-141 153l-140 -153h-157zM563 -424q-184 0 -304 97.5t-128 250.5h135q14 -115 103.5 -170t193.5 -55q160 0 253 92t93 277v127q-47 -92 -147 -148.5t-215 -56.5q-201 0 -327 148.5t-126 379.5q0 229 129 379t330 150q111 0 209 -55.5 t147 -145.5v178h133v-956q0 -242 -131 -367t-348 -125zM565 117q156 0 251 115.5t95 295.5q0 172 -95 281t-251 109q-150 0 -238.5 -112t-88.5 -290q0 -176 88.5 -287.5t238.5 -111.5z" glyph-name="gcircumflex" horiz-adv-x="1198" unicode="ĝ"/><glyph d="M782.5 1540q-149.5 0 -243 88t-95.5 230h107q2 -94 62.5 -158t168.5 -64q111 0 171.5 63.5t62.5 158.5h104q0 -139 -94 -228.5t-243.5 -89.5zM770 -12q-281 0 -468 202.5t-187 518.5q0 326 190.5 532.5t476.5 206.5q227 0 395.5 -134t196.5 -339h-143q-25 145 -153 244.5 t-294 99.5q-223 0 -373.5 -173t-150.5 -441q0 -254 147.5 -418t368.5 -164q74 0 151 26.5t147.5 79t119.5 144.5t57 209h-440v135l573 -2v-715l-129 -2v264q-78 -135 -210 -204.5t-275 -69.5z" glyph-name="Gbreve" horiz-adv-x="1560" unicode="Ğ"/><glyph d="M589.5 1145q-149.5 0 -242.5 88t-95 229h106q2 -94 62.5 -157.5t169.5 -63.5q111 0 171 63.5t62 157.5h105q0 -139 -94.5 -228t-244 -89zM563 -424q-184 0 -304 97.5t-128 250.5h135q14 -115 103.5 -170t193.5 -55q160 0 253 92t93 277v127q-47 -92 -147 -148.5 t-215 -56.5q-201 0 -327 148.5t-126 379.5q0 229 129 379t330 150q111 0 209 -55.5t147 -145.5v178h133v-956q0 -242 -131 -367t-348 -125zM565 117q156 0 251 115.5t95 295.5q0 172 -95 281t-251 109q-150 0 -238.5 -112t-88.5 -290q0 -176 88.5 -287.5t238.5 -111.5z" glyph-name="gbreve" horiz-adv-x="1198" unicode="ğ"/><glyph d="M684 1567v192h182v-192h-182zM770 -12q-281 0 -468 202.5t-187 518.5q0 326 190.5 532.5t476.5 206.5q227 0 395.5 -134t196.5 -339h-143q-25 145 -153 244.5t-294 99.5q-223 0 -373.5 -173t-150.5 -441q0 -254 147.5 -418t368.5 -164q74 0 151 26.5t147.5 79 t119.5 144.5t57 209h-440v135l573 -2v-715l-129 -2v264q-78 -135 -210 -204.5t-275 -69.5z" glyph-name="Gdotaccent" horiz-adv-x="1560" unicode="Ġ"/><glyph d="M494 1171v193h182v-193h-182zM563 -424q-184 0 -304 97.5t-128 250.5h135q14 -115 103.5 -170t193.5 -55q160 0 253 92t93 277v127q-47 -92 -147 -148.5t-215 -56.5q-201 0 -327 148.5t-126 379.5q0 229 129 379t330 150q111 0 209 -55.5t147 -145.5v178h133v-956 q0 -242 -131 -367t-348 -125zM565 117q156 0 251 115.5t95 295.5q0 172 -95 281t-251 109q-150 0 -238.5 -112t-88.5 -290q0 -176 88.5 -287.5t238.5 -111.5z" glyph-name="gdotaccent" horiz-adv-x="1198" unicode="ġ"/><glyph d="M770 -12q-281 0 -468 202.5t-187 518.5q0 326 190.5 532.5t476.5 206.5q227 0 395.5 -134t196.5 -339h-143q-25 145 -153 244.5t-294 99.5q-223 0 -373.5 -173t-150.5 -441q0 -254 147.5 -418t368.5 -164q74 0 151 26.5t147.5 79t119.5 144.5t57 209h-440v135l573 -2 v-715l-129 -2v264q-78 -135 -210 -204.5t-275 -69.5zM698 -524v88q43 2 66.5 30.5t21.5 77.5h-96v193h182v-193q2 -92 -47 -144t-127 -52z" glyph-name="Gcommaaccent" horiz-adv-x="1560" unicode="Ģ"/><glyph d="M563 -424q-184 0 -304 97.5t-128 250.5h135q14 -115 103.5 -170t193.5 -55q160 0 253 92t93 277v127q-47 -92 -147 -148.5t-215 -56.5q-201 0 -327 148.5t-126 379.5q0 229 129 379t330 150q111 0 209 -55.5t147 -145.5v178h133v-956q0 -242 -131 -367t-348 -125z M565 117q156 0 251 115.5t95 295.5q0 172 -95 281t-251 109q-150 0 -238.5 -112t-88.5 -290q0 -176 88.5 -287.5t238.5 -111.5zM516 -934v88q43 2 66.5 31t21.5 78h-96v192h182v-192q2 -92 -47 -144.5t-127 -52.5z" glyph-name="gcommaaccent" horiz-adv-x="1198" unicode="ģ"/><glyph d="M621 1767h178l207 -233h-154l-141 154l-140 -154h-157zM186 0v1434h142v-643h772v643h141v-1434h-141v666h-772v-666h-142z" glyph-name="Hcircumflex" horiz-adv-x="1427" unicode="Ĥ"/><glyph d="M559 1561h178l207 -234h-153l-142 154l-139 -154h-158zM166 0v1434h133v-553q41 70 128 120t196 50q168 0 273 -113t105 -309v-629h-137v625q-2 131 -73.5 219t-184.5 88q-141 0 -223 -99.5t-84 -269.5v-563h-133z" glyph-name="hcircumflex" unicode="ĥ"/><glyph d="M1333 1214v-127h-92v-1087h-141v666h-772v-666h-142v1087h-90v127h90v220h142v-220h772v220h141v-220h92zM1100 791v296h-772v-296h772z" glyph-name="Hbar" horiz-adv-x="1540" unicode="Ħ"/><glyph d="M760 1051q168 0 273.5 -113t105.5 -309v-629h-138v625q-2 131 -73.5 219t-184.5 88q-141 0 -223 -99.5t-84 -269.5v-563h-133v1192h-137v104h137v138h133v-138h258v-104h-258v-311q41 70 128 120t196 50z" glyph-name="hbar" horiz-adv-x="1294" unicode="ħ"/><glyph d="M412 1530q-119 0 -189 110q-39 61 -96 62q-41 0 -66.5 -32t-25.5 -83q0 -27 4 -41h-107q-4 14 -4 41q0 96 54.5 157.5t138.5 61.5q121 0 190 -110q35 -61 99 -62q43 0 67.5 34t22.5 89q0 12 -4 29h106q2 -12 2 -35q4 -96 -50 -158.5t-142 -62.5zM197 0v1434h137v-1434 h-137z" glyph-name="Itilde" horiz-adv-x="530" unicode="Ĩ"/><glyph d="M414 1120q-119 0 -189 111q-39 61 -96 61q-41 0 -66.5 -31.5t-25.5 -82.5q0 -27 4 -41h-107q-4 29 -4 41q0 96 54.5 157.5t140.5 61.5q119 0 188 -111q39 -61 99 -61q43 0 67.5 33.5t22.5 89.5q0 6 -1 15t-1 13h104q2 -12 2 -35q4 -96 -49 -158.5t-143 -62.5zM201 0v1024 h135v-1024h-135z" glyph-name="itilde" horiz-adv-x="569" unicode="ĩ"/><glyph d="M-53 1577v111h635v-111h-635zM188 0v1434h138v-1434h-138z" glyph-name="Imacron" horiz-adv-x="495" unicode="Ī"/><glyph d="M-61 1167v111h634v-111h-634zM180 0v1024h137v-1024h-137z" glyph-name="imacron" horiz-adv-x="532" unicode="ī"/><glyph d="M229.5 1540q-149.5 0 -242.5 89t-96 229h107q2 -94 62.5 -158t168.5 -64q111 0 172.5 64.5t61.5 157.5h104q0 -139 -94 -228.5t-243.5 -89.5zM160 0v1434h137v-1434h-137z" glyph-name="Ibreve" horiz-adv-x="452" unicode="Ĭ"/><glyph d="M290.5 1130q-149.5 0 -242.5 88.5t-95 229.5h106q2 -94 62.5 -157.5t169.5 -63.5q111 0 171 63.5t62 157.5h105q0 -139 -94.5 -228.5t-244 -89.5zM221 0v1024h135v-1024h-135z" glyph-name="ibreve" horiz-adv-x="585" unicode="ĭ"/><glyph d="M360 -348l56 -80q-111 -109 -271 -104q-106 2 -169.5 59t-63.5 156q0 186 248 321v1430h137v-1434h-2q-104 -31 -185 -119t-81 -184q0 -61 35.5 -99t101.5 -38q116 0 194 92z" glyph-name="Iogonek" horiz-adv-x="450" unicode="Į"/><glyph d="M311 1434v-172h-155v172h155zM367 -346l55 -82q-111 -109 -270 -104q-106 2 -170 59t-64 156q0 186 248 321v1020h135v-1024q-104 -31 -185 -119t-81 -184q0 -61 35.5 -98t101.5 -37q119 0 195 92z" glyph-name="iogonek" horiz-adv-x="466" unicode="į"/><glyph d="M170 1567v192h182v-192h-182zM197 0v1434h137v-1434h-137z" glyph-name="Idotaccent" horiz-adv-x="530" unicode="İ"/><glyph d="M156 0v1024h135v-1024h-135z" glyph-name="dotlessi" horiz-adv-x="446" unicode="ı"/><glyph d="M709 1722h178l207 -233h-154l-141 153l-140 -153h-157zM463 -16q-182 0 -295 111.5t-115 297.5v111h133v-109q4 -129 79 -206.5t196 -77.5q129 0 202.5 81.5t73.5 227.5v1014h137v-1016q0 -201 -112.5 -317.5t-298.5 -116.5z" glyph-name="Jcircumflex" horiz-adv-x="1040" unicode="Ĵ"/><glyph d="M236 1350h178l207 -234h-156l-139 154l-140 -154h-157zM90 -362v129h41q59 0 96 37.5t37 113.5v1106h133v-1114q0 -129 -69.5 -200.5t-188.5 -71.5h-49z" glyph-name="jcircumflex" horiz-adv-x="632" unicode="ĵ"/><glyph d="M186 0v1434h133v-738l693 738l178 2l-582 -623l592 -813h-174l-512 713l-195 -207v-506h-133zM539 -524v88q43 2 66.5 30.5t21.5 77.5h-97v193h183v-193q2 -92 -47 -144t-127 -52z" glyph-name="Kcommaaccent" horiz-adv-x="1243" unicode="Ķ"/><glyph d="M166 0v1434h133v-914l479 504h166l-379 -397l418 -627l-156 2l-352 520l-176 -182v-340h-133zM436 -524v88q43 2 66.5 30.5t21.5 77.5h-96v193h182v-193q2 -92 -47 -144t-127 -52z" glyph-name="kcommaaccent" horiz-adv-x="1036" unicode="ķ"/><glyph d="M324 1546h-140l213 248h170zM186 0v1434h142v-1303h653v-131h-795z" glyph-name="Lacute" horiz-adv-x="1044" unicode="Ĺ"/><glyph d="M293 1587h-139l213 248h170zM166 0v1434h135v-1434h-135z" glyph-name="lacute" horiz-adv-x="466" unicode="ĺ"/><glyph d="M186 0v1434h142v-1303h653v-131h-795zM440 -524v88q43 2 66.5 30.5t21.5 77.5h-96v193h182v-193q2 -92 -47 -144t-127 -52z" glyph-name="Lcommaaccent" horiz-adv-x="1044" unicode="Ļ"/><glyph d="M166 0v1434h135v-1434h-135zM152 -524v88q43 2 66.5 30.5t21.5 77.5h-97v193h183v-193q2 -92 -47 -144t-127 -52z" glyph-name="lcommaaccent" horiz-adv-x="466" unicode="ļ"/><glyph d="M-37 1765h156l141 -153l143 153h152l-207 -233h-178zM186 0v1434h142v-1303h653v-131h-795z" glyph-name="Lcaron" horiz-adv-x="1044" unicode="Ľ"/><glyph d="M-68 1806h156l141 -153l144 153h151l-207 -233h-178zM166 0v1434h135v-1434h-135z" glyph-name="lcaron" horiz-adv-x="466" unicode="ľ"/><glyph d="M160 1571v192h182v-192h-182zM186 0v1434h142v-1303h653v-131h-795z" glyph-name="Ldot" horiz-adv-x="1044" unicode="Ŀ"/><glyph d="M145 1526v190h181v-190h-181zM166 0v1434h135v-1434h-135z" glyph-name="ldot" horiz-adv-x="491" unicode="ŀ"/><glyph d="M328 131h653v-131h-795v633l-184 -92v127l184 92v674h142v-603l336 170v-127l-336 -169v-574z" glyph-name="Lslash" horiz-adv-x="1091" unicode="Ł"/><glyph d="M471 985v-121l-170 -73v-791h-135v731l-139 -61v121l139 61v582h135v-523z" glyph-name="lslash" horiz-adv-x="559" unicode="ł"/><glyph d="M791 1546h-140l213 248h170zM1112 -2l-793 1231v-1229h-133v1434h162l797 -1237v1235h133v-1434h-166z" glyph-name="Nacute" horiz-adv-x="1464" unicode="Ń"/><glyph d="M641 1141h-139l213 248h170zM166 0v1024h133v-143q41 70 128 120t196 50q168 0 273 -113t105 -309v-629h-137v625q0 139 -71.5 223t-186.5 84q-131 0 -218 -101.5t-89 -267.5v-563h-133z" glyph-name="nacute" unicode="ń"/><glyph d="M1112 -2l-793 1231v-1229h-133v1434h162l797 -1237v1235h133v-1434h-166zM649 -524v88q43 2 66.5 30.5t21.5 77.5h-96v193h182v-193q2 -92 -47 -144t-127 -52z" glyph-name="Ncommaaccent" horiz-adv-x="1464" unicode="Ņ"/><glyph d="M166 0v1024h133v-143q41 70 128 120t196 50q168 0 273 -113t105 -309v-629h-137v625q0 139 -71.5 223t-186.5 84q-131 0 -218 -101.5t-89 -267.5v-563h-133zM496 -524v88q43 2 66.5 30.5t21.5 77.5h-97v193h183v-193q2 -92 -47 -144t-127 -52z" glyph-name="ncommaaccent" unicode="ņ"/><glyph d="M430 1765h156l141 -153l143 153h152l-207 -233h-178zM1112 -2l-793 1231v-1229h-133v1434h162l797 -1237v1235h133v-1434h-166z" glyph-name="Ncaron" horiz-adv-x="1464" unicode="Ň"/><glyph d="M281 1360h155l142 -154l143 154h151l-206 -234h-179zM166 0v1024h133v-143q41 70 128 120t196 50q168 0 273 -113t105 -309v-629h-137v625q0 139 -71.5 223t-186.5 84q-131 0 -218 -101.5t-89 -267.5v-563h-133z" glyph-name="ncaron" unicode="ň"/><glyph d="M1145 1432h133v-1434q-2 -178 -85 -269t-232 -91v131q61 0 113 45t50 118q0 29 -12 66l-793 1231v-1229h-133v1434h162l797 -1237v1235z" glyph-name="Eng" horiz-adv-x="1464" unicode="Ŋ"/><glyph d="M623 1051q168 0 273 -113t105 -309v-629q-2 -174 -73.5 -257t-218.5 -83v133q86 0 122.5 47t32.5 160v625q0 139 -71.5 223t-186.5 84q-131 0 -218 -101.5t-89 -267.5v-563h-133v1024h133v-143q41 70 128 120t196 50z" glyph-name="eng" unicode="ŋ"/><glyph d="M467 1577v111h635v-111h-635zM778 -20q-283 0 -473 214t-190 523q0 315 186 524t477 209t477.5 -210t186.5 -527q0 -309 -189.5 -521t-474.5 -212zM774 115q231 0 381 170t150 420q0 262 -147.5 437t-379 175t-377 -174t-145.5 -434q0 -250 146.5 -422t371.5 -172z" glyph-name="Omacron" horiz-adv-x="1556" unicode="Ō"/><glyph d="M262 1167v111h635v-111h-635zM573 -10q-209 0 -344 146.5t-135 375.5q0 231 135.5 378.5t343.5 147.5q217 0 347.5 -146.5t130.5 -379.5q0 -229 -135.5 -375.5t-342.5 -146.5zM569 115q156 0 253.5 110.5t97.5 282.5q0 180 -91.5 291.5t-255.5 111.5q-154 0 -249 -111.5 t-95 -287.5q0 -174 94 -285.5t246 -111.5z" glyph-name="omacron" horiz-adv-x="1144" unicode="ō"/><glyph d="M778.5 1540q-149.5 0 -243 88t-95.5 230h107q2 -94 62.5 -158t168.5 -64q111 0 171.5 63.5t62.5 158.5h104q0 -139 -94 -228.5t-243.5 -89.5zM778 -20q-283 0 -473 214t-190 523q0 315 186 524t477 209t477.5 -210t186.5 -527q0 -309 -189.5 -521t-474.5 -212zM774 115 q231 0 381 170t150 420q0 262 -147.5 437t-379 175t-377 -174t-145.5 -434q0 -250 146.5 -422t371.5 -172z" glyph-name="Obreve" horiz-adv-x="1556" unicode="Ŏ"/><glyph d="M573.5 1130q-149.5 0 -242.5 88.5t-95 229.5h106q2 -94 62.5 -157.5t168.5 -63.5q111 0 171.5 63.5t62.5 157.5h104q0 -139 -94 -228.5t-243.5 -89.5zM573 -10q-209 0 -344 146.5t-135 375.5q0 231 135.5 378.5t343.5 147.5q217 0 347.5 -146.5t130.5 -379.5 q0 -229 -135.5 -375.5t-342.5 -146.5zM569 115q156 0 253.5 110.5t97.5 282.5q0 180 -91.5 291.5t-255.5 111.5q-154 0 -249 -111.5t-95 -287.5q0 -174 94 -285.5t246 -111.5z" glyph-name="obreve" horiz-adv-x="1144" unicode="ŏ"/><glyph d="M516 1559v192h182v-192h-182zM846 1559v192h180v-192h-180zM778 -20q-283 0 -473 214t-190 523q0 315 186 524t477 209t477.5 -210t186.5 -527q0 -309 -189.5 -521t-474.5 -212zM774 115q231 0 381 170t150 420q0 262 -147.5 437t-379 175t-377 -174t-145.5 -434 q0 -250 146.5 -422t371.5 -172z" glyph-name="Ohungarumlaut" horiz-adv-x="1556" unicode="Ő"/><glyph d="M311 1149v192h183v-192h-183zM641 1149v192h180v-192h-180zM573 -10q-209 0 -344 146.5t-135 375.5q0 231 135.5 378.5t343.5 147.5q217 0 347.5 -146.5t130.5 -379.5q0 -229 -135.5 -375.5t-342.5 -146.5zM569 115q156 0 253.5 110.5t97.5 282.5q0 180 -91.5 291.5 t-255.5 111.5q-154 0 -249 -111.5t-95 -287.5q0 -174 94 -285.5t246 -111.5z" glyph-name="ohungarumlaut" horiz-adv-x="1144" unicode="ő"/><glyph d="M2214 1303h-754v-512h711v-129h-711v-531h754v-131h-891v285q-90 -141 -232.5 -223t-312.5 -82q-283 0 -473 214t-190 523q0 315 186 524t477 209q174 0 314.5 -80t230.5 -221v285h891v-131zM774 115q231 0 381 170t150 420q0 262 -147.5 437t-379 175t-377 -174 t-145.5 -434q0 -250 146.5 -422t371.5 -172z" glyph-name="OE" horiz-adv-x="2308" unicode="Œ"/><glyph d="M1866 481h-776v-2q0 -172 90 -274.5t243 -102.5q104 0 188.5 62.5t110.5 163.5h127q-20 -152 -140 -251.5t-292 -99.5q-145 0 -255.5 73t-166.5 204q-59 -123 -169.5 -193.5t-252.5 -70.5q-209 0 -344 146.5t-135 375.5q0 231 135.5 378.5t343.5 147.5q147 0 258 -70.5 t166 -195.5q113 264 420 264q221 0 337 -151.5t112 -403.5zM1413 913q-139 0 -219 -84t-98 -227h624q-35 311 -307 311zM569 115q156 0 253.5 110.5t97.5 282.5q0 180 -91.5 291.5t-255.5 111.5q-154 0 -249 -111.5t-95 -287.5q0 -174 94 -285.5t246 -111.5z" glyph-name="oe" horiz-adv-x="1959" unicode="œ"/><glyph d="M727 1546h-139l213 248h170zM186 -2v1436l562 2q201 2 310 -100.5t109 -282.5q0 -109 -64.5 -202t-162.5 -122q111 -35 146.5 -114.5t46.5 -241.5q18 -250 32 -301q10 -35 31 -72h-154q-8 20 -14 39.5t-10 52.5t-6 54.5t-6.5 80t-6.5 95.5q0 10 -2 30q-4 68 -8 99.5 t-19.5 81t-42 73t-76.5 42t-122 18.5h-407v-668h-136zM322 788h413q131 0 217 73t86 188q0 129 -78.5 196.5t-224.5 67.5h-411z" glyph-name="Racute" horiz-adv-x="1337" unicode="Ŕ"/><glyph d="M403 1137h-139l213 247h170zM166 0v1024h133v-143q25 63 104.5 115.5t227.5 43.5l10 -2v-129l-8 -2q-334 10 -334 -317v-590h-133z" glyph-name="racute" horiz-adv-x="690" unicode="ŕ"/><glyph d="M186 -2v1436l562 2q201 2 310 -100.5t109 -282.5q0 -109 -64.5 -202t-162.5 -122q111 -35 146.5 -114.5t46.5 -241.5q18 -250 32 -301q10 -35 31 -72h-154q-8 20 -14 39.5t-10 52.5t-6 54.5t-6.5 80t-6.5 95.5q0 10 -2 30q-4 68 -8 99.5t-19.5 81t-42 73t-76.5 42 t-122 18.5h-407v-668h-136zM322 788h413q131 0 217 73t86 188q0 129 -78.5 196.5t-224.5 67.5h-411zM586 -524v88q43 2 66.5 30.5t21.5 77.5h-96v193h182v-193q2 -92 -47 -144t-127 -52z" glyph-name="Rcommaaccent" horiz-adv-x="1337" unicode="Ŗ"/><glyph d="M166 0v1024h133v-143q25 63 104.5 115.5t227.5 43.5l10 -2v-129l-8 -2q-334 10 -334 -317v-590h-133zM150 -524v88q43 2 66.5 30.5t21.5 77.5h-97v193h183v-193q2 -92 -47 -144t-127 -52z" glyph-name="rcommaaccent" horiz-adv-x="690" unicode="ŗ"/><glyph d="M369 1765h155l142 -153l143 153h152l-207 -233h-179zM186 -2v1436l562 2q201 2 310 -100.5t109 -282.5q0 -109 -64.5 -202t-162.5 -122q111 -35 146.5 -114.5t46.5 -241.5q18 -250 32 -301q10 -35 31 -72h-154q-8 20 -14 39.5t-10 52.5t-6 54.5t-6.5 80t-6.5 95.5 q0 10 -2 30q-4 68 -8 99.5t-19.5 81t-42 73t-76.5 42t-122 18.5h-407v-668h-136zM322 788h413q131 0 217 73t86 188q0 129 -78.5 196.5t-224.5 67.5h-411z" glyph-name="Rcaron" horiz-adv-x="1337" unicode="Ř"/><glyph d="M43 1356h156l141 -154l143 154h152l-207 -234h-178zM166 0v1024h133v-143q25 63 104.5 115.5t227.5 43.5l10 -2v-129l-8 -2q-334 10 -334 -317v-590h-133z" glyph-name="rcaron" horiz-adv-x="690" unicode="ř"/><glyph d="M705 1546h-140l213 248h170zM676 -14q-227 0 -391 118.5t-181 337.5h156q20 -154 134 -240.5t298 -86.5q166 0 258 75.5t92 204.5q0 113 -80.5 174.5t-277.5 94.5q-287 47 -414 143t-127 256q0 162 136.5 272.5t334.5 110.5q250 0 396.5 -122t148.5 -333h-143 q-10 158 -112.5 241t-280.5 83q-143 0 -237.5 -73t-94.5 -177q0 -201 383 -262q287 -47 401.5 -141.5t114.5 -270.5q0 -184 -141.5 -294.5t-372.5 -110.5z" glyph-name="Sacute" horiz-adv-x="1294" unicode="Ś"/><glyph d="M545 1137h-139l212 247h170zM508 -23q-172 0 -294 91.5t-130 259.5h137q10 -113 92 -172.5t205 -59.5t179.5 55.5t56.5 135.5q0 76 -57.5 114.5t-188.5 61.5q-207 35 -300 106.5t-93 192.5q0 117 101 198.5t249 81.5q174 0 287.5 -89t113.5 -259h-129q-12 229 -266 230 q-94 0 -158.5 -46.5t-64.5 -115.5q0 -135 258 -176q207 -33 295 -101.5t88 -201.5q0 -131 -103.5 -218.5t-277.5 -87.5z" glyph-name="sacute" horiz-adv-x="972" unicode="ś"/><glyph d="M553 1767h178l207 -233h-154l-141 154l-139 -154h-158zM676 -14q-227 0 -391 118.5t-181 337.5h156q20 -154 134 -240.5t298 -86.5q166 0 258 75.5t92 204.5q0 113 -80.5 174.5t-277.5 94.5q-287 47 -414 143t-127 256q0 162 136.5 272.5t334.5 110.5q250 0 396.5 -122 t148.5 -333h-143q-10 158 -112.5 241t-280.5 83q-143 0 -237.5 -73t-94.5 -177q0 -201 383 -262q287 -47 401.5 -141.5t114.5 -270.5q0 -184 -141.5 -294.5t-372.5 -110.5z" glyph-name="Scircumflex" horiz-adv-x="1294" unicode="Ŝ"/><glyph d="M393 1358h178l207 -234h-153l-142 154l-139 -154h-158zM508 -23q-172 0 -294 91.5t-130 259.5h137q10 -113 92 -172.5t205 -59.5t179.5 55.5t56.5 135.5q0 76 -57.5 114.5t-188.5 61.5q-207 35 -300 106.5t-93 192.5q0 117 101 198.5t249 81.5q174 0 287.5 -89 t113.5 -259h-129q-12 229 -266 230q-94 0 -158.5 -46.5t-64.5 -115.5q0 -135 258 -176q207 -33 295 -101.5t88 -201.5q0 -131 -103.5 -218.5t-277.5 -87.5z" glyph-name="scircumflex" horiz-adv-x="972" unicode="ŝ"/><glyph d="M676 -14h-12l-33 -68q37 6 61 4q86 -2 141.5 -55t55.5 -135q0 -88 -60.5 -147.5t-148.5 -59.5q-68 0 -136.5 37t-99.5 90l80 35q23 -33 69 -55.5t87 -22.5q51 0 86 36t35 87t-32 81.5t-85 32.5q-41 2 -92 -16l-72 47l55 115q-195 25 -325.5 140.5t-145.5 309.5h156 q20 -154 134 -240.5t298 -86.5q166 0 258 75.5t92 204.5q0 113 -80.5 174.5t-277.5 94.5q-287 47 -414 143t-127 256q0 162 136.5 272.5t334.5 110.5q250 0 396.5 -122t148.5 -333h-143q-10 158 -112.5 241t-280.5 83q-143 0 -237.5 -73t-94.5 -177q0 -201 383 -262 q287 -47 401.5 -141.5t114.5 -270.5q0 -184 -141.5 -294.5t-372.5 -110.5z" glyph-name="Scedilla" horiz-adv-x="1294" unicode="Ş"/><glyph d="M508 -23h-6l-33 -67q35 6 63 6q86 -4 140.5 -56.5t54.5 -133.5q0 -88 -59.5 -148.5t-147.5 -60.5q-70 0 -137.5 36.5t-97.5 90.5l77 34q25 -33 70 -54t88 -21q51 0 85 34.5t34 88.5q0 51 -32 80.5t-85 31.5q-37 2 -92 -16l-72 49l58 115q-139 23 -231.5 110.5 t-100.5 231.5h137q10 -113 92 -172.5t205 -59.5t179.5 55.5t56.5 135.5q0 76 -57.5 114.5t-188.5 61.5q-207 35 -300 106.5t-93 192.5q0 117 101 198.5t249 81.5q174 0 287.5 -89t113.5 -259h-129q-12 229 -266 230q-94 0 -158.5 -46.5t-64.5 -115.5q0 -135 258 -176 q207 -33 295 -101.5t88 -201.5q0 -131 -103.5 -218.5t-277.5 -87.5z" glyph-name="scedilla" horiz-adv-x="972" unicode="ş"/><glyph d="M344 1765h156l141 -153l143 153h152l-207 -233h-178zM676 -14q-227 0 -391 118.5t-181 337.5h156q20 -154 134 -240.5t298 -86.5q166 0 258 75.5t92 204.5q0 113 -80.5 174.5t-277.5 94.5q-287 47 -414 143t-127 256q0 162 136.5 272.5t334.5 110.5q250 0 396.5 -122 t148.5 -333h-143q-10 158 -112.5 241t-280.5 83q-143 0 -237.5 -73t-94.5 -177q0 -201 383 -262q287 -47 401.5 -141.5t114.5 -270.5q0 -184 -141.5 -294.5t-372.5 -110.5z" glyph-name="Scaron" horiz-adv-x="1294" unicode="Š"/><glyph d="M184 1356h156l141 -154l144 154h151l-207 -234h-178zM508 -23q-172 0 -294 91.5t-130 259.5h137q10 -113 92 -172.5t205 -59.5t179.5 55.5t56.5 135.5q0 76 -57.5 114.5t-188.5 61.5q-207 35 -300 106.5t-93 192.5q0 117 101 198.5t249 81.5q174 0 287.5 -89t113.5 -259 h-129q-12 229 -266 230q-94 0 -158.5 -46.5t-64.5 -115.5q0 -135 258 -176q207 -33 295 -101.5t88 -201.5q0 -131 -103.5 -218.5t-277.5 -87.5z" glyph-name="scaron" horiz-adv-x="972" unicode="š"/><glyph d="M1208 1305h-518v-1270h31q86 -2 141.5 -55.5t55.5 -135.5q0 -88 -60.5 -147t-148.5 -59q-68 0 -136.5 36.5t-99.5 89.5l80 35q23 -33 69 -55.5t87 -22.5q51 0 85.5 36t34.5 87.5t-31.5 82t-84.5 32.5q-41 2 -92 -16l-72 47l4 10v1305h-520v129h1175v-129z" glyph-name="Tcommaaccent" horiz-adv-x="1241" unicode="Ţ"/><glyph d="M369 -53q86 -4 141 -56.5t55 -134.5q0 -88 -60.5 -148.5t-148.5 -60.5q-68 0 -136 37t-99 90l78 37q25 -33 70.5 -55.5t86.5 -22.5q51 0 86 36t35 87t-31.5 82t-85.5 33q-41 2 -92 -16l-73 47l71 141q-98 70 -98 217v643h-156v121h156v291h131v-291h244v-121h-244v-631 q0 -145 129 -145h119l-2 -127h-129q-39 0 -76 10l-33 -69q21 6 62 6z" glyph-name="tcommaaccent" horiz-adv-x="624" unicode="ţ"/><glyph d="M319 1765h156l141 -153l144 153h151l-206 -233h-179zM553 0v1305h-520v129h1175v-129h-518v-1305h-137z" glyph-name="Tcaron" horiz-adv-x="1241" unicode="Ť"/><glyph d="M-63 1647h155l141 -154l144 154h151l-206 -234h-179zM416 0q-113 0 -180.5 69.5t-67.5 190.5v643h-156v121h156v291h131v-291h244v-121h-244v-631q0 -145 129 -145h119l-2 -127h-129z" glyph-name="tcaron" horiz-adv-x="600" unicode="ť"/><glyph d="M309 1577v111h635v-111h-635zM553 0v1305h-520v129h1175v-129h-518v-1305h-137z" glyph-name="Tbar" horiz-adv-x="1241" unicode="Ŧ"/><glyph d="M553 678h-246v-406q0 -145 129 -145h117v-127h-129q-113 0 -181.5 69.5t-68.5 190.5v418h-151v110h151v115h-154v121h154v291h133v-291h244v-121h-244v-115h246v-110z" glyph-name="tbar" horiz-adv-x="606" unicode="ŧ"/><glyph d="M856 1530q-119 0 -188 110q-39 61 -97 62q-41 0 -66.5 -32t-25.5 -83q0 -27 4 -41h-106q-4 14 -4 41q0 96 54 157.5t138 61.5q121 0 191 -110q35 -61 98 -62q43 0 67.5 34t22.5 89q0 12 -4 29h107q2 -12 2 -35q4 -96 -50.5 -158.5t-142.5 -62.5zM708.5 -16 q-245.5 0 -394 145t-148.5 397v908h137v-908q0 -193 110.5 -302t295 -109t295 109.5t110.5 301.5v908h137v-908q0 -252 -148.5 -397t-394 -145z" glyph-name="Utilde" horiz-adv-x="1417" unicode="Ũ"/><glyph d="M723 1120q-119 0 -188 111q-39 61 -97 61q-41 0 -66.5 -31.5t-25.5 -82.5q0 -27 4 -41h-106q-4 14 -4 41q0 96 54 157.5t138 61.5q121 0 191 -111q35 -61 98 -61q43 0 67.5 33.5t22.5 89.5q0 12 -4 28h106q2 -12 2 -35q4 -96 -50 -158.5t-142 -62.5zM535 -27 q-168 0 -273.5 113t-105.5 309v629h137v-625q2 -131 73.5 -219t184.5 -88q141 0 223 99.5t84 269.5v563h133v-1024h-133v143q-41 -70 -127.5 -120t-195.5 -50z" glyph-name="utilde" unicode="ũ"/><glyph d="M399 1577v111h635v-111h-635zM708.5 -16q-245.5 0 -394 145t-148.5 397v908h137v-908q0 -193 110.5 -302t295 -109t295 109.5t110.5 301.5v908h137v-908q0 -252 -148.5 -397t-394 -145z" glyph-name="Umacron" horiz-adv-x="1417" unicode="Ū"/><glyph d="M268 1167v111h635v-111h-635zM535 -27q-168 0 -273.5 113t-105.5 309v629h137v-625q2 -131 73.5 -219t184.5 -88q141 0 223 99.5t84 269.5v563h133v-1024h-133v143q-41 -70 -127.5 -120t-195.5 -50z" glyph-name="umacron" unicode="ū"/><glyph d="M710.5 1540q-149.5 0 -242.5 88t-95 230h106q2 -94 62.5 -158t169.5 -64q111 0 171 63.5t62 158.5h105q0 -139 -94.5 -228.5t-244 -89.5zM708.5 -16q-245.5 0 -394 145t-148.5 397v908h137v-908q0 -193 110.5 -302t295 -109t295 109.5t110.5 301.5v908h137v-908 q0 -252 -148.5 -397t-394 -145z" glyph-name="Ubreve" horiz-adv-x="1417" unicode="Ŭ"/><glyph d="M579.5 1130q-149.5 0 -242.5 88.5t-95 229.5h106q2 -94 62.5 -157.5t169.5 -63.5q111 0 171 63.5t62 157.5h105q0 -139 -94.5 -228.5t-244 -89.5zM535 -27q-168 0 -273.5 113t-105.5 309v629h137v-625q2 -131 73.5 -219t184.5 -88q141 0 223 99.5t84 269.5v563h133v-1024 h-133v143q-41 -70 -127.5 -120t-195.5 -50z" glyph-name="ubreve" unicode="ŭ"/><glyph d="M711 1524q-82 0 -140.5 57t-58.5 137q0 82 58.5 139.5t140.5 57.5q80 0 136 -57.5t56 -139.5q2 -80 -55 -137t-137 -57zM711 1612q45 0 75.5 30.5t30.5 75.5q0 47 -30.5 79t-75.5 32t-77 -32t-32 -79q0 -45 32 -75.5t77 -30.5zM708.5 -16q-245.5 0 -394 145t-148.5 397 v908h137v-908q0 -193 110.5 -302t295 -109t295 109.5t110.5 301.5v908h137v-908q0 -252 -148.5 -397t-394 -145z" glyph-name="Uring" horiz-adv-x="1417" unicode="Ů"/><glyph d="M578 1114q-82 0 -140.5 57.5t-58.5 137.5q0 82 58.5 139t140.5 57q80 0 136 -57t56 -139q2 -80 -55 -137.5t-137 -57.5zM577.5 1202q45.5 0 76 31t30.5 76q0 47 -30.5 78.5t-76 31.5t-77 -31.5t-31.5 -78.5q0 -45 31.5 -76t77 -31zM535 -27q-168 0 -273.5 113t-105.5 309 v629h137v-625q2 -131 73.5 -219t184.5 -88q141 0 223 99.5t84 269.5v563h133v-1024h-133v143q-41 -70 -127.5 -120t-195.5 -50z" glyph-name="uring" unicode="ů"/><glyph d="M449 1559v192h182v-192h-182zM778 1559v192h180v-192h-180zM708.5 -16q-245.5 0 -394 145t-148.5 397v908h137v-908q0 -193 110.5 -302t295 -109t295 109.5t110.5 301.5v908h137v-908q0 -252 -148.5 -397t-394 -145z" glyph-name="Uhungarumlaut" horiz-adv-x="1417" unicode="Ű"/><glyph d="M315 1149v192h183v-192h-183zM645 1149v192h180v-192h-180zM535 -27q-168 0 -273.5 113t-105.5 309v629h137v-625q2 -131 73.5 -219t184.5 -88q141 0 223 99.5t84 269.5v563h133v-1024h-133v143q-41 -70 -127.5 -120t-195.5 -50z" glyph-name="uhungarumlaut" unicode="ű"/><glyph d="M1114 1434h137v-908q0 -231 -127 -373.5t-342 -164.5q-88 -43 -150.5 -121t-62.5 -162q0 -61 36 -98t102 -37q119 0 194 92l55 -82q-111 -109 -270 -104q-106 2 -169.5 59t-63.5 156q0 166 202 295q-225 16 -357 159.5t-132 380.5v908h137v-908q0 -193 110.5 -302 t295 -109t295 109.5t110.5 301.5v908z" glyph-name="Uogonek" horiz-adv-x="1417" unicode="Ų"/><glyph d="M1055 -346l55 -82q-111 -109 -270 -104q-106 2 -170 59t-64 156q0 188 252 323v137q-41 -70 -128 -120t-195 -50q-168 0 -273.5 113t-105.5 309v629h137v-625q2 -131 73.5 -219t184.5 -88q141 0 223 99.5t84 269.5v563h133v-1024h-2q-104 -31 -185 -119t-81 -184 q0 -61 36 -98t101 -37q119 0 195 92z" glyph-name="uogonek" unicode="ų"/><glyph d="M854 1767h178l207 -233h-154l-141 154l-139 -154h-158zM461 0l-398 1434h136l346 -1248l338 1248h135l344 -1248l334 1248h137l-391 -1434h-166l-326 1200l-325 -1200h-164z" glyph-name="Wcircumflex" horiz-adv-x="1896" unicode="Ŵ"/><glyph d="M664 1358h178l207 -234h-154l-141 154l-140 -154h-157zM360 0l-317 1024h156l245 -877l242 877h143l246 -877l244 877h156l-316 -1024h-170l-229 825l-230 -825h-170z" glyph-name="wcircumflex" horiz-adv-x="1517" unicode="ŵ"/><glyph d="M549 1767h178l207 -233h-154l-141 154l-139 -154h-158zM573 0v594l-520 840h150l440 -719l444 719h146l-520 -840v-594h-140z" glyph-name="Ycircumflex" horiz-adv-x="1286" unicode="Ŷ"/><glyph d="M408 1358h178l207 -234h-154l-141 154l-140 -154h-157zM88 -410v127h66q150 0 206 146l76 196l-403 965h153l318 -793l313 793h152l-471 -1184q-47 -123 -123 -185.5t-217 -64.5h-70z" glyph-name="ycircumflex" horiz-adv-x="1001" unicode="ŷ"/><glyph d="M383 1544v193h182v-193h-182zM713 1544v193h180v-193h-180zM573 0v594l-520 840h150l440 -719l444 719h146l-520 -840v-594h-140z" glyph-name="Ydieresis" horiz-adv-x="1286" unicode="Ÿ"/><glyph d="M729 1546h-139l213 248h170zM115 0v131l962 1172h-950v131h1120v-131l-964 -1172h952v-131h-1120z" glyph-name="Zacute" horiz-adv-x="1341" unicode="Ź"/><glyph d="M571 1137h-139l213 247h170zM94 0v123l649 778h-649v125l811 -2v-123l-645 -778h641v-123h-807z" glyph-name="zacute" horiz-adv-x="1019" unicode="ź"/><glyph d="M575 1567v192h183v-192h-183zM115 0v131l962 1172h-950v131h1120v-131l-964 -1172h952v-131h-1120z" glyph-name="Zdotaccent" horiz-adv-x="1341" unicode="Ż"/><glyph d="M416 1157v193h182v-193h-182zM94 0v123l649 778h-649v125l811 -2v-123l-645 -778h641v-123h-807z" glyph-name="zdotaccent" horiz-adv-x="1019" unicode="ż"/><glyph d="M369 1765h155l142 -153l143 153h152l-207 -233h-179zM115 0v131l962 1172h-950v131h1120v-131l-964 -1172h952v-131h-1120z" glyph-name="Zcaron" horiz-adv-x="1341" unicode="Ž"/><glyph d="M211 1356h156l141 -154l143 154h152l-207 -234h-178zM94 0v123l649 778h-649v125l811 -2v-123l-645 -778h641v-123h-807z" glyph-name="zcaron" horiz-adv-x="1019" unicode="ž"/><glyph d="M543 1456q211 0 340 -144.5t129 -382t-126 -385t-343 -147.5q-211 0 -331 154t-118 401h776v2q0 172 -89 274.5t-242 102.5q-104 0 -189.5 -62.5t-109.5 -162.5h-129q23 152 141.5 251t290.5 99zM864 831h-624q39 -311 307 -311q139 0 220 84t97 227z" glyph-name="uni018F" horiz-adv-x="1105" unicode="Ə"/><glyph d="M676 -14q-227 0 -391 118.5t-181 337.5h156q20 -154 134 -240.5t298 -86.5q166 0 258 75.5t92 204.5q0 113 -80.5 174.5t-277.5 94.5q-287 47 -414 143t-127 256q0 162 136.5 272.5t334.5 110.5q250 0 396.5 -122t148.5 -333h-143q-10 158 -112.5 241t-280.5 83 q-143 0 -237.5 -73t-94.5 -177q0 -201 383 -262q287 -47 401.5 -141.5t114.5 -270.5q0 -184 -141.5 -294.5t-372.5 -110.5zM563 -524v88q43 2 66.5 30.5t21.5 77.5h-96v193h182v-193q2 -92 -47 -144t-127 -52z" glyph-name="Scommaaccent" horiz-adv-x="1294" unicode="Ș"/><glyph d="M508 -23q-172 0 -294 91.5t-130 259.5h137q10 -113 92 -172.5t205 -59.5t179.5 55.5t56.5 135.5q0 76 -57.5 114.5t-188.5 61.5q-207 35 -300 106.5t-93 192.5q0 117 101 198.5t249 81.5q174 0 287.5 -89t113.5 -259h-129q-12 229 -266 230q-94 0 -158.5 -46.5 t-64.5 -115.5q0 -135 258 -176q207 -33 295 -101.5t88 -201.5q0 -131 -103.5 -218.5t-277.5 -87.5zM403 -524v88q43 2 67 30.5t22 77.5h-97v193h183v-193q2 -92 -47.5 -144t-127.5 -52z" glyph-name="scommaaccent" horiz-adv-x="972" unicode="ș"/><glyph d="M553 0v1305h-520v129h1175v-129h-518v-1305h-137zM537 -524v88q43 2 66.5 30.5t21.5 77.5h-97v193h183v-193q2 -92 -47 -144t-127 -52z" glyph-name="uni021A" horiz-adv-x="1241" unicode="Ț"/><glyph d="M416 0q-113 0 -180.5 69.5t-67.5 190.5v643h-156v121h156v291h131v-291h244v-121h-244v-631q0 -145 129 -145h119l-2 -127h-129zM266 -524v88q43 2 66.5 30.5t21.5 77.5h-96v193h182v-193q2 -92 -47 -144t-127 -52z" glyph-name="uni021B" horiz-adv-x="600" unicode="ț"/><glyph d="M332 1577v111h635v-111h-635zM573 0v594l-520 840h150l440 -719l444 719h146l-520 -840v-594h-140z" glyph-name="uni0232" horiz-adv-x="1286" unicode="Ȳ"/><glyph d="M190 1167v111h635v-111h-635zM88 -410v127h66q150 0 206 146l76 196l-403 965h153l318 -793l313 793h152l-471 -1184q-47 -123 -123 -185.5t-217 -64.5h-70z" glyph-name="uni0233" horiz-adv-x="1001" unicode="ȳ"/><glyph d="M-8 -362v129h41q59 0 96 37.5t37 113.5v1106h133v-1114q0 -129 -70.5 -200.5t-187.5 -71.5h-49z" glyph-name="uni0237" horiz-adv-x="444" unicode="ȷ"/><glyph d="M268 1419h178l207 -233h-153l-142 153l-139 -153h-158z" glyph-name="circumflex" horiz-adv-x="108" unicode="ˆ"/><glyph d="M61 1419h156l141 -153l144 153h151l-207 -233h-178z" glyph-name="caron" horiz-adv-x="108" unicode="ˇ"/><glyph d="M591.5 1161q-149.5 0 -242.5 88t-95 230h106q2 -94 62.5 -158t169.5 -64q111 0 171 63.5t62 158.5h105q0 -139 -94.5 -228.5t-244 -89.5z" glyph-name="breve" horiz-adv-x="108" unicode="˘"/><glyph d="M219 1223v192h182v-192h-182z" glyph-name="dotaccent" horiz-adv-x="108" unicode="˙"/><glyph d="M178 1149q-82 0 -140 57.5t-58 136.5q0 82 58 139.5t140 57.5q80 0 136.5 -57.5t56.5 -139.5q2 -80 -55.5 -137t-137.5 -57zM178 1237q45 0 76 30.5t31 75.5q0 47 -31 79t-76 32t-76.5 -31.5t-31.5 -79.5q0 -45 31.5 -75.5t76.5 -30.5z" glyph-name="ring" horiz-adv-x="108" unicode="˚"/><glyph d="M272 -532q-106 2 -169.5 59t-63.5 156q0 205 295 346l88 -29q-104 -31 -185 -119t-81 -184q0 -61 35.5 -98t101.5 -37q119 0 194 92l56 -82q-111 -108 -271 -104z" glyph-name="ogonek" horiz-adv-x="108" unicode="˛"/><glyph d="M-268 1268q-119 0 -189 110q-39 61 -96 62q-41 0 -66.5 -32t-25.5 -83q0 -27 4 -41h-107q-4 14 -4 41q0 96 54.5 157.5t138.5 61.5q121 0 190 -110q35 -61 99 -62q43 0 67.5 34t22.5 89q0 12 -4 29h106q2 -12 2 -35q4 -96 -50 -158.5t-142 -62.5z" glyph-name="tilde" horiz-adv-x="0" unicode="˜"/><glyph d="M184 1227v192h183v-192h-183zM514 1227v192h180v-192h-180z" glyph-name="hungarumlaut" horiz-adv-x="108" unicode="˝"/><glyph d="M-211 1219l-242 247h170l213 -247h-141z" glyph-name="gravecomb" horiz-adv-x="0" unicode="̀"/><glyph d="M-457 1219h-139l213 247h170z" glyph-name="acutecomb" horiz-adv-x="0" unicode="́"/><glyph d="M-268 1268q-119 0 -189 110q-39 61 -96 62q-41 0 -66.5 -32t-25.5 -83q0 -27 4 -41h-107q-4 14 -4 41q0 96 54.5 157.5t138.5 61.5q121 0 190 -110q35 -61 99 -62q43 0 67.5 34t22.5 89q0 12 -4 29h106q2 -12 2 -35q4 -96 -50 -158.5t-142 -62.5z" glyph-name="tildecomb" horiz-adv-x="0" unicode="̃"/><glyph d="M-260 -477v192h182v-192h-182z" glyph-name="dotbelowcomb" horiz-adv-x="0" unicode="̣"/><glyph d="M-709 -524v88q43 2 67 30.5t21 77.5h-96v193h182v-193q2 -92 -47 -144t-127 -52z" glyph-name="uni0326" horiz-adv-x="0" unicode="̦"/><glyph d="M922 1550l-242 248h170l213 -248h-141zM461 0l-398 1434h136l346 -1248l338 1248h135l344 -1248l334 1248h137l-391 -1434h-166l-326 1200l-325 -1200h-164z" glyph-name="Wgrave" horiz-adv-x="1896" unicode="Ẁ"/><glyph d="M731 1141l-242 248h170l213 -248h-141zM360 0l-317 1024h156l245 -877l242 877h143l246 -877l244 877h156l-316 -1024h-170l-229 825l-230 -825h-170z" glyph-name="wgrave" horiz-adv-x="1517" unicode="ẁ"/><glyph d="M1006 1546h-140l213 248h170zM461 0l-398 1434h136l346 -1248l338 1248h135l344 -1248l334 1248h137l-391 -1434h-166l-326 1200l-325 -1200h-164z" glyph-name="Wacute" horiz-adv-x="1896" unicode="Ẃ"/><glyph d="M817 1137h-139l213 247h170zM360 0l-317 1024h156l245 -877l242 877h143l246 -877l244 877h156l-316 -1024h-170l-229 825l-230 -825h-170z" glyph-name="wacute" horiz-adv-x="1517" unicode="ẃ"/><glyph d="M688 1544v193h182v-193h-182zM1018 1544v193h180v-193h-180zM461 0l-398 1434h136l346 -1248l338 1248h135l344 -1248l334 1248h137l-391 -1434h-166l-326 1200l-325 -1200h-164z" glyph-name="Wdieresis" horiz-adv-x="1896" unicode="Ẅ"/><glyph d="M498 1135v192h182v-192h-182zM827 1135v192h181v-192h-181zM360 0l-317 1024h156l245 -877l242 877h143l246 -877l244 877h156l-316 -1024h-170l-229 825l-230 -825h-170z" glyph-name="wdieresis" horiz-adv-x="1517" unicode="ẅ"/><glyph d="M197 0v1434h137v-1434h-137zM176 -346v192h182v-192h-182z" glyph-name="uni1ECA" horiz-adv-x="530" unicode="Ị"/><glyph d="M164 0v1024h137v-1024h-137zM139 -399v190h183v-190h-183z" glyph-name="uni1ECB" horiz-adv-x="477" unicode="ị"/><glyph d="M778 -20q-283 0 -473 214t-190 523q0 315 186 524t477 209t477.5 -210t186.5 -527q0 -309 -189.5 -521t-474.5 -212zM774 115q231 0 381 170t150 420q0 262 -147.5 437t-379 175t-377 -174t-145.5 -434q0 -250 146.5 -422t371.5 -172zM688 -346v192h182v-192h-182z" glyph-name="uni1ECC" horiz-adv-x="1556" unicode="Ọ"/><glyph d="M573 -10q-209 0 -344 146.5t-135 375.5q0 231 135.5 378.5t343.5 147.5q217 0 347.5 -146.5t130.5 -379.5q0 -229 -135.5 -375.5t-342.5 -146.5zM569 115q156 0 253.5 110.5t97.5 282.5q0 180 -91.5 291.5t-255.5 111.5q-154 0 -249 -111.5t-95 -287.5q0 -174 94 -285.5 t246 -111.5zM483 -346v192h183v-192h-183z" glyph-name="uni1ECD" horiz-adv-x="1144" unicode="ọ"/><glyph d="M708.5 -16q-245.5 0 -394 145t-148.5 397v908h137v-908q0 -193 110.5 -302t295 -109t295 109.5t110.5 301.5v908h137v-908q0 -252 -148.5 -397t-394 -145zM618 -346v192h183v-192h-183z" glyph-name="uni1EE4" horiz-adv-x="1417" unicode="Ụ"/><glyph d="M535 -27q-168 0 -273.5 113t-105.5 309v629h137v-625q2 -131 73.5 -219t184.5 -88q141 0 223 99.5t84 269.5v563h133v-1024h-133v143q-41 -70 -127.5 -120t-195.5 -50zM489 -346v192h183v-192h-183z" glyph-name="uni1EE5" unicode="ụ"/><glyph d="M614 1550l-241 248h170l213 -248h-142zM573 0v594l-520 840h150l440 -719l444 719h146l-520 -840v-594h-140z" glyph-name="Ygrave" horiz-adv-x="1286" unicode="Ỳ"/><glyph d="M473 1141l-242 248h170l213 -248h-141zM88 -410v127h66q150 0 206 146l76 196l-403 965h153l318 -793l313 793h152l-471 -1184q-47 -123 -123 -185.5t-217 -64.5h-70z" glyph-name="ygrave" horiz-adv-x="1001" unicode="ỳ"/><glyph d="M193 475v94h1024v-94h-1024z" glyph-name="endash" horiz-adv-x="1406" unicode="–"/><glyph d="M20 475v94h2048v-94h-2048z" glyph-name="emdash" horiz-adv-x="2086" unicode="—"/><glyph d="M88 1233v192q0 92 48 144.5t126 52.5v-88q-43 -2 -66.5 -30.5t-21.5 -78.5h96v-192h-182z" glyph-name="quoteleft" horiz-adv-x="325" unicode="‘"/><glyph d="M74 1227v86q45 2 68.5 30.5t19.5 79.5h-94v191h180v-191q2 -92 -47 -144t-127 -52z" glyph-name="quoteright" horiz-adv-x="221" unicode="’"/><glyph d="M104 -197v88q45 2 69 31t20 78h-95v193h181v-193q2 -92 -47.5 -144.5t-127.5 -52.5z" glyph-name="quotesinglbase" horiz-adv-x="489" unicode="‚"/><glyph d="M25 1233v192q0 92 48 144.5t126 52.5v-88q-43 -2 -68 -30.5t-20 -78.5h94v-192h-180zM285 1233v192q2 94 49 145.5t125 51.5v-88q-43 -2 -66.5 -30.5t-21.5 -78.5h96v-192h-182z" glyph-name="quotedblleft" horiz-adv-x="479" unicode="“"/><glyph d="M25 1227v88q43 2 66.5 30.5t21.5 77.5h-97v193h183v-193q0 -92 -48 -144t-126 -52zM303 1227v88q43 2 67.5 30.5t20.5 77.5h-94v193h180v-193q2 -92 -47 -144t-127 -52z" glyph-name="quotedblright" horiz-adv-x="507" unicode="”"/><glyph d="M106 -197v88q43 2 68 31t21 78h-95v193h181v-193q2 -92 -47.5 -144.5t-127.5 -52.5zM385 -197v88q45 2 68.5 31t19.5 78h-94v193h180v-193q2 -92 -47 -144.5t-127 -52.5z" glyph-name="quotedblbase" horiz-adv-x="794" unicode="„"/><glyph d="M461 559v307h287v-307h-287z" glyph-name="bullet" horiz-adv-x="1228" unicode="•"/><glyph d="M145 0v193h183v-193h-183zM635 0v193h180v-193h-180zM1116 0v193h182v-193h-182z" glyph-name="ellipsis" horiz-adv-x="1443" unicode="…"/><glyph d="M395.5 946q-110.5 0 -188.5 88t-78 213t78 213t188.5 88t188.5 -88t78 -213t-78 -213t-188.5 -88zM133 0l1057 1536h141l-1057 -1536h-141zM395 1063q61 0 105.5 54t44.5 130t-44 130.5t-106 54.5q-59 0 -103 -54.5t-44 -130.5t44 -130t103 -54zM1089.5 -16 q-110.5 0 -188.5 89t-78 214t78 213t188.5 88t188.5 -88t78 -213t-78 -214t-188.5 -89zM1720.5 -16q-110.5 0 -188.5 89t-78 214t78 213t188.5 88t188.5 -88t78 -213t-78 -214t-188.5 -89zM1089.5 102q61.5 0 104.5 53.5t43 131.5q0 76 -43 129t-104.5 53t-105.5 -53.5 t-44 -128.5q0 -78 44 -131.5t105.5 -53.5zM1720.5 102q61.5 0 104.5 53.5t43 131.5q0 76 -43 129t-104.5 53t-104.5 -53.5t-43 -128.5q0 -78 43 -131.5t104.5 -53.5z" glyph-name="perthousand" horiz-adv-x="2101" unicode="‰"/><glyph d="M424 195l-311 376l311 377h135l-311 -377l311 -376h-135z" glyph-name="guilsinglleft" horiz-adv-x="694" unicode="‹"/><glyph d="M143 195l312 376l-312 377h136l311 -377l-311 -376h-136z" glyph-name="guilsinglright" horiz-adv-x="694" unicode="›"/><glyph d="M739 100q332 0 379 351h129q-25 -221 -157 -347.5t-347 -126.5q-231 0 -375.5 152t-166.5 412h-140v102h138v174h-138v98h140q23 260 166 413t374 153q211 0 340 -120t152 -327h-131q-41 328 -363 328q-182 -2 -284.5 -119t-116.5 -328h440v-98h-444v-174h442l2 -102 h-440q14 -211 114.5 -326t286.5 -115z" glyph-name="Euro" horiz-adv-x="1318" unicode="€"/><glyph d="M471 958v416h-178v60h416l2 -60h-179v-413zM776 961v473h72l172 -400l168 400h69v-473h-59v348l-143 -346h-72l-147 352v-354h-60z" glyph-name="trademark" horiz-adv-x="1601" unicode="™"/><glyph d="M938 -18q-362 0 -618.5 230t-256.5 554q0 328 256 559t619 231q365 0 621 -231t256 -559v-21h-1418q-12 0 -12 -8v-430q0 -23 18 -49q227 -233 537 -233q166 0 313.5 69.5t251.5 192.5h125q-119 -141 -301 -223t-391 -82zM397 788h1088q8 0 8 15v430q0 33 -20 51 q-229 225 -532.5 225t-534.5 -231q-20 -25 -21 -53v-422q0 -15 12 -15z" glyph-name="estimated" horiz-adv-x="1880" unicode="℮"/><glyph d="M131 532v113h1229v-113h-1229z" glyph-name="minus" horiz-adv-x="1488" unicode="−"/><glyph d="M1360 680h-424l-234 -272h658v-111h-752l-248 -293h-114l250 293h-365v111h459l233 272h-692v111h784l205 237h115l-207 -237h332v-111z" glyph-name="notequal" horiz-adv-x="1488" unicode="≠"/><glyph d="M1372 178l-1130 549v125l1130 547v-125l-1012 -486l1012 -485v-125zM469 12v41h676v-41h-676z" glyph-name="lessequal" horiz-adv-x="1636" unicode="≤"/><glyph d="M242 178v125l1011 485l-1011 486v125l1130 -547v-125zM240 12l229 70l905 -27l-229 -69z" glyph-name="greaterequal" horiz-adv-x="1611" unicode="≥"/><glyph d="M1137 586v-109h-101v-477h-131v170q-43 -84 -140 -138.5t-210 -54.5q-190 0 -321.5 139.5t-139.5 360.5h-102v109h106q23 201 149 324.5t302 123.5q117 0 213 -54t143 -140v594h131v-848h101zM565 907q-131 0 -217 -87t-106 -234h663q-23 145 -114 233t-226 88zM565 106 q152 0 246 103.5t100 267.5h-673q10 -166 98 -268.5t229 -102.5z" glyph-name="glyph354" horiz-adv-x="1126"/><glyph d="M193 -2v1436l561 2q188 -2 304 -119t116 -303q0 -156 -88.5 -265.5t-239.5 -138.5l368 -610h-155l-361 600h-370v-602h-135zM328 725h413q135 0 218 79t83 210q0 135 -82.5 217t-218.5 82h-413v-588z" glyph-name="glyph355" horiz-adv-x="1304"/><glyph d="M543 -23q-201 0 -330 149.5t-129 379.5q0 231 127 379.5t326 148.5q113 0 209 -52t145 -140v182h133v-1024h-133v170q-49 -88 -144 -140.5t-204 -52.5zM551 104q158 0 252 109t94 283q0 182 -95 297.5t-251 115.5q-147 0 -236.5 -112.5t-89.5 -290.5t89.5 -290 t236.5 -112z" glyph-name="glyph356" horiz-adv-x="1116"/><glyph d="M303 0q-119 0 -188.5 71.5t-69.5 200.5l2 1162h133l-2 -1153q0 -76 37 -114t96 -38h39v-129h-47z" glyph-name="glyph357" horiz-adv-x="456"/></font>
</defs>
</svg>
