<svg width="144" height="53" viewBox="0 0 144 53" fill="none" xmlns="http://www.w3.org/2000/svg">
<g clip-path="url(#clip0)">
<path d="M21.1168 0.590698H17.8266C17.7675 0.694308 17.7262 0.806792 17.7046 0.923592C13.9024 1.69071 10.4862 3.71821 8.03146 6.66459C5.57675 9.61096 4.23351 13.2961 4.22801 17.0994V19.7485C4.22219 20.8423 4.328 21.9339 4.54387 23.0071C4.78679 24.1994 5.16647 25.3609 5.67569 26.4696C6.33929 27.9314 7.21803 29.2899 8.2839 30.5019C9.14348 31.4763 10.115 32.3503 11.1792 33.1064C12.0409 33.725 12.9617 34.2605 13.9286 34.7052C15.1333 35.2573 16.4009 35.6665 17.7046 35.9243L17.7763 36.2619H18.231H21.0043H21.0665C23.3472 36.265 25.6045 35.8111 27.6995 34.9279V33.1932C27.7019 33.1635 27.7019 33.1337 27.6995 33.1041C27.688 31.3162 27.1685 29.5669 26.1992 28.0521C24.654 28.9711 22.8813 29.4576 21.0737 29.4586C21.0076 29.4633 20.9412 29.4633 20.8751 29.4586C19.5752 29.4363 18.2927 29.1618 17.1017 28.6512C15.9107 28.1406 14.8347 27.4039 13.9358 26.4837L13.9215 26.4696C13.455 25.9891 13.0382 25.4646 12.6772 24.9036C11.7055 23.3896 11.1843 21.64 11.1721 19.8516C11.1697 19.822 11.1697 19.7922 11.1721 19.7625V17.1088C11.1743 14.8135 12.0064 12.5932 13.5207 10.8418C15.035 9.09041 17.1336 7.9212 19.4442 7.54161C19.9848 7.45037 20.5323 7.4041 21.0809 7.40329C23.7066 7.40639 26.2239 8.42968 28.0806 10.2487C29.9373 12.0677 30.9817 14.5339 30.9849 17.1064V19.7485C30.9873 19.7781 30.9873 19.8079 30.9849 19.8376C32.2463 20.7357 33.3738 21.8017 34.3349 23.0047C35.1932 24.0683 35.9119 25.2331 36.4741 26.472C37.4414 24.3566 37.9398 22.0642 37.9361 19.7461V17.1041C37.9305 12.7323 36.1577 8.54056 33.0058 5.44591C29.8538 2.35126 25.5791 0.605571 21.1168 0.590698V0.590698Z" fill="url(#paint0_linear)"/>
<path d="M17.8266 0.590698H17.8075C13.3385 0.595664 9.05415 2.33745 5.89459 5.43381C2.73502 8.53017 0.95839 12.7281 0.95459 17.1064L0.95459 19.7485C0.956942 22.3532 1.58789 24.9204 2.79595 27.2407C4.00401 29.5609 5.75493 31.5684 7.90583 33.0994C8.77015 33.7179 9.69233 34.2548 10.66 34.7029C10.8299 34.7826 10.9998 34.86 11.1721 34.9373C13.2086 35.79 15.3967 36.2409 17.6112 36.2642C17.6735 36.2642 17.7428 36.2642 17.8051 36.2642C17.9319 36.2642 18.0611 36.2642 18.1879 36.2642H18.2406C21.6493 36.1823 24.9512 35.0821 27.7043 33.1111C27.6853 30.6404 26.7015 28.2707 24.9549 26.4884L24.9405 26.4743C24.8975 26.5212 24.8496 26.5681 24.8042 26.6126C23.3507 28.045 21.4736 28.9924 19.4394 29.3203C18.8991 29.4139 18.3513 29.4602 17.8027 29.4587C17.7381 29.4633 17.6734 29.4633 17.6088 29.4587C16.309 29.4364 15.0264 29.162 13.8354 28.6514C12.6443 28.1408 11.5683 27.404 10.6696 26.4837L10.6552 26.4696C9.54469 25.3341 8.73254 23.9511 8.28868 22.4398C8.03369 21.5939 7.90079 20.7172 7.89386 19.8352C7.89148 19.8056 7.89148 19.7758 7.89386 19.7461V17.1041C7.89703 14.5312 8.94183 12.0646 10.799 10.2455C12.6562 8.42644 15.1741 7.40343 17.8003 7.40095C18.3489 7.40058 18.8965 7.44686 19.437 7.53926C21.7467 7.92023 23.8442 9.08991 25.3578 10.841C26.8715 12.5922 27.7036 14.8117 27.7067 17.1064V18.0113C27.8814 18.0817 28.056 18.159 28.2235 18.2458C29.1914 18.689 30.1123 19.2245 30.9729 19.8446C32.2343 20.7428 33.3618 21.8087 34.3229 23.0118C34.5437 21.9391 34.6543 20.8474 34.6531 19.7532V17.1041C34.65 12.7303 32.8771 8.53609 29.723 5.44071C26.5689 2.34533 22.2909 0.601245 17.8266 0.590698V0.590698Z" fill="#FCC71F"/>
<path d="M21.1191 0.590698H17.8266C17.7649 0.694027 17.7235 0.807721 17.7045 0.925936C13.9019 1.69258 10.4851 3.71988 8.02996 6.6663C5.57478 9.61271 4.2312 13.2982 4.22559 17.1017V19.7485C4.22804 22.8868 5.14224 25.9597 6.86131 28.6078C8.58038 31.256 11.0333 33.37 13.9334 34.7029C15.1409 35.2567 16.4118 35.6668 17.7189 35.9243L17.7907 36.2595H21.0162H21.0784C25.5482 36.2558 29.8338 34.5146 32.9944 31.4181C36.155 28.3216 37.9323 24.1229 37.9361 19.7438V17.1017C37.9304 12.7305 36.158 8.53943 33.0064 5.44522C29.8549 2.35102 25.5808 0.605571 21.1191 0.590698V0.590698ZM30.9849 19.7485C30.983 22.3216 29.939 24.7887 28.0821 26.6084C26.2252 28.4281 23.7072 29.4515 21.0808 29.454C21.0147 29.4575 20.9484 29.4575 20.8822 29.454C18.2903 29.4018 15.8223 28.3568 14.0076 26.5429C12.1928 24.7291 11.1758 22.2907 11.1744 19.7508V17.1088C11.1744 14.5353 12.2179 12.0673 14.0752 10.2476C15.9326 8.42793 18.4517 7.40563 21.0784 7.40563C23.7052 7.40563 26.2243 8.42793 28.0816 10.2476C29.939 12.0673 30.9825 14.5353 30.9825 17.1088V19.7485H30.9849Z" fill="url(#paint1_linear)"/>
<path d="M17.8098 0.590698C13.3405 0.595044 9.05551 2.33656 5.89543 5.43299C2.73535 8.52941 0.958391 12.7277 0.95459 17.1064L0.95459 19.7485C0.954296 24.0948 2.70323 28.2659 5.82196 31.3569C8.94068 34.4479 13.1776 36.2095 17.6136 36.2595H17.8122C22.2812 36.2552 26.5658 34.514 29.7258 31.4181C32.8858 28.3221 34.6631 24.1244 34.6675 19.7461V17.1064C34.6618 12.7279 32.8839 8.5303 29.7237 5.43421C26.5635 2.33812 22.279 0.596281 17.8098 0.590698V0.590698ZM27.7139 19.7461C27.712 22.3192 26.668 24.7864 24.8111 26.6061C22.9542 28.4257 20.4362 29.4491 17.8098 29.4516C17.7437 29.4551 17.6774 29.4551 17.6112 29.4516C15.018 29.4019 12.548 28.3583 10.7313 26.5446C8.91455 24.731 7.89587 22.2919 7.89386 19.7508V17.1088C7.89386 14.5353 8.93732 12.0673 10.7947 10.2476C12.652 8.42793 15.1712 7.40563 17.7979 7.40563C20.4246 7.40563 22.9437 8.42793 24.8011 10.2476C26.6584 12.0673 27.7019 14.5353 27.7019 17.1088V19.7485L27.7139 19.7461Z" fill="#08003F"/>
<path d="M34.3349 29.9391C33.3731 31.1402 32.2457 32.2046 30.9849 33.1016C29.97 33.8304 28.8733 34.4431 27.7163 34.9279V35.8328C27.7141 38.1277 26.8824 40.3477 25.3686 42.0991C23.8547 43.8504 21.7567 45.0198 19.4466 45.3999C18.906 45.4912 18.3584 45.5374 17.8099 45.5382C15.1822 45.5376 12.6623 44.5155 10.8031 42.6963C8.944 40.8771 7.89769 38.4094 7.89388 35.8351V33.1931C7.8915 33.1618 7.8915 33.1305 7.89388 33.0993C7.8983 32.2192 8.02879 31.344 8.28152 30.4994C8.72667 28.9848 9.54418 27.6003 10.6624 26.4672C10.7055 26.4203 10.7533 26.3734 10.7988 26.3289C11.7177 25.4261 12.8098 24.7102 14.0123 24.2226C15.2147 23.735 16.5037 23.4852 17.8051 23.4876C17.8721 23.4876 17.9415 23.4876 18.0037 23.4876C19.3039 23.5081 20.5869 23.7818 21.7782 24.2925C22.9695 24.8032 24.0452 25.5408 24.943 26.4625C26.7 24.6801 27.6897 22.3037 27.7067 19.8257C26.8438 19.2103 25.9232 18.6765 24.9573 18.2316C23.7509 17.6746 22.4797 17.2637 21.1718 17.0079L21.1 16.6703H17.8075C14.2477 16.6685 10.7797 17.777 7.90585 19.8351C5.51633 21.5372 3.62375 23.8231 2.41664 26.4649C1.44929 28.5803 0.950983 30.8727 0.954609 33.1907V35.8328C0.960278 40.204 2.73274 44.3951 5.88428 47.4893C9.03582 50.5835 13.3099 52.3289 17.7716 52.3438H17.7907H17.8051H17.8242H21.0546C21.0785 52.3438 21.1168 52.2102 21.1766 52.0109C24.9792 51.2446 28.3959 49.2173 30.8508 46.2708C33.3056 43.3242 34.6485 39.6386 34.6532 35.8351V33.1907C34.6593 32.0991 34.5527 31.0097 34.3349 29.9391ZM21.2771 23.4946C21.2101 23.4946 21.1455 23.4946 21.0785 23.4946C20.5332 23.4927 19.9887 23.5374 19.4514 23.6282C21.5458 23.9742 23.4706 24.9722 24.9406 26.4742C25.4157 25.9941 25.8376 25.466 26.1992 24.8989C24.7158 24.0088 23.0163 23.524 21.2771 23.4946Z" fill="url(#paint2_linear)"/>
<path d="M36.4742 26.472C35.9111 27.7104 35.1925 28.8752 34.335 29.9393C33.3732 31.1403 32.2458 32.2047 30.985 33.1017C30.9874 33.1314 30.9874 33.1612 30.985 33.1908V35.8329C30.9819 38.4054 29.9374 40.8716 28.0807 42.6906C26.224 44.5096 23.7067 45.5329 21.081 45.536C20.5324 45.5364 19.9847 45.4901 19.4443 45.3977C17.1346 45.0167 15.0371 43.8471 13.5234 42.0959C12.0098 40.3448 11.1777 38.1252 11.1746 35.8305V33.1885C11.1722 33.1588 11.1722 33.129 11.1746 33.0994C11.1878 31.3097 11.7089 29.5588 12.6797 28.0427C13.043 27.4753 13.4648 26.9458 13.9383 26.4626C13.9814 26.4157 14.0293 26.3689 14.0747 26.3243C15.5347 24.893 17.416 23.946 19.4539 23.6166C19.9914 23.527 20.5357 23.4823 21.081 23.483C21.148 23.483 21.2126 23.483 21.2796 23.483C23.0197 23.5134 24.7199 23.9991 26.2041 24.8896C27.1811 23.3745 27.7028 21.6204 27.7092 19.8282C27.7116 19.8001 27.7116 19.7719 27.7092 19.7438V18.009C25.6755 17.1529 23.4882 16.7018 21.2748 16.6821C21.2126 16.6821 21.1576 16.6821 21.0954 16.6821H21.0762C17.8203 16.6871 14.6353 17.6138 11.9044 19.3506C9.17347 21.0875 7.01301 23.5605 5.68299 26.472C5.17378 27.5807 4.7941 28.7423 4.55117 29.9346C4.33017 31.0088 4.21954 32.102 4.22096 33.1979V35.8399C4.22739 40.144 5.94596 44.2762 9.01176 47.3591C12.0776 50.4419 16.2491 52.2326 20.6407 52.351C20.7867 52.351 20.9303 52.351 21.0762 52.351C25.5454 52.3454 29.8299 50.6035 32.9901 47.5074C36.1503 44.4113 37.9282 40.2138 37.9339 35.8352V33.1908C37.9359 30.8755 37.4384 28.5859 36.4742 26.472Z" fill="#08003F"/>
<path d="M59.7617 23.8417C59.6808 23.9524 59.5831 24.0504 59.4721 24.1324C59.3489 24.207 59.2051 24.2422 59.0606 24.2332C58.895 24.2321 58.7332 24.185 58.594 24.0972C58.4456 24.0058 58.2733 23.9073 58.0795 23.8018C57.8596 23.6827 57.6289 23.5838 57.3904 23.5064C57.0693 23.4075 56.7337 23.3616 56.3973 23.3705C55.9482 23.3598 55.5026 23.4513 55.0956 23.6377C54.731 23.8144 54.4169 24.077 54.1815 24.402C53.925 24.7679 53.7423 25.1785 53.6431 25.6116C53.5206 26.1367 53.4619 26.6742 53.4685 27.2128C53.4685 28.4631 53.7245 29.4196 54.2366 30.0823C54.4772 30.4037 54.7945 30.6625 55.1607 30.8362C55.5269 31.0098 55.9309 31.0931 56.3375 31.0786C56.6037 31.0828 56.8694 31.0568 57.1295 31.0012C57.3299 30.9568 57.5248 30.8916 57.711 30.8067C57.8633 30.7347 58.0077 30.6475 58.1417 30.5464C58.2637 30.4527 58.381 30.3636 58.4863 30.2862C58.5884 30.2104 58.6982 30.1452 58.8141 30.0916C58.9294 30.0388 59.0554 30.0124 59.1826 30.0143C59.2995 30.0097 59.4157 30.0331 59.5212 30.0825C59.6267 30.132 59.7183 30.2059 59.788 30.2979L60.7451 31.4842C60.4138 31.8663 60.0315 32.203 59.6085 32.4852C59.2184 32.7427 58.7983 32.9537 58.3571 33.1135C57.9321 33.266 57.4917 33.3737 57.0434 33.4346C56.6064 33.4932 56.166 33.523 55.7249 33.5237C54.9776 33.5275 54.2371 33.384 53.5474 33.1017C52.8642 32.8229 52.2492 32.405 51.7432 31.8757C51.2035 31.302 50.7862 30.6285 50.5157 29.8947C50.2002 29.0358 50.0461 28.1279 50.061 27.2152C50.0551 26.3733 50.1901 25.5362 50.4607 24.7372C50.7089 24.0012 51.1087 23.3229 51.6355 22.7445C52.168 22.1728 52.8213 21.7216 53.5498 21.4224C54.3894 21.0913 55.2892 20.9318 56.1939 20.9535C57.0515 20.936 57.9038 21.0892 58.6992 21.4036C59.4254 21.7097 60.0831 22.1526 60.6351 22.707L59.7617 23.8417Z" fill="#08003F"/>
<path d="M65.7653 22.3132C65.9961 22.1097 66.2408 21.9217 66.4975 21.7505C66.7533 21.5798 67.0248 21.433 67.3087 21.3121C67.6042 21.1869 67.9121 21.0918 68.2275 21.0285C68.5763 20.9588 68.9316 20.925 69.2876 20.9277C69.907 20.9165 70.5219 21.0339 71.0918 21.2723C71.6018 21.4909 72.055 21.8194 72.4174 22.2335C72.7842 22.6647 73.0569 23.1649 73.219 23.7033C73.4067 24.3113 73.4987 24.9437 73.4918 25.5788V33.3455H70.1729V25.5765C70.2097 25.0101 70.0401 24.4493 69.6943 23.994C69.5144 23.7996 69.2915 23.6478 69.0428 23.5503C68.794 23.4528 68.5258 23.4122 68.2586 23.4314C67.8018 23.4289 67.3505 23.53 66.9402 23.7268C66.5055 23.9396 66.1087 24.2199 65.7653 24.5567V33.3432H62.4153V15.6647H65.7653V22.3132Z" fill="#08003F"/>
<path d="M75.8704 22.8102C76.5795 22.178 77.4055 21.6846 78.3039 21.3567C79.2251 21.035 80.1974 20.8762 81.1754 20.8879C81.8565 20.877 82.533 20.9981 83.1662 21.2442C83.7285 21.4665 84.2359 21.8038 84.6546 22.2335C85.0701 22.6689 85.3895 23.1837 85.5926 23.7456C85.8159 24.3618 85.9269 25.0117 85.9204 25.6656V33.3479H84.3961C84.1495 33.3615 83.9033 33.3165 83.6783 33.2167C83.4804 33.0886 83.3367 32.8945 83.2739 32.6704L83.0083 31.8874C82.7163 32.1372 82.4112 32.372 82.0942 32.5907C81.808 32.7923 81.5017 32.9651 81.1801 33.1065C80.8567 33.2482 80.518 33.3535 80.1704 33.4206C79.7761 33.4947 79.3754 33.5308 78.9739 33.5285C78.4655 33.5346 77.9593 33.4626 77.4736 33.3151C77.0436 33.1849 76.646 32.9686 76.3059 32.6798C75.9737 32.3923 75.7148 32.0326 75.5498 31.6295C75.3647 31.1693 75.2745 30.6777 75.2842 30.1831C75.2898 29.7112 75.4104 29.2474 75.6359 28.8304C75.9197 28.3266 76.3319 27.9034 76.8323 27.602C77.5353 27.1789 78.3039 26.8709 79.1079 26.6901C80.2768 26.4221 81.4729 26.2853 82.6733 26.2822V25.6539C82.6733 24.8881 82.5082 24.3246 82.178 23.9636C81.9931 23.7769 81.7688 23.6319 81.5209 23.5387C81.2729 23.4456 81.0072 23.4066 80.7422 23.4244C80.3522 23.4148 79.9633 23.4687 79.5913 23.5838C79.3145 23.6778 79.0456 23.793 78.7873 23.9285L78.1532 24.2684C77.9371 24.379 77.6958 24.4338 77.4521 24.4278C77.2428 24.4351 77.0369 24.375 76.8658 24.2567C76.7102 24.1449 76.5771 24.0058 76.4734 23.8464L75.8704 22.8102ZM82.6709 28.2303C81.9891 28.2558 81.3097 28.3247 80.637 28.4366C80.1912 28.5066 79.7573 28.636 79.3472 28.8211C79.0768 28.939 78.8432 29.1251 78.67 29.3602C78.5382 29.5555 78.469 29.7849 78.4714 30.019C78.4714 30.4879 78.6054 30.8301 78.8758 31.0271C79.211 31.242 79.6078 31.3455 80.0076 31.3224C80.5025 31.3336 80.9935 31.2342 81.4434 31.0318C81.8996 30.8013 82.311 30.4942 82.6589 30.1245V28.2303H82.6709Z" fill="#08003F"/>
<path d="M92.3785 17.6409C92.3805 17.9071 92.3225 18.1705 92.2086 18.4122C92.0982 18.6475 91.9441 18.8605 91.754 19.0405C91.5627 19.2238 91.3367 19.3687 91.0888 19.4671C90.83 19.5712 90.5526 19.6238 90.2728 19.6219C90.0047 19.6231 89.7392 19.5705 89.4928 19.4671C89.2505 19.3673 89.0303 19.2224 88.8443 19.0405C88.6585 18.8578 88.5085 18.6432 88.4016 18.4075C88.2912 18.1649 88.2357 17.9018 88.2389 17.6362C88.2374 17.3693 88.2928 17.105 88.4016 16.8603C88.5079 16.6235 88.6579 16.4081 88.8443 16.225C89.03 16.045 89.2493 15.9017 89.4904 15.803C89.7369 15.6999 90.0024 15.6472 90.2704 15.6483C90.8229 15.6442 91.3548 15.853 91.7516 16.2296C91.9409 16.4129 92.0949 16.6282 92.2062 16.865C92.3205 17.1083 92.3793 17.3731 92.3785 17.6409ZM91.9789 21.1152V33.3408H88.6289V21.1152H91.9789Z" fill="#08003F"/>
<path d="M97.9323 22.5383C98.1775 22.3045 98.438 22.0868 98.7124 21.8866C98.9812 21.69 99.2689 21.5197 99.5714 21.3778C99.8847 21.2313 100.214 21.1197 100.552 21.0449C100.928 20.9635 101.312 20.9242 101.696 20.9277C102.316 20.9165 102.931 21.034 103.5 21.2723C104.011 21.4909 104.464 21.8195 104.826 22.2335C105.196 22.664 105.472 23.1642 105.637 23.7034C105.825 24.3113 105.917 24.9438 105.91 25.5789V33.3456H102.582V25.5765C102.618 25.0102 102.449 24.4494 102.103 23.9941C101.923 23.7996 101.7 23.6479 101.451 23.5504C101.203 23.4529 100.935 23.4122 100.667 23.4315C100.21 23.4289 99.7592 23.53 99.3489 23.7269C98.9142 23.9397 98.5174 24.2199 98.174 24.5567V33.3433H94.824V21.1176H96.8818C97.0688 21.1019 97.2556 21.1503 97.4102 21.2547C97.5647 21.359 97.6774 21.5128 97.7289 21.6896L97.9323 22.5383Z" fill="#08003F"/>
<path d="M111.706 22.7165C111.952 22.45 112.22 22.2023 112.505 21.9757C112.788 21.7507 113.094 21.5559 113.419 21.3943C114.116 21.0458 114.888 20.8688 115.671 20.8786C116.311 20.8718 116.944 21.0166 117.515 21.3005C118.085 21.5924 118.576 22.0106 118.951 22.5219C119.384 23.1149 119.703 23.7797 119.894 24.4841C120.132 25.3499 120.246 26.2438 120.234 27.1402C120.242 28.0023 120.114 28.8604 119.853 29.6838C119.624 30.4178 119.256 31.1033 118.769 31.7046C118.312 32.2645 117.735 32.7197 117.08 33.0385C116.396 33.365 115.644 33.5296 114.883 33.5191C114.294 33.5347 113.707 33.4342 113.158 33.2237C112.691 33.0297 112.263 32.7568 111.892 32.4173V37.2911H108.542V21.1153H110.6C110.787 21.0997 110.974 21.1485 111.129 21.2533C111.284 21.3581 111.396 21.5124 111.447 21.6897L111.706 22.7165ZM111.899 30.1152C112.173 30.4418 112.524 30.6984 112.921 30.863C113.297 31.0072 113.697 31.0797 114.101 31.0763C114.481 31.0785 114.857 30.9985 115.202 30.8419C115.543 30.6833 115.837 30.4411 116.056 30.1386C116.317 29.7668 116.503 29.35 116.606 28.9102C116.745 28.3271 116.81 27.7295 116.8 27.1309C116.809 26.5501 116.755 25.97 116.637 25.4007C116.554 24.9936 116.399 24.6039 116.178 24.2497C116.003 23.9771 115.754 23.7573 115.46 23.6144C115.164 23.481 114.841 23.4145 114.515 23.4198C113.999 23.4026 113.487 23.5191 113.031 23.7574C112.594 24.0147 112.21 24.3503 111.899 24.7467V30.1081V30.1152Z" fill="#00BDD0"/>
<path d="M125.515 23.1314C125.857 22.5026 126.321 21.9452 126.881 21.4903C127.396 21.0873 128.038 20.8733 128.697 20.8855C129.189 20.8646 129.674 21.0021 130.078 21.277L129.86 23.6963C129.838 23.8228 129.772 23.938 129.673 24.0222C129.571 24.0864 129.45 24.1175 129.329 24.1113C129.142 24.1056 128.956 24.0875 128.771 24.0574C128.547 24.0232 128.321 24.0052 128.094 24.0035C127.816 23.9991 127.54 24.0435 127.278 24.1347C127.045 24.2182 126.829 24.3429 126.642 24.5028C126.446 24.6717 126.277 24.8675 126.139 25.0842C125.979 25.3341 125.839 25.5959 125.72 25.8672V33.3502H122.37V21.1176H124.342C124.59 21.0913 124.839 21.1547 125.043 21.2958C125.204 21.4702 125.305 21.6902 125.33 21.924L125.515 23.1314Z" fill="#00BDD0"/>
<path d="M143.076 21.1153L136.347 36.6253C136.263 36.8187 136.133 36.9893 135.967 37.1223C135.752 37.2514 135.5 37.3097 135.249 37.2888H132.777L135.136 32.3657L130.126 21.1153H133.055C133.275 21.1013 133.494 21.1644 133.672 21.2935C133.815 21.4025 133.927 21.5453 133.997 21.7084L136.357 27.5505C136.445 27.7849 136.524 28.0193 136.596 28.2538C136.668 28.4882 136.73 28.7226 136.795 28.9571C136.941 28.4882 137.106 28.0193 137.29 27.5505L139.501 21.7084C139.567 21.5323 139.691 21.3825 139.853 21.2818C140.017 21.1725 140.211 21.1145 140.41 21.1153H143.076Z" fill="#00BDD0"/>
</g>
<defs>
<linearGradient id="paint0_linear" x1="4.22323" y1="18.4286" x2="37.9361" y2="18.4286" gradientUnits="userSpaceOnUse">
<stop stop-color="#FCC71F"/>
<stop offset="0.24" stop-color="#C69B26"/>
<stop offset="0.78" stop-color="#402D38"/>
<stop offset="1" stop-color="#08003F"/>
</linearGradient>
<linearGradient id="paint1_linear" x1="4.22559" y1="18.4263" x2="37.9361" y2="18.4263" gradientUnits="userSpaceOnUse">
<stop stop-color="#08003F"/>
<stop offset="1" stop-color="#00FFFF"/>
</linearGradient>
<linearGradient id="paint2_linear" x1="-33552" y1="-97052.4" x2="-38298.8" y2="-97052.4" gradientUnits="userSpaceOnUse">
<stop stop-color="#08003F"/>
<stop offset="1" stop-color="#00FFFF"/>
</linearGradient>
<clipPath id="clip0">
<rect width="142.135" height="51.7579" fill="white" transform="translate(0.95459 0.590698)"/>
</clipPath>
</defs>
</svg>
