<svg width="39" height="39" viewBox="0 0 39 39" fill="none" xmlns="http://www.w3.org/2000/svg">
<g clip-path="url(#clip0)">
<path d="M37.9202 14.7364L28.5048 5.32105C27.9794 4.79585 27.1278 4.79601 26.6026 5.32136C26.3505 5.57356 26.2089 5.91544 26.2088 6.27207V10.3072H16.7934C16.0505 10.3072 15.4483 10.9094 15.4483 11.6523C15.4483 12.3952 16.0505 12.9974 16.7934 12.9974H27.5538C28.2967 12.9974 28.8989 12.3952 28.8989 11.6523V9.51895L35.0674 15.6874L28.8989 21.8558V19.7225C28.8989 18.9796 28.2967 18.3774 27.5538 18.3774H12.7582V14.3423C12.7581 13.5994 12.1557 12.9974 11.4129 12.9975C11.0564 12.9976 10.7144 13.1392 10.4622 13.3914L1.04692 22.8067C0.521796 23.332 0.521796 24.1834 1.04692 24.7086L10.4623 34.124C10.7145 34.3763 11.0565 34.5181 11.4132 34.5181C11.59 34.5187 11.7652 34.4839 11.9284 34.4159C12.4309 34.2075 12.7584 33.7171 12.7582 33.1731V29.1379H22.1736C22.9165 29.1379 23.5187 28.5357 23.5187 27.7928C23.5187 27.05 22.9165 26.4478 22.1736 26.4478H11.4132C10.6704 26.4478 10.0682 27.05 10.0682 27.7928V29.9261L3.89974 23.7577L10.0682 17.5893V19.7225C10.0682 20.4654 10.6704 21.0676 11.4132 21.0676H26.2088V25.1028C26.2089 25.8456 26.8113 26.4477 27.5541 26.4475C27.9106 26.4474 28.2526 26.3058 28.5048 26.0537L37.9202 16.6383C38.4452 16.113 38.4452 15.2616 37.9202 14.7364Z" fill="#3C78E0"/>
</g>
<defs>
<clipPath id="clip0">
<rect x="0.653076" y="0.89209" width="37.6608" height="37.6608" fill="white"/>
</clipPath>
</defs>
</svg>
