<svg width="37" height="37" viewBox="0 0 37 37" fill="none" xmlns="http://www.w3.org/2000/svg">
<rect x="2.39126" y="1.53213" width="33.1379" height="33.1379" stroke="#3C78E0" stroke-width="2.8" stroke-linecap="round" stroke-linejoin="round"/>
<path d="M10.3666 15.4075L10.5865 15.6099L10.3666 15.4075L7.87001 18.1197L8.09073 18.3229L7.87001 18.1197C7.6111 18.401 7.6111 18.8475 7.87001 19.1288L8.09073 18.9256L7.87001 19.1288L10.3666 21.841C10.6386 22.1365 11.0908 22.1365 11.3628 21.841C11.6217 21.5597 11.6217 21.1132 11.3628 20.8319L9.99912 19.3504L27.9214 19.3504L26.5576 20.8319C26.2987 21.1132 26.2987 21.5597 26.5576 21.841C26.8297 22.1365 27.2819 22.1365 27.5539 21.841L30.0505 19.1288C30.3094 18.8475 30.3094 18.401 30.0505 18.1197L27.5539 15.4075C27.2819 15.112 26.8297 15.112 26.5576 15.4075C26.2987 15.6888 26.2987 16.1353 26.5576 16.4166L27.9214 17.8981L9.99912 17.8981L11.3628 16.4166C11.6217 16.1353 11.6217 15.6888 11.3628 15.4075C11.0908 15.112 10.6386 15.112 10.3666 15.4075Z" fill="#3C78E0" stroke="#3C78E0" stroke-width="0.6"/>
<path d="M15.7437 27.2179L15.9461 26.998L15.7437 27.2179L18.4559 29.7145L18.6591 29.4937L18.4559 29.7145C18.7372 29.9734 19.1837 29.9734 19.465 29.7145L19.2618 29.4937L19.465 29.7145L22.1772 27.2179C22.4727 26.9459 22.4727 26.4937 22.1772 26.2216C21.8959 25.9627 21.4494 25.9627 21.1681 26.2216L19.6866 27.5854L19.6866 9.66312L21.1681 11.0268C21.4494 11.2857 21.8959 11.2857 22.1772 11.0268C22.4727 10.7548 22.4727 10.3026 22.1772 10.0306L19.465 7.53401C19.1837 7.2751 18.7372 7.2751 18.4559 7.53401L15.7437 10.0306C15.4481 10.3026 15.4481 10.7548 15.7437 11.0268C16.0249 11.2857 16.4715 11.2857 16.7527 11.0268L18.2342 9.66312L18.2342 27.5854L16.7527 26.2216C16.4715 25.9627 16.0249 25.9627 15.7437 26.2216C15.4481 26.4937 15.4481 26.9459 15.7437 27.2179Z" fill="#3C78E0" stroke="#3C78E0" stroke-width="0.6"/>
</svg>
